max v2;#N vpatcher 9 48 610 466;#P origin 3 -4;#P window setfont "Sans Serif" 9.;#P hidden newex 655 38 88 196617 MOT-Loader MSP;#P hidden message 565 15 29 196617 MOT;#P window setfont "Sans Serif" 14.;#P message 311 15 20 196622 O;#P objectname L[14];#P window setfont "Sans Serif" 9.;#P hidden newex 597 15 105 196617 bgcolor 170 170 255;#B color 5;#P user textedit 17 36 382 54 2 3 9 Object within an object;#P objectname thes[0];#P hidden number 626 58 35 9 0 0 0 3 0 0 0 221 221 221 222 222 222 0 0 0;#P hidden newex 626 76 86 196617 sprintf script hidden connect obj[%i] 2 phelp 0;#P window setfont "Sans Serif" 14.;#P message 542 15 20 196622 Z;#B color 5;#P objectname L[25];#P message 521 15 20 196622 Y;#B color 5;#P objectname L[24];#P message 500 15 20 196622 X;#B color 5;#P objectname L[23];#P message 479 15 20 196622 W;#B color 5;#P objectname L[22];#P message 458 15 20 196622 V;#B color 5;#P objectname L[21];#P message 437 15 20 196622 U;#B color 5;#P objectname L[20];#P message 416 15 20 196622 T;#B color 5;#P objectname L[19];#P message 395 15 20 196622 S;#B color 5;#P objectname L[18];#P message 374 15 20 196622 R;#B color 5;#P objectname L[17];#P message 353 15 20 196622 Q;#B color 5;#P objectname L[16];#P message 332 15 20 196622 P;#B color 5;#P objectname L[15];#P message 290 15 20 196622 N;#B color 5;#P objectname L[13];#P message 269 15 20 196622 M;#B color 5;#P objectname L[12];#P message 248 15 20 196622 L;#B color 5;#P objectname L[11];#P message 227 15 20 196622 K;#B color 5;#P objectname L[10];#P message 206 15 20 196622 J;#B color 5;#P objectname L[9];#P message 185 15 20 196622 I;#B color 5;#P objectname L[8];#P message 164 15 20 196622 H;#B color 5;#P objectname L[7];#P message 143 15 20 196622 G;#B color 5;#P objectname L[6];#P message 122 15 20 196622 F;#B color 5;#P objectname L[5];#P message 101 15 20 196622 E;#B color 5;#P objectname L[4];#P message 80 15 20 196622 D;#B color 5;#P objectname L[3];#P message 59 15 20 196622 C;#B color 5;#P objectname L[2];#P message 38 15 20 196622 B;#B color 5;#P objectname L[1];#P message 17 15 20 196622 A;#B color 5;#P objectname L[0];#P window setfont "Sans Serif" 9.;#P user textedit 383 36 562 54 2 3 9 bpatcher \, patcher;#P objectname obj[0];#P user textedit 383 50 562 68 2 3 9 counter;#P objectname obj[1];#P user textedit 383 64 562 82 2 3 9 histo;#P objectname obj[2];#P user textedit 383 78 562 96 2 3 9 number box;#P objectname obj[3];#P user textedit 383 92 562 110 2 3 9 ctlin \, ctlout;#P objectname obj[4];#P user textedit 383 106 562 124 2 3 9 decode \, toggle;#P objectname obj[5];#P user textedit 383 120 562 138 2 3 9 opendialog;#P objectname obj[6];#P user textedit 383 134 562 152 2 3 9 savedialog;#P objectname obj[7];#P user textedit 383 148 562 166 2 3 9 pcontrol;#P objectname obj[8];#P user textedit 383 162 562 180 2 3 9 folder \, pcontrol;#P objectname obj[9];#P user textedit 383 176 562 194 2 3 9 gestalt;#P objectname obj[10];#P user textedit 383 190 562 208 2 3 9 expr;#P objectname obj[11];#P user textedit 383 204 562 222 2 3 9 expr \, ||;#P objectname obj[12];#P user textedit 383 218 562 248 2 3 9 trigger;#P objectname obj[13];#P user textedit 383 244 562 262 2 3 9 fswap \, message \, swap;#P objectname obj[14];#P user textedit 383 258 562 276 2 3 9 match;#P objectname obj[15];#P user textedit 383 272 562 290 2 3 9 bpatcher \, outlet \, patcher;#P objectname obj[16];#P user textedit 383 286 562 304 2 3 9 spray \, unpack;#P objectname obj[17];#P comment 0 1 100 196617;#P user textedit 383 300 562 318 2 3 9 tiout;#P objectname obj[18];#P user textedit 383 314 562 332 2 3 9 pak;#P objectname obj[19];#P user textedit 383 328 562 346 2 3 9 midiout;#P objectname obj[20];#P user textedit 383 342 562 360 2 3 9 nslider;#P objectname obj[21];#P user textedit 383 356 562 374 2 3 9 screensize;#P objectname obj[22];#P user textedit 383 370 562 388 2 3 9 oval \, ring;#P objectname obj[23];#N thispatcher;#Q end;#P hidden newobj 565 57 59 196617 thispatcher;#P hidden newex 565 38 88 196617 MOT-Loader Max;#P hidden newex 575 223 38 196617 phelp;#P objectname phelp;#P user textedit 17 50 382 68 2 3 9 Occurrences \, keep track of how many bang messages have occurred;#P objectname thes[1];#P user textedit 17 64 382 82 2 3 9 Occurrences \, keep track of how many times a number has occurred;#P objectname thes[2];#P user textedit 17 78 382 96 2 3 9 Octal \, display numbers in Roland octal format;#P objectname thes[3];#P user textedit 17 92 382 110 2 3 9 OMNI Mode On/Off (MIDI Mode message);#P objectname thes[4];#P user textedit 17 106 382 124 2 3 9 On/Off switch;#P objectname thes[5];#P user textedit 17 120 382 138 2 3 9 Open a dialog to ask for a file or folder;#P objectname thes[6];#P user textedit 17 134 382 152 2 3 9 Open a dialog to ask for a filename for saving;#P objectname thes[7];#P user textedit 17 148 382 166 2 3 9 Open a patcher automatically;#P objectname thes[8];#P user textedit 17 162 382 180 2 3 9 Open patcher files automatically;#P objectname thes[9];#P user textedit 17 176 382 194 2 3 9 Operating system and hardware information;#P objectname thes[10];#P user textedit 17 190 382 208 2 3 9 Or \, bitwise exclusive or (XOR) operation;#P objectname thes[11];#P user textedit 17 204 382 222 2 3 9 Or \, true if one statement or the other is true (logical union);#P objectname thes[12];#P user textedit 17 218 382 248 2 3 9 Order \, send a number \, bang \, list \, or symbol to different places in a specific order;#P objectname thes[13];#P user textedit 17 244 382 262 2 3 9 Order \, switch order of number messages;#P objectname thes[14];#P user textedit 17 258 382 276 2 3 9 Ordered set of numbers \, detect;#P objectname thes[15];#P user textedit 17 272 382 290 2 3 9 Outlet for a subpatch object;#P objectname thes[16];#P user textedit 17 286 382 304 2 3 9 Outlet \, send items of an incoming list out individual outlets;#P objectname thes[17];#P user textedit 17 300 382 318 2 3 9 Outlet \, send messages out one of the outlets of a timeline object;#P objectname thes[18];#P user textedit 17 314 382 332 2 3 9 Output a combined list when any element changes;#P objectname thes[19];#P user textedit 17 328 382 346 2 3 9 Output MIDI data byte by byte;#P objectname thes[20];#P user textedit 17 342 382 360 2 3 9 Output numbers from a notation display onscreen;#P objectname thes[21];#P user textedit 17 356 382 374 2 3 9 Output the monitor size;#P objectname thes[22];#P user textedit 17 370 382 388 2 3 9 Oval or circle \, drawing in a graphic window;#P objectname thes[23];#P user ubutton 0 2 582 51 0 0;#P hidden connect 0 1 82 0;#P hidden connect 76 0 25 0;#P hidden connect 75 0 25 0;#P hidden connect 74 0 25 0;#P hidden connect 73 0 25 0;#P hidden connect 72 0 25 0;#P hidden connect 71 0 25 0;#P hidden connect 70 0 25 0;#P hidden connect 69 0 25 0;#P hidden connect 68 0 25 0;#P hidden connect 67 0 25 0;#P hidden connect 66 0 25 0;#P hidden connect 65 0 25 0;#P hidden connect 64 0 25 0;#P hidden connect 63 0 25 0;#P hidden connect 62 0 25 0;#P hidden connect 61 0 25 0;#P hidden connect 60 0 25 0;#P hidden connect 59 0 25 0;#P hidden connect 58 0 25 0;#P hidden connect 57 0 25 0;#P hidden connect 56 0 25 0;#P hidden connect 55 0 25 0;#P hidden connect 54 0 25 0;#P hidden connect 53 0 25 0;#P hidden connect 52 0 25 0;#P hidden connect 82 0 25 0;#P hidden connect 83 0 26 0;#P hidden connect 25 0 26 0;#P hidden connect 77 0 26 0;#P hidden connect 27 2 24 0;#P hidden connect 28 2 24 0;#P hidden connect 29 2 24 0;#P hidden connect 30 2 24 0;#P hidden connect 31 2 24 0;#P hidden connect 32 2 24 0;#P hidden connect 34 2 24 0;#P hidden connect 35 2 24 0;#P hidden connect 36 2 24 0;#P hidden connect 37 2 24 0;#P hidden connect 38 2 24 0;#P hidden connect 39 2 24 0;#P hidden connect 40 2 24 0;#P hidden connect 41 2 24 0;#P hidden connect 42 2 24 0;#P hidden connect 43 2 24 0;#P hidden connect 44 2 24 0;#P hidden connect 45 2 24 0;#P hidden connect 46 2 24 0;#P hidden connect 47 2 24 0;#P hidden connect 48 2 24 0;#P hidden connect 49 2 24 0;#P hidden connect 50 2 24 0;#P hidden connect 51 2 24 0;#P hidden connect 78 0 77 0;#P hidden connect 81 0 83 0;#P pop;