max v2;#N vpatcher 9 48 611 428;#P origin 3 -4;#P window setfont "Sans Serif" 9.;#P hidden newex 655 38 88 196617 MOT-Loader MSP;#P hidden message 565 15 29 196617 MOT;#P window setfont "Sans Serif" 14.;#P message 248 15 20 196622 L;#P objectname L[11];#P window setfont "Sans Serif" 9.;#P hidden newex 597 15 105 196617 bgcolor 170 170 255;#B color 5;#P user textedit 17 36 382 54 2 3 9 Label objects in a patcher window;#P objectname thes[0];#P hidden number 626 58 35 9 0 0 0 3 0 0 0 221 221 221 222 222 222 0 0 0;#P hidden newex 626 76 86 196617 sprintf script hidden connect obj[%i] 2 phelp 0;#P window setfont "Sans Serif" 14.;#P message 542 15 20 196622 Z;#B color 5;#P objectname L[25];#P message 521 15 20 196622 Y;#B color 5;#P objectname L[24];#P message 500 15 20 196622 X;#B color 5;#P objectname L[23];#P message 479 15 20 196622 W;#B color 5;#P objectname L[22];#P message 458 15 20 196622 V;#B color 5;#P objectname L[21];#P message 437 15 20 196622 U;#B color 5;#P objectname L[20];#P message 416 15 20 196622 T;#B color 5;#P objectname L[19];#P message 395 15 20 196622 S;#B color 5;#P objectname L[18];#P message 374 15 20 196622 R;#B color 5;#P objectname L[17];#P message 353 15 20 196622 Q;#B color 5;#P objectname L[16];#P message 332 15 20 196622 P;#B color 5;#P objectname L[15];#P message 311 15 20 196622 O;#B color 5;#P objectname L[14];#P message 290 15 20 196622 N;#B color 5;#P objectname L[13];#P message 269 15 20 196622 M;#B color 5;#P objectname L[12];#P message 227 15 20 196622 K;#B color 5;#P objectname L[10];#P message 206 15 20 196622 J;#B color 5;#P objectname L[9];#P message 185 15 20 196622 I;#B color 5;#P objectname L[8];#P message 164 15 20 196622 H;#B color 5;#P objectname L[7];#P message 143 15 20 196622 G;#B color 5;#P objectname L[6];#P message 122 15 20 196622 F;#B color 5;#P objectname L[5];#P message 101 15 20 196622 E;#B color 5;#P objectname L[4];#P message 80 15 20 196622 D;#B color 5;#P objectname L[3];#P message 59 15 20 196622 C;#B color 5;#P objectname L[2];#P message 38 15 20 196622 B;#B color 5;#P objectname L[1];#P message 17 15 20 196622 A;#B color 5;#P objectname L[0];#P window setfont "Sans Serif" 9.;#P user textedit 383 36 562 54 2 3 9 comment \, umenu;#P objectname obj[0];#P user textedit 383 50 562 68 2 3 9 serial \, vdp;#P objectname obj[1];#P user textedit 383 64 562 82 2 3 9 bucket;#P objectname obj[2];#P user textedit 383 78 562 96 2 3 9 split;#P objectname obj[3];#P user textedit 383 92 562 110 2 3 9 expr \, minimum \, number \, trough \, < <=;#P objectname obj[4];#P user textedit 383 106 562 124 2 3 9 speedlim;#P objectname obj[5];#P user textedit 383 120 562 138 2 3 9 umenu \, ubumenu;#P objectname obj[6];#P user textedit 383 134 562 152 2 3 9 match;#P objectname obj[7];#P user textedit 383 148 562 166 2 3 9 fontlist;#P objectname obj[8];#P user textedit 383 162 562 180 2 3 9 folder;#P objectname obj[9];#P user textedit 383 176 562 194 2 3 9 cycle \, iter \, message \, spray \, unpack;#P objectname obj[10];#P user textedit 383 190 562 208 2 3 9 append \, pack \, prepend \, thresh;#P objectname obj[11];#P user textedit 383 204 562 222 2 3 9 vexpr;#P objectname obj[12];#P user textedit 383 218 562 236 2 3 9 multislider;#P objectname obj[13];#P user textedit 383 232 562 250 2 3 9 coll \, umenu;#P objectname obj[14];#P user textedit 383 246 562 264 2 3 9 pcontrol;#P objectname obj[15];#P user textedit 383 260 562 278 2 3 9 pv;#P objectname obj[16];#P user textedit 383 274 562 292 2 3 9 Float \, number box \, pv;#P objectname obj[17];#P comment 0 1 100 196617;#P user textedit 383 288 562 306 2 3 9 Int \, number box \, pv;#P objectname obj[18];#P user textedit 383 302 562 320 2 3 9 expr;#P objectname obj[19];#P user textedit 383 316 562 334 2 3 9 counter;#P objectname obj[20];#P user textedit 383 330 562 348 2 3 9 counter \, metro \, uzi;#P objectname obj[21];#N thispatcher;#Q end;#P hidden newobj 565 57 59 196617 thispatcher;#P hidden newex 565 38 88 196617 MOT-Loader Max;#P hidden newex 571 201 38 196617 phelp;#P objectname phelp;#P user textedit 17 50 382 68 2 3 9 Laser disc player \, control via the serial port;#P objectname thes[1];#P user textedit 17 64 382 82 2 3 9 Last (few) of a series of numbers are retained and sent out separate outlets;#P objectname thes[2];#P user textedit 17 78 382 96 2 3 9 Less than and greater than comparisons \, redirect numbers based on;#P objectname thes[3];#P user textedit 17 92 382 110 2 3 9 Less than \, find the lesser of two numbers;#P objectname thes[4];#P user textedit 17 106 382 124 2 3 9 Limit the rate at which messages are sent;#P objectname thes[5];#P user textedit 17 120 382 138 2 3 9 List of indexed messages in a pop-up menu;#P objectname thes[6];#P user textedit 17 134 382 152 2 3 9 List of numbers \, detect a specific ordered set within;#P objectname thes[7];#P user textedit 17 148 382 166 2 3 9 List processing zl List system fonts;#P objectname thes[8];#P user textedit 17 162 382 180 2 3 9 List the files in a specific folder;#P objectname thes[9];#P user textedit 17 176 382 194 2 3 9 List \, break up items into individual messages;#P objectname thes[10];#P user textedit 17 190 382 208 2 3 9 List \, combine separate items into;#P objectname thes[11];#P user textedit 17 204 382 222 2 3 9 List \, evaluate a mathematical expression multiple times using lists of numbers as input;#P objectname thes[12];#P user textedit 17 218 382 236 2 3 9 List \, graphically display and send out a list of number values;#P objectname thes[13];#P user textedit 17 232 382 250 2 3 9 Lists \, array of;#P objectname thes[14];#P user textedit 17 246 382 264 2 3 9 Load a patcher automatically;#P objectname thes[15];#P user textedit 17 260 382 278 2 3 9 Local variable for any message \, known only to one patcher and its subpatches;#P objectname thes[16];#P user textedit 17 274 382 292 2 3 9 Local variable for storing a floating-point number (with a fractional part);#P objectname thes[17];#P user textedit 17 288 382 306 2 3 9 Local variable for storing an integer value;#P objectname thes[18];#P user textedit 17 302 382 320 2 3 9 Logarithm of a number \, solve for;#P objectname thes[19];#P user textedit 17 316 382 334 2 3 9 Loops \, count repeated events;#P objectname thes[20];#P user textedit 17 330 382 348 2 3 9 Loops \, repeated series of actions;#P objectname thes[21];#P user ubutton 0 2 582 51 0 0;#P hidden connect 0 1 78 0;#P hidden connect 72 0 23 0;#P hidden connect 71 0 23 0;#P hidden connect 70 0 23 0;#P hidden connect 69 0 23 0;#P hidden connect 68 0 23 0;#P hidden connect 67 0 23 0;#P hidden connect 66 0 23 0;#P hidden connect 65 0 23 0;#P hidden connect 64 0 23 0;#P hidden connect 63 0 23 0;#P hidden connect 62 0 23 0;#P hidden connect 61 0 23 0;#P hidden connect 60 0 23 0;#P hidden connect 59 0 23 0;#P hidden connect 58 0 23 0;#P hidden connect 57 0 23 0;#P hidden connect 56 0 23 0;#P hidden connect 55 0 23 0;#P hidden connect 54 0 23 0;#P hidden connect 53 0 23 0;#P hidden connect 52 0 23 0;#P hidden connect 51 0 23 0;#P hidden connect 50 0 23 0;#P hidden connect 49 0 23 0;#P hidden connect 48 0 23 0;#P hidden connect 78 0 23 0;#P hidden connect 79 0 24 0;#P hidden connect 23 0 24 0;#P hidden connect 73 0 24 0;#P hidden connect 25 2 22 0;#P hidden connect 26 2 22 0;#P hidden connect 27 2 22 0;#P hidden connect 28 2 22 0;#P hidden connect 30 2 22 0;#P hidden connect 31 2 22 0;#P hidden connect 32 2 22 0;#P hidden connect 33 2 22 0;#P hidden connect 34 2 22 0;#P hidden connect 35 2 22 0;#P hidden connect 36 2 22 0;#P hidden connect 37 2 22 0;#P hidden connect 38 2 22 0;#P hidden connect 39 2 22 0;#P hidden connect 40 2 22 0;#P hidden connect 41 2 22 0;#P hidden connect 42 2 22 0;#P hidden connect 43 2 22 0;#P hidden connect 44 2 22 0;#P hidden connect 45 2 22 0;#P hidden connect 46 2 22 0;#P hidden connect 47 2 22 0;#P hidden connect 74 0 73 0;#P hidden connect 77 0 79 0;#P pop;