max v2;#N vpatcher 9 48 608 294;#P origin 3 -4;#P window setfont "Sans Serif" 9.;#P hidden newex 656 38 88 196617 MOT-Loader MSP;#P hidden message 565 15 29 196617 MOT;#P window setfont "Sans Serif" 14.;#P message 164 15 20 196622 H;#P objectname L[7];#P window setfont "Sans Serif" 9.;#P hidden newex 597 15 105 196617 bgcolor 170 170 255;#B color 5;#P user textedit 17 36 382 54 2 3 9 Held MIDI notes \, provide note-off messages for;#P objectname thes[0];#P hidden number 626 58 35 9 0 0 0 3 0 0 0 221 221 221 222 222 222 0 0 0;#P hidden newex 626 76 86 196617 sprintf script hidden connect obj[%i] 2 phelp 0;#P window setfont "Sans Serif" 14.;#P message 542 15 20 196622 Z;#B color 5;#P objectname L[25];#P message 521 15 20 196622 Y;#B color 5;#P objectname L[24];#P message 500 15 20 196622 X;#B color 5;#P objectname L[23];#P message 479 15 20 196622 W;#B color 5;#P objectname L[22];#P message 458 15 20 196622 V;#B color 5;#P objectname L[21];#P message 437 15 20 196622 U;#B color 5;#P objectname L[20];#P message 416 15 20 196622 T;#B color 5;#P objectname L[19];#P message 395 15 20 196622 S;#B color 5;#P objectname L[18];#P message 374 15 20 196622 R;#B color 5;#P objectname L[17];#P message 353 15 20 196622 Q;#B color 5;#P objectname L[16];#P message 332 15 20 196622 P;#B color 5;#P objectname L[15];#P message 311 15 20 196622 O;#B color 5;#P objectname L[14];#P message 290 15 20 196622 N;#B color 5;#P objectname L[13];#P message 269 15 20 196622 M;#B color 5;#P objectname L[12];#P message 248 15 20 196622 L;#B color 5;#P objectname L[11];#P message 227 15 20 196622 K;#B color 5;#P objectname L[10];#P message 206 15 20 196622 J;#B color 5;#P objectname L[9];#P message 185 15 20 196622 I;#B color 5;#P objectname L[8];#P message 143 15 20 196622 G;#B color 5;#P objectname L[6];#P message 122 15 20 196622 F;#B color 5;#P objectname L[5];#P message 101 15 20 196622 E;#B color 5;#P objectname L[4];#P message 80 15 20 196622 D;#B color 5;#P objectname L[3];#P message 59 15 20 196622 C;#B color 5;#P objectname L[2];#P message 38 15 20 196622 B;#B color 5;#P objectname L[1];#P message 17 15 20 196622 A;#B color 5;#P objectname L[0];#P window setfont "Sans Serif" 9.;#P user textedit 383 36 562 54 2 3 9 borax \, flush \, makenote \, midiflush;#P objectname obj[0];#P user textedit 383 50 562 68 2 3 9 decode;#P objectname obj[1];#P user textedit 383 64 562 82 2 3 9 hint;#P objectname obj[2];#P user textedit 383 78 562 96 2 3 9 histo;#P objectname obj[3];#P user textedit 383 92 562 122 2 3 9 Float \, funbuff \, Int \, number box \, offer \, pv \, table \, value;#P objectname obj[4];#P user textedit 383 118 562 136 2 3 9 trough;#P objectname obj[5];#P user textedit 383 132 562 150 2 3 9 hi;#P objectname obj[6];#P user textedit 383 146 562 164 2 3 9 acosh;#P objectname obj[7];#P user textedit 383 160 562 178 2 3 9 asinh;#P objectname obj[8];#P user textedit 383 174 562 192 2 3 9 atanh;#P objectname obj[9];#P user textedit 383 188 562 206 2 3 9 cosh;#P objectname obj[10];#P user textedit 383 202 562 220 2 3 9 tanh;#P objectname obj[11];#P comment 0 1 100 196617;#N thispatcher;#Q end;#P hidden newobj 565 57 59 196617 thispatcher;#P hidden newex 565 38 88 196617 MOT-Loader Max;#P hidden newex 569 221 38 196617 phelp;#P objectname phelp;#P user textedit 17 50 382 68 2 3 9 Hexadecimal \, display numbers as number box Hierarchical on/off switch;#P objectname thes[1];#P user textedit 17 64 382 82 2 3 9 Hint \, pop-up menu;#P objectname thes[2];#P user textedit 17 78 382 96 2 3 9 Histogram of how many times a number has occurred;#P objectname thes[3];#P user textedit 17 92 382 122 2 3 9 Hold one or more numbers;#P objectname thes[4];#P user textedit 17 118 382 136 2 3 9 Hold the smallest in a series of numbers;#P objectname thes[5];#P user textedit 17 132 382 150 2 3 9 Human interface (gaming) device input;#P objectname thes[6];#P user textedit 17 146 382 164 2 3 9 Hyperbolic arc-cosine function;#P objectname thes[7];#P user textedit 17 160 382 178 2 3 9 Hyperbolic Arc-sine function;#P objectname thes[8];#P user textedit 17 174 382 192 2 3 9 Hyperbolic arc-tangent function;#P objectname thes[9];#P user textedit 17 188 382 206 2 3 9 Hyperbolic cosine function;#P objectname thes[10];#P user textedit 17 202 382 220 2 3 9 Hyperbolic sine function sinh Hyperbolic tangent function;#P objectname thes[11];#P user ubutton 0 2 582 51 0 0;#P hidden connect 0 1 58 0;#P hidden connect 52 0 13 0;#P hidden connect 51 0 13 0;#P hidden connect 50 0 13 0;#P hidden connect 49 0 13 0;#P hidden connect 48 0 13 0;#P hidden connect 47 0 13 0;#P hidden connect 46 0 13 0;#P hidden connect 45 0 13 0;#P hidden connect 44 0 13 0;#P hidden connect 43 0 13 0;#P hidden connect 42 0 13 0;#P hidden connect 41 0 13 0;#P hidden connect 40 0 13 0;#P hidden connect 39 0 13 0;#P hidden connect 38 0 13 0;#P hidden connect 37 0 13 0;#P hidden connect 36 0 13 0;#P hidden connect 35 0 13 0;#P hidden connect 34 0 13 0;#P hidden connect 33 0 13 0;#P hidden connect 32 0 13 0;#P hidden connect 31 0 13 0;#P hidden connect 30 0 13 0;#P hidden connect 29 0 13 0;#P hidden connect 28 0 13 0;#P hidden connect 58 0 13 0;#P hidden connect 59 0 14 0;#P hidden connect 13 0 14 0;#P hidden connect 53 0 14 0;#P hidden connect 16 2 12 0;#P hidden connect 17 2 12 0;#P hidden connect 18 2 12 0;#P hidden connect 19 2 12 0;#P hidden connect 20 2 12 0;#P hidden connect 21 2 12 0;#P hidden connect 22 2 12 0;#P hidden connect 23 2 12 0;#P hidden connect 24 2 12 0;#P hidden connect 25 2 12 0;#P hidden connect 26 2 12 0;#P hidden connect 27 2 12 0;#P hidden connect 54 0 53 0;#P hidden connect 57 0 59 0;#P pop;