max v2;#N vpatcher 9 48 608 510;#P origin 3 -4;#P window setfont "Sans Serif" 9.;#P hidden newex 655 38 88 196617 MOT-Loader MSP;#P hidden message 565 15 29 196617 MOT;#P window setfont "Sans Serif" 14.;#P message 290 15 20 196622 N;#P objectname L[13];#P window setfont "Sans Serif" 9.;#P hidden newex 597 15 105 196617 bgcolor 170 170 255;#B color 5;#P user textedit 17 36 382 54 2 3 9 Name user interface objects in a patcher window;#P objectname thes[0];#P hidden number 626 58 35 9 0 0 0 3 0 0 0 221 221 221 222 222 222 0 0 0;#P hidden newex 626 76 86 196617 sprintf script hidden connect obj[%i] 2 phelp 0;#P window setfont "Sans Serif" 14.;#P message 542 15 20 196622 Z;#B color 5;#P objectname L[25];#P message 521 15 20 196622 Y;#B color 5;#P objectname L[24];#P message 500 15 20 196622 X;#B color 5;#P objectname L[23];#P message 479 15 20 196622 W;#B color 5;#P objectname L[22];#P message 458 15 20 196622 V;#B color 5;#P objectname L[21];#P message 437 15 20 196622 U;#B color 5;#P objectname L[20];#P message 416 15 20 196622 T;#B color 5;#P objectname L[19];#P message 395 15 20 196622 S;#B color 5;#P objectname L[18];#P message 374 15 20 196622 R;#B color 5;#P objectname L[17];#P message 353 15 20 196622 Q;#B color 5;#P objectname L[16];#P message 332 15 20 196622 P;#B color 5;#P objectname L[15];#P message 311 15 20 196622 O;#B color 5;#P objectname L[14];#P message 269 15 20 196622 M;#B color 5;#P objectname L[12];#P message 248 15 20 196622 L;#B color 5;#P objectname L[11];#P message 227 15 20 196622 K;#B color 5;#P objectname L[10];#P message 206 15 20 196622 J;#B color 5;#P objectname L[9];#P message 185 15 20 196622 I;#B color 5;#P objectname L[8];#P message 164 15 20 196622 H;#B color 5;#P objectname L[7];#P message 143 15 20 196622 G;#B color 5;#P objectname L[6];#P message 122 15 20 196622 F;#B color 5;#P objectname L[5];#P message 101 15 20 196622 E;#B color 5;#P objectname L[4];#P message 80 15 20 196622 D;#B color 5;#P objectname L[3];#P message 59 15 20 196622 C;#B color 5;#P objectname L[2];#P message 38 15 20 196622 B;#B color 5;#P objectname L[1];#P message 17 15 20 196622 A;#B color 5;#P objectname L[0];#P window setfont "Sans Serif" 9.;#P user textedit 383 36 562 54 2 3 9 comment \, umenu;#P objectname obj[0];#P user textedit 383 50 562 68 2 3 9 abs \, expr;#P objectname obj[1];#P user textedit 383 64 562 82 2 3 9 & \, / \, | \, << \, >>;#P objectname obj[2];#P user textedit 383 78 562 96 2 3 9 drunk;#P objectname obj[3];#P user textedit 383 92 562 110 2 3 9 expr \, random;#P objectname obj[4];#P user textedit 383 106 562 124 2 3 9 ubumenu;#P objectname obj[5];#P user textedit 383 120 562 138 2 3 9 change \, togedge;#P objectname obj[6];#P user textedit 383 134 562 164 2 3 9 change \, if \, led \, select \, split \, togedge \, toggle \, == \, != \, && \, ||;#P objectname obj[7];#P user textedit 383 160 562 178 2 3 9 expr;#P objectname obj[8];#P user textedit 383 174 562 192 2 3 9 expr \, ==;#P objectname obj[9];#P user textedit 383 188 562 206 2 3 9 midiin \, notein \, xnotein;#P objectname obj[10];#P user textedit 383 202 562 220 2 3 9 borax;#P objectname obj[11];#P user textedit 383 216 562 234 2 3 9 midiout \, noteout \, xnoteout;#P objectname obj[12];#P user textedit 383 230 562 248 2 3 9 xnotein \, xnoteout;#P objectname obj[13];#P user textedit 383 244 562 262 2 3 9 sustain;#P objectname obj[14];#P user textedit 383 258 562 276 2 3 9 bag \, borax \, flush midiflush \, makenote;#P objectname obj[15];#P user textedit 383 272 562 290 2 3 9 gate \, stripnote;#P objectname obj[16];#P user textedit 383 286 562 304 2 3 9 comment;#P objectname obj[17];#P comment 0 1 100 196617;#P user textedit 383 300 562 318 2 3 9 active;#P objectname obj[18];#P user textedit 383 314 562 332 2 3 9 button \, led \, message \, print \, ubutton;#P objectname obj[19];#P user textedit 383 328 562 346 2 3 9 counter \, line \, clocker \, tempo;#P objectname obj[20];#P user textedit 383 342 562 372 2 3 9 Float \, funbuff \, Int \, number box \, offer \, pv \, table \, value;#P objectname obj[21];#P user textedit 383 368 562 386 2 3 9 number box;#P objectname obj[22];#P user textedit 383 382 562 424 2 3 9 dial \, envi \, hslider \, imovie \, kslider \, lcd \, mousestate \, multislider \, number box \, rslider \, slider \, table \, uslider;#P objectname obj[23];#P user textedit 383 420 562 438 2 3 9 & \, | \, << \, >>;#P objectname obj[24];#N thispatcher;#Q end;#P hidden newobj 565 57 59 196617 thispatcher;#P hidden newex 565 38 88 196617 MOT-Loader Max;#P hidden newex 574 240 38 196617 phelp;#P objectname phelp;#P user textedit 17 50 382 68 2 3 9 Negative number \, convert to positive number;#P objectname thes[1];#P user textedit 17 64 382 82 2 3 9 Nibble \, examine selected bits of a numbers binary representation;#P objectname thes[2];#P user textedit 17 78 382 96 2 3 9 Noise \, filtered noise generator;#P objectname thes[3];#P user textedit 17 92 382 110 2 3 9 Noise \, white noise generator;#P objectname thes[4];#P user textedit 17 106 382 124 2 3 9 Non-interrupting pop-up menu;#P objectname thes[5];#P user textedit 17 120 382 138 2 3 9 Non-zero and zero numbers \, notify when input changes from one to the other;#P objectname thes[6];#P user textedit 17 134 382 164 2 3 9 Non-zero \, test if a number or expression is;#P objectname thes[7];#P user textedit 17 160 382 178 2 3 9 Not \, bitwise ones complement operation;#P objectname thes[8];#P user textedit 17 174 382 192 2 3 9 Not \, convert a non-zero number to 0 and vice versa;#P objectname thes[9];#P user textedit 17 188 382 206 2 3 9 Note data \, receive incoming MIDI;#P objectname thes[10];#P user textedit 17 202 382 220 2 3 9 Note information (duration \, delta time \, etc.) derived from MIDI note messages;#P objectname thes[11];#P user textedit 17 216 382 234 2 3 9 Note messages \, transmit MIDI;#P objectname thes[12];#P user textedit 17 230 382 248 2 3 9 Note-off messages with release velocity \, detecting and formatting;#P objectname thes[13];#P user textedit 17 244 382 262 2 3 9 Note-off messages \, hold until a specific event occurs;#P objectname thes[14];#P user textedit 17 258 382 276 2 3 9 Note-off messages \, supply for held or stuck MIDI note-ons;#P objectname thes[15];#P user textedit 17 272 382 290 2 3 9 Note-off messages \, suppress;#P objectname thes[16];#P user textedit 17 286 382 304 2 3 9 Notes to yourselfŃor another userŃin a patcher window;#P objectname thes[17];#P user textedit 17 300 382 318 2 3 9 Notify objects when patcher window is moved to foreground or background;#P objectname thes[18];#P user textedit 17 314 382 332 2 3 9 Notify user when an event has occurred;#P objectname thes[19];#P user textedit 17 328 382 346 2 3 9 Number sequences \, generate automatically;#P objectname thes[20];#P user textedit 17 342 382 372 2 3 9 Number \, store;#P objectname thes[21];#P user textedit 17 368 382 386 2 3 9 Numbers \, convert between decimal \, hexadecimal \, and binary;#P objectname thes[22];#P user textedit 17 382 382 424 2 3 9 Numbers \, generate with the mouse;#P objectname thes[23];#P user textedit 17 420 382 438 2 3 9 Nybble \, examine selected bits of a numbers binary representation;#P objectname thes[24];#P user ubutton 0 2 582 51 0 0;#P hidden connect 0 1 84 0;#P hidden connect 54 0 26 0;#P hidden connect 55 0 26 0;#P hidden connect 56 0 26 0;#P hidden connect 57 0 26 0;#P hidden connect 58 0 26 0;#P hidden connect 59 0 26 0;#P hidden connect 60 0 26 0;#P hidden connect 61 0 26 0;#P hidden connect 62 0 26 0;#P hidden connect 63 0 26 0;#P hidden connect 64 0 26 0;#P hidden connect 65 0 26 0;#P hidden connect 66 0 26 0;#P hidden connect 67 0 26 0;#P hidden connect 68 0 26 0;#P hidden connect 69 0 26 0;#P hidden connect 70 0 26 0;#P hidden connect 71 0 26 0;#P hidden connect 72 0 26 0;#P hidden connect 73 0 26 0;#P hidden connect 74 0 26 0;#P hidden connect 75 0 26 0;#P hidden connect 76 0 26 0;#P hidden connect 77 0 26 0;#P hidden connect 78 0 26 0;#P hidden connect 84 0 26 0;#P hidden connect 85 0 27 0;#P hidden connect 79 0 27 0;#P hidden connect 26 0 27 0;#P hidden connect 53 2 25 0;#P hidden connect 52 2 25 0;#P hidden connect 51 2 25 0;#P hidden connect 50 2 25 0;#P hidden connect 49 2 25 0;#P hidden connect 48 2 25 0;#P hidden connect 47 2 25 0;#P hidden connect 46 2 25 0;#P hidden connect 45 2 25 0;#P hidden connect 44 2 25 0;#P hidden connect 43 2 25 0;#P hidden connect 42 2 25 0;#P hidden connect 41 2 25 0;#P hidden connect 40 2 25 0;#P hidden connect 39 2 25 0;#P hidden connect 38 2 25 0;#P hidden connect 37 2 25 0;#P hidden connect 36 2 25 0;#P hidden connect 34 2 25 0;#P hidden connect 33 2 25 0;#P hidden connect 32 2 25 0;#P hidden connect 31 2 25 0;#P hidden connect 30 2 25 0;#P hidden connect 29 2 25 0;#P hidden connect 28 2 25 0;#P hidden connect 80 0 79 0;#P hidden connect 83 0 85 0;#P pop;