max v2;#N vpatcher 9 48 609 686;#P origin 3 -4;#P window setfont "Sans Serif" 9.;#P hidden newex 655 38 88 196617 MOT-Loader MSP;#P hidden message 565 15 29 196617 MOT;#P window setfont "Sans Serif" 14.;#P message 374 15 20 196622 R;#P objectname L[17];#P window setfont "Sans Serif" 9.;#P hidden newex 597 15 105 196617 bgcolor 170 170 255;#B color 5;#P user textedit 17 36 382 54 2 3 9 Radio button user interface object;#P objectname thes[0];#P hidden number 626 58 35 9 0 0 0 3 0 0 0 221 221 221 222 222 222 0 0 0;#P hidden newex 626 76 86 196617 sprintf script hidden connect obj[%i] 2 phelp 0;#P window setfont "Sans Serif" 14.;#P message 542 15 20 196622 Z;#B color 5;#P objectname L[25];#P message 521 15 20 196622 Y;#B color 5;#P objectname L[24];#P message 500 15 20 196622 X;#B color 5;#P objectname L[23];#P message 479 15 20 196622 W;#B color 5;#P objectname L[22];#P message 458 15 20 196622 V;#B color 5;#P objectname L[21];#P message 437 15 20 196622 U;#B color 5;#P objectname L[20];#P message 416 15 20 196622 T;#B color 5;#P objectname L[19];#P message 395 15 20 196622 S;#B color 5;#P objectname L[18];#P message 353 15 20 196622 Q;#B color 5;#P objectname L[16];#P message 332 15 20 196622 P;#B color 5;#P objectname L[15];#P message 311 15 20 196622 O;#B color 5;#P objectname L[14];#P message 290 15 20 196622 N;#B color 5;#P objectname L[13];#P message 269 15 20 196622 M;#B color 5;#P objectname L[12];#P message 248 15 20 196622 L;#B color 5;#P objectname L[11];#P message 227 15 20 196622 K;#B color 5;#P objectname L[10];#P message 206 15 20 196622 J;#B color 5;#P objectname L[9];#P message 185 15 20 196622 I;#B color 5;#P objectname L[8];#P message 164 15 20 196622 H;#B color 5;#P objectname L[7];#P message 143 15 20 196622 G;#B color 5;#P objectname L[6];#P message 122 15 20 196622 F;#B color 5;#P objectname L[5];#P message 101 15 20 196622 E;#B color 5;#P objectname L[4];#P message 80 15 20 196622 D;#B color 5;#P objectname L[3];#P message 59 15 20 196622 C;#B color 5;#P objectname L[2];#P message 38 15 20 196622 B;#B color 5;#P objectname L[1];#P message 17 15 20 196622 A;#B color 5;#P objectname L[0];#P window setfont "Sans Serif" 9.;#P user textedit 383 36 562 54 2 3 9 radiogroup;#P objectname obj[0];#P user textedit 383 50 562 68 2 3 9 line \, timeline;#P objectname obj[1];#P user textedit 383 64 562 82 2 3 9 drunk \, expr \, random \, urn;#P objectname obj[2];#P user textedit 383 78 562 96 2 3 9 drunk;#P objectname obj[3];#P user textedit 383 92 562 110 2 3 9 rslider \, split;#P objectname obj[4];#P user textedit 383 106 562 124 2 3 9 speedlim;#P objectname obj[5];#P user textedit 383 120 562 138 2 3 9 thresh \, quickthresh;#P objectname obj[6];#P user textedit 383 134 562 152 2 3 9 setclock;#P objectname obj[7];#P user textedit 383 148 562 166 2 3 9 tempo;#P objectname obj[8];#P user textedit 383 162 562 180 2 3 9 filein;#P objectname obj[9];#P user textedit 383 176 562 194 2 3 9 midiin \, midiout \, sysexin;#P objectname obj[10];#P user textedit 383 190 562 208 2 3 9 filein;#P objectname obj[11];#P user textedit 383 204 562 222 2 3 9 midiin \, midiout \, rtin;#P objectname obj[12];#P user textedit 383 218 562 236 2 3 9 follow \, mtr \, seq;#P objectname obj[13];#P user textedit 383 232 562 250 2 3 9 receive;#P objectname obj[14];#P user textedit 383 246 562 264 2 3 9 midiin;#P objectname obj[15];#P user textedit 383 260 562 290 2 3 9 bendin \, ctlin \, notein \, pgmin \, polyin \, rtin \, sysexin \, touchin;#P objectname obj[16];#P user textedit 383 286 562 304 2 3 9 bucket;#P objectname obj[17];#P comment 0 1 100 196617;#P user textedit 383 300 562 318 2 3 9 follow \, mtr \, seq;#P objectname obj[18];#P user textedit 383 314 562 332 2 3 9 frame \, rect;#P objectname obj[19];#P user textedit 383 328 562 358 2 3 9 gate \, Ggate \, grab \, route \, split \, spray \, unpack;#P objectname obj[20];#P user textedit 383 354 562 372 2 3 9 xnotein \, xnoteout;#P objectname obj[21];#P user textedit 383 368 562 386 2 3 9 expr \, %;#P objectname obj[22];#P user textedit 383 382 562 412 2 3 9 float \, forward \, grab \, int \, message \, pv \, receive \, send \, value;#P objectname obj[23];#P user textedit 383 408 562 426 2 3 9 uzi;#P objectname obj[24];#P user textedit 383 422 562 440 2 3 9 clocker \, metro \, tempo;#P objectname obj[25];#P user textedit 383 436 562 454 2 3 9 counter;#P objectname obj[26];#P user textedit 383 450 562 468 2 3 9 change;#P objectname obj[27];#P user textedit 383 464 562 482 2 3 9 filepath;#P objectname obj[28];#P user textedit 383 478 562 496 2 3 9 filedate;#P objectname obj[29];#P user textedit 383 492 562 510 2 3 9 suspend;#P objectname obj[30];#P user textedit 383 506 562 524 2 3 9 bangbang \, trigger;#P objectname obj[31];#P user textedit 383 520 562 538 2 3 9 fswap \, message \, swap;#P objectname obj[32];#P user textedit 383 534 562 552 2 3 9 swatch;#P objectname obj[33];#P user textedit 383 548 562 566 2 3 9 setclock;#P objectname obj[34];#P user textedit 383 562 562 580 2 3 9 bucket \, cycle;#P objectname obj[35];#P user textedit 383 576 562 606 2 3 9 gate \, Ggate \, route \, split \, spray \, unpack;#P objectname obj[36];#N thispatcher;#Q end;#P hidden newobj 565 57 59 196617 thispatcher;#P hidden newex 565 38 88 196617 MOT-Loader Max;#P hidden newex 572 222 38 196617 phelp;#P objectname phelp;#P user textedit 17 50 382 68 2 3 9 Ramp function \, generate;#P objectname thes[1];#P user textedit 17 64 382 82 2 3 9 Random number generator;#P objectname thes[2];#P user textedit 17 78 382 96 2 3 9 Random walk;#P objectname thes[3];#P user textedit 17 92 382 110 2 3 9 Range of numerical values \, specify and display minimum and maximum limits;#P objectname thes[4];#P user textedit 17 106 382 124 2 3 9 Rate at which messages are sent \, limit;#P objectname thes[5];#P user textedit 17 120 382 138 2 3 9 Rate \, combine numbers into a single list if received faster than a certain speed;#P objectname thes[6];#P user textedit 17 134 382 152 2 3 9 Rate \, control clock speed of Max timing objects;#P objectname thes[7];#P user textedit 17 148 382 166 2 3 9 Rate \, send out beat numbers at a metronomic tempo;#P objectname thes[8];#P user textedit 17 162 382 180 2 3 9 Raw data from a file \, read byte by byte;#P objectname thes[9];#P user textedit 17 176 382 194 2 3 9 Raw MIDI data \, receive and transmit;#P objectname thes[10];#P user textedit 17 190 382 208 2 3 9 Read in a file of binary data;#P objectname thes[11];#P user textedit 17 204 382 222 2 3 9 Real Time MIDI system messages;#P objectname thes[12];#P user textedit 17 218 382 236 2 3 9 Recall sequences of past messages or numbers;#P objectname thes[13];#P user textedit 17 232 382 250 2 3 9 Receive any message from any window;#P objectname thes[14];#P user textedit 17 246 382 264 2 3 9 Receive MIDI data unaltered;#P objectname thes[15];#P user textedit 17 260 382 290 2 3 9 Receive only specific MIDI messages;#P objectname thes[16];#P user textedit 17 286 382 304 2 3 9 Recently received values are stored and recalled;#P objectname thes[17];#P user textedit 17 300 382 318 2 3 9 Record sequences of MIDI data or numbers;#P objectname thes[18];#P user textedit 17 314 382 332 2 3 9 Rectangle or square \, drawing in a graphic window;#P objectname thes[19];#P user textedit 17 328 382 358 2 3 9 Redirect messages to a specific destination;#P objectname thes[20];#P user textedit 17 354 382 372 2 3 9 Release velocity \, detecting and formatting note-off messages with;#P objectname thes[21];#P user textedit 17 368 382 386 2 3 9 Remainder from dividing one number by another \, modulus operation;#P objectname thes[22];#P user textedit 17 382 382 412 2 3 9 Remote connection of objects \, without patch cords;#P objectname thes[23];#P user textedit 17 408 382 426 2 3 9 Repeatedly send bang messages as fast as possible;#P objectname thes[24];#P user textedit 17 422 382 440 2 3 9 Repeatedly send output at a certain rate;#P objectname thes[25];#P user textedit 17 436 382 454 2 3 9 Repetitions \, count;#P objectname thes[26];#P user textedit 17 450 382 468 2 3 9 Repetitions \, suppress repeated numbers;#P objectname thes[27];#P user textedit 17 464 382 482 2 3 9 Report information about the current Max search path;#P objectname thes[28];#P user textedit 17 478 382 496 2 3 9 Report the modification date of a file;#P objectname thes[29];#P user textedit 17 492 382 510 2 3 9 Reports when application is suspended and resumed;#P objectname thes[30];#P user textedit 17 506 382 524 2 3 9 Reproduce a single bang to different places in immediate succession;#P objectname thes[31];#P user textedit 17 520 382 538 2 3 9 Reverse the order of two number messages;#P objectname thes[32];#P user textedit 17 534 382 552 2 3 9 RGB color selection and display swatch;#P objectname thes[33];#P user textedit 17 548 382 566 2 3 9 Ritardando \, control clock speed of Max timing objects;#P objectname thes[34];#P user textedit 17 562 382 580 2 3 9 Rotate elements of a set of numbers \, out successive outlets;#P objectname thes[35];#P user textedit 17 576 382 606 2 3 9 Route messages to a specific destination;#P objectname thes[36];#P user ubutton 0 2 582 51 0 0;#P hidden connect 0 1 108 0;#P hidden connect 102 0 38 0;#P hidden connect 101 0 38 0;#P hidden connect 100 0 38 0;#P hidden connect 99 0 38 0;#P hidden connect 98 0 38 0;#P hidden connect 97 0 38 0;#P hidden connect 96 0 38 0;#P hidden connect 95 0 38 0;#P hidden connect 94 0 38 0;#P hidden connect 93 0 38 0;#P hidden connect 92 0 38 0;#P hidden connect 91 0 38 0;#P hidden connect 90 0 38 0;#P hidden connect 89 0 38 0;#P hidden connect 88 0 38 0;#P hidden connect 87 0 38 0;#P hidden connect 86 0 38 0;#P hidden connect 85 0 38 0;#P hidden connect 84 0 38 0;#P hidden connect 83 0 38 0;#P hidden connect 82 0 38 0;#P hidden connect 81 0 38 0;#P hidden connect 80 0 38 0;#P hidden connect 79 0 38 0;#P hidden connect 78 0 38 0;#P hidden connect 108 0 38 0;#P hidden connect 109 0 39 0;#P hidden connect 38 0 39 0;#P hidden connect 103 0 39 0;#P hidden connect 40 2 37 0;#P hidden connect 41 2 37 0;#P hidden connect 42 2 37 0;#P hidden connect 43 2 37 0;#P hidden connect 44 2 37 0;#P hidden connect 45 2 37 0;#P hidden connect 46 2 37 0;#P hidden connect 47 2 37 0;#P hidden connect 48 2 37 0;#P hidden connect 49 2 37 0;#P hidden connect 50 2 37 0;#P hidden connect 51 2 37 0;#P hidden connect 52 2 37 0;#P hidden connect 53 2 37 0;#P hidden connect 54 2 37 0;#P hidden connect 55 2 37 0;#P hidden connect 56 2 37 0;#P hidden connect 57 2 37 0;#P hidden connect 58 2 37 0;#P hidden connect 60 2 37 0;#P hidden connect 61 2 37 0;#P hidden connect 62 2 37 0;#P hidden connect 63 2 37 0;#P hidden connect 64 2 37 0;#P hidden connect 65 2 37 0;#P hidden connect 66 2 37 0;#P hidden connect 67 2 37 0;#P hidden connect 68 2 37 0;#P hidden connect 69 2 37 0;#P hidden connect 70 2 37 0;#P hidden connect 71 2 37 0;#P hidden connect 72 2 37 0;#P hidden connect 73 2 37 0;#P hidden connect 74 2 37 0;#P hidden connect 75 2 37 0;#P hidden connect 76 2 37 0;#P hidden connect 77 2 37 0;#P hidden connect 104 0 103 0;#P hidden connect 107 0 109 0;#P pop;