max v2;#N vpatcher 9 48 608 758;#P origin 3 -4;#P window setfont "Sans Serif" 9.;#P hidden newex 655 38 88 196617 MOT-Loader MSP;#P hidden message 565 15 29 196617 MOT;#P window setfont "Sans Serif" 14.;#P message 332 15 20 196622 P;#P objectname L[15];#P window setfont "Sans Serif" 9.;#P hidden newex 597 15 105 196617 bgcolor 170 170 255;#B color 5;#P user textedit 17 36 382 54 2 3 9 Panel;#P objectname thes[0];#P hidden number 626 58 35 9 0 0 0 3 0 0 0 221 221 221 222 222 222 0 0 0;#P hidden newex 626 76 86 196617 sprintf script hidden connect obj[%i] 2 phelp 0;#P window setfont "Sans Serif" 14.;#P message 542 15 20 196622 Z;#B color 5;#P objectname L[25];#P message 521 15 20 196622 Y;#B color 5;#P objectname L[24];#P message 500 15 20 196622 X;#B color 5;#P objectname L[23];#P message 479 15 20 196622 W;#B color 5;#P objectname L[22];#P message 458 15 20 196622 V;#B color 5;#P objectname L[21];#P message 437 15 20 196622 U;#B color 5;#P objectname L[20];#P message 416 15 20 196622 T;#B color 5;#P objectname L[19];#P message 395 15 20 196622 S;#B color 5;#P objectname L[18];#P message 374 15 20 196622 R;#B color 5;#P objectname L[17];#P message 353 15 20 196622 Q;#B color 5;#P objectname L[16];#P message 311 15 20 196622 O;#B color 5;#P objectname L[14];#P message 290 15 20 196622 N;#B color 5;#P objectname L[13];#P message 269 15 20 196622 M;#B color 5;#P objectname L[12];#P message 248 15 20 196622 L;#B color 5;#P objectname L[11];#P message 227 15 20 196622 K;#B color 5;#P objectname L[10];#P message 206 15 20 196622 J;#B color 5;#P objectname L[9];#P message 185 15 20 196622 I;#B color 5;#P objectname L[8];#P message 164 15 20 196622 H;#B color 5;#P objectname L[7];#P message 143 15 20 196622 G;#B color 5;#P objectname L[6];#P message 122 15 20 196622 F;#B color 5;#P objectname L[5];#P message 101 15 20 196622 E;#B color 5;#P objectname L[4];#P message 80 15 20 196622 D;#B color 5;#P objectname L[3];#P message 59 15 20 196622 C;#B color 5;#P objectname L[2];#P message 38 15 20 196622 B;#B color 5;#P objectname L[1];#P message 17 15 20 196622 A;#B color 5;#P objectname L[0];#P window setfont "Sans Serif" 9.;#P user textedit 383 36 562 54 2 3 9 panel;#P objectname obj[0];#P user textedit 383 50 562 68 2 3 9 borax \, flush \, makenote \, midiflush;#P objectname obj[1];#P user textedit 383 64 562 82 2 3 9 ctlin \, ctlout;#P objectname obj[2];#P user textedit 383 78 562 96 2 3 9 ctlout \, midiout \, sxformat;#P objectname obj[3];#P user textedit 383 92 562 134 2 3 9 midiparse \, xbendin \, xnotein bendin \, ctlin \, notein \, pgmin \, polyin \, rtin \, sysexin \, touchin;#P objectname obj[4];#P user textedit 383 130 562 148 2 3 9 mousefilter;#P objectname obj[5];#P user textedit 383 144 562 162 2 3 9 pgmin \, pgmout;#P objectname obj[6];#P user textedit 383 158 562 188 2 3 9 bpatcher;#P objectname obj[7];#P user textedit 383 184 562 202 2 3 9 pattr;#P objectname obj[8];#P user textedit 383 198 562 216 2 3 9 peak;#P objectname obj[9];#P user textedit 383 212 562 230 2 3 9 grab;#P objectname obj[10];#P user textedit 383 226 562 244 2 3 9 urn;#P objectname obj[11];#P user textedit 383 240 562 258 2 3 9 fpic;#P objectname obj[12];#P user textedit 383 254 562 272 2 3 9 pict;#P objectname obj[13];#P user textedit 383 268 562 286 2 3 9 pictctrl;#P objectname obj[14];#P user textedit 383 282 562 300 2 3 9 pictslider;#P objectname obj[15];#P user textedit 383 296 562 314 2 3 9 bendin \, midiin \, xbendin \, xbendin2;#P objectname obj[16];#P user textedit 383 310 562 328 2 3 9 bendout \, midiout \, xbendout xbendout2;#P objectname obj[17];#P comment 0 1 100 196617;#P user textedit 383 324 562 342 2 3 9 imovie \, movie \, playbar \, timeline;#P objectname obj[18];#P user textedit 383 338 562 356 2 3 9 timeline;#P objectname obj[19];#P user textedit 383 352 562 370 2 3 9 follow \, mtr \, seq;#P objectname obj[20];#P user textedit 383 366 562 384 2 3 9 accum \, expr \, +;#P objectname obj[21];#P user textedit 383 380 562 398 2 3 9 poltocar;#P objectname obj[22];#P user textedit 383 394 562 412 2 3 9 borax \, poly;#P objectname obj[23];#P user textedit 383 408 562 426 2 3 9 polyin \, polyout;#P objectname obj[24];#P user textedit 383 422 562 440 2 3 9 umenu \, ubumenu;#P objectname obj[25];#P user textedit 383 436 562 454 2 3 9 hint;#P objectname obj[26];#P user textedit 383 450 562 468 2 3 9 bendin \, bendout \, ctlin \, ctlout;#P objectname obj[27];#P user textedit 383 464 562 482 2 3 9 midiinfo;#P objectname obj[28];#P user textedit 383 478 562 496 2 3 9 abs \, expr;#P objectname obj[29];#P user textedit 383 492 562 510 2 3 9 delay;#P objectname obj[30];#P user textedit 383 506 562 524 2 3 9 pipe \, thresh;#P objectname obj[31];#P user textedit 383 520 562 538 2 3 9 sustain;#P objectname obj[32];#P user textedit 383 534 562 552 2 3 9 dial;#P objectname obj[33];#P user textedit 383 548 562 566 2 3 9 expr;#P objectname obj[34];#P user textedit 383 562 562 580 2 3 9 cpuclock;#P objectname obj[35];#P user textedit 383 576 562 594 2 3 9 prepend;#P objectname obj[36];#P user textedit 383 590 562 608 2 3 9 preset \, pattrstorage;#P objectname obj[37];#P user textedit 383 604 562 622 2 3 9 print;#P objectname obj[38];#P user textedit 383 618 562 636 2 3 9 drunk \, prob \, random \, table \, urn;#P objectname obj[39];#P user textedit 383 632 562 650 2 3 9 histo;#P objectname obj[40];#P user textedit 383 646 562 664 2 3 9 accum \, expr \, *;#P objectname obj[41];#P user textedit 383 660 562 678 2 3 9 pgmin \, pgmout;#P objectname obj[42];#P user textedit 383 674 562 692 2 3 9 hslider \, slider \, uslider \, rslider;#P objectname obj[43];#P user textedit 383 688 562 706 2 3 9 drunk \, expr \, random \, urn;#P objectname obj[44];#N thispatcher;#Q end;#P hidden newobj 565 57 59 196617 thispatcher;#P hidden newex 565 38 88 196617 MOT-Loader Max;#P hidden newex 583 408 38 196617 phelp;#P objectname phelp;#P user textedit 17 50 382 68 2 3 9 Panic \, turn off held MIDI notes;#P objectname thes[1];#P user textedit 17 64 382 82 2 3 9 Panning;#P objectname thes[2];#P user textedit 17 78 382 96 2 3 9 Parameter change to a MIDI device;#P objectname thes[3];#P user textedit 17 92 382 134 2 3 9 Parse incoming MIDI messages \, also;#P objectname thes[4];#P user textedit 17 130 382 148 2 3 9 Pass numbers through only when the mouse button is up;#P objectname thes[5];#P user textedit 17 144 382 162 2 3 9 Patch change MIDI message;#P objectname thes[6];#P user textedit 17 158 382 188 2 3 9 Patch cords \, connect to an inlet or outlet of a subpatch inlet \, outlet patcher within a patcher \, the contents of which are visible;#P objectname thes[7];#P user textedit 17 184 382 202 2 3 9 Patcher-specific named data wrapper;#P objectname thes[8];#P user textedit 17 198 382 216 2 3 9 Peak hold \, keep track of the greatest in a series of numbers;#P objectname thes[9];#P user textedit 17 212 382 230 2 3 9 Peek at values in other objects;#P objectname thes[10];#P user textedit 17 226 382 244 2 3 9 Permute a set in random order;#P objectname thes[11];#P user textedit 17 240 382 258 2 3 9 Picture \, display a graphics file in a patcher window;#P objectname thes[12];#P user textedit 17 254 382 272 2 3 9 Picture \, display PICT file in a graphic window;#P objectname thes[13];#P user textedit 17 268 382 286 2 3 9 Picture-based control;#P objectname thes[14];#P user textedit 17 282 382 300 2 3 9 Picture-based slider;#P objectname thes[15];#P user textedit 17 296 382 314 2 3 9 Pitchbend \, report incoming MIDI pitchbend data;#P objectname thes[16];#P user textedit 17 310 382 328 2 3 9 Pitchbend \, transmit MIDI pitchbend messages;#P objectname thes[17];#P user textedit 17 324 382 342 2 3 9 Play a QuickTime movie;#P objectname thes[18];#P user textedit 17 338 382 356 2 3 9 Play a sequence of Max messages to be sent to objects at specific times;#P objectname thes[19];#P user textedit 17 352 382 370 2 3 9 Play sequences of past messages or numbers;#P objectname thes[20];#P user textedit 17 366 382 384 2 3 9 Plus \, add two numbers together;#P objectname thes[21];#P user textedit 17 380 382 398 2 3 9 Polar to Cartesian coordinate conversion;#P objectname thes[22];#P user textedit 17 394 382 412 2 3 9 Poly mode \, assign a unique voice number to each note being played;#P objectname thes[23];#P user textedit 17 408 382 426 2 3 9 Polyphonic afterpressure;#P objectname thes[24];#P user textedit 17 422 382 440 2 3 9 Pop-up menu in a patcher;#P objectname thes[25];#P user textedit 17 436 382 454 2 3 9 Pop-up style hint text;#P objectname thes[26];#P user textedit 17 450 382 468 2 3 9 Portamento;#P objectname thes[27];#P user textedit 17 464 382 482 2 3 9 Ports \, get a list of MIDI devices and ports currently available;#P objectname thes[28];#P user textedit 17 478 382 496 2 3 9 Positive version of a negative number;#P objectname thes[29];#P user textedit 17 492 382 510 2 3 9 Postpone a bang;#P objectname thes[30];#P user textedit 17 506 382 524 2 3 9 Postpone a number or list;#P objectname thes[31];#P user textedit 17 520 382 538 2 3 9 Postpone note-off messages until a specific event occurs;#P objectname thes[32];#P user textedit 17 534 382 552 2 3 9 Potentiometer-like dial for sending numbers;#P objectname thes[33];#P user textedit 17 548 382 566 2 3 9 Power \, one number to the power of another;#P objectname thes[34];#P user textedit 17 562 382 580 2 3 9 Precise Ňreal-worldÓ time measurements;#P objectname thes[35];#P user textedit 17 576 382 594 2 3 9 Prepend one message at the beginning of another;#P objectname thes[36];#P user textedit 17 590 382 608 2 3 9 Preset \, store and recall values for user interface objects;#P objectname thes[37];#P user textedit 17 604 382 622 2 3 9 Print any message in the Max window;#P objectname thes[38];#P user textedit 17 618 382 636 2 3 9 Probabilistic (stochastic) decision making;#P objectname thes[39];#P user textedit 17 632 382 650 2 3 9 Probability \, keep track of how many times a number has occurred;#P objectname thes[40];#P user textedit 17 646 382 664 2 3 9 Product of multiplying two numbers;#P objectname thes[41];#P user textedit 17 660 382 678 2 3 9 Program change MIDI message;#P objectname thes[42];#P user textedit 17 674 382 692 2 3 9 Progress bar \, graphic display;#P objectname thes[43];#P user textedit 17 688 382 706 2 3 9 Pseudo-random number generator;#P objectname thes[44];#P user ubutton 0 2 582 51 0 0;#P hidden connect 0 1 124 0;#P hidden connect 118 0 46 0;#P hidden connect 117 0 46 0;#P hidden connect 116 0 46 0;#P hidden connect 115 0 46 0;#P hidden connect 114 0 46 0;#P hidden connect 113 0 46 0;#P hidden connect 112 0 46 0;#P hidden connect 111 0 46 0;#P hidden connect 110 0 46 0;#P hidden connect 109 0 46 0;#P hidden connect 108 0 46 0;#P hidden connect 107 0 46 0;#P hidden connect 106 0 46 0;#P hidden connect 105 0 46 0;#P hidden connect 104 0 46 0;#P hidden connect 103 0 46 0;#P hidden connect 102 0 46 0;#P hidden connect 101 0 46 0;#P hidden connect 100 0 46 0;#P hidden connect 99 0 46 0;#P hidden connect 98 0 46 0;#P hidden connect 97 0 46 0;#P hidden connect 96 0 46 0;#P hidden connect 95 0 46 0;#P hidden connect 94 0 46 0;#P hidden connect 124 0 46 0;#P hidden connect 125 0 47 0;#P hidden connect 46 0 47 0;#P hidden connect 119 0 47 0;#P hidden connect 48 2 45 0;#P hidden connect 49 2 45 0;#P hidden connect 50 2 45 0;#P hidden connect 51 2 45 0;#P hidden connect 52 2 45 0;#P hidden connect 53 2 45 0;#P hidden connect 54 2 45 0;#P hidden connect 55 2 45 0;#P hidden connect 56 2 45 0;#P hidden connect 57 2 45 0;#P hidden connect 58 2 45 0;#P hidden connect 59 2 45 0;#P hidden connect 60 2 45 0;#P hidden connect 61 2 45 0;#P hidden connect 62 2 45 0;#P hidden connect 63 2 45 0;#P hidden connect 64 2 45 0;#P hidden connect 65 2 45 0;#P hidden connect 66 2 45 0;#P hidden connect 67 2 45 0;#P hidden connect 68 2 45 0;#P hidden connect 69 2 45 0;#P hidden connect 70 2 45 0;#P hidden connect 71 2 45 0;#P hidden connect 72 2 45 0;#P hidden connect 73 2 45 0;#P hidden connect 74 2 45 0;#P hidden connect 76 2 45 0;#P hidden connect 77 2 45 0;#P hidden connect 78 2 45 0;#P hidden connect 79 2 45 0;#P hidden connect 80 2 45 0;#P hidden connect 81 2 45 0;#P hidden connect 82 2 45 0;#P hidden connect 83 2 45 0;#P hidden connect 84 2 45 0;#P hidden connect 85 2 45 0;#P hidden connect 86 2 45 0;#P hidden connect 87 2 45 0;#P hidden connect 88 2 45 0;#P hidden connect 89 2 45 0;#P hidden connect 90 2 45 0;#P hidden connect 91 2 45 0;#P hidden connect 92 2 45 0;#P hidden connect 93 2 45 0;#P hidden connect 120 0 119 0;#P hidden connect 123 0 125 0;#P pop;