max v2;#N vpatcher 9 48 611 176;#P origin 2 -80;#P window setfont "Sans Serif" 9.;#P hidden newex 656 37 88 196617 MOT-Loader MSP;#P hidden message 566 14 29 196617 MOT;#P hidden newex 566 79 38 196617 phelp;#P objectname phelp;#P window setfont "Sans Serif" 14.;#P message 543 14 20 196622 Z;#B color 5;#P objectname L[25];#P message 522 14 20 196622 Y;#P objectname L[24];#P message 501 14 20 196622 X;#B color 5;#P objectname L[23];#P window setfont "Sans Serif" 9.;#P hidden newex 598 14 105 196617 bgcolor 170 170 255;#B color 5;#P user textedit 18 35 383 53 2 3 9 Yes \, it was a lot of work....;#P objectname thes[0];#P hidden number 627 57 35 9 0 0 0 3 0 0 0 221 221 221 222 222 222 0 0 0;#P hidden newex 627 75 86 196617 sprintf script hidden connect obj[%i] 2 phelp 0;#P window setfont "Sans Serif" 14.;#P message 480 14 20 196622 W;#B color 5;#P objectname L[22];#P message 459 14 20 196622 V;#B color 5;#P objectname L[21];#P message 438 14 20 196622 U;#B color 5;#P objectname L[20];#P message 417 14 20 196622 T;#B color 5;#P objectname L[19];#P message 396 14 20 196622 S;#B color 5;#P objectname L[18];#P message 375 14 20 196622 R;#B color 5;#P objectname L[17];#P message 354 14 20 196622 Q;#B color 5;#P objectname L[16];#P message 333 14 20 196622 P;#B color 5;#P objectname L[15];#P message 312 14 20 196622 O;#B color 5;#P objectname L[14];#P message 291 14 20 196622 N;#B color 5;#P objectname L[13];#P message 270 14 20 196622 M;#B color 5;#P objectname L[12];#P message 249 14 20 196622 L;#B color 5;#P objectname L[11];#P message 228 14 20 196622 K;#B color 5;#P objectname L[10];#P message 207 14 20 196622 J;#B color 5;#P objectname L[9];#P message 186 14 20 196622 I;#B color 5;#P objectname L[8];#P message 165 14 20 196622 H;#B color 5;#P objectname L[7];#P message 144 14 20 196622 G;#B color 5;#P objectname L[6];#P message 123 14 20 196622 F;#B color 5;#P objectname L[5];#P message 102 14 20 196622 E;#B color 5;#P objectname L[4];#P message 81 14 20 196622 D;#B color 5;#P objectname L[3];#P message 60 14 20 196622 C;#B color 5;#P objectname L[2];#P message 39 14 20 196622 B;#B color 5;#P objectname L[1];#P message 18 14 20 196622 A;#B color 5;#P objectname L[0];#P window setfont "Sans Serif" 9.;#P user textedit 384 35 563 53 2 3 9 MOT;#P objectname obj[0];#P comment 1 0 100 196617;#N thispatcher;#Q end;#P hidden newobj 566 56 59 196617 thispatcher;#P hidden newex 566 37 88 196617 MOT-Loader Max;#P user ubutton 1 1 582 51 0 0;#P hidden connect 0 1 36 0;#P hidden connect 4 2 1 0;#P hidden connect 27 0 1 0;#P hidden connect 26 0 1 0;#P hidden connect 25 0 1 0;#P hidden connect 24 0 1 0;#P hidden connect 23 0 1 0;#P hidden connect 22 0 1 0;#P hidden connect 21 0 1 0;#P hidden connect 20 0 1 0;#P hidden connect 19 0 1 0;#P hidden connect 18 0 1 0;#P hidden connect 17 0 1 0;#P hidden connect 16 0 1 0;#P hidden connect 15 0 1 0;#P hidden connect 14 0 1 0;#P hidden connect 13 0 1 0;#P hidden connect 12 0 1 0;#P hidden connect 11 0 1 0;#P hidden connect 10 0 1 0;#P hidden connect 9 0 1 0;#P hidden connect 8 0 1 0;#P hidden connect 7 0 1 0;#P hidden connect 6 0 1 0;#P hidden connect 5 0 1 0;#P hidden connect 32 0 1 0;#P hidden connect 34 0 1 0;#P hidden connect 36 0 1 0;#P hidden connect 37 0 2 0;#P hidden connect 28 0 2 0;#P hidden connect 1 0 2 0;#P hidden connect 29 0 28 0;#P hidden connect 33 0 37 0;#P pop;