max v2;#N vpatcher 9 48 613 761;#P origin 3 -4;#P window setfont "Sans Serif" 9.;#P hidden newex 655 38 88 196617 MOT-Loader MSP;#P hidden message 565 15 29 196617 MOT;#P window setfont "Sans Serif" 14.;#P message 416 15 20 196622 T;#P objectname L[19];#P window setfont "Sans Serif" 9.;#P hidden newex 597 15 105 196617 bgcolor 170 170 255;#B color 5;#P user textedit 17 36 382 54 2 3 9 Tag messages with a unique index number;#P objectname thes[0];#P hidden number 626 58 35 9 0 0 0 3 0 0 0 221 221 221 222 222 222 0 0 0;#P hidden newex 626 76 86 196617 sprintf script hidden connect obj[%i] 2 phelp 0;#P window setfont "Sans Serif" 14.;#P message 542 15 20 196622 Z;#B color 5;#P objectname L[25];#P message 521 15 20 196622 Y;#B color 5;#P objectname L[24];#P message 500 15 20 196622 X;#B color 5;#P objectname L[23];#P message 479 15 20 196622 W;#B color 5;#P objectname L[22];#P message 458 15 20 196622 V;#B color 5;#P objectname L[21];#P message 437 15 20 196622 U;#B color 5;#P objectname L[20];#P message 395 15 20 196622 S;#B color 5;#P objectname L[18];#P message 374 15 20 196622 R;#B color 5;#P objectname L[17];#P message 353 15 20 196622 Q;#B color 5;#P objectname L[16];#P message 332 15 20 196622 P;#B color 5;#P objectname L[15];#P message 311 15 20 196622 O;#B color 5;#P objectname L[14];#P message 290 15 20 196622 N;#B color 5;#P objectname L[13];#P message 269 15 20 196622 M;#B color 5;#P objectname L[12];#P message 248 15 20 196622 L;#B color 5;#P objectname L[11];#P message 227 15 20 196622 K;#B color 5;#P objectname L[10];#P message 206 15 20 196622 J;#B color 5;#P objectname L[9];#P message 185 15 20 196622 I;#B color 5;#P objectname L[8];#P message 164 15 20 196622 H;#B color 5;#P objectname L[7];#P message 143 15 20 196622 G;#B color 5;#P objectname L[6];#P message 122 15 20 196622 F;#B color 5;#P objectname L[5];#P message 101 15 20 196622 E;#B color 5;#P objectname L[4];#P message 80 15 20 196622 D;#B color 5;#P objectname L[3];#P message 59 15 20 196622 C;#B color 5;#P objectname L[2];#P message 38 15 20 196622 B;#B color 5;#P objectname L[1];#P message 17 15 20 196622 A;#B color 5;#P objectname L[0];#P window setfont "Sans Serif" 9.;#P user textedit 383 36 562 54 2 3 9 borax \, funnel \, poly;#P objectname obj[0];#P user textedit 383 50 562 68 2 3 9 tan;#P objectname obj[1];#P user textedit 383 64 562 82 2 3 9 setclock;#P objectname obj[2];#P user textedit 383 78 562 96 2 3 9 tempo;#P objectname obj[3];#P user textedit 383 92 562 110 2 3 9 change \, if \, match \, select \, == \, !=;#P objectname obj[4];#P user textedit 383 106 562 136 2 3 9 change \, if \, led \, match \, select \, split \, togedge \, toggle \, == \, != \, && \, ||;#P objectname obj[5];#P user textedit 383 132 562 150 2 3 9 maximum \, number box \, peak \, > \, >=;#P objectname obj[6];#P user textedit 383 146 562 164 2 3 9 minimum \, number box \, trough \, < \, <=;#P objectname obj[7];#P user textedit 383 160 562 178 2 3 9 seq;#P objectname obj[8];#P user textedit 383 174 562 192 2 3 9 text;#P objectname obj[9];#P user textedit 383 188 562 206 2 3 9 dialog \, message \, textedit;#P objectname obj[10];#P user textedit 383 202 562 220 2 3 9 spell;#P objectname obj[11];#P user textedit 383 216 562 246 2 3 9 dialog \, lcd \, umenu \, message \, pcontrol \, sprintf;#P objectname obj[12];#P user textedit 383 242 562 260 2 3 9 comment \, message;#P objectname obj[13];#P user textedit 383 256 562 274 2 3 9 sprintf;#P objectname obj[14];#P user textedit 383 270 562 288 2 3 9 print;#P objectname obj[15];#P user textedit 383 284 562 302 2 3 9 past;#P objectname obj[16];#P user textedit 383 298 562 316 2 3 9 pgmout;#P objectname obj[17];#P comment 0 1 100 196617;#P user textedit 383 312 562 330 2 3 9 rtin \, setclock;#P objectname obj[18];#P user textedit 383 326 562 344 2 3 9 clocker \, date \, timer;#P objectname obj[19];#P user textedit 383 340 562 358 2 3 9 date;#P objectname obj[20];#P user textedit 383 354 562 372 2 3 9 timeline;#P objectname obj[21];#P user textedit 383 368 562 386 2 3 9 thistrack;#P objectname obj[22];#P user textedit 383 382 562 400 2 3 9 thistimeline \, thistrack \, tiout;#P objectname obj[23];#P user textedit 383 396 562 414 2 3 9 ticmd;#P objectname obj[24];#P user textedit 383 410 562 428 2 3 9 thistimeline;#P objectname obj[25];#P user textedit 383 424 562 442 2 3 9 tiout;#P objectname obj[26];#P user textedit 383 438 562 456 2 3 9 accum \, expr \, *;#P objectname obj[27];#P user textedit 383 452 562 470 2 3 9 led \, togedge \, toggle \, ubutton;#P objectname obj[28];#P user textedit 383 466 562 484 2 3 9 thistrack;#P objectname obj[29];#P user textedit 383 480 562 498 2 3 9 mtr;#P objectname obj[30];#P user textedit 383 494 562 512 2 3 9 onebang;#P objectname obj[31];#P user textedit 383 508 562 526 2 3 9 fromsymbol;#P objectname obj[32];#P user textedit 383 522 562 540 2 3 9 prob;#P objectname obj[33];#P user textedit 383 536 562 566 2 3 9 bendout \, ctlout \, noteout \, pgmout \, polyout \, touchout;#P objectname obj[34];#P user textedit 383 562 562 580 2 3 9 midiout;#P objectname obj[35];#P user textedit 383 576 562 594 2 3 9 grab;#P objectname obj[36];#P user textedit 383 590 562 608 2 3 9 key \, keyup \, numkey;#P objectname obj[37];#P user textedit 383 604 562 622 2 3 9 imovie \, lcd \, mousestate;#P objectname obj[38];#P user textedit 383 618 562 636 2 3 9 match;#P objectname obj[39];#P user textedit 383 632 562 650 2 3 9 follow \, match \, route \, select \, ==;#P objectname obj[40];#P user textedit 383 646 562 664 2 3 9 route \, select;#P objectname obj[41];#P user textedit 383 660 562 678 2 3 9 button \, loadbang \, ubutton;#P objectname obj[42];#P user textedit 383 674 562 692 2 3 9 loadbang;#P objectname obj[43];#P user textedit 383 688 562 706 2 3 9 follow \, match \, route \, select \, ==;#P objectname obj[44];#P user textedit 383 702 562 720 2 3 9 expr \, sin \, cos \, tan;#P objectname obj[45];#P user textedit 383 716 562 746 2 3 9 if \, led \, match \, select \, split \, togedge \, toggle \, == \, != \, < \, > \, <= \, >=;#P objectname obj[46];#P user textedit 383 742 562 760 2 3 9 jit.cellblock;#P objectname obj[47];#P user textedit 383 756 562 774 2 3 9 number box \, numkey;#P objectname obj[48];#P user textedit 383 770 562 788 2 3 9 dialog \, message;#P objectname obj[49];#N thispatcher;#Q end;#P hidden newobj 565 57 59 196617 thispatcher;#P hidden newex 565 38 88 196617 MOT-Loader Max;#P hidden newex 591 429 38 196617 phelp;#P objectname phelp;#P user textedit 17 50 382 68 2 3 9 Tangent function;#P objectname thes[1];#P user textedit 17 64 382 82 2 3 9 Tempo \, control clock speed of Max timing objects;#P objectname thes[2];#P user textedit 17 78 382 96 2 3 9 Tempo \, send out beat numbers at a metronomic tempo;#P objectname thes[3];#P user textedit 17 92 382 110 2 3 9 Test the equality of two numbers;#P objectname thes[4];#P user textedit 17 106 382 136 2 3 9 Test the zero/non-zero status of a number or expression;#P objectname thes[5];#P user textedit 17 132 382 150 2 3 9 Test whether one number is greater than another;#P objectname thes[6];#P user textedit 17 146 382 164 2 3 9 Test whether one number is less than another;#P objectname thes[7];#P user textedit 17 160 382 178 2 3 9 Text file \, load \, play \, and save a MIDI file as plain text;#P objectname thes[8];#P user textedit 17 174 382 192 2 3 9 Text file \, open and save;#P objectname thes[9];#P user textedit 17 188 382 206 2 3 9 Text input by the user \, obtain;#P objectname thes[10];#P user textedit 17 202 382 220 2 3 9 Text \, convert to ASCII numbers;#P objectname thes[11];#P user textedit 17 216 382 246 2 3 9 Text \, display automatically in a patcher;#P objectname thes[12];#P user textedit 17 242 382 260 2 3 9 Text \, display in a patcher;#P objectname thes[13];#P user textedit 17 256 382 274 2 3 9 Text \, format numbers \, ASCII bytes \, and symbols into a single message;#P objectname thes[14];#P user textedit 17 270 382 288 2 3 9 Text \, print any message in the Max window;#P objectname thes[15];#P user textedit 17 284 382 302 2 3 9 Threshold \, report when numbers surpass;#P objectname thes[16];#P user textedit 17 298 382 316 2 3 9 Timbre change on a MIDI synthesizer;#P objectname thes[17];#P user textedit 17 312 382 330 2 3 9 Time code \, receive from an external source;#P objectname thes[18];#P user textedit 17 326 382 344 2 3 9 Time elapsed between events \, check;#P objectname thes[19];#P user textedit 17 340 382 358 2 3 9 Time of day and date;#P objectname thes[20];#P user textedit 17 354 382 372 2 3 9 Timeline of Max messages to be sent to specific objects at specific times;#P objectname thes[21];#P user textedit 17 368 382 386 2 3 9 Timeline \, control a timeline track from its own action patch;#P objectname thes[22];#P user textedit 17 382 382 400 2 3 9 Timeline \, control from one of its own action patches;#P objectname thes[23];#P user textedit 17 396 382 414 2 3 9 Timeline \, receive events (messages) from;#P objectname thes[24];#P user textedit 17 410 382 428 2 3 9 Timeline \, report the current time of;#P objectname thes[25];#P user textedit 17 424 382 442 2 3 9 Timeline \, send messages out one of the outlets of a timeline object;#P objectname thes[26];#P user textedit 17 438 382 456 2 3 9 Times \, multiply two numbers;#P objectname thes[27];#P user textedit 17 452 382 470 2 3 9 Toggle a process on and off;#P objectname thes[28];#P user textedit 17 466 382 484 2 3 9 Track \, control a timeline track from its own action patch;#P objectname thes[29];#P user textedit 17 480 382 498 2 3 9 Track \, record and play back a multi-track sequence of messages or numbers;#P objectname thes[30];#P user textedit 17 494 382 512 2 3 9 Traffic control for bang messages;#P objectname thes[31];#P user textedit 17 508 382 526 2 3 9 Transform a symbol into individual numbers or messages;#P objectname thes[32];#P user textedit 17 522 382 540 2 3 9 Transition probabilities \, Markov chain;#P objectname thes[33];#P user textedit 17 536 382 566 2 3 9 Transmit a specific type of MIDI message;#P objectname thes[34];#P user textedit 17 562 382 580 2 3 9 Transmit MIDI data byte by byte;#P objectname thes[35];#P user textedit 17 576 382 594 2 3 9 Trap and redirect the output of an object;#P objectname thes[36];#P user textedit 17 590 382 608 2 3 9 Trap computer keyboard events;#P objectname thes[37];#P user textedit 17 604 382 622 2 3 9 Trap mouse events;#P objectname thes[38];#P user textedit 17 618 382 636 2 3 9 Trap occurrences of a specific ordered set of numbers;#P objectname thes[39];#P user textedit 17 632 382 650 2 3 9 Trap occurrences of specific numbers;#P objectname thes[40];#P user textedit 17 646 382 664 2 3 9 Trap occurrences of specific symbols;#P objectname thes[41];#P user textedit 17 660 382 678 2 3 9 Trigger a process by sending the bang message;#P objectname thes[42];#P user textedit 17 674 382 692 2 3 9 Trigger events automatically when a patch is loaded;#P objectname thes[43];#P user textedit 17 688 382 706 2 3 9 Trigger events based on notes played by the user;#P objectname thes[44];#P user textedit 17 702 382 720 2 3 9 Trigonometric functions;#P objectname thes[45];#P user textedit 17 716 382 746 2 3 9 True/false testing;#P objectname thes[46];#P user textedit 17 742 382 760 2 3 9 Two-dimensional storage and viewing;#P objectname thes[47];#P user textedit 17 756 382 774 2 3 9 Type numerical data into a patcher;#P objectname thes[48];#P user textedit 17 770 382 788 2 3 9 Type text into a locked patcher;#P objectname thes[49];#P user ubutton 0 2 582 51 0 0;#P hidden connect 0 1 134 0;#P hidden connect 128 0 51 0;#P hidden connect 127 0 51 0;#P hidden connect 126 0 51 0;#P hidden connect 125 0 51 0;#P hidden connect 124 0 51 0;#P hidden connect 123 0 51 0;#P hidden connect 122 0 51 0;#P hidden connect 121 0 51 0;#P hidden connect 120 0 51 0;#P hidden connect 119 0 51 0;#P hidden connect 118 0 51 0;#P hidden connect 117 0 51 0;#P hidden connect 116 0 51 0;#P hidden connect 115 0 51 0;#P hidden connect 114 0 51 0;#P hidden connect 113 0 51 0;#P hidden connect 112 0 51 0;#P hidden connect 111 0 51 0;#P hidden connect 110 0 51 0;#P hidden connect 109 0 51 0;#P hidden connect 108 0 51 0;#P hidden connect 107 0 51 0;#P hidden connect 106 0 51 0;#P hidden connect 105 0 51 0;#P hidden connect 104 0 51 0;#P hidden connect 134 0 51 0;#P hidden connect 135 0 52 0;#P hidden connect 51 0 52 0;#P hidden connect 129 0 52 0;#P hidden connect 53 2 50 0;#P hidden connect 54 2 50 0;#P hidden connect 55 2 50 0;#P hidden connect 56 2 50 0;#P hidden connect 57 2 50 0;#P hidden connect 58 2 50 0;#P hidden connect 59 2 50 0;#P hidden connect 60 2 50 0;#P hidden connect 61 2 50 0;#P hidden connect 62 2 50 0;#P hidden connect 63 2 50 0;#P hidden connect 64 2 50 0;#P hidden connect 65 2 50 0;#P hidden connect 66 2 50 0;#P hidden connect 67 2 50 0;#P hidden connect 68 2 50 0;#P hidden connect 69 2 50 0;#P hidden connect 70 2 50 0;#P hidden connect 71 2 50 0;#P hidden connect 72 2 50 0;#P hidden connect 73 2 50 0;#P hidden connect 74 2 50 0;#P hidden connect 75 2 50 0;#P hidden connect 76 2 50 0;#P hidden connect 77 2 50 0;#P hidden connect 78 2 50 0;#P hidden connect 79 2 50 0;#P hidden connect 80 2 50 0;#P hidden connect 81 2 50 0;#P hidden connect 82 2 50 0;#P hidden connect 83 2 50 0;#P hidden connect 84 2 50 0;#P hidden connect 86 2 50 0;#P hidden connect 87 2 50 0;#P hidden connect 88 2 50 0;#P hidden connect 89 2 50 0;#P hidden connect 90 2 50 0;#P hidden connect 91 2 50 0;#P hidden connect 92 2 50 0;#P hidden connect 93 2 50 0;#P hidden connect 94 2 50 0;#P hidden connect 95 2 50 0;#P hidden connect 96 2 50 0;#P hidden connect 97 2 50 0;#P hidden connect 98 2 50 0;#P hidden connect 99 2 50 0;#P hidden connect 100 2 50 0;#P hidden connect 101 2 50 0;#P hidden connect 102 2 50 0;#P hidden connect 103 2 50 0;#P hidden connect 130 0 129 0;#P hidden connect 133 0 135 0;#P pop;