max v2;#N vpatcher 9 48 607 376;#P origin 3 -4;#P window setfont "Sans Serif" 9.;#P hidden newex 655 38 88 196617 MOT-Loader MSP;#P hidden message 565 15 29 196617 MOT;#P window setfont "Sans Serif" 14.;#P message 143 15 20 196622 G;#P objectname L[6];#P window setfont "Sans Serif" 9.;#P hidden newex 597 15 105 196617 bgcolor 170 170 255;#B color 5;#P user textedit 17 36 382 54 2 3 9 Gate the flow of messages;#P objectname thes[0];#P hidden number 626 58 35 9 0 0 0 3 0 0 0 221 221 221 222 222 222 0 0 0;#P hidden newex 626 76 86 196617 sprintf script hidden connect obj[%i] 2 phelp 0;#P window setfont "Sans Serif" 14.;#P message 542 15 20 196622 Z;#B color 5;#P objectname L[25];#P message 521 15 20 196622 Y;#B color 5;#P objectname L[24];#P message 500 15 20 196622 X;#B color 5;#P objectname L[23];#P message 479 15 20 196622 W;#B color 5;#P objectname L[22];#P message 458 15 20 196622 V;#B color 5;#P objectname L[21];#P message 437 15 20 196622 U;#B color 5;#P objectname L[20];#P message 416 15 20 196622 T;#B color 5;#P objectname L[19];#P message 395 15 20 196622 S;#B color 5;#P objectname L[18];#P message 374 15 20 196622 R;#B color 5;#P objectname L[17];#P message 353 15 20 196622 Q;#B color 5;#P objectname L[16];#P message 332 15 20 196622 P;#B color 5;#P objectname L[15];#P message 311 15 20 196622 O;#B color 5;#P objectname L[14];#P message 290 15 20 196622 N;#B color 5;#P objectname L[13];#P message 269 15 20 196622 M;#B color 5;#P objectname L[12];#P message 248 15 20 196622 L;#B color 5;#P objectname L[11];#P message 227 15 20 196622 K;#B color 5;#P objectname L[10];#P message 206 15 20 196622 J;#B color 5;#P objectname L[9];#P message 185 15 20 196622 I;#B color 5;#P objectname L[8];#P message 164 15 20 196622 H;#B color 5;#P objectname L[7];#P message 122 15 20 196622 F;#B color 5;#P objectname L[5];#P message 101 15 20 196622 E;#B color 5;#P objectname L[4];#P message 80 15 20 196622 D;#B color 5;#P objectname L[3];#P message 59 15 20 196622 C;#B color 5;#P objectname L[2];#P message 38 15 20 196622 B;#B color 5;#P objectname L[1];#P message 17 15 20 196622 A;#B color 5;#P objectname L[0];#P window setfont "Sans Serif" 9.;#P user textedit 383 36 562 54 2 3 9 gate \, Ggate;#P objectname obj[0];#P user textedit 383 50 562 92 2 3 9 dial \, envi \, hslider \, imovie \, kslider \, lcd \, mousestate \, multislider \, number box \, rslider \, slider \, table \, uslider;#P objectname obj[1];#P user textedit 383 88 562 106 2 3 9 strippath;#P objectname obj[2];#P user textedit 383 102 562 120 2 3 9 patcherargs;#P objectname obj[3];#P user textedit 383 116 562 134 2 3 9 suckah;#P objectname obj[4];#P user textedit 383 130 562 160 2 3 9 Float \, forward \, grab \, Int \, message \, receive \, send \, value;#P objectname obj[5];#P user textedit 383 156 562 174 2 3 9 pv \, value;#P objectname obj[6];#P user textedit 383 170 562 188 2 3 9 multislider \, table;#P objectname obj[7];#P user textedit 383 184 562 202 2 3 9 timeline;#P objectname obj[8];#P user textedit 383 198 562 216 2 3 9 pict;#P objectname obj[9];#P user textedit 383 212 562 230 2 3 9 graphic \, frame \, oval \, rect \, ring;#P objectname obj[10];#P user textedit 383 226 562 244 2 3 9 lcd;#P objectname obj[11];#P user textedit 383 240 562 258 2 3 9 fpic;#P objectname obj[12];#P user textedit 383 254 562 272 2 3 9 split;#P objectname obj[13];#P user textedit 383 268 562 286 2 3 9 expr \, maximum \, number \, peak \, > \, >=;#P objectname obj[14];#P user textedit 383 282 562 300 2 3 9 past;#P objectname obj[15];#P comment 0 1 100 196617;#N thispatcher;#Q end;#P hidden newobj 565 57 59 196617 thispatcher;#P hidden newex 565 38 88 196617 MOT-Loader Max;#P hidden newex 576 240 38 196617 phelp;#P objectname phelp;#P user textedit 17 50 382 92 2 3 9 Generate numbers with the mouse;#P objectname thes[1];#P user textedit 17 88 382 106 2 3 9 Get filename from an absolute pathname;#P objectname thes[2];#P user textedit 17 102 382 120 2 3 9 Get parent patcher arguments;#P objectname thes[3];#P user textedit 17 116 382 134 2 3 9 Get pixel color at display coordinates;#P objectname thes[4];#P user textedit 17 130 382 160 2 3 9 Global message-sending;#P objectname thes[5];#P user textedit 17 156 382 174 2 3 9 Global variables;#P objectname thes[6];#P user textedit 17 170 382 188 2 3 9 Graphic display of an array of numbers \, editable with the mouse;#P objectname thes[7];#P user textedit 17 184 382 202 2 3 9 Graphic editor for Max messages sent to specific objects at specific times;#P objectname thes[8];#P user textedit 17 198 382 216 2 3 9 Graphics \, draw a picture in a graphic window;#P objectname thes[9];#P user textedit 17 212 382 230 2 3 9 Graphics \, draw shapes in a graphic window;#P objectname thes[10];#P user textedit 17 226 382 244 2 3 9 Graphics \, draw shapes in a patcher window;#P objectname thes[11];#P user textedit 17 240 382 258 2 3 9 Graphics \, put a picture in a patcher window;#P objectname thes[12];#P user textedit 17 254 382 272 2 3 9 Greater than and less than comparisons \, redirect numbers based on;#P objectname thes[13];#P user textedit 17 268 382 286 2 3 9 Greater than \, find the greater of two numbers;#P objectname thes[14];#P user textedit 17 282 382 300 2 3 9 Greater than \, report when all numbers in a list surpass specific thresholds;#P objectname thes[15];#P user ubutton 0 2 582 51 0 0;#P hidden connect 0 1 66 0;#P hidden connect 60 0 17 0;#P hidden connect 59 0 17 0;#P hidden connect 58 0 17 0;#P hidden connect 57 0 17 0;#P hidden connect 56 0 17 0;#P hidden connect 55 0 17 0;#P hidden connect 54 0 17 0;#P hidden connect 53 0 17 0;#P hidden connect 52 0 17 0;#P hidden connect 51 0 17 0;#P hidden connect 50 0 17 0;#P hidden connect 49 0 17 0;#P hidden connect 48 0 17 0;#P hidden connect 47 0 17 0;#P hidden connect 46 0 17 0;#P hidden connect 45 0 17 0;#P hidden connect 44 0 17 0;#P hidden connect 43 0 17 0;#P hidden connect 42 0 17 0;#P hidden connect 41 0 17 0;#P hidden connect 40 0 17 0;#P hidden connect 39 0 17 0;#P hidden connect 38 0 17 0;#P hidden connect 37 0 17 0;#P hidden connect 36 0 17 0;#P hidden connect 66 0 17 0;#P hidden connect 67 0 18 0;#P hidden connect 17 0 18 0;#P hidden connect 61 0 18 0;#P hidden connect 20 2 16 0;#P hidden connect 21 2 16 0;#P hidden connect 22 2 16 0;#P hidden connect 23 2 16 0;#P hidden connect 24 2 16 0;#P hidden connect 25 2 16 0;#P hidden connect 26 2 16 0;#P hidden connect 27 2 16 0;#P hidden connect 28 2 16 0;#P hidden connect 29 2 16 0;#P hidden connect 30 2 16 0;#P hidden connect 31 2 16 0;#P hidden connect 32 2 16 0;#P hidden connect 33 2 16 0;#P hidden connect 34 2 16 0;#P hidden connect 35 2 16 0;#P hidden connect 62 0 61 0;#P hidden connect 65 0 67 0;#P pop;