max v2;#N vpatcher 9 47 612 550;#P origin 3 -4;#P window setfont "Sans Serif" 9.;#P hidden newex 656 38 88 196617 MOT-Loader MSP;#P hidden message 565 15 29 196617 MOT;#P window setfont "Sans Serif" 14.;#P message 80 15 20 196622 D;#P objectname L[3];#P window setfont "Sans Serif" 9.;#P hidden newex 597 15 105 196617 bgcolor 170 170 255;#B color 5;#P user textedit 17 36 382 54 2 3 9 Data structures \, arbitrarily ordered array of arbitrary messages;#P objectname thes[0];#P hidden number 626 58 35 9 0 0 0 3 0 0 0 221 221 221 222 222 222 0 0 0;#P hidden newex 626 76 86 196617 sprintf script hidden connect obj[%i] 2 phelp 0;#P window setfont "Sans Serif" 14.;#P message 542 15 20 196622 Z;#B color 5;#P objectname L[25];#P message 521 15 20 196622 Y;#B color 5;#P objectname L[24];#P message 500 15 20 196622 X;#B color 5;#P objectname L[23];#P message 479 15 20 196622 W;#B color 5;#P objectname L[22];#P message 458 15 20 196622 V;#B color 5;#P objectname L[21];#P message 437 15 20 196622 U;#B color 5;#P objectname L[20];#P message 416 15 20 196622 T;#B color 5;#P objectname L[19];#P message 395 15 20 196622 S;#B color 5;#P objectname L[18];#P message 374 15 20 196622 R;#B color 5;#P objectname L[17];#P message 353 15 20 196622 Q;#B color 5;#P objectname L[16];#P message 332 15 20 196622 P;#B color 5;#P objectname L[15];#P message 311 15 20 196622 O;#B color 5;#P objectname L[14];#P message 290 15 20 196622 N;#B color 5;#P objectname L[13];#P message 269 15 20 196622 M;#B color 5;#P objectname L[12];#P message 248 15 20 196622 L;#B color 5;#P objectname L[11];#P message 227 15 20 196622 K;#B color 5;#P objectname L[10];#P message 206 15 20 196622 J;#B color 5;#P objectname L[9];#P message 185 15 20 196622 I;#B color 5;#P objectname L[8];#P message 164 15 20 196622 H;#B color 5;#P objectname L[7];#P message 143 15 20 196622 G;#B color 5;#P objectname L[6];#P message 122 15 20 196622 F;#B color 5;#P objectname L[5];#P message 101 15 20 196622 E;#B color 5;#P objectname L[4];#P message 59 15 20 196622 C;#B color 5;#P objectname L[2];#P message 38 15 20 196622 B;#B color 5;#P objectname L[1];#P message 17 15 20 196622 A;#B color 5;#P objectname L[0];#P window setfont "Sans Serif" 9.;#P user textedit 383 36 562 54 2 3 9 coll \, umenu;#P objectname obj[0];#P user textedit 383 50 562 68 2 3 9 date;#P objectname obj[1];#P user textedit 383 64 562 82 2 3 9 Float \, number box;#P objectname obj[2];#P user textedit 383 78 562 96 2 3 9 IncDec;#P objectname obj[3];#P user textedit 383 92 562 110 2 3 9 defer \, deferlow;#P objectname obj[4];#P user textedit 383 106 562 124 2 3 9 dropfile;#P objectname obj[5];#P user textedit 383 120 562 138 2 3 9 delay;#P objectname obj[6];#P user textedit 383 134 562 152 2 3 9 sustain;#P objectname obj[7];#P user textedit 383 148 562 166 2 3 9 pipe \, thresh;#P objectname obj[8];#P user textedit 383 162 562 180 2 3 9 borax \, clocker \, date \, timer;#P objectname obj[9];#P user textedit 383 176 562 194 2 3 9 borax \, timer;#P objectname obj[10];#P user textedit 383 190 562 208 2 3 9 serial \, vdp;#P objectname obj[11];#P user textedit 383 204 562 222 2 3 9 midiinfo;#P objectname obj[12];#P user textedit 383 218 562 236 2 3 9 dial;#P objectname obj[13];#P user textedit 383 232 562 250 2 3 9 expr \, -;#P objectname obj[14];#P user textedit 383 246 562 264 2 3 9 speedlim;#P objectname obj[15];#P user textedit 383 260 562 278 2 3 9 number box;#P objectname obj[16];#P user textedit 383 274 562 304 2 3 9 dial \, envi \, uslider \, hslider \, kslider \, multislider \, number \, slider \, table;#P objectname obj[17];#P comment 0 1 100 196617;#P user textedit 383 300 562 318 2 3 9 led \, number box \, toggle;#P objectname obj[18];#P user textedit 383 314 562 332 2 3 9 cycle;#P objectname obj[19];#P user textedit 383 328 562 346 2 3 9 expr \, / \, !/;#P objectname obj[20];#P user textedit 383 342 562 360 2 3 9 %;#P objectname obj[21];#P user textedit 383 356 562 374 2 3 9 !/;#P objectname obj[22];#P user textedit 383 370 562 388 2 3 9 dropfile;#P objectname obj[23];#P user textedit 383 384 562 402 2 3 9 graphic \, pict;#P objectname obj[24];#P user textedit 383 398 562 416 2 3 9 graphic \, frame \, oval \, rect \, ring;#P objectname obj[25];#P user textedit 383 412 562 430 2 3 9 lcd;#P objectname obj[26];#P user textedit 383 426 562 444 2 3 9 lcd \, mousestate;#P objectname obj[27];#P user textedit 383 440 562 458 2 3 9 borax;#P objectname obj[28];#P user textedit 383 454 562 472 2 3 9 flush \, midiflush \, makenote \, pipe;#P objectname obj[29];#N thispatcher;#Q end;#P hidden newobj 565 58 59 196617 thispatcher;#P hidden newex 565 38 88 196617 MOT-Loader Max;#P hidden newex 574 279 38 196617 phelp;#P objectname phelp;#P user textedit 17 50 382 68 2 3 9 Date and time of day;#P objectname thes[1];#P user textedit 17 64 382 82 2 3 9 Decimal numbers \, store numbers with a fractional part;#P objectname thes[2];#P user textedit 17 78 382 96 2 3 9 Decrement the value of a user interface object;#P objectname thes[3];#P user textedit 17 92 382 110 2 3 9 Defer the execution of a message;#P objectname thes[4];#P user textedit 17 106 382 124 2 3 9 Define a region for dragging and dropping a file;#P objectname thes[5];#P user textedit 17 120 382 138 2 3 9 Delay a bang for a specific amount of time;#P objectname thes[6];#P user textedit 17 134 382 152 2 3 9 Delay note-off messages until a specific event occurs;#P objectname thes[7];#P user textedit 17 148 382 166 2 3 9 Delay one or more numbers for a specific amount of time;#P objectname thes[8];#P user textedit 17 162 382 180 2 3 9 Delay \, measure the time elapsed between two events;#P objectname thes[9];#P user textedit 17 176 382 194 2 3 9 Delta time \, report time interval between onsets of MIDI notes;#P objectname thes[10];#P user textedit 17 190 382 208 2 3 9 Devices \, drive external devices;#P objectname thes[11];#P user textedit 17 204 382 222 2 3 9 Devices \, get a list of MIDI devices and ports currently available;#P objectname thes[12];#P user textedit 17 218 382 236 2 3 9 Dial for sending numbers;#P objectname thes[13];#P user textedit 17 232 382 250 2 3 9 Difference between two numbers \, obtain by subtracting;#P objectname thes[14];#P user textedit 17 246 382 264 2 3 9 Discrete values from a continuous stream of data;#P objectname thes[15];#P user textedit 17 260 382 278 2 3 9 Display numbers in decimal \, hexadecimal \, or binary form;#P objectname thes[16];#P user textedit 17 274 382 304 2 3 9 Display numerical data graphically;#P objectname thes[17];#P user textedit 17 300 382 318 2 3 9 Display the zero/non-zero status of a number;#P objectname thes[18];#P user textedit 17 314 382 332 2 3 9 Distribute incoming numbers out individual outlets;#P objectname thes[19];#P user textedit 17 328 382 346 2 3 9 Divide one number by another;#P objectname thes[20];#P user textedit 17 342 382 360 2 3 9 Divide two numbers \, output the remainder;#P objectname thes[21];#P user textedit 17 356 382 374 2 3 9 Division object (inlets reversed);#P objectname thes[22];#P user textedit 17 370 382 388 2 3 9 Drag and drop;#P objectname thes[23];#P user textedit 17 384 382 402 2 3 9 Draw a picture in a graphic window;#P objectname thes[24];#P user textedit 17 398 382 416 2 3 9 Draw shapes in a graphic window;#P objectname thes[25];#P user textedit 17 412 382 430 2 3 9 Draw shapes in a patcher window;#P objectname thes[26];#P user textedit 17 426 382 444 2 3 9 Draw with the mouse;#P objectname thes[27];#P user textedit 17 440 382 458 2 3 9 Duration \, report length of MIDI notes;#P objectname thes[28];#P user textedit 17 454 382 472 2 3 9 Duration \, specify for transmitted MIDI notes;#P objectname thes[29];#P user ubutton 0 2 582 51 0 0;#P hidden connect 0 1 94 0;#P hidden connect 88 0 31 0;#P hidden connect 87 0 31 0;#P hidden connect 86 0 31 0;#P hidden connect 85 0 31 0;#P hidden connect 84 0 31 0;#P hidden connect 83 0 31 0;#P hidden connect 82 0 31 0;#P hidden connect 81 0 31 0;#P hidden connect 80 0 31 0;#P hidden connect 79 0 31 0;#P hidden connect 78 0 31 0;#P hidden connect 77 0 31 0;#P hidden connect 76 0 31 0;#P hidden connect 75 0 31 0;#P hidden connect 74 0 31 0;#P hidden connect 73 0 31 0;#P hidden connect 72 0 31 0;#P hidden connect 71 0 31 0;#P hidden connect 70 0 31 0;#P hidden connect 69 0 31 0;#P hidden connect 68 0 31 0;#P hidden connect 67 0 31 0;#P hidden connect 66 0 31 0;#P hidden connect 65 0 31 0;#P hidden connect 64 0 31 0;#P hidden connect 94 0 31 0;#P hidden connect 95 0 32 0;#P hidden connect 31 0 32 0;#P hidden connect 89 0 32 0;#P hidden connect 33 2 30 0;#P hidden connect 34 2 30 0;#P hidden connect 35 2 30 0;#P hidden connect 36 2 30 0;#P hidden connect 37 2 30 0;#P hidden connect 38 2 30 0;#P hidden connect 39 2 30 0;#P hidden connect 40 2 30 0;#P hidden connect 41 2 30 0;#P hidden connect 42 2 30 0;#P hidden connect 43 2 30 0;#P hidden connect 44 2 30 0;#P hidden connect 46 2 30 0;#P hidden connect 47 2 30 0;#P hidden connect 48 2 30 0;#P hidden connect 49 2 30 0;#P hidden connect 50 2 30 0;#P hidden connect 51 2 30 0;#P hidden connect 52 2 30 0;#P hidden connect 53 2 30 0;#P hidden connect 54 2 30 0;#P hidden connect 55 2 30 0;#P hidden connect 56 2 30 0;#P hidden connect 57 2 30 0;#P hidden connect 58 2 30 0;#P hidden connect 59 2 30 0;#P hidden connect 60 2 30 0;#P hidden connect 61 2 30 0;#P hidden connect 62 2 30 0;#P hidden connect 63 2 30 0;#P hidden connect 90 0 89 0;#P hidden connect 93 0 95 0;#P pop;