max v2;#N vpatcher 9 48 613 756;#P origin 3 -4;#P window setfont "Sans Serif" 9.;#P hidden newex 655 38 88 196617 MOT-Loader MSP;#P hidden message 565 15 29 196617 MOT;#P window setfont "Sans Serif" 14.;#P message 395 15 20 196622 S;#P objectname L[18];#P window setfont "Sans Serif" 9.;#P hidden newex 597 15 105 196617 bgcolor 170 170 255;#B color 5;#P user textedit 17 36 382 54 2 3 9 Sampler \, receive and transmit sound data via MIDI Sample Dump;#P objectname thes[0];#P hidden number 626 58 35 9 0 0 0 3 0 0 0 221 221 221 222 222 222 0 0 0;#P hidden newex 626 76 86 196617 sprintf script hidden connect obj[%i] 2 phelp 0;#P window setfont "Sans Serif" 14.;#P message 542 15 20 196622 Z;#B color 5;#P objectname L[25];#P message 521 15 20 196622 Y;#B color 5;#P objectname L[24];#P message 500 15 20 196622 X;#B color 5;#P objectname L[23];#P message 479 15 20 196622 W;#B color 5;#P objectname L[22];#P message 458 15 20 196622 V;#B color 5;#P objectname L[21];#P message 437 15 20 196622 U;#B color 5;#P objectname L[20];#P message 416 15 20 196622 T;#B color 5;#P objectname L[19];#P message 374 15 20 196622 R;#B color 5;#P objectname L[17];#P message 353 15 20 196622 Q;#B color 5;#P objectname L[16];#P message 332 15 20 196622 P;#B color 5;#P objectname L[15];#P message 311 15 20 196622 O;#B color 5;#P objectname L[14];#P message 290 15 20 196622 N;#B color 5;#P objectname L[13];#P message 269 15 20 196622 M;#B color 5;#P objectname L[12];#P message 248 15 20 196622 L;#B color 5;#P objectname L[11];#P message 227 15 20 196622 K;#B color 5;#P objectname L[10];#P message 206 15 20 196622 J;#B color 5;#P objectname L[9];#P message 185 15 20 196622 I;#B color 5;#P objectname L[8];#P message 164 15 20 196622 H;#B color 5;#P objectname L[7];#P message 143 15 20 196622 G;#B color 5;#P objectname L[6];#P message 122 15 20 196622 F;#B color 5;#P objectname L[5];#P message 101 15 20 196622 E;#B color 5;#P objectname L[4];#P message 80 15 20 196622 D;#B color 5;#P objectname L[3];#P message 59 15 20 196622 C;#B color 5;#P objectname L[2];#P message 38 15 20 196622 B;#B color 5;#P objectname L[1];#P message 17 15 20 196622 A;#B color 5;#P objectname L[0];#P window setfont "Sans Serif" 9.;#P user textedit 383 36 562 54 2 3 9 midiin \, midiout \, sysexin;#P objectname obj[0];#P user textedit 383 50 562 68 2 3 9 pattrstorage;#P objectname obj[1];#P user textedit 383 64 562 82 2 3 9 savedialog;#P objectname obj[2];#P user textedit 383 78 562 96 2 3 9 thispatcher;#P objectname obj[3];#P user textedit 383 92 562 110 2 3 9 pipe \, thresh;#P objectname obj[4];#P user textedit 383 106 562 124 2 3 9 delay;#P objectname obj[5];#P user textedit 383 120 562 138 2 3 9 timeline;#P objectname obj[6];#P user textedit 383 134 562 152 2 3 9 follow;#P objectname obj[7];#P user textedit 383 148 562 166 2 3 9 screensize;#P objectname obj[8];#P user textedit 383 162 562 180 2 3 9 umenu;#P objectname obj[9];#P user textedit 383 176 562 194 2 3 9 filepath;#P objectname obj[10];#P user textedit 383 190 562 208 2 3 9 colorpicker;#P objectname obj[11];#P user textedit 383 204 562 222 2 3 9 select;#P objectname obj[12];#P user textedit 383 218 562 236 2 3 9 route;#P objectname obj[13];#P user textedit 383 232 562 250 2 3 9 universal;#P objectname obj[14];#P user textedit 383 246 562 276 2 3 9 Float \, forward \, grab \, Int \, message \, send;#P objectname obj[15];#P user textedit 383 272 562 290 2 3 9 loadmess;#P objectname obj[16];#P user textedit 383 286 562 304 2 3 9 cycle \, iter \, spray \, unpack;#P objectname obj[17];#P comment 0 1 100 196617;#P user textedit 383 300 562 318 2 3 9 match;#P objectname obj[18];#P user textedit 383 314 562 332 2 3 9 counter \, line \, clocker \, tempo;#P objectname obj[19];#P user textedit 383 328 562 346 2 3 9 timeline;#P objectname obj[20];#P user textedit 383 342 562 360 2 3 9 follow \, mtr \, seq;#P objectname obj[21];#P user textedit 383 356 562 374 2 3 9 serial \, spell;#P objectname obj[22];#P user textedit 383 370 562 388 2 3 9 cycle \, iter \, message \, spray \, unpack;#P objectname obj[23];#P user textedit 383 384 562 402 2 3 9 thresh;#P objectname obj[24];#P user textedit 383 398 562 416 2 3 9 bondo;#P objectname obj[25];#P user textedit 383 412 562 430 2 3 9 bgcolor;#P objectname obj[26];#P user textedit 383 426 562 444 2 3 9 loadbang \, preset;#P objectname obj[27];#P user textedit 383 440 562 458 2 3 9 urn;#P objectname obj[28];#P user textedit 383 454 562 472 2 3 9 bag;#P objectname obj[29];#P user textedit 383 468 562 486 2 3 9 bucket \, cycle;#P objectname obj[30];#P user textedit 383 482 562 500 2 3 9 uzi;#P objectname obj[31];#P user textedit 383 496 562 514 2 3 9 sin;#P objectname obj[32];#P user textedit 383 510 562 528 2 3 9 expr;#P objectname obj[33];#P user textedit 383 524 562 554 2 3 9 hslider \, kslider \, multislider \, nslider \, rslider \, slider \, uslider;#P objectname obj[34];#P user textedit 383 550 562 568 2 3 9 pictslider;#P objectname obj[35];#P user textedit 383 564 562 582 2 3 9 setclock;#P objectname obj[36];#P user textedit 383 578 562 596 2 3 9 preset;#P objectname obj[37];#P user textedit 383 592 562 610 2 3 9 midiin \, midiout \, sysexin;#P objectname obj[38];#P user textedit 383 606 562 624 2 3 9 imovie \, movie \, playbar \, timeline;#P objectname obj[39];#P user textedit 383 620 562 638 2 3 9 funbuff \, offer;#P objectname obj[40];#P user textedit 383 634 562 652 2 3 9 thresh;#P objectname obj[41];#P user textedit 383 648 562 666 2 3 9 speedlim;#P objectname obj[42];#P user textedit 383 662 562 680 2 3 9 graphic \, lcd \, pict \, oval \, frame \, ring;#P objectname obj[43];#P user textedit 383 676 562 694 2 3 9 frame \, rect;#P objectname obj[44];#P user textedit 383 690 562 708 2 3 9 sqrt;#P objectname obj[45];#P user textedit 383 704 562 722 2 3 9 button \, loadbang \, ubutton;#P objectname obj[46];#P user textedit 383 718 562 736 2 3 9 loadbang;#P objectname obj[47];#P user textedit 383 732 562 750 2 3 9 midiin \, midiout \, rtin;#P objectname obj[48];#P user textedit 383 746 562 764 2 3 9 poly;#P objectname obj[49];#P user textedit 383 760 562 778 2 3 9 drunk \, prob \, random \, table \, urn;#P objectname obj[50];#P user textedit 383 774 562 804 2 3 9 gate \, Ggate \, Gswitch \, speedlim \, switch;#P objectname obj[51];#P user textedit 383 800 562 818 2 3 9 midiin \, midiout \, rtin;#P objectname obj[52];#P user textedit 383 814 562 832 2 3 9 bondo;#P objectname obj[53];#P user textedit 383 828 562 846 2 3 9 capture \, table \, text;#P objectname obj[54];#P user textedit 383 842 562 860 2 3 9 bag;#P objectname obj[55];#P user textedit 383 856 562 874 2 3 9 bucket \, table \, text;#P objectname obj[56];#P user textedit 383 870 562 888 2 3 9 preset \, pattrstorage;#P objectname obj[57];#P user textedit 383 884 562 914 2 3 9 Float \, funbuff \, Int \, number box \, offer \, pv \, table \, value;#P objectname obj[58];#P user textedit 383 910 562 928 2 3 9 offer;#P objectname obj[59];#P user textedit 383 924 562 942 2 3 9 sprintf;#P objectname obj[60];#N thispatcher;#Q end;#P hidden newobj 565 59 59 196617 thispatcher;#P hidden newex 565 38 88 196617 MOT-Loader Max;#P hidden newex 581 544 38 196617 phelp;#P objectname phelp;#P user textedit 17 50 382 68 2 3 9 Save and recall presets of pattr data;#P objectname thes[1];#P user textedit 17 64 382 82 2 3 9 Save As file dialog;#P objectname thes[2];#P user textedit 17 78 382 96 2 3 9 Save \, move to the foreground \, or close a patcher window automatically;#P objectname thes[3];#P user textedit 17 92 382 110 2 3 9 Schedule a number or list to be sent at a future time;#P objectname thes[4];#P user textedit 17 106 382 124 2 3 9 Schedule an event for a future time;#P objectname thes[5];#P user textedit 17 120 382 138 2 3 9 Score of Max messages to be sent to specific objects at specific times;#P objectname thes[6];#P user textedit 17 134 382 152 2 3 9 Score-following;#P objectname thes[7];#P user textedit 17 148 382 166 2 3 9 Screen size;#P objectname thes[8];#P user textedit 17 162 382 180 2 3 9 Scroll through a list of messages;#P objectname thes[9];#P user textedit 17 176 382 194 2 3 9 Search path information;#P objectname thes[10];#P user textedit 17 190 382 208 2 3 9 Select a color using a modal dialog;#P objectname thes[11];#P user textedit 17 204 382 222 2 3 9 Select specific values or symbols from incoming messages;#P objectname thes[12];#P user textedit 17 218 382 236 2 3 9 Selector \, route messages depending on the first item of each message;#P objectname thes[13];#P user textedit 17 232 382 250 2 3 9 Send a message to all instances of the same class in a patcher;#P objectname thes[14];#P user textedit 17 246 382 276 2 3 9 Send a message to receive objects in any other window;#P objectname thes[15];#P user textedit 17 272 382 290 2 3 9 Send a message when a patch is loaded;#P objectname thes[16];#P user textedit 17 286 382 304 2 3 9 Separate a list into its constituent elements;#P objectname thes[17];#P user textedit 17 300 382 318 2 3 9 Sequence of numbers \, detect a specific ordered set of numbers;#P objectname thes[18];#P user textedit 17 314 382 332 2 3 9 Sequence of numbers \, generate automatically;#P objectname thes[19];#P user textedit 17 328 382 346 2 3 9 Sequencer of Max messages to be sent to specific objects at specific times;#P objectname thes[20];#P user textedit 17 342 382 360 2 3 9 Sequencer;#P objectname thes[21];#P user textedit 17 356 382 374 2 3 9 Serial port \, transmit and receive non-MIDI data;#P objectname thes[22];#P user textedit 17 370 382 388 2 3 9 Series of numbers \, break a list up into individual messages;#P objectname thes[23];#P user textedit 17 384 382 402 2 3 9 Series of numbers \, combine into a single list;#P objectname thes[24];#P user textedit 17 398 382 416 2 3 9 Set (of fixed order and size) of integers \; output all whenever one is modified;#P objectname thes[25];#P user textedit 17 412 382 430 2 3 9 Set background color;#P objectname thes[26];#P user textedit 17 426 382 444 2 3 9 Set values automatically when a patch is loaded;#P objectname thes[27];#P user textedit 17 440 382 458 2 3 9 Set \, produce a random ordering of a set;#P objectname thes[28];#P user textedit 17 454 382 472 2 3 9 Set \, store an unordered set of numbers;#P objectname thes[29];#P user textedit 17 468 382 486 2 3 9 Shift sequential input from one outlet to another;#P objectname thes[30];#P user textedit 17 482 382 500 2 3 9 Simultaneity \, send a series of bangs or numbers in a single tick of Maxs clock;#P objectname thes[31];#P user textedit 17 496 382 514 2 3 9 Sine function;#P objectname thes[32];#P user textedit 17 510 382 528 2 3 9 Sine \, cosine \, tangent \, and other trigonometric functions;#P objectname thes[33];#P user textedit 17 524 382 554 2 3 9 Slider to display or generate numerical data;#P objectname thes[34];#P user textedit 17 550 382 568 2 3 9 Slider \, picture-based;#P objectname thes[35];#P user textedit 17 564 382 582 2 3 9 SMPTE time code \, synchronize to an external source via MIDI Manager;#P objectname thes[36];#P user textedit 17 578 382 596 2 3 9 Snapshot \, store and recall instantaneous values of all user interface objects;#P objectname thes[37];#P user textedit 17 592 382 610 2 3 9 Sound sample data \, receive and transmit via MIDI Sample Dump;#P objectname thes[38];#P user textedit 17 606 382 624 2 3 9 Sound \, play in a QuickTime movie;#P objectname thes[39];#P user textedit 17 620 382 638 2 3 9 Sparse array of numbers;#P objectname thes[40];#P user textedit 17 634 382 652 2 3 9 Speed \, combine numbers into a single list if received faster than a certain rate;#P objectname thes[41];#P user textedit 17 648 382 666 2 3 9 Speed \, limit the rate at which messages are sent;#P objectname thes[42];#P user textedit 17 662 382 680 2 3 9 Sprites \, pictures and geometric shapes;#P objectname thes[43];#P user textedit 17 676 382 694 2 3 9 Square or rectangle \, drawing in a graphic window;#P objectname thes[44];#P user textedit 17 690 382 708 2 3 9 Square root of a number;#P objectname thes[45];#P user textedit 17 704 382 722 2 3 9 Start a process by sending the bang message;#P objectname thes[46];#P user textedit 17 718 382 736 2 3 9 Start activity automatically when a patch is loaded;#P objectname thes[47];#P user textedit 17 732 382 750 2 3 9 Start \, MIDI system message;#P objectname thes[48];#P user textedit 17 746 382 764 2 3 9 Steal voices \, turn off old notes if too many new ones arrive;#P objectname thes[49];#P user textedit 17 760 382 778 2 3 9 Stochastic (probabilistic) decision making;#P objectname thes[50];#P user textedit 17 774 382 804 2 3 9 Stop or alter the flow of messages;#P objectname thes[51];#P user textedit 17 800 382 818 2 3 9 Stop \, MIDI system message;#P objectname thes[52];#P user textedit 17 814 382 832 2 3 9 Store a fixed-size set of integers \; output all whenever one element is modified;#P objectname thes[53];#P user textedit 17 828 382 846 2 3 9 Store a series of numbers in order in an editable window;#P objectname thes[54];#P user textedit 17 842 382 860 2 3 9 Store an unordered set of numbers;#P objectname thes[55];#P user textedit 17 856 382 874 2 3 9 Store and recall recently received values;#P objectname thes[56];#P user textedit 17 870 382 888 2 3 9 Store and recall values of user interface objects at a certain moment;#P objectname thes[57];#P user textedit 17 884 382 914 2 3 9 Store one or more numbers;#P objectname thes[58];#P user textedit 17 910 382 928 2 3 9 Store \, recall \, and automatically delete x \, y pairs of numbers;#P objectname thes[59];#P user textedit 17 924 382 942 2 3 9 String of text combining numbers \, ASCII \, and symbols into a single message;#P objectname thes[60];#P user textedit 383 938 562 956 2 3 9 borax \, flush \, makenote \, midiflush;#P objectname obj[80];#P user textedit 383 952 562 970 2 3 9 bpatcher;#P objectname obj[79];#P user textedit 383 966 562 984 2 3 9 bpatcher \, patcher;#P objectname obj[78];#P user textedit 383 980 562 998 2 3 9 inlet \, outlet;#P objectname obj[77];#P user textedit 383 994 562 1012 2 3 9 substitute;#P objectname obj[76];#P user textedit 383 1008 562 1026 2 3 9 expr \, -;#P objectname obj[75];#P user textedit 383 1022 562 1040 2 3 9 !-;#P objectname obj[74];#P user textedit 383 1036 562 1054 2 3 9 accum \, expr \, table;#P objectname obj[73];#P user textedit 383 1050 562 1068 2 3 9 accum \, expr \, +;#P objectname obj[72];#P user textedit 383 1064 562 1082 2 3 9 stripnote;#P objectname obj[71];#P user textedit 383 1078 562 1108 2 3 9 gate \, Ggate \, Gswitch \, mousefilter \, select \, switch;#P objectname obj[70];#P user textedit 383 1104 562 1122 2 3 9 sustain;#P objectname obj[69];#P user textedit 383 1118 562 1136 2 3 9 ctlin \, ctlout \, sustain;#P objectname obj[68];#P user textedit 383 1132 562 1150 2 3 9 led \, togedge \, toggle \, ubutton;#P objectname obj[67];#P user textedit 383 1146 562 1164 2 3 9 matrixcrtrl;#P objectname obj[66];#P user textedit 383 1160 562 1178 2 3 9 gate \, Ggate \, Gswitch \, switch \, toggle;#P objectname obj[65];#P user textedit 383 1174 562 1192 2 3 9 fromsymbol;#P objectname obj[64];#P user textedit 383 1188 562 1206 2 3 9 buddy;#P objectname obj[63];#P user textedit 383 1202 562 1220 2 3 9 setclock;#P objectname obj[62];#P user textedit 383 1216 562 1234 2 3 9 midiout \, sxformat;#P objectname obj[61];#P user textedit 17 938 382 956 2 3 9 Stuck MIDI notes \, avoid or turn off;#P objectname thes[80];#P user textedit 17 952 382 970 2 3 9 Subpatch in a box \, visible from the patcher that contains it;#P objectname thes[79];#P user textedit 17 966 382 984 2 3 9 Subpatch object (subroutine);#P objectname thes[78];#P user textedit 17 980 382 998 2 3 9 Subpatch object \, create an inlet or outlet in;#P objectname thes[77];#P user textedit 17 994 382 1012 2 3 9 Substitute a symbol for another symbol in a message;#P objectname thes[76];#P user textedit 17 1008 382 1026 2 3 9 Subtract one number from another;#P objectname thes[75];#P user textedit 17 1022 382 1040 2 3 9 Subtraction object (inlets reversed);#P objectname thes[74];#P user textedit 17 1036 382 1054 2 3 9 Sum of a set of numbers;#P objectname thes[73];#P user textedit 17 1050 382 1068 2 3 9 Sum of two numbers;#P objectname thes[72];#P user textedit 17 1064 382 1082 2 3 9 Suppress note-off messages;#P objectname thes[71];#P user textedit 17 1078 382 1108 2 3 9 Suppress the flow of certain messages;#P objectname thes[70];#P user textedit 17 1104 382 1122 2 3 9 Sustain notes by holding note-off messages until a specific event occurs;#P objectname thes[69];#P user textedit 17 1118 382 1136 2 3 9 Sustain pedal;#P objectname thes[68];#P user textedit 17 1132 382 1150 2 3 9 Switch a process on and off;#P objectname thes[67];#P user textedit 17 1146 382 1164 2 3 9 Switch control matrix;#P objectname thes[66];#P user textedit 17 1160 382 1178 2 3 9 Switch the flow of messages on or off;#P objectname thes[65];#P user textedit 17 1174 382 1192 2 3 9 Symbol to message conversion;#P objectname thes[64];#P user textedit 17 1188 382 1206 2 3 9 Synchronize asynchronously arriving inputs \, send them out together;#P objectname thes[63];#P user textedit 17 1202 382 1220 2 3 9 Synchronize Max to an external clock source;#P objectname thes[62];#P user textedit 17 1216 382 1234 2 3 9 System exclusive messages \, construct and transmit;#P objectname thes[61];#P user textedit 383 1230 562 1248 2 3 9 midiin \, sysexin;#P objectname obj[90];#P user textedit 383 1244 562 1262 2 3 9 midiin \, midiout \, rtin;#P objectname obj[89];#P user textedit 17 1230 382 1248 2 3 9 System exclusive messages \, receive;#P objectname thes[90];#P user textedit 17 1244 382 1262 2 3 9 System Reset \, MIDI system message;#P objectname thes[89];#P user ubutton 0 2 582 51 0 0;#P hidden connect 0 1 200 0;#P hidden connect 200 0 106 0;#P hidden connect 194 0 106 0;#P hidden connect 193 0 106 0;#P hidden connect 192 0 106 0;#P hidden connect 191 0 106 0;#P hidden connect 190 0 106 0;#P hidden connect 189 0 106 0;#P hidden connect 188 0 106 0;#P hidden connect 187 0 106 0;#P hidden connect 186 0 106 0;#P hidden connect 185 0 106 0;#P hidden connect 184 0 106 0;#P hidden connect 183 0 106 0;#P hidden connect 182 0 106 0;#P hidden connect 181 0 106 0;#P hidden connect 180 0 106 0;#P hidden connect 179 0 106 0;#P hidden connect 178 0 106 0;#P hidden connect 177 0 106 0;#P hidden connect 176 0 106 0;#P hidden connect 175 0 106 0;#P hidden connect 174 0 106 0;#P hidden connect 173 0 106 0;#P hidden connect 172 0 106 0;#P hidden connect 171 0 106 0;#P hidden connect 170 0 106 0;#P hidden connect 106 0 107 0;#P hidden connect 195 0 107 0;#P hidden connect 201 0 107 0;#P hidden connect 108 2 105 0;#P hidden connect 109 2 105 0;#P hidden connect 110 2 105 0;#P hidden connect 111 2 105 0;#P hidden connect 112 2 105 0;#P hidden connect 113 2 105 0;#P hidden connect 114 2 105 0;#P hidden connect 115 2 105 0;#P hidden connect 116 2 105 0;#P hidden connect 117 2 105 0;#P hidden connect 118 2 105 0;#P hidden connect 119 2 105 0;#P hidden connect 120 2 105 0;#P hidden connect 121 2 105 0;#P hidden connect 122 2 105 0;#P hidden connect 123 2 105 0;#P hidden connect 124 2 105 0;#P hidden connect 125 2 105 0;#P hidden connect 126 2 105 0;#P hidden connect 127 2 105 0;#P hidden connect 128 2 105 0;#P hidden connect 129 2 105 0;#P hidden connect 130 2 105 0;#P hidden connect 131 2 105 0;#P hidden connect 132 2 105 0;#P hidden connect 133 2 105 0;#P hidden connect 134 2 105 0;#P hidden connect 135 2 105 0;#P hidden connect 136 2 105 0;#P hidden connect 137 2 105 0;#P hidden connect 138 2 105 0;#P hidden connect 139 2 105 0;#P hidden connect 140 2 105 0;#P hidden connect 141 2 105 0;#P hidden connect 142 2 105 0;#P hidden connect 143 2 105 0;#P hidden connect 144 2 105 0;#P hidden connect 145 2 105 0;#P hidden connect 146 2 105 0;#P hidden connect 147 2 105 0;#P hidden connect 148 2 105 0;#P hidden connect 149 2 105 0;#P hidden connect 150 2 105 0;#P hidden connect 152 2 105 0;#P hidden connect 153 2 105 0;#P hidden connect 154 2 105 0;#P hidden connect 155 2 105 0;#P hidden connect 156 2 105 0;#P hidden connect 157 2 105 0;#P hidden connect 158 2 105 0;#P hidden connect 159 2 105 0;#P hidden connect 160 2 105 0;#P hidden connect 161 2 105 0;#P hidden connect 162 2 105 0;#P hidden connect 163 2 105 0;#P hidden connect 164 2 105 0;#P hidden connect 165 2 105 0;#P hidden connect 166 2 105 0;#P hidden connect 167 2 105 0;#P hidden connect 168 2 105 0;#P hidden connect 169 2 105 0;#P hidden connect 26 2 105 0;#P hidden connect 27 2 105 0;#P hidden connect 28 2 105 0;#P hidden connect 29 2 105 0;#P hidden connect 30 2 105 0;#P hidden connect 31 2 105 0;#P hidden connect 32 2 105 0;#P hidden connect 33 2 105 0;#P hidden connect 34 2 105 0;#P hidden connect 35 2 105 0;#P hidden connect 36 2 105 0;#P hidden connect 37 2 105 0;#P hidden connect 38 2 105 0;#P hidden connect 39 2 105 0;#P hidden connect 40 2 105 0;#P hidden connect 41 2 105 0;#P hidden connect 42 2 105 0;#P hidden connect 43 2 105 0;#P hidden connect 44 2 105 0;#P hidden connect 25 2 105 0;#P hidden connect 3 2 105 0;#P hidden connect 4 2 105 0;#P hidden connect 196 0 195 0;#P hidden connect 199 0 201 0;#P pop;