max v2;#N vpatcher 9 48 607 439;#P origin 3 -4;#P window setfont "Sans Serif" 9.;#P hidden newex 655 38 88 196617 MOT-Loader MSP;#P hidden message 565 15 29 196617 MOT;#P window setfont "Sans Serif" 14.;#P message 122 15 20 196622 F;#P objectname L[5];#P window setfont "Sans Serif" 9.;#P hidden newex 597 15 105 196617 bgcolor 170 170 255;#B color 5;#P user textedit 17 36 382 54 2 3 9 Fader for displaying or generating numerical data;#P objectname thes[0];#P hidden number 626 58 35 9 0 0 0 3 0 0 0 221 221 221 222 222 222 0 0 0;#P hidden newex 626 76 86 196617 sprintf script hidden connect obj[%i] 2 phelp 0;#P window setfont "Sans Serif" 14.;#P message 542 15 20 196622 Z;#B color 5;#P objectname L[25];#P message 521 15 20 196622 Y;#B color 5;#P objectname L[24];#P message 500 15 20 196622 X;#B color 5;#P objectname L[23];#P message 479 15 20 196622 W;#B color 5;#P objectname L[22];#P message 458 15 20 196622 V;#B color 5;#P objectname L[21];#P message 437 15 20 196622 U;#B color 5;#P objectname L[20];#P message 416 15 20 196622 T;#B color 5;#P objectname L[19];#P message 395 15 20 196622 S;#B color 5;#P objectname L[18];#P message 374 15 20 196622 R;#B color 5;#P objectname L[17];#P message 353 15 20 196622 Q;#B color 5;#P objectname L[16];#P message 332 15 20 196622 P;#B color 5;#P objectname L[15];#P message 311 15 20 196622 O;#B color 5;#P objectname L[14];#P message 290 15 20 196622 N;#B color 5;#P objectname L[13];#P message 269 15 20 196622 M;#B color 5;#P objectname L[12];#P message 248 15 20 196622 L;#B color 5;#P objectname L[11];#P message 227 15 20 196622 K;#B color 5;#P objectname L[10];#P message 206 15 20 196622 J;#B color 5;#P objectname L[9];#P message 185 15 20 196622 I;#B color 5;#P objectname L[8];#P message 164 15 20 196622 H;#B color 5;#P objectname L[7];#P message 143 15 20 196622 G;#B color 5;#P objectname L[6];#P message 101 15 20 196622 E;#B color 5;#P objectname L[4];#P message 80 15 20 196622 D;#B color 5;#P objectname L[3];#P message 59 15 20 196622 C;#B color 5;#P objectname L[2];#P message 38 15 20 196622 B;#B color 5;#P objectname L[1];#P message 17 15 20 196622 A;#B color 5;#P objectname L[0];#P window setfont "Sans Serif" 9.;#P user textedit 383 36 562 54 2 3 9 uslider \, hslider \, multislider \, rslider;#P objectname obj[0];#P user textedit 383 50 562 68 2 3 9 quickthresh;#P objectname obj[1];#P user textedit 383 64 562 82 2 3 9 menubar;#P objectname obj[2];#P user textedit 383 78 562 96 2 3 9 filedate;#P objectname obj[3];#P user textedit 383 92 562 110 2 3 9 seq;#P objectname obj[4];#P user textedit 383 106 562 124 2 3 9 filein;#P objectname obj[5];#P user textedit 383 120 562 138 2 3 9 folder;#P objectname obj[6];#P user textedit 383 134 562 152 2 3 9 setclock;#P objectname obj[7];#P user textedit 383 148 562 166 2 3 9 speedlim;#P objectname obj[8];#P user textedit 383 162 562 180 2 3 9 Float \, number box;#P objectname obj[9];#P user textedit 383 176 562 194 2 3 9 folder;#P objectname obj[10];#P user textedit 383 190 562 208 2 3 9 follow;#P objectname obj[11];#P user textedit 383 204 562 222 2 3 9 thispatcher;#P objectname obj[12];#P user textedit 383 218 562 236 2 3 9 active;#P objectname obj[13];#P user textedit 383 232 562 250 2 3 9 midiformat \, sxformat;#P objectname obj[14];#P user textedit 383 246 562 264 2 3 9 sprintf;#P objectname obj[15];#P user textedit 383 260 562 278 2 3 9 xbendin \, xbendout \, xbendin2 xbendout2;#P objectname obj[16];#P user textedit 383 274 562 292 2 3 9 expr \, / \, !/;#P objectname obj[17];#P comment 0 1 100 196617;#P user textedit 383 288 562 306 2 3 9 Float \, number box \, pv \, value;#P objectname obj[18];#P user textedit 383 302 562 320 2 3 9 histo;#P objectname obj[19];#P user textedit 383 316 562 334 2 3 9 ftom \, mtof;#P objectname obj[20];#P user textedit 383 330 562 348 2 3 9 strippath;#P objectname obj[21];#P user textedit 383 344 562 362 2 3 9 env \, envi \, function \, funbuff \, line;#P objectname obj[22];#N thispatcher;#Q end;#P hidden newobj 565 57 59 196617 thispatcher;#P hidden newex 565 38 88 196617 MOT-Loader Max;#P hidden newex 575 209 38 196617 phelp;#P objectname phelp;#P user textedit 17 50 382 68 2 3 9 Fast chord detection;#P objectname thes[1];#P user textedit 17 64 382 82 2 3 9 File menu \, add your own items to;#P objectname thes[2];#P user textedit 17 78 382 96 2 3 9 File modification date;#P objectname thes[3];#P user textedit 17 92 382 110 2 3 9 File \, import and export MIDI files;#P objectname thes[4];#P user textedit 17 106 382 124 2 3 9 File \, open any type of;#P objectname thes[5];#P user textedit 17 120 382 138 2 3 9 Files \, list the files in a specific folder;#P objectname thes[6];#P user textedit 17 134 382 152 2 3 9 Film or video \, synchronize Max to;#P objectname thes[7];#P user textedit 17 148 382 166 2 3 9 Filter a continuous stream of messages;#P objectname thes[8];#P user textedit 17 162 382 180 2 3 9 Floating-point numbers \, store numbers with a fractional part;#P objectname thes[9];#P user textedit 17 176 382 194 2 3 9 Folder content listings;#P objectname thes[10];#P user textedit 17 190 382 208 2 3 9 Follow a performance \, comparing it to a pre-recorded sequence;#P objectname thes[11];#P user textedit 17 204 382 222 2 3 9 Foreground \, move a patcher window automatically to the front;#P objectname thes[12];#P user textedit 17 218 382 236 2 3 9 Foreground \, notify objects when patcher window is brought to foreground;#P objectname thes[13];#P user textedit 17 232 382 250 2 3 9 Format MIDI messages for transmission or recording;#P objectname thes[14];#P user textedit 17 246 382 264 2 3 9 Format numbers \, ASCII bytes \, and symbols into a single message;#P objectname thes[15];#P user textedit 17 260 382 278 2 3 9 Fourteen-bit precision MIDI pitchbend messages;#P objectname thes[16];#P user textedit 17 274 382 292 2 3 9 Fraction \, obtain by dividing one number by another;#P objectname thes[17];#P user textedit 17 288 382 306 2 3 9 Fractions \, store numbers with a fractional part;#P objectname thes[18];#P user textedit 17 302 382 320 2 3 9 Frequency \, keep track of how many times a number has occurred;#P objectname thes[19];#P user textedit 17 316 382 334 2 3 9 Frequency to midi note number conversion;#P objectname thes[20];#P user textedit 17 330 382 348 2 3 9 Full pathname to filename conversion;#P objectname thes[21];#P user textedit 17 344 382 362 2 3 9 Function generator;#P objectname thes[22];#P user ubutton 0 2 582 51 0 0;#P hidden connect 0 1 80 0;#P hidden connect 50 0 24 0;#P hidden connect 51 0 24 0;#P hidden connect 52 0 24 0;#P hidden connect 53 0 24 0;#P hidden connect 54 0 24 0;#P hidden connect 55 0 24 0;#P hidden connect 56 0 24 0;#P hidden connect 57 0 24 0;#P hidden connect 58 0 24 0;#P hidden connect 59 0 24 0;#P hidden connect 60 0 24 0;#P hidden connect 61 0 24 0;#P hidden connect 62 0 24 0;#P hidden connect 63 0 24 0;#P hidden connect 64 0 24 0;#P hidden connect 65 0 24 0;#P hidden connect 66 0 24 0;#P hidden connect 67 0 24 0;#P hidden connect 68 0 24 0;#P hidden connect 69 0 24 0;#P hidden connect 70 0 24 0;#P hidden connect 71 0 24 0;#P hidden connect 72 0 24 0;#P hidden connect 73 0 24 0;#P hidden connect 74 0 24 0;#P hidden connect 80 0 24 0;#P hidden connect 81 0 25 0;#P hidden connect 75 0 25 0;#P hidden connect 24 0 25 0;#P hidden connect 49 2 23 0;#P hidden connect 48 2 23 0;#P hidden connect 47 2 23 0;#P hidden connect 46 2 23 0;#P hidden connect 45 2 23 0;#P hidden connect 44 2 23 0;#P hidden connect 43 2 23 0;#P hidden connect 42 2 23 0;#P hidden connect 41 2 23 0;#P hidden connect 40 2 23 0;#P hidden connect 39 2 23 0;#P hidden connect 38 2 23 0;#P hidden connect 37 2 23 0;#P hidden connect 36 2 23 0;#P hidden connect 35 2 23 0;#P hidden connect 34 2 23 0;#P hidden connect 33 2 23 0;#P hidden connect 32 2 23 0;#P hidden connect 30 2 23 0;#P hidden connect 29 2 23 0;#P hidden connect 28 2 23 0;#P hidden connect 27 2 23 0;#P hidden connect 26 2 23 0;#P hidden connect 76 0 75 0;#P hidden connect 79 0 81 0;#P pop;