max v2;#N vpatcher 9 48 613 528;#P origin 3 -4;#P window setfont "Sans Serif" 9.;#P hidden newex 655 38 88 196617 MOT-Loader MSP;#P hidden message 565 15 29 196617 MOT;#P window setfont "Sans Serif" 14.;#P message 185 15 20 196622 I;#P objectname L[8];#P window setfont "Sans Serif" 9.;#P hidden newex 597 15 105 196617 bgcolor 170 170 255;#B color 5;#P user textedit 17 36 382 54 2 3 9 If-then-else control structure;#P objectname thes[0];#P hidden number 626 58 35 9 0 0 0 3 0 0 0 221 221 221 222 222 222 0 0 0;#P hidden newex 626 76 86 196617 sprintf script hidden connect obj[%i] 2 phelp 0;#P window setfont "Sans Serif" 14.;#P message 542 15 20 196622 Z;#B color 5;#P objectname L[25];#P message 521 15 20 196622 Y;#B color 5;#P objectname L[24];#P message 500 15 20 196622 X;#B color 5;#P objectname L[23];#P message 479 15 20 196622 W;#B color 5;#P objectname L[22];#P message 458 15 20 196622 V;#B color 5;#P objectname L[21];#P message 437 15 20 196622 U;#B color 5;#P objectname L[20];#P message 416 15 20 196622 T;#B color 5;#P objectname L[19];#P message 395 15 20 196622 S;#B color 5;#P objectname L[18];#P message 374 15 20 196622 R;#B color 5;#P objectname L[17];#P message 353 15 20 196622 Q;#B color 5;#P objectname L[16];#P message 332 15 20 196622 P;#B color 5;#P objectname L[15];#P message 311 15 20 196622 O;#B color 5;#P objectname L[14];#P message 290 15 20 196622 N;#B color 5;#P objectname L[13];#P message 269 15 20 196622 M;#B color 5;#P objectname L[12];#P message 248 15 20 196622 L;#B color 5;#P objectname L[11];#P message 227 15 20 196622 K;#B color 5;#P objectname L[10];#P message 206 15 20 196622 J;#B color 5;#P objectname L[9];#P message 164 15 20 196622 H;#B color 5;#P objectname L[7];#P message 143 15 20 196622 G;#B color 5;#P objectname L[6];#P message 122 15 20 196622 F;#B color 5;#P objectname L[5];#P message 101 15 20 196622 E;#B color 5;#P objectname L[4];#P message 80 15 20 196622 D;#B color 5;#P objectname L[3];#P message 59 15 20 196622 C;#B color 5;#P objectname L[2];#P message 38 15 20 196622 B;#B color 5;#P objectname L[1];#P message 17 15 20 196622 A;#B color 5;#P objectname L[0];#P window setfont "Sans Serif" 9.;#P user textedit 383 36 562 54 2 3 9 if;#P objectname obj[0];#P user textedit 383 50 562 80 2 3 9 gate \, Ggate \, Gswitch \, mousefilter \, select \, switch;#P objectname obj[1];#P user textedit 383 76 562 94 2 3 9 seq;#P objectname obj[2];#P user textedit 383 90 562 132 2 3 9 midiparse \, xbendin \, xnotein also bendin \, ctlin \, notein \, pgmin \, polyin \, rtin \, sysexin \, touchin;#P objectname obj[3];#P user textedit 383 128 562 146 2 3 9 IncDec;#P objectname obj[4];#P user textedit 383 142 562 160 2 3 9 listfunnel;#P objectname obj[5];#P user textedit 383 156 562 174 2 3 9 funnel \, prepend;#P objectname obj[6];#P user textedit 383 170 562 188 2 3 9 funbuff \, offer \, table;#P objectname obj[7];#P user textedit 383 184 562 214 2 3 9 if \, led \, number box \, togedge \, toggle \, == \, !=;#P objectname obj[8];#P user textedit 383 210 562 228 2 3 9 button \, led \, ubutton;#P objectname obj[9];#P user textedit 383 224 562 242 2 3 9 gestalt;#P objectname obj[10];#P user textedit 383 238 562 256 2 3 9 loadbang \, preset;#P objectname obj[11];#P user textedit 383 252 562 270 2 3 9 bpatcher \, inlet \, patcher;#P objectname obj[12];#P user textedit 383 266 562 284 2 3 9 switch \, Gswitch;#P objectname obj[13];#P user textedit 383 280 562 298 2 3 9 dialog \, message;#P objectname obj[14];#P user textedit 383 294 562 312 2 3 9 midiin;#P objectname obj[15];#P user textedit 383 308 562 338 2 3 9 funbuff \, Int \, number box \, offer \, pv \, table \, value;#P objectname obj[16];#P user textedit 383 334 562 352 2 3 9 grab;#P objectname obj[17];#P comment 0 1 100 196617;#P user textedit 383 348 562 366 2 3 9 borax \, clocker \, date \, timer;#P objectname obj[18];#P user textedit 383 362 562 380 2 3 9 line \, bline;#P objectname obj[19];#P user textedit 383 376 562 394 2 3 9 ubutton;#P objectname obj[20];#P user textedit 383 390 562 408 2 3 9 ubutton;#P objectname obj[21];#P user textedit 383 404 562 422 2 3 9 thispatcher;#P objectname obj[22];#P user textedit 383 418 562 436 2 3 9 pcontrol;#P objectname obj[23];#P user textedit 383 432 562 450 2 3 9 cycle \, iter \, message \, spray \, unpack;#P objectname obj[24];#N thispatcher;#Q end;#P hidden newobj 565 57 59 196617 thispatcher;#P hidden newex 565 38 88 196617 MOT-Loader Max;#P hidden newex 575 248 38 196617 phelp;#P objectname phelp;#P user textedit 17 50 382 80 2 3 9 Ignore certain messages;#P objectname thes[1];#P user textedit 17 76 382 94 2 3 9 Import MIDI file;#P objectname thes[2];#P user textedit 17 90 382 132 2 3 9 Incoming MIDI messages \, parse;#P objectname thes[3];#P user textedit 17 128 382 146 2 3 9 Increment the value of a user interface object;#P objectname thes[4];#P user textedit 17 142 382 160 2 3 9 Index elements of a list and output them individually;#P objectname thes[5];#P user textedit 17 156 382 174 2 3 9 Index number \, prepend to a number or a list;#P objectname thes[6];#P user textedit 17 170 382 188 2 3 9 Indexed list of numerical values;#P objectname thes[7];#P user textedit 17 184 382 214 2 3 9 Indicate the zero/non-zero status of a number;#P objectname thes[8];#P user textedit 17 210 382 228 2 3 9 Indicator flashes when a message is received;#P objectname thes[9];#P user textedit 17 224 382 242 2 3 9 Information about current operating system and hardware;#P objectname thes[10];#P user textedit 17 238 382 256 2 3 9 Initialize values automatically when a patch is loaded;#P objectname thes[11];#P user textedit 17 252 382 270 2 3 9 Inlet for a subpatch object;#P objectname thes[12];#P user textedit 17 266 382 284 2 3 9 Inlet \, ignore messages in all inlets but one at a time;#P objectname thes[13];#P user textedit 17 280 382 298 2 3 9 Input from the user \, ask for;#P objectname thes[14];#P user textedit 17 294 382 312 2 3 9 Input received from MIDI devices \, unaltered;#P objectname thes[15];#P user textedit 17 308 382 338 2 3 9 Integer number \, store;#P objectname thes[16];#P user textedit 17 334 382 352 2 3 9 Intercept and redirect the output of an object;#P objectname thes[17];#P user textedit 17 348 382 366 2 3 9 Inter-onset interval \, measure the time elapsed between two events;#P objectname thes[18];#P user textedit 17 362 382 380 2 3 9 Interpolate between two numerical values;#P objectname thes[19];#P user textedit 17 376 382 394 2 3 9 Invert the color of an area of a patcher window over a picture or a comment;#P objectname thes[20];#P user textedit 17 390 382 408 2 3 9 Invisible button;#P objectname thes[21];#P user textedit 17 404 382 422 2 3 9 Invisible patcher \, close;#P objectname thes[22];#P user textedit 17 418 382 436 2 3 9 Invisible patcher \, load;#P objectname thes[23];#P user textedit 17 432 382 450 2 3 9 Items of a list \, break up into individual messages;#P objectname thes[24];#P user ubutton 0 2 582 51 0 0;#P hidden connect 0 1 84 0;#P hidden connect 54 0 26 0;#P hidden connect 55 0 26 0;#P hidden connect 56 0 26 0;#P hidden connect 57 0 26 0;#P hidden connect 58 0 26 0;#P hidden connect 59 0 26 0;#P hidden connect 60 0 26 0;#P hidden connect 61 0 26 0;#P hidden connect 62 0 26 0;#P hidden connect 63 0 26 0;#P hidden connect 64 0 26 0;#P hidden connect 65 0 26 0;#P hidden connect 66 0 26 0;#P hidden connect 67 0 26 0;#P hidden connect 68 0 26 0;#P hidden connect 69 0 26 0;#P hidden connect 70 0 26 0;#P hidden connect 71 0 26 0;#P hidden connect 72 0 26 0;#P hidden connect 73 0 26 0;#P hidden connect 74 0 26 0;#P hidden connect 75 0 26 0;#P hidden connect 76 0 26 0;#P hidden connect 77 0 26 0;#P hidden connect 78 0 26 0;#P hidden connect 84 0 26 0;#P hidden connect 85 0 27 0;#P hidden connect 79 0 27 0;#P hidden connect 26 0 27 0;#P hidden connect 53 2 25 0;#P hidden connect 52 2 25 0;#P hidden connect 51 2 25 0;#P hidden connect 50 2 25 0;#P hidden connect 49 2 25 0;#P hidden connect 48 2 25 0;#P hidden connect 47 2 25 0;#P hidden connect 46 2 25 0;#P hidden connect 45 2 25 0;#P hidden connect 44 2 25 0;#P hidden connect 43 2 25 0;#P hidden connect 42 2 25 0;#P hidden connect 41 2 25 0;#P hidden connect 40 2 25 0;#P hidden connect 39 2 25 0;#P hidden connect 38 2 25 0;#P hidden connect 37 2 25 0;#P hidden connect 36 2 25 0;#P hidden connect 34 2 25 0;#P hidden connect 33 2 25 0;#P hidden connect 32 2 25 0;#P hidden connect 31 2 25 0;#P hidden connect 30 2 25 0;#P hidden connect 29 2 25 0;#P hidden connect 28 2 25 0;#P hidden connect 80 0 79 0;#P hidden connect 83 0 85 0;#P pop;