max v2;#N vpatcher 8 47 604 754;#P origin 3 -4;#P window setfont "Sans Serif" 9.;#P hidden newex 655 38 88 196617 MOT-Loader MSP;#P hidden message 565 15 29 196617 MOT;#P window setfont "Sans Serif" 14.;#P message 269 15 20 196622 M;#P objectname L[12];#P window setfont "Sans Serif" 9.;#P hidden newex 597 15 105 196617 bgcolor 170 170 255;#B color 5;#P user textedit 17 36 382 54 2 3 9 Markov chain;#P objectname thes[0];#P hidden number 626 58 35 9 0 0 0 3 0 0 0 221 221 221 222 222 222 0 0 0;#P hidden newex 626 76 86 196617 sprintf script hidden connect obj[%i] 2 phelp 0;#P window setfont "Sans Serif" 14.;#P message 542 15 20 196622 Z;#B color 5;#P objectname L[25];#P message 521 15 20 196622 Y;#B color 5;#P objectname L[24];#P message 500 15 20 196622 X;#B color 5;#P objectname L[23];#P message 479 15 20 196622 W;#B color 5;#P objectname L[22];#P message 458 15 20 196622 V;#B color 5;#P objectname L[21];#P message 437 15 20 196622 U;#B color 5;#P objectname L[20];#P message 416 15 20 196622 T;#B color 5;#P objectname L[19];#P message 395 15 20 196622 S;#B color 5;#P objectname L[18];#P message 374 15 20 196622 R;#B color 5;#P objectname L[17];#P message 353 15 20 196622 Q;#B color 5;#P objectname L[16];#P message 332 15 20 196622 P;#B color 5;#P objectname L[15];#P message 311 15 20 196622 O;#B color 5;#P objectname L[14];#P message 290 15 20 196622 N;#B color 5;#P objectname L[13];#P message 248 15 20 196622 L;#B color 5;#P objectname L[11];#P message 227 15 20 196622 K;#B color 5;#P objectname L[10];#P message 206 15 20 196622 J;#B color 5;#P objectname L[9];#P message 185 15 20 196622 I;#B color 5;#P objectname L[8];#P message 164 15 20 196622 H;#B color 5;#P objectname L[7];#P message 143 15 20 196622 G;#B color 5;#P objectname L[6];#P message 122 15 20 196622 F;#B color 5;#P objectname L[5];#P message 101 15 20 196622 E;#B color 5;#P objectname L[4];#P message 80 15 20 196622 D;#B color 5;#P objectname L[3];#P message 59 15 20 196622 C;#B color 5;#P objectname L[2];#P message 38 15 20 196622 B;#B color 5;#P objectname L[1];#P message 17 15 20 196622 A;#B color 5;#P objectname L[0];#P window setfont "Sans Serif" 9.;#P user textedit 383 36 562 54 2 3 9 prob;#P objectname obj[0];#P user textedit 383 50 562 68 2 3 9 expr \, & \, |;#P objectname obj[1];#P user textedit 383 64 562 82 2 3 9 select;#P objectname obj[2];#P user textedit 383 78 562 96 2 3 9 route;#P objectname obj[3];#P user textedit 383 92 562 110 2 3 9 expr \, + \, - \, * \, / \, %;#P objectname obj[4];#P user textedit 383 106 562 124 2 3 9 router;#P objectname obj[5];#P user textedit 383 120 562 138 2 3 9 matrixctrl;#P objectname obj[6];#P user textedit 383 134 562 152 2 3 9 filepath;#P objectname obj[7];#P user textedit 383 148 562 166 2 3 9 rslider \, split;#P objectname obj[8];#P user textedit 383 162 562 180 2 3 9 expr \, maximum \, number \, peak \, > \, >=;#P objectname obj[9];#P user textedit 383 176 562 194 2 3 9 maximum \, table;#P objectname obj[10];#P user textedit 383 190 562 208 2 3 9 menubar;#P objectname obj[11];#P user textedit 383 204 562 222 2 3 9 umenu;#P objectname obj[12];#P user textedit 383 218 562 236 2 3 9 substitute;#P objectname obj[13];#P user textedit 383 232 562 250 2 3 9 midiformat \, sxformat;#P objectname obj[14];#P user textedit 383 246 562 264 2 3 9 append \, message \, pack \, prepend;#P objectname obj[15];#P user textedit 383 260 562 278 2 3 9 umenu \, message \, ubumenu;#P objectname obj[16];#P user textedit 383 274 562 304 2 3 9 Float \, forward \, grab \, Int \, message \, pv \, pvar \, receive \, send \, value;#P objectname obj[17];#P comment 0 1 100 196617;#P user textedit 383 300 562 318 2 3 9 menubar;#P objectname obj[18];#P user textedit 383 314 562 332 2 3 9 dialog \, message \, textedit;#P objectname obj[19];#P user textedit 383 328 562 346 2 3 9 clocker \, metro \, setclock \, tempo;#P objectname obj[20];#P user textedit 383 342 562 360 2 3 9 midiin;#P objectname obj[21];#P user textedit 383 356 562 374 2 3 9 midiout;#P objectname obj[22];#P user textedit 383 370 562 388 2 3 9 seq;#P objectname obj[23];#P user textedit 383 384 562 402 2 3 9 setclock;#P objectname obj[24];#P user textedit 383 398 562 416 2 3 9 midiformat \, sxformat \, midiout;#P objectname obj[25];#P user textedit 383 412 562 430 2 3 9 midiparse \, xbendin \, xnotein;#P objectname obj[26];#P user textedit 383 426 562 444 2 3 9 ctlin \, ctlout;#P objectname obj[27];#P user textedit 383 440 562 458 2 3 9 midiin \, notein \, xnotein;#P objectname obj[28];#P user textedit 383 454 562 472 2 3 9 midiout \, noteout \, xnoteout;#P objectname obj[29];#P user textedit 383 468 562 486 2 3 9 number box;#P objectname obj[30];#P user textedit 383 482 562 500 2 3 9 midiin \, midiout \, rtin;#P objectname obj[31];#P user textedit 383 496 562 514 2 3 9 midiin \, midiout \, sysexin;#P objectname obj[32];#P user textedit 383 510 562 528 2 3 9 pcontrol;#P objectname obj[33];#P user textedit 383 524 562 542 2 3 9 midiinfo;#P objectname obj[34];#P user textedit 383 538 562 556 2 3 9 rslider \, split;#P objectname obj[35];#P user textedit 383 552 562 570 2 3 9 expr \, minimum \, number \, trough \, < <=;#P objectname obj[36];#P user textedit 383 566 562 584 2 3 9 minimum \, table;#P objectname obj[37];#P user textedit 383 580 562 598 2 3 9 expr \, -;#P objectname obj[38];#P user textedit 383 594 562 612 2 3 9 serial;#P objectname obj[39];#P user textedit 383 608 562 626 2 3 9 filedate;#P objectname obj[40];#P user textedit 383 622 562 640 2 3 9 ctlin \, ctlout;#P objectname obj[41];#P user textedit 383 636 562 654 2 3 9 expr \, %;#P objectname obj[42];#P user textedit 383 650 562 668 2 3 9 screensize;#P objectname obj[43];#P user textedit 383 664 562 682 2 3 9 touchin \, touchout;#P objectname obj[44];#P user textedit 383 678 562 696 2 3 9 mousefilter;#P objectname obj[45];#P user textedit 383 692 562 710 2 3 9 mousestate;#P objectname obj[46];#P user textedit 383 706 562 724 2 3 9 imovie \, lcd \, mousefilter \, mousestate;#P objectname obj[47];#P user textedit 383 720 562 738 2 3 9 imovie \, lcd \, mousestate;#P objectname obj[48];#P user textedit 383 734 562 776 2 3 9 dial \, envi \, hslider \, imovie \, kslider \, lcd \, mousestate \, multislider \, number \, rslider \, slider \, table \, uslider;#P objectname obj[49];#P user textedit 383 772 562 790 2 3 9 imovie \, movie \, playbar \, timeline;#P objectname obj[50];#P user textedit 383 786 562 816 2 3 9 graphic \, lcd \, imovie \, movie \, timeline \, vdp;#P objectname obj[51];#P user textedit 383 812 562 830 2 3 9 accum \, expr \, table;#P objectname obj[52];#P user textedit 383 826 562 844 2 3 9 accum \, expr \, *;#P objectname obj[53];#P user textedit 383 840 562 858 2 3 9 zl;#P objectname obj[54];#P user textedit 383 854 562 872 2 3 9 mtr;#P objectname obj[55];#N thispatcher;#Q end;#P hidden newobj 565 57 59 196617 thispatcher;#P hidden newex 565 38 88 196617 MOT-Loader Max;#P hidden newex 581 544 38 196617 phelp;#P objectname phelp;#P user textedit 17 50 382 68 2 3 9 Masking \, bitwise ŇandÓ (intersection) and bitwise ŇorÓ (union) operations;#P objectname thes[1];#P user textedit 17 64 382 82 2 3 9 Match incoming message to args \, bang out a specific outlet if there is a match;#P objectname thes[2];#P user textedit 17 78 382 96 2 3 9 Match the first item in a message \, route the message accordingly;#P objectname thes[3];#P user textedit 17 92 382 110 2 3 9 Mathematical expression solving;#P objectname thes[4];#P user textedit 17 106 382 124 2 3 9 Matrixctrl-compatible Max message router;#P objectname thes[5];#P user textedit 17 120 382 138 2 3 9 Matrix-style switch control;#P objectname thes[6];#P user textedit 17 134 382 152 2 3 9 Max search path information;#P objectname thes[7];#P user textedit 17 148 382 166 2 3 9 Maximum and minimum limit for a range of values \, specify and display;#P objectname thes[8];#P user textedit 17 162 382 180 2 3 9 Maximum \, find the greater of two numbers;#P objectname thes[9];#P user textedit 17 176 382 194 2 3 9 Maximum \, find the maximum value of a group of numbers;#P objectname thes[10];#P user textedit 17 190 382 208 2 3 9 Menu bar \, customize or alter menus or menu items;#P objectname thes[11];#P user textedit 17 204 382 222 2 3 9 Menu \, pop-up menu in a patcher;#P objectname thes[12];#P user textedit 17 218 382 236 2 3 9 Message symbol substitution;#P objectname thes[13];#P user textedit 17 232 382 250 2 3 9 Messages \, construct MIDI messages for transmission or recording;#P objectname thes[14];#P user textedit 17 246 382 264 2 3 9 Messages \, construct;#P objectname thes[15];#P user textedit 17 260 382 278 2 3 9 Messages \, send and display;#P objectname thes[16];#P user textedit 17 274 382 304 2 3 9 Messages \, send remotely without patch cords;#P objectname thes[17];#P user textedit 17 300 382 318 2 3 9 Messages \, send with the menu bar;#P objectname thes[18];#P user textedit 17 314 382 332 2 3 9 Messages \, type in and send in a locked patcher;#P objectname thes[19];#P user textedit 17 328 382 346 2 3 9 Metronome of timed events;#P objectname thes[20];#P user textedit 17 342 382 360 2 3 9 MIDI data \, receive unaltered;#P objectname thes[21];#P user textedit 17 356 382 374 2 3 9 MIDI data \, transmit byte by byte;#P objectname thes[22];#P user textedit 17 370 382 388 2 3 9 MIDI file \, record \, play \, import \, export \, and save as text;#P objectname thes[23];#P user textedit 17 384 382 402 2 3 9 MIDI Manager \, synchronize Max to an external clock source;#P objectname thes[24];#P user textedit 17 398 382 416 2 3 9 MIDI messages \, construct;#P objectname thes[25];#P user textedit 17 412 382 430 2 3 9 MIDI messages \, parse;#P objectname thes[26];#P user textedit 17 426 382 444 2 3 9 MIDI Mode messages;#P objectname thes[27];#P user textedit 17 440 382 458 2 3 9 MIDI note messages \, receive incoming;#P objectname thes[28];#P user textedit 17 454 382 472 2 3 9 MIDI note messages \, transmit;#P objectname thes[29];#P user textedit 17 468 382 486 2 3 9 MIDI note names \, display numbers as;#P objectname thes[30];#P user textedit 17 482 382 500 2 3 9 MIDI Real Time system messages;#P objectname thes[31];#P user textedit 17 496 382 514 2 3 9 MIDI Sample Dump \, receive and transmit;#P objectname thes[32];#P user textedit 17 510 382 528 2 3 9 MIDI \, enable or disable MIDI objects in a patcher automatically;#P objectname thes[33];#P user textedit 17 524 382 542 2 3 9 MIDI \, get a list of currently available devices and ports;#P objectname thes[34];#P user textedit 17 538 382 556 2 3 9 Minimum and maximum limit for a range of values \, specify and display;#P objectname thes[35];#P user textedit 17 552 382 570 2 3 9 Minimum \, find the lesser of two numbers;#P objectname thes[36];#P user textedit 17 566 382 584 2 3 9 Minimum \, find the minimum value of a group of numbers;#P objectname thes[37];#P user textedit 17 580 382 598 2 3 9 Minus \, subtract one number from another;#P objectname thes[38];#P user textedit 17 594 382 612 2 3 9 Modem communication \, transmit and receive non-MIDI data;#P objectname thes[39];#P user textedit 17 608 382 626 2 3 9 Modification date of a file;#P objectname thes[40];#P user textedit 17 622 382 640 2 3 9 Modulation wheel;#P objectname thes[41];#P user textedit 17 636 382 654 2 3 9 Modulus operation;#P objectname thes[42];#P user textedit 17 650 382 668 2 3 9 Monitor size;#P objectname thes[43];#P user textedit 17 664 382 682 2 3 9 Monophonic aftertouch MIDI message;#P objectname thes[44];#P user textedit 17 678 382 696 2 3 9 Mouse button \, pass numbers through only when the mouse button is up;#P objectname thes[45];#P user textedit 17 692 382 710 2 3 9 Mouse button \, report status of;#P objectname thes[46];#P user textedit 17 706 382 724 2 3 9 Mouse events \, detect;#P objectname thes[47];#P user textedit 17 720 382 738 2 3 9 Mouse location \, report;#P objectname thes[48];#P user textedit 17 734 382 776 2 3 9 Mouse \, generate numbers with the mouse;#P objectname thes[49];#P user textedit 17 772 382 790 2 3 9 Movie \, play QuickTime;#P objectname thes[50];#P user textedit 17 786 382 816 2 3 9 Multi-media programming;#P objectname thes[51];#P user textedit 17 812 382 830 2 3 9 Multiply and/or add a series of numbers;#P objectname thes[52];#P user textedit 17 826 382 844 2 3 9 Multiply two numbers;#P objectname thes[53];#P user textedit 17 840 382 858 2 3 9 Multi-purpose list processor;#P objectname thes[54];#P user textedit 17 854 382 872 2 3 9 Multi-track sequencer of MIDI messages or numbers;#P objectname thes[55];#P user ubutton 0 2 582 51 0 0;#P hidden connect 0 1 146 0;#P hidden connect 140 0 57 0;#P hidden connect 139 0 57 0;#P hidden connect 138 0 57 0;#P hidden connect 137 0 57 0;#P hidden connect 136 0 57 0;#P hidden connect 135 0 57 0;#P hidden connect 134 0 57 0;#P hidden connect 133 0 57 0;#P hidden connect 132 0 57 0;#P hidden connect 131 0 57 0;#P hidden connect 130 0 57 0;#P hidden connect 129 0 57 0;#P hidden connect 128 0 57 0;#P hidden connect 127 0 57 0;#P hidden connect 126 0 57 0;#P hidden connect 125 0 57 0;#P hidden connect 124 0 57 0;#P hidden connect 123 0 57 0;#P hidden connect 122 0 57 0;#P hidden connect 121 0 57 0;#P hidden connect 120 0 57 0;#P hidden connect 119 0 57 0;#P hidden connect 118 0 57 0;#P hidden connect 117 0 57 0;#P hidden connect 116 0 57 0;#P hidden connect 146 0 57 0;#P hidden connect 147 0 58 0;#P hidden connect 57 0 58 0;#P hidden connect 141 0 58 0;#P hidden connect 59 2 56 0;#P hidden connect 60 2 56 0;#P hidden connect 61 2 56 0;#P hidden connect 62 2 56 0;#P hidden connect 63 2 56 0;#P hidden connect 64 2 56 0;#P hidden connect 65 2 56 0;#P hidden connect 66 2 56 0;#P hidden connect 67 2 56 0;#P hidden connect 68 2 56 0;#P hidden connect 69 2 56 0;#P hidden connect 70 2 56 0;#P hidden connect 71 2 56 0;#P hidden connect 72 2 56 0;#P hidden connect 73 2 56 0;#P hidden connect 74 2 56 0;#P hidden connect 75 2 56 0;#P hidden connect 76 2 56 0;#P hidden connect 77 2 56 0;#P hidden connect 78 2 56 0;#P hidden connect 79 2 56 0;#P hidden connect 80 2 56 0;#P hidden connect 81 2 56 0;#P hidden connect 82 2 56 0;#P hidden connect 83 2 56 0;#P hidden connect 84 2 56 0;#P hidden connect 85 2 56 0;#P hidden connect 86 2 56 0;#P hidden connect 87 2 56 0;#P hidden connect 88 2 56 0;#P hidden connect 89 2 56 0;#P hidden connect 90 2 56 0;#P hidden connect 91 2 56 0;#P hidden connect 92 2 56 0;#P hidden connect 93 2 56 0;#P hidden connect 94 2 56 0;#P hidden connect 95 2 56 0;#P hidden connect 96 2 56 0;#P hidden connect 98 2 56 0;#P hidden connect 99 2 56 0;#P hidden connect 100 2 56 0;#P hidden connect 101 2 56 0;#P hidden connect 102 2 56 0;#P hidden connect 103 2 56 0;#P hidden connect 104 2 56 0;#P hidden connect 105 2 56 0;#P hidden connect 106 2 56 0;#P hidden connect 107 2 56 0;#P hidden connect 108 2 56 0;#P hidden connect 109 2 56 0;#P hidden connect 110 2 56 0;#P hidden connect 111 2 56 0;#P hidden connect 112 2 56 0;#P hidden connect 113 2 56 0;#P hidden connect 114 2 56 0;#P hidden connect 115 2 56 0;#P hidden connect 142 0 141 0;#P hidden connect 145 0 147 0;#P pop;