max v2;#N vpatcher 9 48 611 338;#P origin 3 -4;#P window setfont "Sans Serif" 9.;#P hidden newex 655 38 88 196617 MOT-Loader MSP;#P hidden message 565 15 29 196617 MOT;#P window setfont "Sans Serif" 14.;#P message 458 15 20 196622 V;#P objectname L[21];#P window setfont "Sans Serif" 9.;#P hidden newex 597 15 105 196617 bgcolor 170 170 255;#B color 5;#P user textedit 17 36 382 54 2 3 9 Variable for storing a floating-point number (with a fractional part);#P objectname thes[0];#P hidden number 626 58 35 9 0 0 0 3 0 0 0 221 221 221 222 222 222 0 0 0;#P hidden newex 626 76 86 196617 sprintf script hidden connect obj[%i] 2 phelp 0;#P window setfont "Sans Serif" 14.;#P message 542 15 20 196622 Z;#B color 5;#P objectname L[25];#P message 521 15 20 196622 Y;#B color 5;#P objectname L[24];#P message 500 15 20 196622 X;#B color 5;#P objectname L[23];#P message 479 15 20 196622 W;#B color 5;#P objectname L[22];#P message 437 15 20 196622 U;#B color 5;#P objectname L[20];#P message 416 15 20 196622 T;#B color 5;#P objectname L[19];#P message 395 15 20 196622 S;#B color 5;#P objectname L[18];#P message 374 15 20 196622 R;#B color 5;#P objectname L[17];#P message 353 15 20 196622 Q;#B color 5;#P objectname L[16];#P message 332 15 20 196622 P;#B color 5;#P objectname L[15];#P message 311 15 20 196622 O;#B color 5;#P objectname L[14];#P message 290 15 20 196622 N;#B color 5;#P objectname L[13];#P message 269 15 20 196622 M;#B color 5;#P objectname L[12];#P message 248 15 20 196622 L;#B color 5;#P objectname L[11];#P message 227 15 20 196622 K;#B color 5;#P objectname L[10];#P message 206 15 20 196622 J;#B color 5;#P objectname L[9];#P message 185 15 20 196622 I;#B color 5;#P objectname L[8];#P message 164 15 20 196622 H;#B color 5;#P objectname L[7];#P message 143 15 20 196622 G;#B color 5;#P objectname L[6];#P message 122 15 20 196622 F;#B color 5;#P objectname L[5];#P message 101 15 20 196622 E;#B color 5;#P objectname L[4];#P message 80 15 20 196622 D;#B color 5;#P objectname L[3];#P message 59 15 20 196622 C;#B color 5;#P objectname L[2];#P message 38 15 20 196622 B;#B color 5;#P objectname L[1];#P message 17 15 20 196622 A;#B color 5;#P objectname L[0];#P window setfont "Sans Serif" 9.;#P user textedit 383 36 562 54 2 3 9 Float \, number box \, pv \, value;#P objectname obj[0];#P user textedit 383 50 562 68 2 3 9 Int \, number box \, pv \, value;#P objectname obj[1];#P user textedit 383 64 562 82 2 3 9 pv \, value;#P objectname obj[2];#P user textedit 383 78 562 96 2 3 9 pv;#P objectname obj[3];#P user textedit 383 92 562 110 2 3 9 vexpr;#P objectname obj[4];#P user textedit 383 106 562 124 2 3 9 midiparse \, notein;#P objectname obj[5];#P user textedit 383 120 562 138 2 3 9 xnotein \, xnoteout;#P objectname obj[6];#P user textedit 383 134 562 152 2 3 9 setclock;#P objectname obj[7];#P user textedit 383 148 562 166 2 3 9 vdp;#P objectname obj[8];#P user textedit 383 162 562 180 2 3 9 serial \, vdp;#P objectname obj[9];#P user textedit 383 176 562 206 2 3 9 float \, forward \, grab \, int \, message \, pv \, receive \, send \, value;#P objectname obj[10];#P user textedit 383 202 562 220 2 3 9 borax \, poly;#P objectname obj[11];#P user textedit 383 216 562 234 2 3 9 poly;#P objectname obj[12];#P user textedit 383 230 562 248 2 3 9 ctlin \, ctlout;#P objectname obj[13];#P user textedit 383 244 562 262 2 3 9 playbar;#P objectname obj[14];#P comment 0 1 100 196617;#N thispatcher;#Q end;#P hidden newobj 565 57 59 196617 thispatcher;#P hidden newex 565 38 88 196617 MOT-Loader Max;#P hidden newex 568 139 38 196617 phelp;#P objectname phelp;#P user textedit 17 50 382 68 2 3 9 Variable for storing an integer value;#P objectname thes[1];#P user textedit 17 64 382 82 2 3 9 Variable for storing any message;#P objectname thes[2];#P user textedit 17 78 382 96 2 3 9 Variable that is private to a single patcher and its subpatches;#P objectname thes[3];#P user textedit 17 92 382 110 2 3 9 Vector math \, evaluate an expression multiple times using lists of numbers;#P objectname thes[4];#P user textedit 17 106 382 124 2 3 9 Velocity of incoming MIDI note-on messages \, obtain;#P objectname thes[5];#P user textedit 17 120 382 138 2 3 9 Velocity \, detecting and formatting note-off messages with release velocity;#P objectname thes[6];#P user textedit 17 134 382 152 2 3 9 Video or film \, synchronize Max to;#P objectname thes[7];#P user textedit 17 148 382 166 2 3 9 Videodisc player;#P objectname thes[8];#P user textedit 17 162 382 180 2 3 9 Videodisc player \, control via the serial port;#P objectname thes[9];#P user textedit 17 176 382 206 2 3 9 Virtual connection of objects \, without patch cords;#P objectname thes[10];#P user textedit 17 202 382 220 2 3 9 Voice number \, assign a unique number to each note being played;#P objectname thes[11];#P user textedit 17 216 382 234 2 3 9 Voice stealing \, turn off old notes if too many new ones arrive;#P objectname thes[12];#P user textedit 17 230 382 248 2 3 9 Volume control MIDI message;#P objectname thes[13];#P user textedit 17 244 382 262 2 3 9 Volume control of a QuickTime movie;#P objectname thes[14];#P user ubutton 0 2 582 51 0 0;#P hidden connect 0 1 64 0;#P hidden connect 34 0 16 0;#P hidden connect 35 0 16 0;#P hidden connect 36 0 16 0;#P hidden connect 37 0 16 0;#P hidden connect 38 0 16 0;#P hidden connect 39 0 16 0;#P hidden connect 40 0 16 0;#P hidden connect 41 0 16 0;#P hidden connect 42 0 16 0;#P hidden connect 43 0 16 0;#P hidden connect 44 0 16 0;#P hidden connect 45 0 16 0;#P hidden connect 46 0 16 0;#P hidden connect 47 0 16 0;#P hidden connect 48 0 16 0;#P hidden connect 49 0 16 0;#P hidden connect 50 0 16 0;#P hidden connect 51 0 16 0;#P hidden connect 52 0 16 0;#P hidden connect 53 0 16 0;#P hidden connect 54 0 16 0;#P hidden connect 55 0 16 0;#P hidden connect 56 0 16 0;#P hidden connect 57 0 16 0;#P hidden connect 58 0 16 0;#P hidden connect 64 0 16 0;#P hidden connect 65 0 17 0;#P hidden connect 59 0 17 0;#P hidden connect 16 0 17 0;#P hidden connect 33 2 15 0;#P hidden connect 32 2 15 0;#P hidden connect 31 2 15 0;#P hidden connect 30 2 15 0;#P hidden connect 29 2 15 0;#P hidden connect 28 2 15 0;#P hidden connect 27 2 15 0;#P hidden connect 26 2 15 0;#P hidden connect 25 2 15 0;#P hidden connect 24 2 15 0;#P hidden connect 23 2 15 0;#P hidden connect 22 2 15 0;#P hidden connect 21 2 15 0;#P hidden connect 20 2 15 0;#P hidden connect 19 2 15 0;#P hidden connect 60 0 59 0;#P hidden connect 63 0 65 0;#P pop;