max v2;#N vpatcher 9 48 607 757;#P origin 3 -4;#P window setfont "Sans Serif" 9.;#P hidden newex 655 38 88 196617 MOT-Loader MSP;#P hidden message 565 15 29 196617 MOT;#P window setfont "Sans Serif" 14.;#P message 59 15 20 196622 C;#P objectname L[2];#P window setfont "Sans Serif" 9.;#P hidden newex 597 15 105 196617 bgcolor 170 170 255;#B color 5;#P user textedit 17 36 382 54 2 3 9 C language expression solving;#P objectname thes[0];#P hidden number 626 58 35 9 0 0 0 3 0 0 0 221 221 221 222 222 222 0 0 0;#P hidden newex 626 76 86 196617 sprintf script hidden connect obj[%i] 2 phelp 0;#P window setfont "Sans Serif" 14.;#P message 542 15 20 196622 Z;#B color 5;#P objectname L[25];#P message 521 15 20 196622 Y;#B color 5;#P objectname L[24];#P message 500 15 20 196622 X;#B color 5;#P objectname L[23];#P message 479 15 20 196622 W;#B color 5;#P objectname L[22];#P message 458 15 20 196622 V;#B color 5;#P objectname L[21];#P message 437 15 20 196622 U;#B color 5;#P objectname L[20];#P message 416 15 20 196622 T;#B color 5;#P objectname L[19];#P message 395 15 20 196622 S;#B color 5;#P objectname L[18];#P message 374 15 20 196622 R;#B color 5;#P objectname L[17];#P message 353 15 20 196622 Q;#B color 5;#P objectname L[16];#P message 332 15 20 196622 P;#B color 5;#P objectname L[15];#P message 311 15 20 196622 O;#B color 5;#P objectname L[14];#P message 290 15 20 196622 N;#B color 5;#P objectname L[13];#P message 269 15 20 196622 M;#B color 5;#P objectname L[12];#P message 248 15 20 196622 L;#B color 5;#P objectname L[11];#P message 227 15 20 196622 K;#B color 5;#P objectname L[10];#P message 206 15 20 196622 J;#B color 5;#P objectname L[9];#P message 185 15 20 196622 I;#B color 5;#P objectname L[8];#P message 164 15 20 196622 H;#B color 5;#P objectname L[7];#P message 143 15 20 196622 G;#B color 5;#P objectname L[6];#P message 122 15 20 196622 F;#B color 5;#P objectname L[5];#P message 101 15 20 196622 E;#B color 5;#P objectname L[4];#P message 80 15 20 196622 D;#B color 5;#P objectname L[3];#P message 38 15 20 196622 B;#B color 5;#P objectname L[1];#P message 17 15 20 196622 A;#B color 5;#P objectname L[0];#P window setfont "Sans Serif" 9.;#P user textedit 383 36 562 54 2 3 9 expr \, if;#P objectname obj[0];#P user textedit 383 50 562 68 2 3 9 capture \, print \, table \, text;#P objectname obj[1];#P user textedit 383 64 562 82 2 3 9 cartopol;#P objectname obj[2];#P user textedit 383 78 562 96 2 3 9 drunk \, expr \, random \, urn;#P objectname obj[3];#P user textedit 383 92 562 110 2 3 9 spell;#P objectname obj[4];#P user textedit 383 106 562 124 2 3 9 radiogroup;#P objectname obj[5];#P user textedit 383 120 562 138 2 3 9 oval \, ring;#P objectname obj[6];#P user textedit 383 134 562 152 2 3 9 clocker \, timer;#P objectname obj[7];#P user textedit 383 148 562 166 2 3 9 setclock;#P objectname obj[8];#P user textedit 383 162 562 180 2 3 9 midiin \, midiout \, rtin;#P objectname obj[9];#P user textedit 383 176 562 194 2 3 9 pcontrol \, thispatcher;#P objectname obj[10];#P user textedit 383 190 562 208 2 3 9 closebang;#P objectname obj[11];#P user textedit 383 204 562 222 2 3 9 coll \, umenu;#P objectname obj[12];#P user textedit 383 218 562 236 2 3 9 colorpicker;#P objectname obj[13];#P user textedit 383 232 562 250 2 3 9 swatch;#P objectname obj[14];#P user textedit 383 246 562 264 2 3 9 panel;#P objectname obj[15];#P user textedit 383 260 562 278 2 3 9 urn;#P objectname obj[16];#P user textedit 383 274 562 292 2 3 9 menubar;#P objectname obj[17];#P comment 0 1 100 196617;#P user textedit 383 288 562 306 2 3 9 thistimeline \, thistrack \, tiout;#P objectname obj[18];#P user textedit 383 302 562 320 2 3 9 comment;#P objectname obj[19];#P user textedit 383 316 562 334 2 3 9 follow;#P objectname obj[20];#P user textedit 383 330 562 348 2 3 9 if \, < \, <= \, == \, != \, >= \, >;#P objectname obj[21];#P user textedit 383 344 562 362 2 3 9 expr;#P objectname obj[22];#P user textedit 383 358 562 376 2 3 9 pow;#P objectname obj[23];#P user textedit 383 372 562 390 2 3 9 key \, keyup \, numkey;#P objectname obj[24];#P user textedit 383 386 562 404 2 3 9 append \, prepend;#P objectname obj[25];#P user textedit 383 400 562 418 2 3 9 if \, match \, select \, split \, == != < > <= >=;#P objectname obj[26];#P user textedit 383 414 562 432 2 3 9 inlet \, outlet;#P objectname obj[27];#P user textedit 383 428 562 446 2 3 9 drunk;#P objectname obj[28];#P user textedit 383 442 562 460 2 3 9 append \, prepend \, pack \, pak;#P objectname obj[29];#P user textedit 383 456 562 474 2 3 9 midiformat \, sxformat;#P objectname obj[30];#P user textedit 383 470 562 488 2 3 9 midiin \, midiout \, rtin;#P objectname obj[31];#P user textedit 383 484 562 502 2 3 9 ctlin \, ctlout;#P objectname obj[32];#P user textedit 383 498 562 516 2 3 9 thispatcher;#P objectname obj[33];#P user textedit 383 512 562 530 2 3 9 thistimeline \, thistrack \, tiout;#P objectname obj[34];#P user textedit 383 526 562 544 2 3 9 vdp;#P objectname obj[35];#P user textedit 383 540 562 558 2 3 9 ctlin \, ctlout;#P objectname obj[36];#P user textedit 383 554 562 572 2 3 9 setclock;#P objectname obj[37];#P user textedit 383 568 562 586 2 3 9 serial \, vdp;#P objectname obj[38];#P user textedit 383 582 562 600 2 3 9 env \, envi \, function;#P objectname obj[39];#P user textedit 383 596 562 614 2 3 9 playbar;#P objectname obj[40];#P user textedit 383 610 562 628 2 3 9 pictctrl;#P objectname obj[41];#P user textedit 383 624 562 642 2 3 9 dbtoa;#P objectname obj[42];#P user textedit 383 638 562 656 2 3 9 button \, bangbang \, trigger;#P objectname obj[43];#P user textedit 383 652 562 670 2 3 9 relativepath;#P objectname obj[44];#P user textedit 383 666 562 684 2 3 9 atoi;#P objectname obj[45];#P user textedit 383 680 562 698 2 3 9 sprintf;#P objectname obj[46];#P user textedit 383 694 562 712 2 3 9 itoa;#P objectname obj[47];#P user textedit 383 708 562 726 2 3 9 atodb;#P objectname obj[48];#P user textedit 383 722 562 740 2 3 9 number box;#P objectname obj[49];#P user textedit 383 736 562 754 2 3 9 spell;#P objectname obj[50];#P user textedit 383 750 562 768 2 3 9 cos;#P objectname obj[51];#P user textedit 383 764 562 782 2 3 9 counter;#P objectname obj[52];#P user textedit 383 778 562 796 2 3 9 histo;#P objectname obj[53];#P user textedit 383 792 562 810 2 3 9 uzi;#P objectname obj[54];#P user textedit 383 806 562 824 2 3 9 accum \, expr \, table;#P objectname obj[55];#N thispatcher;#Q end;#P hidden newobj 565 57 59 196617 thispatcher;#P hidden newex 565 38 88 196617 MOT-Loader Max;#P hidden newex 583 497 38 196617 phelp;#P objectname phelp;#P user textedit 17 50 382 68 2 3 9 Capture and display a series of numbers;#P objectname thes[1];#P user textedit 17 64 382 82 2 3 9 Cartesian to Polar coordinate conversion;#P objectname thes[2];#P user textedit 17 78 382 96 2 3 9 Chance operations using pseudo-random numbers;#P objectname thes[3];#P user textedit 17 92 382 110 2 3 9 Characters in a string of text \, convert to ASCII numbers;#P objectname thes[4];#P user textedit 17 106 382 124 2 3 9 Check box user interface object;#P objectname thes[5];#P user textedit 17 120 382 138 2 3 9 Circle or oval \, drawing in a graphic window;#P objectname thes[6];#P user textedit 17 134 382 152 2 3 9 Clock for reporting time elapsed;#P objectname thes[7];#P user textedit 17 148 382 166 2 3 9 Clock speed of Max timing objects \, control;#P objectname thes[8];#P user textedit 17 162 382 180 2 3 9 Clock \, MIDI system message;#P objectname thes[9];#P user textedit 17 176 382 194 2 3 9 Close a patcher window automatically;#P objectname thes[10];#P user textedit 17 190 382 208 2 3 9 Closing a patcher window \, send a bang when window is closed;#P objectname thes[11];#P user textedit 17 204 382 222 2 3 9 Collection of messages \, store and recall;#P objectname thes[12];#P user textedit 17 218 382 236 2 3 9 Color selection using a modal dialog;#P objectname thes[13];#P user textedit 17 232 382 250 2 3 9 Color swatch for RGB color selection and display;#P objectname thes[14];#P user textedit 17 246 382 264 2 3 9 Colored button area;#P objectname thes[15];#P user textedit 17 260 382 278 2 3 9 Combinatorics \, produce random orderings of a set;#P objectname thes[16];#P user textedit 17 274 382 292 2 3 9 Commands \, place your own commands in the menu bar;#P objectname thes[17];#P user textedit 17 288 382 306 2 3 9 Commands \, send to a timeline from one of its own action patches;#P objectname thes[18];#P user textedit 17 302 382 320 2 3 9 Commenting a patch;#P objectname thes[19];#P user textedit 17 316 382 334 2 3 9 Compare a performance to a pre-recorded sequence in real time;#P objectname thes[20];#P user textedit 17 330 382 348 2 3 9 Comparison of two numbers \, less than \, greater than \, or equal to;#P objectname thes[21];#P user textedit 17 344 382 362 2 3 9 Complement \, bitwise ones complement operation;#P objectname thes[22];#P user textedit 17 358 382 376 2 3 9 Compute x to the power of y;#P objectname thes[23];#P user textedit 17 372 382 390 2 3 9 Computer keyboard events \, detect;#P objectname thes[24];#P user textedit 17 386 382 404 2 3 9 Concatenate two messages;#P objectname thes[25];#P user textedit 17 400 382 418 2 3 9 Conditional statements;#P objectname thes[26];#P user textedit 17 414 382 432 2 3 9 Connect patch cords to an inlet or outlet of a subpatch;#P objectname thes[27];#P user textedit 17 428 382 446 2 3 9 Constrained random movement;#P objectname thes[28];#P user textedit 17 442 382 460 2 3 9 Construct a list out of individual items;#P objectname thes[29];#P user textedit 17 456 382 474 2 3 9 Construct MIDI messages for transmission or recording midiformat \, sxformat Construct MIDI messages for transmission or recording midiformat \, sxformat Construct MIDI messages for transmission or recording midiformat \, sxformat Construct MIDI messages for transmission or recording;#P objectname thes[30];#P user textedit 17 470 382 488 2 3 9 Continue \, MIDI system message;#P objectname thes[31];#P user textedit 17 484 382 502 2 3 9 Continuous controllers;#P objectname thes[32];#P user textedit 17 498 382 516 2 3 9 Control a patcher window automatically from within itself;#P objectname thes[33];#P user textedit 17 512 382 530 2 3 9 Control a timeline from one of its own action patches;#P objectname thes[34];#P user textedit 17 526 382 544 2 3 9 Control a videodisc player through the serial port;#P objectname thes[35];#P user textedit 17 540 382 558 2 3 9 Control change messages;#P objectname thes[36];#P user textedit 17 554 382 572 2 3 9 Control clock speed of Max timing objects;#P objectname thes[37];#P user textedit 17 568 382 586 2 3 9 Control external (non-MIDI) device;#P objectname thes[38];#P user textedit 17 582 382 600 2 3 9 Control points in a function;#P objectname thes[39];#P user textedit 17 596 382 614 2 3 9 Control strip for a QuickTime movie;#P objectname thes[40];#P user textedit 17 610 382 628 2 3 9 Control \, picture-based;#P objectname thes[41];#P user textedit 17 624 382 642 2 3 9 Convert a deciBel value to linear amplitude;#P objectname thes[42];#P user textedit 17 638 382 656 2 3 9 Convert a number \, list \, or symbol to bang;#P objectname thes[43];#P user textedit 17 652 382 670 2 3 9 Convert an absolute to a relative path;#P objectname thes[44];#P user textedit 17 666 382 684 2 3 9 Convert ASCII characters to integers;#P objectname thes[45];#P user textedit 17 680 382 698 2 3 9 Convert ASCII numbers to text;#P objectname thes[46];#P user textedit 17 694 382 712 2 3 9 Convert integers to ASCII characters;#P objectname thes[47];#P user textedit 17 708 382 726 2 3 9 Convert linear amplitude to a deciBel value;#P objectname thes[48];#P user textedit 17 722 382 740 2 3 9 Convert numbers between decimal \, hexadecimal \, and binary forms;#P objectname thes[49];#P user textedit 17 736 382 754 2 3 9 Convert text to ASCII numbers;#P objectname thes[50];#P user textedit 17 750 382 768 2 3 9 Cosine function;#P objectname thes[51];#P user textedit 17 764 382 782 2 3 9 Count how many bang messages or numbers have been received;#P objectname thes[52];#P user textedit 17 778 382 796 2 3 9 Count the occurrences of numbers;#P objectname thes[53];#P user textedit 17 792 382 810 2 3 9 Count \, send a series of numbers as fast as possible;#P objectname thes[54];#P user textedit 17 806 382 824 2 3 9 Cumulative total of a series of numbers;#P objectname thes[55];#P user ubutton 0 2 582 51 0 0;#P hidden connect 0 1 146 0;#P hidden connect 116 0 57 0;#P hidden connect 117 0 57 0;#P hidden connect 118 0 57 0;#P hidden connect 119 0 57 0;#P hidden connect 120 0 57 0;#P hidden connect 121 0 57 0;#P hidden connect 122 0 57 0;#P hidden connect 123 0 57 0;#P hidden connect 124 0 57 0;#P hidden connect 125 0 57 0;#P hidden connect 126 0 57 0;#P hidden connect 127 0 57 0;#P hidden connect 128 0 57 0;#P hidden connect 129 0 57 0;#P hidden connect 130 0 57 0;#P hidden connect 131 0 57 0;#P hidden connect 132 0 57 0;#P hidden connect 133 0 57 0;#P hidden connect 134 0 57 0;#P hidden connect 135 0 57 0;#P hidden connect 136 0 57 0;#P hidden connect 137 0 57 0;#P hidden connect 138 0 57 0;#P hidden connect 139 0 57 0;#P hidden connect 140 0 57 0;#P hidden connect 146 0 57 0;#P hidden connect 147 0 58 0;#P hidden connect 141 0 58 0;#P hidden connect 57 0 58 0;#P hidden connect 59 2 56 0;#P hidden connect 60 2 56 0;#P hidden connect 61 2 56 0;#P hidden connect 62 2 56 0;#P hidden connect 63 2 56 0;#P hidden connect 64 2 56 0;#P hidden connect 65 2 56 0;#P hidden connect 66 2 56 0;#P hidden connect 67 2 56 0;#P hidden connect 68 2 56 0;#P hidden connect 69 2 56 0;#P hidden connect 70 2 56 0;#P hidden connect 71 2 56 0;#P hidden connect 72 2 56 0;#P hidden connect 73 2 56 0;#P hidden connect 74 2 56 0;#P hidden connect 75 2 56 0;#P hidden connect 76 2 56 0;#P hidden connect 77 2 56 0;#P hidden connect 78 2 56 0;#P hidden connect 79 2 56 0;#P hidden connect 80 2 56 0;#P hidden connect 81 2 56 0;#P hidden connect 82 2 56 0;#P hidden connect 83 2 56 0;#P hidden connect 84 2 56 0;#P hidden connect 85 2 56 0;#P hidden connect 86 2 56 0;#P hidden connect 87 2 56 0;#P hidden connect 88 2 56 0;#P hidden connect 89 2 56 0;#P hidden connect 90 2 56 0;#P hidden connect 91 2 56 0;#P hidden connect 92 2 56 0;#P hidden connect 93 2 56 0;#P hidden connect 94 2 56 0;#P hidden connect 95 2 56 0;#P hidden connect 96 2 56 0;#P hidden connect 98 2 56 0;#P hidden connect 99 2 56 0;#P hidden connect 100 2 56 0;#P hidden connect 101 2 56 0;#P hidden connect 102 2 56 0;#P hidden connect 103 2 56 0;#P hidden connect 104 2 56 0;#P hidden connect 105 2 56 0;#P hidden connect 106 2 56 0;#P hidden connect 107 2 56 0;#P hidden connect 108 2 56 0;#P hidden connect 109 2 56 0;#P hidden connect 110 2 56 0;#P hidden connect 111 2 56 0;#P hidden connect 112 2 56 0;#P hidden connect 113 2 56 0;#P hidden connect 114 2 56 0;#P hidden connect 115 2 56 0;#P hidden connect 142 0 141 0;#P hidden connect 145 0 147 0;#P pop;