max v2;#N vpatcher 9 49 615 542;#P origin 2 -4;#P window setfont "Sans Serif" 9.;#P hidden newex 656 38 88 196617 MOT-Loader MSP;#P hidden message 565 15 29 196617 MOT;#P window setfont "Sans Serif" 14.;#P message 39 15 20 196622 B;#P objectname L[1];#P window setfont "Sans Serif" 9.;#P hidden newex 597 15 105 196617 bgcolor 170 170 255;#B color 5;#P user textedit 18 36 383 54 2 3 9 Background color of a patcher \, set;#P objectname thes[0];#P hidden number 626 58 35 9 0 0 0 3 0 0 0 221 221 221 222 222 222 0 0 0;#P hidden newex 626 77 85 196617 sprintf script hidden connect obj[%i] 2 phelp 0;#P window setfont "Sans Serif" 14.;#P message 543 15 20 196622 Z;#B color 5;#P objectname L[25];#P message 522 15 20 196622 Y;#B color 5;#P objectname L[24];#P message 501 15 20 196622 X;#B color 5;#P objectname L[23];#P message 480 15 20 196622 W;#B color 5;#P objectname L[22];#P message 459 15 20 196622 V;#B color 5;#P objectname L[21];#P message 438 15 20 196622 U;#B color 5;#P objectname L[20];#P message 417 15 20 196622 T;#B color 5;#P objectname L[19];#P message 396 15 20 196622 S;#B color 5;#P objectname L[18];#P message 375 15 20 196622 R;#B color 5;#P objectname L[17];#P message 354 15 20 196622 Q;#B color 5;#P objectname L[16];#P message 333 15 20 196622 P;#B color 5;#P objectname L[15];#P message 312 15 20 196622 O;#B color 5;#P objectname L[14];#P message 291 15 20 196622 N;#B color 5;#P objectname L[13];#P message 270 15 20 196622 M;#B color 5;#P objectname L[12];#P message 249 15 20 196622 L;#B color 5;#P objectname L[11];#P message 228 15 20 196622 K;#B color 5;#P objectname L[10];#P message 207 15 20 196622 J;#B color 5;#P objectname L[9];#P message 186 15 20 196622 I;#B color 5;#P objectname L[8];#P message 165 15 20 196622 H;#B color 5;#P objectname L[7];#P message 144 15 20 196622 G;#B color 5;#P objectname L[6];#P message 123 15 20 196622 F;#B color 5;#P objectname L[5];#P message 102 15 20 196622 E;#B color 5;#P objectname L[4];#P message 81 15 20 196622 D;#B color 5;#P objectname L[3];#P message 60 15 20 196622 C;#B color 5;#P objectname L[2];#P message 18 15 20 196622 A;#B color 5;#P objectname L[0];#P window setfont "Sans Serif" 9.;#P user textedit 384 36 563 54 2 3 9 bgcolor;#P objectname obj[0];#P user textedit 384 50 563 68 2 3 9 panel;#P objectname obj[1];#P user textedit 384 64 563 82 2 3 9 active;#P objectname obj[2];#P user textedit 384 78 563 96 2 3 9 uzi;#P objectname obj[3];#P user textedit 384 92 563 110 2 3 9 loadbang;#P objectname obj[4];#P user textedit 384 106 563 124 2 3 9 onebang;#P objectname obj[5];#P user textedit 384 120 563 138 2 3 9 counter;#P objectname obj[6];#P user textedit 384 134 563 152 2 3 9 metro;#P objectname obj[7];#P user textedit 384 148 563 166 2 3 9 button \, ubutton;#P objectname obj[8];#P user textedit 384 162 563 180 2 3 9 closebang;#P objectname obj[9];#P user textedit 384 176 563 194 2 3 9 thispatcher;#P objectname obj[10];#P user textedit 384 190 563 208 2 3 9 bangbang \, trigger;#P objectname obj[11];#P user textedit 384 204 563 222 2 3 9 timer;#P objectname obj[12];#P user textedit 384 218 563 236 2 3 9 bendin \, midiin \, xbendin \, xbendin2;#P objectname obj[13];#P user textedit 384 232 563 250 2 3 9 bendout \, midiout \, xbendout;#P objectname obj[14];#P user textedit 384 246 563 264 2 3 9 expr \, & \, |;#P objectname obj[15];#P user textedit 384 260 563 278 2 3 9 << \, >>;#P objectname obj[16];#P user textedit 384 274 563 292 2 3 9 number box;#P objectname obj[17];#P comment 1 1 100 196617;#P user textedit 384 288 563 306 2 3 9 << \, >>;#P objectname obj[18];#P user textedit 384 302 563 320 2 3 9 expr;#P objectname obj[19];#P user textedit 384 316 563 334 2 3 9 expr \, & \, |;#P objectname obj[20];#P user textedit 384 330 563 348 2 3 9 if \, < \, <= \, == \, != \, >= \, > \, && \, ||;#P objectname obj[21];#P user textedit 384 344 563 362 2 3 9 env \, envi \, function \, funbuff \, line;#P objectname obj[22];#P user textedit 384 358 563 376 2 3 9 ctlin \, ctlout;#P objectname obj[23];#P user textedit 384 372 563 390 2 3 9 universal;#P objectname obj[24];#P user textedit 384 386 563 404 2 3 9 drunk;#P objectname obj[25];#P user textedit 384 400 563 418 2 3 9 led \, toggle;#P objectname obj[26];#P user textedit 384 414 563 432 2 3 9 button \, ubutton;#P objectname obj[27];#P user textedit 384 428 563 446 2 3 9 ubutton;#P objectname obj[28];#N thispatcher;#Q end;#P hidden newobj 565 57 59 196617 thispatcher;#P hidden newex 565 38 88 196617 MOT-Loader Max;#P hidden newex 589 236 38 196617 phelp;#P objectname phelp;#P user textedit 18 50 383 68 2 3 9 Background panel;#P objectname thes[1];#P user textedit 18 64 383 82 2 3 9 Background \, notify objects when patcher window is moved to background;#P objectname thes[2];#P user textedit 18 78 383 96 2 3 9 bang a certain number of times as fast as possible;#P objectname thes[3];#P user textedit 18 92 383 110 2 3 9 bang automatically when a patch is loaded;#P objectname thes[4];#P user textedit 18 106 383 124 2 3 9 bang message traffic control;#P objectname thes[5];#P user textedit 18 120 383 138 2 3 9 bang messages \, count;#P objectname thes[6];#P user textedit 18 134 383 152 2 3 9 bang repeatedly at a certain rate;#P objectname thes[7];#P user textedit 18 148 383 166 2 3 9 bang when a message is received or the mouse is clicked;#P objectname thes[8];#P user textedit 18 162 383 180 2 3 9 bang when a patcher window is closed;#P objectname thes[9];#P user textedit 18 176 383 194 2 3 9 bang \, cause all loadbang objects in a patcher window to resend;#P objectname thes[10];#P user textedit 18 190 383 208 2 3 9 bang \, send a single bang to different places in immediate succession;#P objectname thes[11];#P user textedit 18 204 383 222 2 3 9 bang \, time elapsed between two bang messages;#P objectname thes[12];#P user textedit 18 218 383 236 2 3 9 Bend \, report incoming MIDI pitchbend data;#P objectname thes[13];#P user textedit 18 232 383 250 2 3 9 Bend \, transmit MIDI pitchbend messages;#P objectname thes[14];#P user textedit 18 246 383 264 2 3 9 Binary numbers \, compare with bitwise ŇandBinary numbers \, compare with bitwise ŇandÓ and bitwise ŇorÓÓ and bitwise ŇorÓ;#P objectname thes[15];#P user textedit 18 260 383 278 2 3 9 Binary numbers \, shift the bits of a number binary to the left or right;#P objectname thes[16];#P user textedit 18 274 383 292 2 3 9 Binary \, display numbers as;#P objectname thes[17];#P user textedit 18 288 383 306 2 3 9 Bit-shift \, shift the bits of the number binary to the left or right;#P objectname thes[18];#P user textedit 18 302 383 320 2 3 9 Bitwise ones complement operation;#P objectname thes[19];#P user textedit 18 316 383 334 2 3 9 Bitwise operators \, bitwise ŇandÓ (intersection) and bitwise ŇorÓ (union);#P objectname thes[20];#P user textedit 18 330 383 348 2 3 9 Boolean logic operations;#P objectname thes[21];#P user textedit 18 344 383 362 2 3 9 Breakpoint line segment function generation and storage;#P objectname thes[22];#P user textedit 18 358 383 376 2 3 9 Breath control;#P objectname thes[23];#P user textedit 18 372 383 390 2 3 9 Broadcast a message to all instances of the same class in a patcher;#P objectname thes[24];#P user textedit 18 386 383 404 2 3 9 Brownian motion simulator;#P objectname thes[25];#P user textedit 18 400 383 418 2 3 9 Button for user interface \, sends a 1 or a 0 to start or stop processes;#P objectname thes[26];#P user textedit 18 414 383 432 2 3 9 Button for user interface \, sends a bang;#P objectname thes[27];#P user textedit 18 428 383 446 2 3 9 Button pasted over a picture or a comment;#P objectname thes[28];#P user textedit 384 442 563 460 2 3 9 pictctrl;#P objectname obj[29];#P user textedit 18 442 383 460 2 3 9 Button \, picture-based;#P objectname thes[29];#P hidden user textedit 384 456 563 474 2 3 9;#P objectname obj[30];#P hidden user textedit 18 456 383 474 2 3 9;#P objectname thes[30];#P hidden user textedit 384 470 563 488 2 3 9;#P objectname obj[31];#P hidden user textedit 18 470 383 488 2 3 9;#P objectname thes[31];#P user ubutton 0 2 582 51 0 0;#P hidden connect 0 1 98 0;#P hidden connect 68 0 36 0;#P hidden connect 69 0 36 0;#P hidden connect 70 0 36 0;#P hidden connect 71 0 36 0;#P hidden connect 72 0 36 0;#P hidden connect 73 0 36 0;#P hidden connect 74 0 36 0;#P hidden connect 75 0 36 0;#P hidden connect 76 0 36 0;#P hidden connect 77 0 36 0;#P hidden connect 78 0 36 0;#P hidden connect 79 0 36 0;#P hidden connect 80 0 36 0;#P hidden connect 81 0 36 0;#P hidden connect 82 0 36 0;#P hidden connect 83 0 36 0;#P hidden connect 84 0 36 0;#P hidden connect 85 0 36 0;#P hidden connect 86 0 36 0;#P hidden connect 87 0 36 0;#P hidden connect 88 0 36 0;#P hidden connect 89 0 36 0;#P hidden connect 90 0 36 0;#P hidden connect 91 0 36 0;#P hidden connect 92 0 36 0;#P hidden connect 98 0 36 0;#P hidden connect 99 0 37 0;#P hidden connect 93 0 37 0;#P hidden connect 36 0 37 0;#P hidden connect 2 2 35 0;#P hidden connect 4 2 35 0;#P hidden connect 6 2 35 0;#P hidden connect 67 2 35 0;#P hidden connect 66 2 35 0;#P hidden connect 65 2 35 0;#P hidden connect 64 2 35 0;#P hidden connect 63 2 35 0;#P hidden connect 62 2 35 0;#P hidden connect 61 2 35 0;#P hidden connect 60 2 35 0;#P hidden connect 59 2 35 0;#P hidden connect 58 2 35 0;#P hidden connect 57 2 35 0;#P hidden connect 56 2 35 0;#P hidden connect 55 2 35 0;#P hidden connect 54 2 35 0;#P hidden connect 53 2 35 0;#P hidden connect 52 2 35 0;#P hidden connect 51 2 35 0;#P hidden connect 50 2 35 0;#P hidden connect 48 2 35 0;#P hidden connect 47 2 35 0;#P hidden connect 46 2 35 0;#P hidden connect 45 2 35 0;#P hidden connect 44 2 35 0;#P hidden connect 43 2 35 0;#P hidden connect 42 2 35 0;#P hidden connect 41 2 35 0;#P hidden connect 40 2 35 0;#P hidden connect 39 2 35 0;#P hidden connect 38 2 35 0;#P hidden connect 94 0 93 0;#P hidden connect 97 0 99 0;#P pop;