max v2;#N vpatcher 9 48 614 216;#P origin 2 -4;#P window setfont "Sans Serif" 9.;#P hidden newex 656 38 88 196617 MOT-Loader Max;#P hidden message 566 15 29 196617 MOT;#P user textedit 18 36 374 54 2 3 9 Generate parameter values from programs;#P objectname thes[0];#P user textedit 375 36 563 54 2 3 9 plugmorph;#P objectname obj[0];#P hidden newex 569 105 38 196617 phelp;#P objectname phelp;#P user textedit 18 50 374 68 2 3 9 Get synchronization signal from a ReWire host;#P objectname thes[1];#P user textedit 375 50 563 68 2 3 9 hostphasor~;#P objectname obj[1];#P user textedit 18 64 374 82 2 3 9 Get transport control info from a ReWire host;#P objectname thes[2];#P user textedit 375 64 563 82 2 3 9 hostsync~;#P objectname obj[2];#P user textedit 18 78 374 108 2 3 9 Global signal values;#P objectname thes[3];#P user textedit 375 78 563 108 2 3 9 receive~ \, send~ \, plugreceive~ \, plugsend~;#P objectname obj[3];#P user textedit 18 104 374 122 2 3 9 Graph filter poles and zeros on the Z-plane;#P objectname thes[4];#P user textedit 375 104 563 122 2 3 9 zplane~;#P objectname obj[4];#P user textedit 18 118 374 136 2 3 9 Graphical filter editor;#P objectname thes[5];#P user textedit 375 118 563 136 2 3 9 filtergraph~;#P objectname obj[5];#P window setfont "Sans Serif" 14.;#P message 144 15 20 196622 G;#P objectname L[6];#P window setfont "Sans Serif" 9.;#P hidden newex 597 15 105 196617 bgcolor 170 170 255;#B color 5;#P hidden number 627 58 35 9 0 0 0 3 0 0 0 221 221 221 222 222 222 0 0 0;#P hidden newex 627 76 86 196617 sprintf script hidden connect obj[%i] 2 phelp 0;#P window setfont "Sans Serif" 14.;#P message 543 15 20 196622 Z;#B color 5;#P objectname L[25];#P message 522 15 20 196622 Y;#B color 5;#P objectname L[24];#P message 501 15 20 196622 X;#B color 5;#P objectname L[23];#P message 480 15 20 196622 W;#B color 5;#P objectname L[22];#P message 459 15 20 196622 V;#B color 5;#P objectname L[21];#P message 438 15 20 196622 U;#B color 5;#P objectname L[20];#P message 417 15 20 196622 T;#B color 5;#P objectname L[19];#P message 396 15 20 196622 S;#B color 5;#P objectname L[18];#P message 375 15 20 196622 R;#B color 5;#P objectname L[17];#P message 354 15 20 196622 Q;#B color 5;#P objectname L[16];#P message 333 15 20 196622 P;#B color 5;#P objectname L[15];#P message 312 15 20 196622 O;#B color 5;#P objectname L[14];#P message 291 15 20 196622 N;#B color 5;#P objectname L[13];#P message 270 15 20 196622 M;#B color 5;#P objectname L[12];#P message 249 15 20 196622 L;#B color 5;#P objectname L[11];#P message 228 15 20 196622 K;#B color 5;#P objectname L[10];#P message 207 15 20 196622 J;#B color 5;#P objectname L[9];#P message 186 15 20 196622 I;#B color 5;#P objectname L[8];#P message 165 15 20 196622 H;#B color 5;#P objectname L[7];#P message 123 15 20 196622 F;#B color 5;#P objectname L[5];#P message 102 15 20 196622 E;#B color 5;#P objectname L[4];#P message 81 15 20 196622 D;#B color 5;#P objectname L[3];#P message 60 15 20 196622 C;#B color 5;#P objectname L[2];#P message 39 15 20 196622 B;#B color 5;#P objectname L[1];#P message 18 15 20 196622 A;#B color 5;#P objectname L[0];#P window setfont "Sans Serif" 9.;#P comment 1 1 100 196617;#N thispatcher;#Q end;#P hidden newobj 566 57 59 196617 thispatcher;#P hidden newex 566 38 88 196617 MOT-Loader MSP;#P user ubutton 1 2 582 51 0 0;#P hidden connect 0 1 46 0;#P hidden connect 4 0 1 0;#P hidden connect 5 0 1 0;#P hidden connect 6 0 1 0;#P hidden connect 7 0 1 0;#P hidden connect 8 0 1 0;#P hidden connect 9 0 1 0;#P hidden connect 10 0 1 0;#P hidden connect 11 0 1 0;#P hidden connect 12 0 1 0;#P hidden connect 13 0 1 0;#P hidden connect 14 0 1 0;#P hidden connect 15 0 1 0;#P hidden connect 16 0 1 0;#P hidden connect 17 0 1 0;#P hidden connect 18 0 1 0;#P hidden connect 19 0 1 0;#P hidden connect 20 0 1 0;#P hidden connect 21 0 1 0;#P hidden connect 22 0 1 0;#P hidden connect 23 0 1 0;#P hidden connect 24 0 1 0;#P hidden connect 25 0 1 0;#P hidden connect 26 0 1 0;#P hidden connect 27 0 1 0;#P hidden connect 28 0 1 0;#P hidden connect 46 0 1 0;#P hidden connect 47 0 2 0;#P hidden connect 29 0 2 0;#P hidden connect 1 0 2 0;#P hidden connect 44 2 43 0;#P hidden connect 41 2 43 0;#P hidden connect 39 2 43 0;#P hidden connect 37 2 43 0;#P hidden connect 35 2 43 0;#P hidden connect 33 2 43 0;#P hidden connect 30 0 29 0;#P hidden connect 32 0 47 0;#P pop;