max v2;#N vpatcher 9 48 608 368;#P origin 3 -4;#P window setfont "Sans Serif" 9.;#P hidden newex 655 38 88 196617 MOT-Loader Max;#P hidden message 565 15 29 196617 MOT;#P user textedit 17 36 373 54 2 3 9 Ramp signal;#P objectname thes[0];#P user textedit 374 36 562 54 2 3 9 curve~ \, line~;#P objectname obj[0];#P hidden newex 575 165 38 196617 phelp;#P objectname phelp;#P user textedit 17 50 373 68 2 3 9 Random signal values;#P objectname thes[1];#P user textedit 374 50 562 68 2 3 9 noise~ \, pink~ \, rand~;#P objectname obj[1];#P user textedit 17 64 373 82 2 3 9 Receive audio from another plug-in;#P objectname thes[2];#P user textedit 374 64 562 82 2 3 9 plugreceive~;#P objectname obj[2];#P user textedit 17 78 373 108 2 3 9 Recording audio samples;#P objectname thes[3];#P user textedit 374 78 562 108 2 3 9 adc~ \, ezadc~ \, poke~ \, record~ \, sfrecord~;#P objectname obj[3];#P user textedit 17 104 373 122 2 3 9 Remainder (signal);#P objectname thes[4];#P user textedit 374 104 562 122 2 3 9 %~;#P objectname obj[4];#P user textedit 17 118 373 136 2 3 9 Repetition at sub-audio rates;#P objectname thes[5];#P user textedit 374 118 562 136 2 3 9 cycle~ \, phasor~ \, techno~ \, train~;#P objectname obj[5];#P user textedit 17 132 373 150 2 3 9 Report and control audio driver settings;#P objectname thes[6];#P user textedit 374 132 562 150 2 3 9 adstatus;#P objectname obj[6];#P user textedit 17 146 373 164 2 3 9 Report host synchronization information;#P objectname thes[7];#P user textedit 374 146 562 164 2 3 9 plugsync~;#P objectname obj[7];#P user textedit 17 160 373 178 2 3 9 Report information about for a patcher loaded by pfft~;#P objectname thes[8];#P user textedit 374 160 562 178 2 3 9 fftinfo~;#P objectname obj[8];#P user textedit 17 174 373 192 2 3 9 Report intervals of zero to non-zero transitions;#P objectname thes[9];#P user textedit 374 174 562 192 2 3 9 spike~;#P objectname obj[9];#P user textedit 17 188 373 206 2 3 9 Report milliseconds of audio processed;#P objectname thes[10];#P user textedit 374 188 562 206 2 3 9 dsptime~;#P objectname obj[10];#P user textedit 17 202 373 232 2 3 9 Resonant filter;#P objectname thes[11];#P user textedit 374 202 562 232 2 3 9 allpass~ \, biquad~ \, comb~ \, lores~ \, reson~ \, svf~;#P objectname obj[11];#P user textedit 17 228 373 246 2 3 9 Reverberation;#P objectname thes[12];#P user textedit 374 228 562 246 2 3 9 allpass~ \, comb~ \, tapin~ \, tapout~;#P objectname obj[12];#P user textedit 17 242 373 260 2 3 9 Reversed sample playback;#P objectname thes[13];#P user textedit 374 242 562 260 2 3 9 groove~ \, play~;#P objectname obj[13];#P user textedit 17 256 373 274 2 3 9 ReWire device hosting;#P objectname thes[14];#P user textedit 374 256 562 274 2 3 9 rewire~;#P objectname obj[14];#P user textedit 17 270 373 288 2 3 9 Ring modulation;#P objectname thes[15];#P user textedit 374 270 562 288 2 3 9 *~;#P objectname obj[15];#P window setfont "Sans Serif" 14.;#P message 374 15 20 196622 R;#P objectname L[17];#P window setfont "Sans Serif" 9.;#P hidden newex 597 15 105 196617 bgcolor 170 170 255;#B color 5;#P hidden number 626 58 35 9 0 0 0 3 0 0 0 221 221 221 222 222 222 0 0 0;#P hidden newex 626 76 86 196617 sprintf script hidden connect obj[%i] 2 phelp 0;#P window setfont "Sans Serif" 14.;#P message 542 15 20 196622 Z;#B color 5;#P objectname L[25];#P message 521 15 20 196622 Y;#B color 5;#P objectname L[24];#P message 500 15 20 196622 X;#B color 5;#P objectname L[23];#P message 479 15 20 196622 W;#B color 5;#P objectname L[22];#P message 458 15 20 196622 V;#B color 5;#P objectname L[21];#P message 437 15 20 196622 U;#B color 5;#P objectname L[20];#P message 416 15 20 196622 T;#B color 5;#P objectname L[19];#P message 395 15 20 196622 S;#B color 5;#P objectname L[18];#P message 353 15 20 196622 Q;#B color 5;#P objectname L[16];#P message 332 15 20 196622 P;#B color 5;#P objectname L[15];#P message 311 15 20 196622 O;#B color 5;#P objectname L[14];#P message 290 15 20 196622 N;#B color 5;#P objectname L[13];#P message 269 15 20 196622 M;#B color 5;#P objectname L[12];#P message 248 15 20 196622 L;#B color 5;#P objectname L[11];#P message 227 15 20 196622 K;#B color 5;#P objectname L[10];#P message 206 15 20 196622 J;#B color 5;#P objectname L[9];#P message 185 15 20 196622 I;#B color 5;#P objectname L[8];#P message 164 15 20 196622 H;#B color 5;#P objectname L[7];#P message 143 15 20 196622 G;#B color 5;#P objectname L[6];#P message 122 15 20 196622 F;#B color 5;#P objectname L[5];#P message 101 15 20 196622 E;#B color 5;#P objectname L[4];#P message 80 15 20 196622 D;#B color 5;#P objectname L[3];#P message 59 15 20 196622 C;#B color 5;#P objectname L[2];#P message 38 15 20 196622 B;#B color 5;#P objectname L[1];#P message 17 15 20 196622 A;#B color 5;#P objectname L[0];#P window setfont "Sans Serif" 9.;#P comment 0 1 100 196617;#N thispatcher;#Q end;#P hidden newobj 565 57 59 196617 thispatcher;#P hidden newex 565 38 88 196617 MOT-Loader MSP;#P user ubutton 0 2 582 51 0 0;#P hidden connect 0 1 66 0;#P hidden connect 4 0 1 0;#P hidden connect 5 0 1 0;#P hidden connect 6 0 1 0;#P hidden connect 7 0 1 0;#P hidden connect 8 0 1 0;#P hidden connect 9 0 1 0;#P hidden connect 10 0 1 0;#P hidden connect 11 0 1 0;#P hidden connect 12 0 1 0;#P hidden connect 13 0 1 0;#P hidden connect 14 0 1 0;#P hidden connect 15 0 1 0;#P hidden connect 16 0 1 0;#P hidden connect 17 0 1 0;#P hidden connect 18 0 1 0;#P hidden connect 19 0 1 0;#P hidden connect 20 0 1 0;#P hidden connect 21 0 1 0;#P hidden connect 22 0 1 0;#P hidden connect 23 0 1 0;#P hidden connect 24 0 1 0;#P hidden connect 25 0 1 0;#P hidden connect 26 0 1 0;#P hidden connect 27 0 1 0;#P hidden connect 28 0 1 0;#P hidden connect 66 0 1 0;#P hidden connect 67 0 2 0;#P hidden connect 29 0 2 0;#P hidden connect 1 0 2 0;#P hidden connect 33 2 63 0;#P hidden connect 35 2 63 0;#P hidden connect 37 2 63 0;#P hidden connect 39 2 63 0;#P hidden connect 41 2 63 0;#P hidden connect 43 2 63 0;#P hidden connect 45 2 63 0;#P hidden connect 47 2 63 0;#P hidden connect 49 2 63 0;#P hidden connect 51 2 63 0;#P hidden connect 53 2 63 0;#P hidden connect 55 2 63 0;#P hidden connect 57 2 63 0;#P hidden connect 59 2 63 0;#P hidden connect 61 2 63 0;#P hidden connect 64 2 63 0;#P hidden connect 30 0 29 0;#P hidden connect 32 0 67 0;#P pop;