max v2;#N vpatcher 9 48 610 764;#P origin 3 -4;#P window setfont "Sans Serif" 9.;#P hidden newex 655 38 88 196617 MOT-Loader Max;#P hidden message 565 15 29 196617 MOT;#P user textedit 17 36 373 54 2 3 9 Sample and hold;#P objectname thes[0];#P user textedit 374 36 562 54 2 3 9 sah~;#P objectname obj[0];#P hidden newex 588 273 38 196617 phelp;#P objectname phelp;#P user textedit 17 50 373 68 2 3 9 Sample index in a buffer;#P objectname thes[1];#P user textedit 374 50 562 68 2 3 9 count~ \, index~;#P objectname obj[1];#P user textedit 17 64 373 94 2 3 9 Sample playback;#P objectname thes[2];#P user textedit 374 64 562 94 2 3 9 2d.wave~ \, buffer~ \, groove~ \, index~ \, play~ \, sfplay~ \, techno~ \, wave~;#P objectname obj[2];#P user textedit 17 90 373 108 2 3 9 Sample storage;#P objectname thes[3];#P user textedit 374 90 562 108 2 3 9 buffer~ \, record~ \, sfrecord~;#P objectname obj[3];#P user textedit 17 104 373 134 2 3 9 Sampling rate;#P objectname thes[4];#P user textedit 374 104 562 134 2 3 9 adc~ \, buffer~ \, count~ \, dac~ \, dspstate~ \, mstosamps~ \, sampstoms~;#P objectname obj[4];#P user textedit 17 130 373 148 2 3 9 Sawtooth oscillator;#P objectname thes[5];#P user textedit 374 130 562 148 2 3 9 phasor~;#P objectname obj[5];#P user textedit 17 144 373 162 2 3 9 See the maximum amplitude of a signal;#P objectname thes[6];#P user textedit 374 144 562 162 2 3 9 peakamp~;#P objectname obj[6];#P user textedit 17 158 373 176 2 3 9 Send audio to another place;#P objectname thes[7];#P user textedit 374 158 562 176 2 3 9 send~ \, receive~;#P objectname obj[7];#P user textedit 17 172 373 190 2 3 9 Send audio to another plug-in;#P objectname thes[8];#P user textedit 374 172 562 190 2 3 9 plugsend~ \, plugreceive~;#P objectname obj[8];#P user textedit 17 186 373 204 2 3 9 Signal accumulator (signal);#P objectname thes[9];#P user textedit 374 186 562 204 2 3 9 +=~;#P objectname obj[9];#P user textedit 17 200 373 242 2 3 9 Signal arithmetic operators;#P objectname thes[10];#P user textedit 374 200 562 242 2 3 9 acos~ \, acosh~ \, asin~ \, asinh~ \, atan~ \, atanh~ \, atan2~ \, cos~ \, cosh~ \, cosx~ \, sinh~ \, sinx~ \, tanh~ \, tanx~;#P objectname obj[10];#P user textedit 17 238 373 256 2 3 9 Signal capture and granular oscillator;#P objectname thes[11];#P user textedit 374 238 562 256 2 3 9 stutter~;#P objectname obj[11];#P user textedit 17 252 373 270 2 3 9 Signal comparison \, output the maximum;#P objectname thes[12];#P user textedit 374 252 562 270 2 3 9 maximum~;#P objectname obj[12];#P user textedit 17 266 373 284 2 3 9 Signal comparison \, output the minimum;#P objectname thes[13];#P user textedit 374 266 562 284 2 3 9 minimum~;#P objectname obj[13];#P user textedit 17 280 373 298 2 3 9 Signal division (inlets reversed);#P objectname thes[14];#P user textedit 374 280 562 298 2 3 9 !/~;#P objectname obj[14];#P user textedit 17 294 373 312 2 3 9 Signal folding \, variable range;#P objectname thes[15];#P user textedit 374 294 562 312 2 3 9 pong~;#P objectname obj[15];#P user textedit 17 308 373 326 2 3 9 Signal input for a patcher loaded by poly~;#P objectname thes[16];#P user textedit 374 308 562 326 2 3 9 in~;#P objectname obj[16];#P user textedit 17 322 373 340 2 3 9 Signal mixing matrix;#P objectname thes[17];#P user textedit 374 322 562 340 2 3 9 matrix~;#P objectname obj[17];#P user textedit 17 336 373 354 2 3 9 Signal output for a patcher loaded by poly~;#P objectname thes[18];#P user textedit 374 336 562 354 2 3 9 out~;#P objectname obj[18];#P user textedit 17 350 373 368 2 3 9 Signal quality reducer;#P objectname thes[19];#P user textedit 374 350 562 368 2 3 9 degrade~;#P objectname obj[19];#P user textedit 17 364 373 382 2 3 9 Signal remainder;#P objectname thes[20];#P user textedit 374 364 562 382 2 3 9 %~;#P objectname obj[20];#P user textedit 17 378 373 396 2 3 9 Signal routing matrix;#P objectname thes[21];#P user textedit 374 378 562 396 2 3 9 matrix~;#P objectname obj[21];#P user textedit 17 392 373 410 2 3 9 Signal spectrogram or sonogram;#P objectname thes[22];#P user textedit 374 392 562 410 2 3 9 spectroscope~;#P objectname obj[22];#P user textedit 17 406 373 424 2 3 9 Signal subtraction (inlets reversed);#P objectname thes[23];#P user textedit 374 406 562 424 2 3 9 !-~;#P objectname obj[23];#P user textedit 17 420 373 438 2 3 9 Signal tangent function (signal);#P objectname thes[24];#P user textedit 374 420 562 438 2 3 9 tanx~;#P objectname obj[24];#P user textedit 17 434 373 452 2 3 9 Signal-driven sequencer;#P objectname thes[25];#P user textedit 374 434 562 452 2 3 9 techno~;#P objectname obj[25];#P user textedit 17 448 373 466 2 3 9 Sine function for signals;#P objectname thes[26];#P user textedit 374 448 562 466 2 3 9 sinx~;#P objectname obj[26];#P user textedit 17 462 373 480 2 3 9 Sine wave;#P objectname thes[27];#P user textedit 374 462 562 480 2 3 9 cos~ \, cycle~;#P objectname obj[27];#P user textedit 17 476 373 494 2 3 9 Single-pole lowpass filter;#P objectname thes[28];#P user textedit 374 476 562 494 2 3 9 onepole~;#P objectname obj[28];#P user textedit 17 490 373 508 2 3 9 Sonogram;#P objectname thes[30];#P user textedit 374 490 562 508 2 3 9 spectroscope~;#P objectname obj[29];#P user textedit 17 504 373 522 2 3 9 Smooth an incoming signal;#P objectname thes[31];#P user textedit 374 504 562 522 2 3 9 rampsmooth~;#P objectname obj[30];#P user textedit 17 518 373 536 2 3 9 Soft-clipping signal distortion;#P objectname thes[32];#P user textedit 374 518 562 536 2 3 9 overdrive~;#P objectname obj[31];#P user textedit 17 532 373 550 2 3 9 Sound Designer II saving and playing (Macintosh only);#P objectname thes[33];#P user textedit 374 532 562 550 2 3 9 buffer~ \, info~ \, sfplay~ \, sfrecord~;#P objectname obj[32];#P user textedit 17 546 373 588 2 3 9 Spectral domain processing;#P objectname thes[34];#P user textedit 374 546 562 588 2 3 9 cartopol~ \, fftin~ \, fftinfo~ \, fftout~ \, frameaccum~ \, framedelta~ \, pfft~ \, phasewrap~ \, poltocar~ \, vectral~;#P objectname obj[33];#P user textedit 17 584 373 602 2 3 9 Spectral-processing manager for patchers;#P objectname thes[35];#P user textedit 374 584 562 602 2 3 9 pfft~;#P objectname obj[34];#P user textedit 17 598 373 616 2 3 9 Spectrogram;#P objectname thes[36];#P user textedit 374 598 562 616 2 3 9 spectroscope~;#P objectname obj[35];#P user textedit 17 612 373 630 2 3 9 Spectrum measurement;#P objectname thes[37];#P user textedit 374 612 562 630 2 3 9 fft~ \, ifft~ \, pfft~;#P objectname obj[36];#P user textedit 17 626 373 656 2 3 9 Start and end point of a sample;#P objectname thes[38];#P user textedit 374 626 562 656 2 3 9 2d.wave~ \, groove~ \, index~ \, play~ \, wave~;#P objectname obj[37];#P window setfont "Sans Serif" 14.;#P message 395 15 20 196622 S;#P objectname L[18];#P window setfont "Sans Serif" 9.;#P hidden newex 597 15 105 196617 bgcolor 170 170 255;#B color 5;#P hidden number 626 58 35 9 0 0 0 3 0 0 0 221 221 221 222 222 222 0 0 0;#P hidden newex 626 76 86 196617 sprintf script hidden connect obj[%i] 2 phelp 0;#P window setfont "Sans Serif" 14.;#P message 542 15 20 196622 Z;#B color 5;#P objectname L[25];#P message 521 15 20 196622 Y;#B color 5;#P objectname L[24];#P message 500 15 20 196622 X;#B color 5;#P objectname L[23];#P message 479 15 20 196622 W;#B color 5;#P objectname L[22];#P message 458 15 20 196622 V;#B color 5;#P objectname L[21];#P message 437 15 20 196622 U;#B color 5;#P objectname L[20];#P message 416 15 20 196622 T;#B color 5;#P objectname L[19];#P message 374 15 20 196622 R;#B color 5;#P objectname L[17];#P message 353 15 20 196622 Q;#B color 5;#P objectname L[16];#P message 332 15 20 196622 P;#B color 5;#P objectname L[15];#P message 311 15 20 196622 O;#B color 5;#P objectname L[14];#P message 290 15 20 196622 N;#B color 5;#P objectname L[13];#P message 269 15 20 196622 M;#B color 5;#P objectname L[12];#P message 248 15 20 196622 L;#B color 5;#P objectname L[11];#P message 227 15 20 196622 K;#B color 5;#P objectname L[10];#P message 206 15 20 196622 J;#B color 5;#P objectname L[9];#P message 185 15 20 196622 I;#B color 5;#P objectname L[8];#P message 164 15 20 196622 H;#B color 5;#P objectname L[7];#P message 143 15 20 196622 G;#B color 5;#P objectname L[6];#P message 122 15 20 196622 F;#B color 5;#P objectname L[5];#P message 101 15 20 196622 E;#B color 5;#P objectname L[4];#P message 80 15 20 196622 D;#B color 5;#P objectname L[3];#P message 59 15 20 196622 C;#B color 5;#P objectname L[2];#P message 38 15 20 196622 B;#B color 5;#P objectname L[1];#P message 17 15 20 196622 A;#B color 5;#P objectname L[0];#P window setfont "Sans Serif" 9.;#P comment 0 1 100 196617;#N thispatcher;#Q end;#P hidden newobj 565 57 59 196617 thispatcher;#P hidden newex 565 38 88 196617 MOT-Loader MSP;#P user textedit 17 652 373 670 2 3 9 State-variable filter with simultaneous outputs;#P objectname thes[39];#P user textedit 374 652 562 670 2 3 9 svf~;#P objectname obj[38];#P user textedit 17 666 373 684 2 3 9 Store multiple plug-in parameter values;#P objectname thes[40];#P user textedit 374 666 562 684 2 3 9 plugstore;#P objectname obj[39];#P user textedit 17 680 373 698 2 3 9 Subpatch control;#P objectname thes[46];#P user textedit 374 680 562 698 2 3 9 mute~ \, receive~ \, send~;#P objectname obj[45];#P user textedit 17 694 373 736 2 3 9 Subtractive synthesis;#P objectname thes[45];#P user textedit 374 694 562 736 2 3 9 allpass~ \, biquad~ \, comb~ \, lores~ \, noise~ \, pink~ \, rand~ \, rect~ \, reson~ \, saw~ \, tri~;#P objectname obj[44];#P user textedit 17 732 373 750 2 3 9 Switching signal flow on and off;#P objectname thes[44];#P user textedit 374 732 562 750 2 3 9 gate~ \, mute~ \, pass~ \, selector~;#P objectname obj[43];#P user textedit 17 746 373 764 2 3 9 Synchronize MSP with an external source;#P objectname thes[43];#P user textedit 374 746 562 764 2 3 9 sync~;#P objectname obj[42];#P user ubutton 0 2 582 51 0 0;#P hidden connect 0 1 122 0;#P hidden connect 40 0 13 0;#P hidden connect 39 0 13 0;#P hidden connect 38 0 13 0;#P hidden connect 37 0 13 0;#P hidden connect 36 0 13 0;#P hidden connect 35 0 13 0;#P hidden connect 34 0 13 0;#P hidden connect 33 0 13 0;#P hidden connect 32 0 13 0;#P hidden connect 31 0 13 0;#P hidden connect 30 0 13 0;#P hidden connect 29 0 13 0;#P hidden connect 28 0 13 0;#P hidden connect 27 0 13 0;#P hidden connect 26 0 13 0;#P hidden connect 25 0 13 0;#P hidden connect 24 0 13 0;#P hidden connect 23 0 13 0;#P hidden connect 22 0 13 0;#P hidden connect 21 0 13 0;#P hidden connect 20 0 13 0;#P hidden connect 19 0 13 0;#P hidden connect 18 0 13 0;#P hidden connect 17 0 13 0;#P hidden connect 16 0 13 0;#P hidden connect 122 0 13 0;#P hidden connect 123 0 14 0;#P hidden connect 41 0 14 0;#P hidden connect 13 0 14 0;#P hidden connect 1 2 119 0;#P hidden connect 3 2 119 0;#P hidden connect 5 2 119 0;#P hidden connect 7 2 119 0;#P hidden connect 9 2 119 0;#P hidden connect 11 2 119 0;#P hidden connect 45 2 119 0;#P hidden connect 47 2 119 0;#P hidden connect 49 2 119 0;#P hidden connect 51 2 119 0;#P hidden connect 53 2 119 0;#P hidden connect 55 2 119 0;#P hidden connect 57 2 119 0;#P hidden connect 59 2 119 0;#P hidden connect 61 2 119 0;#P hidden connect 63 2 119 0;#P hidden connect 65 2 119 0;#P hidden connect 67 2 119 0;#P hidden connect 69 2 119 0;#P hidden connect 71 2 119 0;#P hidden connect 73 2 119 0;#P hidden connect 75 2 119 0;#P hidden connect 77 2 119 0;#P hidden connect 79 2 119 0;#P hidden connect 81 2 119 0;#P hidden connect 83 2 119 0;#P hidden connect 85 2 119 0;#P hidden connect 87 2 119 0;#P hidden connect 89 2 119 0;#P hidden connect 91 2 119 0;#P hidden connect 93 2 119 0;#P hidden connect 95 2 119 0;#P hidden connect 97 2 119 0;#P hidden connect 99 2 119 0;#P hidden connect 101 2 119 0;#P hidden connect 103 2 119 0;#P hidden connect 105 2 119 0;#P hidden connect 107 2 119 0;#P hidden connect 109 2 119 0;#P hidden connect 111 2 119 0;#P hidden connect 113 2 119 0;#P hidden connect 115 2 119 0;#P hidden connect 117 2 119 0;#P hidden connect 120 2 119 0;#P hidden connect 42 0 41 0;#P hidden connect 44 0 123 0;#P pop;