max v2;#N vpatcher 9 47 611 380;#P origin 3 -4;#P window setfont "Sans Serif" 9.;#P hidden newex 656 38 88 196617 MOT-Loader Max;#P hidden message 565 14 29 196617 MOT;#P window setfont "Sans Serif" 14.;#P message 80 15 20 196622 D;#P objectname L[3];#P window setfont "Sans Serif" 9.;#P hidden newex 596 14 105 196617 bgcolor 170 170 255;#B color 5;#P user textedit 17 36 373 54 2 3 9 DC offset;#P objectname thes[0];#P hidden number 626 58 35 9 0 0 0 3 0 0 0 221 221 221 222 222 222 0 0 0;#P hidden newex 626 76 86 196617 sprintf script hidden connect obj[%i] 2 phelp 0;#P window setfont "Sans Serif" 14.;#P message 542 15 20 196622 Z;#B color 5;#P objectname L[25];#P message 521 15 20 196622 Y;#B color 5;#P objectname L[24];#P message 500 15 20 196622 X;#B color 5;#P objectname L[23];#P message 479 15 20 196622 W;#B color 5;#P objectname L[22];#P message 458 15 20 196622 V;#B color 5;#P objectname L[21];#P message 437 15 20 196622 U;#B color 5;#P objectname L[20];#P message 416 15 20 196622 T;#B color 5;#P objectname L[19];#P message 395 15 20 196622 S;#B color 5;#P objectname L[18];#P message 374 15 20 196622 R;#B color 5;#P objectname L[17];#P message 353 15 20 196622 Q;#B color 5;#P objectname L[16];#P message 332 15 20 196622 P;#B color 5;#P objectname L[15];#P message 311 15 20 196622 O;#B color 5;#P objectname L[14];#P message 290 15 20 196622 N;#B color 5;#P objectname L[13];#P message 269 15 20 196622 M;#B color 5;#P objectname L[12];#P message 248 15 20 196622 L;#B color 5;#P objectname L[11];#P message 227 15 20 196622 K;#B color 5;#P objectname L[10];#P message 206 15 20 196622 J;#B color 5;#P objectname L[9];#P message 185 15 20 196622 I;#B color 5;#P objectname L[8];#P message 164 15 20 196622 H;#B color 5;#P objectname L[7];#P message 143 15 20 196622 G;#B color 5;#P objectname L[6];#P message 122 15 20 196622 F;#B color 5;#P objectname L[5];#P message 101 15 20 196622 E;#B color 5;#P objectname L[4];#P message 59 15 20 196622 C;#B color 5;#P objectname L[2];#P message 38 15 20 196622 B;#B color 5;#P objectname L[1];#P message 17 15 20 196622 A;#B color 5;#P objectname L[0];#P window setfont "Sans Serif" 9.;#P user textedit 374 36 562 54 2 3 9 +~ \, -~ \, number~ \, sig~;#P objectname obj[0];#P comment 0 1 100 196617;#N thispatcher;#Q end;#P hidden newobj 565 57 59 196617 thispatcher;#P hidden newex 565 38 88 196617 MOT-Loader MSP;#P hidden newex 576 150 38 196617 phelp;#P objectname phelp;#P user textedit 17 50 373 68 2 3 9 Define a plug-in parameter;#P objectname thes[1];#P user textedit 374 50 562 68 2 3 9 pp;#P objectname obj[1];#P user textedit 17 64 373 82 2 3 9 Define a plug-ins audio inputs;#P objectname thes[2];#P user textedit 374 64 562 82 2 3 9 plugin~;#P objectname obj[2];#P user textedit 17 78 373 96 2 3 9 Define a plug-ins audio outputs;#P objectname thes[3];#P user textedit 374 78 562 96 2 3 9 plugout~;#P objectname obj[3];#P user textedit 17 92 373 110 2 3 9 Define a time-based plug-in parameter;#P objectname thes[4];#P user textedit 374 92 562 110 2 3 9 pptime;#P objectname obj[4];#P user textedit 17 106 373 124 2 3 9 Define multiple plug-in parameters;#P objectname thes[5];#P user textedit 374 106 562 124 2 3 9 plugmultiparam;#P objectname obj[5];#P user textedit 17 120 373 138 2 3 9 Define plug-in tempo and sync parameters;#P objectname thes[6];#P user textedit 374 120 562 138 2 3 9 pptempo;#P objectname obj[6];#P user textedit 17 134 373 164 2 3 9 Delay;#P objectname thes[7];#P user textedit 374 134 562 164 2 3 9 allpass~ \, comb~ \, delay~ \, tapin~ \, tapout~;#P objectname obj[7];#P user textedit 17 160 373 178 2 3 9 Difference between samples;#P objectname thes[8];#P user textedit 374 160 562 178 2 3 9 change~ \, delta~;#P objectname obj[8];#P user textedit 17 174 373 192 2 3 9 Difference between signals;#P objectname thes[9];#P user textedit 374 174 562 192 2 3 9 -~ \, scope~;#P objectname obj[9];#P user textedit 17 188 373 206 2 3 9 Digital-to-analog converter;#P objectname thes[10];#P user textedit 374 188 562 206 2 3 9 dac~ \, ezdac~;#P objectname obj[10];#P user textedit 17 202 373 220 2 3 9 Disabling part of a signal network;#P objectname thes[11];#P user textedit 374 202 562 220 2 3 9 gate~ \, mute~ \, pass~ \, selector~;#P objectname obj[11];#P user textedit 17 216 373 246 2 3 9 Display signal value;#P objectname thes[12];#P user textedit 374 216 562 246 2 3 9 capture~ \, meter~ \, number~ \, scope~ \, snapshot~;#P objectname obj[12];#P user textedit 17 242 373 260 2 3 9 Divide two signals \, output the remainder;#P objectname thes[13];#P user textedit 374 242 562 260 2 3 9 %~;#P objectname obj[13];#P user textedit 17 256 373 286 2 3 9 Downsampling;#P objectname thes[14];#P user textedit 374 256 562 286 2 3 9 avg~ \, degrade~ \, number~ \, poly~ \, sah~ \, snapshot~;#P objectname obj[14];#P user textedit 17 282 373 300 2 3 9 Duty cycle of a pulse wave;#P objectname thes[15];#P user textedit 374 282 562 300 2 3 9 <~ \, >~ \, train~;#P objectname obj[15];#P user ubutton 0 1 585 52 0 0;#P hidden connect 0 1 66 0;#P hidden connect 36 0 32 0;#P hidden connect 37 0 32 0;#P hidden connect 38 0 32 0;#P hidden connect 39 0 32 0;#P hidden connect 40 0 32 0;#P hidden connect 41 0 32 0;#P hidden connect 42 0 32 0;#P hidden connect 43 0 32 0;#P hidden connect 44 0 32 0;#P hidden connect 45 0 32 0;#P hidden connect 46 0 32 0;#P hidden connect 47 0 32 0;#P hidden connect 48 0 32 0;#P hidden connect 49 0 32 0;#P hidden connect 50 0 32 0;#P hidden connect 51 0 32 0;#P hidden connect 52 0 32 0;#P hidden connect 53 0 32 0;#P hidden connect 54 0 32 0;#P hidden connect 55 0 32 0;#P hidden connect 56 0 32 0;#P hidden connect 57 0 32 0;#P hidden connect 58 0 32 0;#P hidden connect 59 0 32 0;#P hidden connect 60 0 32 0;#P hidden connect 66 0 32 0;#P hidden connect 67 0 33 0;#P hidden connect 32 0 33 0;#P hidden connect 61 0 33 0;#P hidden connect 1 2 31 0;#P hidden connect 3 2 31 0;#P hidden connect 5 2 31 0;#P hidden connect 7 2 31 0;#P hidden connect 9 2 31 0;#P hidden connect 11 2 31 0;#P hidden connect 13 2 31 0;#P hidden connect 15 2 31 0;#P hidden connect 17 2 31 0;#P hidden connect 19 2 31 0;#P hidden connect 21 2 31 0;#P hidden connect 23 2 31 0;#P hidden connect 25 2 31 0;#P hidden connect 27 2 31 0;#P hidden connect 29 2 31 0;#P hidden connect 35 2 31 0;#P hidden connect 62 0 61 0;#P hidden connect 65 0 67 0;#P pop;