max v2;#N vpatcher 9 49 610 287;#P origin 2 -4;#P window setfont "Sans Serif" 9.;#P hidden newex 655 38 88 196617 MOT-Loader Max;#P hidden message 565 15 29 196617 MOT;#P window setfont "Sans Serif" 14.;#P message 39 15 20 196622 B;#P objectname L[1];#P window setfont "Sans Serif" 9.;#P hidden newex 596 15 105 196617 bgcolor 170 170 255;#B color 5;#P user textedit 18 36 374 54 2 3 9 Backward sample playback;#P objectname thes[0];#P hidden number 626 58 35 9 0 0 0 3 0 0 0 221 221 221 222 222 222 0 0 0;#P hidden newex 626 77 85 196617 sprintf script hidden connect obj[%i] 2 phelp 0;#P window setfont "Sans Serif" 14.;#P message 543 15 20 196622 Z;#B color 5;#P objectname L[25];#P message 522 15 20 196622 Y;#B color 5;#P objectname L[24];#P message 501 15 20 196622 X;#B color 5;#P objectname L[23];#P message 480 15 20 196622 W;#B color 5;#P objectname L[22];#P message 459 15 20 196622 V;#B color 5;#P objectname L[21];#P message 438 15 20 196622 U;#B color 5;#P objectname L[20];#P message 417 15 20 196622 T;#B color 5;#P objectname L[19];#P message 396 15 20 196622 S;#B color 5;#P objectname L[18];#P message 375 15 20 196622 R;#B color 5;#P objectname L[17];#P message 354 15 20 196622 Q;#B color 5;#P objectname L[16];#P message 333 15 20 196622 P;#B color 5;#P objectname L[15];#P message 312 15 20 196622 O;#B color 5;#P objectname L[14];#P message 291 15 20 196622 N;#B color 5;#P objectname L[13];#P message 270 15 20 196622 M;#B color 5;#P objectname L[12];#P message 249 15 20 196622 L;#B color 5;#P objectname L[11];#P message 228 15 20 196622 K;#B color 5;#P objectname L[10];#P message 207 15 20 196622 J;#B color 5;#P objectname L[9];#P message 186 15 20 196622 I;#B color 5;#P objectname L[8];#P message 165 15 20 196622 H;#B color 5;#P objectname L[7];#P message 144 15 20 196622 G;#B color 5;#P objectname L[6];#P message 123 15 20 196622 F;#B color 5;#P objectname L[5];#P message 102 15 20 196622 E;#B color 5;#P objectname L[4];#P message 81 15 20 196622 D;#B color 5;#P objectname L[3];#P message 60 15 20 196622 C;#B color 5;#P objectname L[2];#P message 18 15 20 196622 A;#B color 5;#P objectname L[0];#P window setfont "Sans Serif" 9.;#P user textedit 375 36 563 54 2 3 9 groove~ \, play~;#P objectname obj[0];#P comment 1 1 100 196617;#N thispatcher;#Q end;#P hidden newobj 565 57 59 196617 thispatcher;#P hidden newex 565 38 88 196617 MOT-Loader MSP;#P hidden newex 570 123 38 196617 phelp;#P objectname phelp;#P user textedit 18 50 374 68 2 3 9 Band-limited random signal;#P objectname thes[1];#P user textedit 375 50 563 68 2 3 9 rand~;#P objectname obj[1];#P user textedit 18 64 374 82 2 3 9 Band-limited oscilators;#P objectname thes[2];#P user textedit 375 64 563 82 2 3 9 rect~ \, saw~ \, tri~;#P objectname obj[2];#P user textedit 18 78 374 96 2 3 9 Bandpass filter;#P objectname thes[3];#P user textedit 375 78 563 96 2 3 9 biquad~ \, reson~ \, svf~;#P objectname obj[3];#P user textedit 18 92 374 110 2 3 9 Bit shifting for floating-point signals;#P objectname thes[4];#P user textedit 375 92 563 110 2 3 9 bitshift~;#P objectname obj[4];#P user textedit 18 106 374 124 2 3 9 Bitwise ŇandÓ of floating-point signals;#P objectname thes[5];#P user textedit 375 106 563 124 2 3 9 bitand~;#P objectname obj[5];#P user textedit 18 120 374 138 2 3 9 Bitwise Ňexclusive orÓ of floating-point signals;#P objectname thes[6];#P user textedit 375 120 563 138 2 3 9 bitxor~;#P objectname obj[6];#P user textedit 18 134 374 152 2 3 9 Bitwise ŇorÓ of floating-point signals;#P objectname thes[7];#P user textedit 375 134 563 152 2 3 9 bitor~;#P objectname obj[7];#P user textedit 18 148 374 166 2 3 9 Bitwise inversion of a floating-point signal;#P objectname thes[8];#P user textedit 375 148 563 166 2 3 9 bitnot~;#P objectname obj[8];#P user textedit 18 162 374 180 2 3 9 buffer~ viewer and editor;#P objectname thes[9];#P user textedit 375 162 563 180 2 3 9 waveform~;#P objectname obj[9];#P user textedit 18 176 374 194 2 3 9 Buffer-based FIR filter;#P objectname thes[10];#P user textedit 375 176 563 194 2 3 9 buffir~;#P objectname obj[10];#P user textedit 18 190 374 208 2 3 9 Bypassing a signal;#P objectname thes[11];#P user textedit 375 190 563 208 2 3 9 gate~ \, mute~ \, pass~ \, selector~;#P objectname obj[11];#P user ubutton 1 2 585 52 0 0;#P hidden connect 0 1 58 0;#P hidden connect 28 0 24 0;#P hidden connect 29 0 24 0;#P hidden connect 30 0 24 0;#P hidden connect 31 0 24 0;#P hidden connect 32 0 24 0;#P hidden connect 33 0 24 0;#P hidden connect 34 0 24 0;#P hidden connect 35 0 24 0;#P hidden connect 36 0 24 0;#P hidden connect 37 0 24 0;#P hidden connect 38 0 24 0;#P hidden connect 39 0 24 0;#P hidden connect 40 0 24 0;#P hidden connect 41 0 24 0;#P hidden connect 42 0 24 0;#P hidden connect 43 0 24 0;#P hidden connect 44 0 24 0;#P hidden connect 45 0 24 0;#P hidden connect 46 0 24 0;#P hidden connect 47 0 24 0;#P hidden connect 48 0 24 0;#P hidden connect 49 0 24 0;#P hidden connect 50 0 24 0;#P hidden connect 51 0 24 0;#P hidden connect 52 0 24 0;#P hidden connect 58 0 24 0;#P hidden connect 59 0 25 0;#P hidden connect 24 0 25 0;#P hidden connect 53 0 25 0;#P hidden connect 1 2 23 0;#P hidden connect 3 2 23 0;#P hidden connect 5 2 23 0;#P hidden connect 7 2 23 0;#P hidden connect 9 2 23 0;#P hidden connect 11 2 23 0;#P hidden connect 13 2 23 0;#P hidden connect 15 2 23 0;#P hidden connect 17 2 23 0;#P hidden connect 19 2 23 0;#P hidden connect 21 2 23 0;#P hidden connect 27 2 23 0;#P hidden connect 54 0 53 0;#P hidden connect 57 0 59 0;#P pop;