max v2;#N vpatcher 9 48 612 534;#P origin 3 -4;#P window setfont "Sans Serif" 9.;#P hidden newex 655 38 88 196617 MOT-Loader Max;#P hidden message 565 14 29 196617 MOT;#P window setfont "Sans Serif" 14.;#P message 59 15 20 196622 C;#P objectname L[2];#P window setfont "Sans Serif" 9.;#P hidden newex 596 13 105 196617 bgcolor 170 170 255;#B color 5;#P user textedit 17 36 373 54 2 3 9 Cartesian to Polar coordinate conversion (signal);#P objectname thes[0];#P hidden number 626 58 35 9 0 0 0 3 0 0 0 221 221 221 222 222 222 0 0 0;#P hidden newex 626 76 86 196617 sprintf script hidden connect obj[%i] 2 phelp 0;#P window setfont "Sans Serif" 14.;#P message 542 15 20 196622 Z;#B color 5;#P objectname L[25];#P message 521 15 20 196622 Y;#B color 5;#P objectname L[24];#P message 500 15 20 196622 X;#B color 5;#P objectname L[23];#P message 479 15 20 196622 W;#B color 5;#P objectname L[22];#P message 458 15 20 196622 V;#B color 5;#P objectname L[21];#P message 437 15 20 196622 U;#B color 5;#P objectname L[20];#P message 416 15 20 196622 T;#B color 5;#P objectname L[19];#P message 395 15 20 196622 S;#B color 5;#P objectname L[18];#P message 374 15 20 196622 R;#B color 5;#P objectname L[17];#P message 353 15 20 196622 Q;#B color 5;#P objectname L[16];#P message 332 15 20 196622 P;#B color 5;#P objectname L[15];#P message 311 15 20 196622 O;#B color 5;#P objectname L[14];#P message 290 15 20 196622 N;#B color 5;#P objectname L[13];#P message 269 15 20 196622 M;#B color 5;#P objectname L[12];#P message 248 15 20 196622 L;#B color 5;#P objectname L[11];#P message 227 15 20 196622 K;#B color 5;#P objectname L[10];#P message 206 15 20 196622 J;#B color 5;#P objectname L[9];#P message 185 15 20 196622 I;#B color 5;#P objectname L[8];#P message 164 15 20 196622 H;#B color 5;#P objectname L[7];#P message 143 15 20 196622 G;#B color 5;#P objectname L[6];#P message 122 15 20 196622 F;#B color 5;#P objectname L[5];#P message 101 15 20 196622 E;#B color 5;#P objectname L[4];#P message 80 15 20 196622 D;#B color 5;#P objectname L[3];#P message 38 15 20 196622 B;#B color 5;#P objectname L[1];#P message 17 15 20 196622 A;#B color 5;#P objectname L[0];#P window setfont "Sans Serif" 9.;#P user textedit 374 36 562 54 2 3 9 cartopol~;#P objectname obj[0];#P comment 0 1 100 196617;#N thispatcher;#Q end;#P hidden newobj 565 57 59 196617 thispatcher;#P hidden newex 565 38 88 196617 MOT-Loader MSP;#P hidden newex 580 292 38 196617 phelp;#P objectname phelp;#P user textedit 17 50 373 68 2 3 9 Cascaded series of biquad filters;#P objectname thes[1];#P user textedit 374 50 562 68 2 3 9 cascade~;#P objectname obj[1];#P user textedit 17 64 373 82 2 3 9 Chorusing;#P objectname thes[2];#P user textedit 374 64 562 82 2 3 9 cycle~ \, tapout~;#P objectname obj[2];#P user textedit 17 78 373 96 2 3 9 Clipping;#P objectname thes[3];#P user textedit 374 78 562 96 2 3 9 clip~ \, dac~ \, normalize~;#P objectname obj[3];#P user textedit 17 92 373 110 2 3 9 Comb filter with feedforward and feedback delay control;#P objectname thes[4];#P user textedit 374 92 562 110 2 3 9 teeth~;#P objectname obj[4];#P user textedit 17 106 373 124 2 3 9 Comb filter;#P objectname thes[5];#P user textedit 374 106 562 124 2 3 9 comb~;#P objectname obj[5];#P user textedit 17 120 373 138 2 3 9 Compare two signals \, output the maximum;#P objectname thes[6];#P user textedit 374 120 562 138 2 3 9 maximum~;#P objectname obj[6];#P user textedit 17 134 373 152 2 3 9 Compare two signals \, output the minimum;#P objectname thes[7];#P user textedit 374 134 562 152 2 3 9 minimum~;#P objectname obj[7];#P user textedit 17 148 373 178 2 3 9 Comparing signals;#P objectname thes[8];#P user textedit 374 148 562 178 2 3 9 <~ \, ==~ \, >~ \, change~ \, meter~ \, scope~ \, snapshot~;#P objectname obj[8];#P user textedit 17 174 373 192 2 3 9 Compressor;#P objectname thes[9];#P user textedit 374 174 562 192 2 3 9 omx.comp~;#P objectname obj[9];#P user textedit 17 188 373 206 2 3 9 Compressors;#P objectname thes[10];#P user textedit 374 188 562 206 2 3 9 omx.4band~ \, omx.5band~ \, omx.comp~;#P objectname obj[10];#P user textedit 17 202 373 220 2 3 9 Compute Ňrunning phaseÓ of successive phase deviation frames;#P objectname thes[11];#P user textedit 374 202 562 220 2 3 9 frameaccum~;#P objectname obj[11];#P user textedit 17 216 373 234 2 3 9 Compute phase deviation between successive FFT frames;#P objectname thes[12];#P user textedit 374 216 562 234 2 3 9 framedelta~;#P objectname obj[12];#P user textedit 17 230 373 248 2 3 9 Compute the minimum and maximum values of a signal;#P objectname thes[13];#P user textedit 374 230 562 248 2 3 9 minmax~;#P objectname obj[13];#P user textedit 17 244 373 262 2 3 9 Configure the behavior of a plug-in;#P objectname thes[14];#P user textedit 374 244 562 262 2 3 9 plugconfig;#P objectname obj[14];#P user textedit 17 258 373 276 2 3 9 Constant signal value;#P objectname thes[15];#P user textedit 374 258 562 276 2 3 9 sig~;#P objectname obj[15];#P user textedit 17 272 373 290 2 3 9 Control audio driver settings;#P objectname thes[16];#P user textedit 374 272 562 290 2 3 9 adstatus;#P objectname obj[16];#P user textedit 17 286 373 304 2 3 9 Control function;#P objectname thes[17];#P user textedit 374 286 562 304 2 3 9 curve~ \, function \, line~;#P objectname obj[17];#P user textedit 17 300 373 318 2 3 9 Control poly~ voice allocation and muting;#P objectname thes[18];#P user textedit 374 300 562 318 2 3 9 thispoly~;#P objectname obj[18];#P user textedit 17 314 373 332 2 3 9 Control ReWire hosts transport;#P objectname thes[19];#P user textedit 374 314 562 332 2 3 9 hostcontrol~;#P objectname obj[19];#P user textedit 17 328 373 346 2 3 9 Convert a deciBel value to linear amplitude at signal rate;#P objectname thes[20];#P user textedit 374 328 562 346 2 3 9 dbtoa~;#P objectname obj[20];#P user textedit 17 342 373 360 2 3 9 Convert frequency to MIDI note numbers at signal-rate;#P objectname thes[21];#P user textedit 374 342 562 360 2 3 9 ftom~;#P objectname obj[21];#P user textedit 17 356 373 374 2 3 9 Convert linear amplitude to a signal-rate deciBel value;#P objectname thes[22];#P user textedit 374 356 562 374 2 3 9 atodb~;#P objectname obj[22];#P user textedit 17 370 373 388 2 3 9 Convert Max messages to signals;#P objectname thes[23];#P user textedit 374 370 562 388 2 3 9 adsr~ \, curve~ \, line~ \, poke~ \, sig~;#P objectname obj[23];#P user textedit 17 384 373 402 2 3 9 Convert signals to Max messages;#P objectname thes[24];#P user textedit 374 384 562 402 2 3 9 avg~ \, meter~ \, peek~ \, snapshot~;#P objectname obj[24];#P user textedit 17 398 373 416 2 3 9 Cosine function for signals (0-1 range);#P objectname thes[25];#P user textedit 374 398 562 416 2 3 9 cos~;#P objectname obj[25];#P user textedit 17 412 373 430 2 3 9 Cosine function for signals;#P objectname thes[26];#P user textedit 374 412 562 430 2 3 9 cosx~;#P objectname obj[26];#P user textedit 17 426 373 444 2 3 9 Cosine wave;#P objectname thes[27];#P user textedit 374 426 562 444 2 3 9 cos~ \, cycle~;#P objectname obj[27];#P user textedit 17 440 373 458 2 3 9 Create an impulse;#P objectname thes[28];#P user textedit 374 440 562 458 2 3 9 click~;#P objectname obj[28];#P user ubutton 0 1 585 52 0 0;#P hidden connect 0 1 92 0;#P hidden connect 86 0 58 0;#P hidden connect 85 0 58 0;#P hidden connect 84 0 58 0;#P hidden connect 83 0 58 0;#P hidden connect 82 0 58 0;#P hidden connect 81 0 58 0;#P hidden connect 80 0 58 0;#P hidden connect 79 0 58 0;#P hidden connect 78 0 58 0;#P hidden connect 77 0 58 0;#P hidden connect 76 0 58 0;#P hidden connect 75 0 58 0;#P hidden connect 74 0 58 0;#P hidden connect 73 0 58 0;#P hidden connect 72 0 58 0;#P hidden connect 71 0 58 0;#P hidden connect 70 0 58 0;#P hidden connect 69 0 58 0;#P hidden connect 68 0 58 0;#P hidden connect 67 0 58 0;#P hidden connect 66 0 58 0;#P hidden connect 65 0 58 0;#P hidden connect 64 0 58 0;#P hidden connect 63 0 58 0;#P hidden connect 62 0 58 0;#P hidden connect 92 0 58 0;#P hidden connect 93 0 59 0;#P hidden connect 87 0 59 0;#P hidden connect 58 0 59 0;#P hidden connect 61 2 57 0;#P hidden connect 55 2 57 0;#P hidden connect 53 2 57 0;#P hidden connect 51 2 57 0;#P hidden connect 49 2 57 0;#P hidden connect 47 2 57 0;#P hidden connect 45 2 57 0;#P hidden connect 43 2 57 0;#P hidden connect 41 2 57 0;#P hidden connect 39 2 57 0;#P hidden connect 37 2 57 0;#P hidden connect 35 2 57 0;#P hidden connect 33 2 57 0;#P hidden connect 31 2 57 0;#P hidden connect 29 2 57 0;#P hidden connect 27 2 57 0;#P hidden connect 25 2 57 0;#P hidden connect 23 2 57 0;#P hidden connect 21 2 57 0;#P hidden connect 19 2 57 0;#P hidden connect 17 2 57 0;#P hidden connect 15 2 57 0;#P hidden connect 13 2 57 0;#P hidden connect 11 2 57 0;#P hidden connect 9 2 57 0;#P hidden connect 7 2 57 0;#P hidden connect 5 2 57 0;#P hidden connect 3 2 57 0;#P hidden connect 1 2 57 0;#P hidden connect 88 0 87 0;#P hidden connect 91 0 93 0;#P pop;