max v2;#N vpatcher 8 47 607 308;#P origin 3 -4;#P window setfont "Sans Serif" 9.;#P hidden newex 655 38 88 196617 MOT-Loader Max;#P hidden message 565 15 29 196617 MOT;#P user textedit 17 36 373 54 2 3 9 Max messages converted to signals;#P objectname thes[0];#P user textedit 374 36 562 54 2 3 9 curve~ \, line~ \, peek~ \, poke~ \, sig~;#P objectname obj[0];#P hidden newex 573 135 38 196617 phelp;#P objectname phelp;#P user textedit 17 50 373 80 2 3 9 Max messages derived from signals;#P objectname thes[1];#P user textedit 374 50 562 80 2 3 9 avg~ \, edge~ \, meter~ \, number~ \, peek~ \, snapshot~;#P objectname obj[1];#P user textedit 17 76 373 94 2 3 9 Message input for a patcher loaded by poly~;#P objectname thes[2];#P user textedit 374 76 562 94 2 3 9 in;#P objectname obj[2];#P user textedit 17 90 373 108 2 3 9 Message output for a patcher loaded by poly~;#P objectname thes[3];#P user textedit 374 90 562 108 2 3 9 out;#P objectname obj[3];#P user textedit 17 104 373 134 2 3 9 MIDI control from MSP;#P objectname thes[4];#P user textedit 374 104 562 134 2 3 9 avg~ \, ftom \, function \, number~ \, snapshot~;#P objectname obj[4];#P user textedit 17 130 373 148 2 3 9 MIDI control of MSP;#P objectname thes[5];#P user textedit 374 130 562 148 2 3 9 curve~ \, line~ \, mtof \, sig~ \, seq~;#P objectname obj[5];#P user textedit 17 144 373 162 2 3 9 Millisecond calculations;#P objectname thes[6];#P user textedit 374 144 562 162 2 3 9 mstosamps~ \, sampstoms~;#P objectname obj[6];#P user textedit 17 158 373 176 2 3 9 Mixing signals;#P objectname thes[7];#P user textedit 374 158 562 176 2 3 9 +~;#P objectname obj[7];#P user textedit 17 172 373 190 2 3 9 Modify plug-in parameter values;#P objectname thes[8];#P user textedit 374 172 562 190 2 3 9 plugmod;#P objectname obj[8];#P user textedit 17 186 373 204 2 3 9 Multi-mode signal average;#P objectname thes[9];#P user textedit 374 186 562 204 2 3 9 average~;#P objectname obj[9];#P user textedit 17 200 373 218 2 3 9 Multiple plug-in parameter definition;#P objectname thes[10];#P user textedit 374 200 562 218 2 3 9 plugmultiparam;#P objectname obj[10];#P user textedit 17 214 373 232 2 3 9 Multiplying signals;#P objectname thes[11];#P user textedit 374 214 562 232 2 3 9 *~;#P objectname obj[11];#P window setfont "Sans Serif" 14.;#P message 269 15 20 196622 M;#P objectname L[12];#P window setfont "Sans Serif" 9.;#P hidden newex 597 15 105 196617 bgcolor 170 170 255;#B color 5;#P hidden number 626 58 35 9 0 0 0 3 0 0 0 221 221 221 222 222 222 0 0 0;#P hidden newex 626 76 86 196617 sprintf script hidden connect obj[%i] 2 phelp 0;#P window setfont "Sans Serif" 14.;#P message 542 15 20 196622 Z;#B color 5;#P objectname L[25];#P message 521 15 20 196622 Y;#B color 5;#P objectname L[24];#P message 500 15 20 196622 X;#B color 5;#P objectname L[23];#P message 479 15 20 196622 W;#B color 5;#P objectname L[22];#P message 458 15 20 196622 V;#B color 5;#P objectname L[21];#P message 437 15 20 196622 U;#B color 5;#P objectname L[20];#P message 416 15 20 196622 T;#B color 5;#P objectname L[19];#P message 395 15 20 196622 S;#B color 5;#P objectname L[18];#P message 374 15 20 196622 R;#B color 5;#P objectname L[17];#P message 353 15 20 196622 Q;#B color 5;#P objectname L[16];#P message 332 15 20 196622 P;#B color 5;#P objectname L[15];#P message 311 15 20 196622 O;#B color 5;#P objectname L[14];#P message 290 15 20 196622 N;#B color 5;#P objectname L[13];#P message 248 15 20 196622 L;#B color 5;#P objectname L[11];#P message 227 15 20 196622 K;#B color 5;#P objectname L[10];#P message 206 15 20 196622 J;#B color 5;#P objectname L[9];#P message 185 15 20 196622 I;#B color 5;#P objectname L[8];#P message 164 15 20 196622 H;#B color 5;#P objectname L[7];#P message 143 15 20 196622 G;#B color 5;#P objectname L[6];#P message 122 15 20 196622 F;#B color 5;#P objectname L[5];#P message 101 15 20 196622 E;#B color 5;#P objectname L[4];#P message 80 15 20 196622 D;#B color 5;#P objectname L[3];#P message 59 15 20 196622 C;#B color 5;#P objectname L[2];#P message 38 15 20 196622 B;#B color 5;#P objectname L[1];#P message 17 15 20 196622 A;#B color 5;#P objectname L[0];#P window setfont "Sans Serif" 9.;#P comment 0 1 100 196617;#N thispatcher;#Q end;#P hidden newobj 565 57 59 196617 thispatcher;#P hidden newex 565 38 88 196617 MOT-Loader MSP;#P user ubutton 0 2 582 51 0 0;#P hidden connect 0 1 58 0;#P hidden connect 4 0 1 0;#P hidden connect 5 0 1 0;#P hidden connect 6 0 1 0;#P hidden connect 7 0 1 0;#P hidden connect 8 0 1 0;#P hidden connect 9 0 1 0;#P hidden connect 10 0 1 0;#P hidden connect 11 0 1 0;#P hidden connect 12 0 1 0;#P hidden connect 13 0 1 0;#P hidden connect 14 0 1 0;#P hidden connect 15 0 1 0;#P hidden connect 16 0 1 0;#P hidden connect 17 0 1 0;#P hidden connect 18 0 1 0;#P hidden connect 19 0 1 0;#P hidden connect 20 0 1 0;#P hidden connect 21 0 1 0;#P hidden connect 22 0 1 0;#P hidden connect 23 0 1 0;#P hidden connect 24 0 1 0;#P hidden connect 25 0 1 0;#P hidden connect 26 0 1 0;#P hidden connect 27 0 1 0;#P hidden connect 28 0 1 0;#P hidden connect 58 0 1 0;#P hidden connect 59 0 2 0;#P hidden connect 29 0 2 0;#P hidden connect 1 0 2 0;#P hidden connect 33 2 55 0;#P hidden connect 35 2 55 0;#P hidden connect 37 2 55 0;#P hidden connect 39 2 55 0;#P hidden connect 41 2 55 0;#P hidden connect 43 2 55 0;#P hidden connect 45 2 55 0;#P hidden connect 47 2 55 0;#P hidden connect 49 2 55 0;#P hidden connect 51 2 55 0;#P hidden connect 53 2 55 0;#P hidden connect 56 2 55 0;#P hidden connect 30 0 29 0;#P hidden connect 32 0 59 0;#P pop;