max v2;#N vpatcher 9 48 611 513;#P origin 2 -4;#P window setfont "Sans Serif" 9.;#P hidden newex 656 38 88 196617 MOT-Loader Max;#P hidden message 566 15 29 196617 MOT;#P user textedit 18 36 374 54 2 3 9 Peak amplitude;#P objectname thes[0];#P user textedit 375 36 563 54 2 3 9 meter~;#P objectname obj[0];#P hidden newex 576 233 38 196617 phelp;#P objectname phelp;#P user textedit 18 50 374 68 2 3 9 Peak Limiter;#P objectname thes[1];#P user textedit 375 50 563 68 2 3 9 omx.peaklim~;#P objectname obj[1];#P user textedit 18 64 374 94 2 3 9 Periodic waves;#P objectname thes[2];#P user textedit 375 64 563 94 2 3 9 2d.wave~ \, cycle~ \, phasor~ \, techno~ \, wave~;#P objectname obj[2];#P user textedit 18 90 374 108 2 3 9 Phase distortion synthesis;#P objectname thes[3];#P user textedit 375 90 563 108 2 3 9 kink~ \, phasor~;#P objectname obj[3];#P user textedit 18 104 374 122 2 3 9 Phase modulation;#P objectname thes[4];#P user textedit 375 104 563 122 2 3 9 phasor~;#P objectname obj[4];#P user textedit 18 118 374 136 2 3 9 Phase quadrature filter;#P objectname thes[5];#P user textedit 375 118 563 136 2 3 9 hilbert~;#P objectname obj[5];#P user textedit 18 132 374 150 2 3 9 Phase shifter;#P objectname thes[6];#P user textedit 375 132 563 150 2 3 9 phaseshift~;#P objectname obj[6];#P user textedit 18 146 374 164 2 3 9 Pink noise generator;#P objectname thes[7];#P user textedit 375 146 563 164 2 3 9 pink~;#P objectname obj[7];#P user textedit 18 160 374 178 2 3 9 Pitch bend;#P objectname thes[8];#P user textedit 375 160 563 178 2 3 9 ftom \, mtof;#P objectname obj[8];#P user textedit 18 174 374 192 2 3 9 Pitch shifter for;#P objectname thes[9];#P user textedit 375 174 563 192 2 3 9 pfft~ gizmo~;#P objectname obj[9];#P user textedit 18 188 374 206 2 3 9 Pitch-to-frequency conversion;#P objectname thes[10];#P user textedit 375 188 563 206 2 3 9 mtof;#P objectname obj[10];#P user textedit 18 202 374 220 2 3 9 Playing audio;#P objectname thes[11];#P user textedit 375 202 563 220 2 3 9 dac~ \, ezdac~;#P objectname obj[11];#P user textedit 18 216 374 246 2 3 9 Playing samples;#P objectname thes[12];#P user textedit 375 216 563 246 2 3 9 2d.wave~ \, buffer~ \, groove~ \, index~ \, play~ \, sfplay~ \, techno~ \, wave~;#P objectname obj[12];#P user textedit 18 242 374 260 2 3 9 Plug-in audio inputs definition;#P objectname thes[13];#P user textedit 375 242 563 260 2 3 9 plugin~;#P objectname obj[13];#P user textedit 18 256 374 274 2 3 9 Plug-in audio outputs definition;#P objectname thes[14];#P user textedit 375 256 563 274 2 3 9 plugout~;#P objectname obj[14];#P user textedit 18 270 374 336 2 3 9 Plug-in development tools;#P objectname thes[15];#P user textedit 375 270 563 336 2 3 9 plugconfig \, plugin~ \, plugout~ \, plugmorph \, plugmultiparam \, plugmod \, plugphasor~ \, plugreceive~ \, plugsend~ \, plugstore \, plugsync~ \, pp \, pptempo \, pptime;#P objectname obj[15];#P user textedit 18 332 374 350 2 3 9 Plug-in in VST format used in MSP;#P objectname thes[16];#P user textedit 375 332 563 350 2 3 9 vst~;#P objectname obj[16];#P user textedit 18 346 374 364 2 3 9 Plug-in parameter definition;#P objectname thes[17];#P user textedit 375 346 563 364 2 3 9 pp;#P objectname obj[17];#P user textedit 18 360 374 378 2 3 9 Plug-in tempo and sync parameters definition;#P objectname thes[18];#P user textedit 375 360 563 378 2 3 9 pptempo;#P objectname obj[18];#P user textedit 18 374 374 392 2 3 9 Polar to Cartesian coordinate conversion (signal);#P objectname thes[19];#P user textedit 375 374 563 392 2 3 9 poltocar~;#P objectname obj[19];#P user textedit 18 388 374 406 2 3 9 Polyphony management;#P objectname thes[20];#P user textedit 375 388 563 406 2 3 9 in \, in~ \, out \, out~ \, poly~ \, thispoly~;#P objectname obj[20];#P user textedit 18 402 374 420 2 3 9 Polyphony/DSP manager for patchers;#P objectname thes[21];#P user textedit 375 402 563 420 2 3 9 poly~;#P objectname obj[21];#P user textedit 18 416 374 434 2 3 9 Pulse wave;#P objectname thes[22];#P user textedit 375 416 563 434 2 3 9 <~ \, >~ \, clip~ \, train~;#P objectname obj[22];#P window setfont "Sans Serif" 14.;#P message 333 15 20 196622 P;#P objectname L[15];#P window setfont "Sans Serif" 9.;#P hidden newex 599 15 105 196617 bgcolor 170 170 255;#B color 5;#P hidden number 627 58 35 9 0 0 0 3 0 0 0 221 221 221 222 222 222 0 0 0;#P hidden newex 627 76 86 196617 sprintf script hidden connect obj[%i] 2 phelp 0;#P window setfont "Sans Serif" 14.;#P message 543 15 20 196622 Z;#B color 5;#P objectname L[25];#P message 522 15 20 196622 Y;#B color 5;#P objectname L[24];#P message 501 15 20 196622 X;#B color 5;#P objectname L[23];#P message 480 15 20 196622 W;#B color 5;#P objectname L[22];#P message 459 15 20 196622 V;#B color 5;#P objectname L[21];#P message 438 15 20 196622 U;#B color 5;#P objectname L[20];#P message 417 15 20 196622 T;#B color 5;#P objectname L[19];#P message 396 15 20 196622 S;#B color 5;#P objectname L[18];#P message 375 15 20 196622 R;#B color 5;#P objectname L[17];#P message 354 15 20 196622 Q;#B color 5;#P objectname L[16];#P message 312 15 20 196622 O;#B color 5;#P objectname L[14];#P message 291 15 20 196622 N;#B color 5;#P objectname L[13];#P message 270 15 20 196622 M;#B color 5;#P objectname L[12];#P message 249 15 20 196622 L;#B color 5;#P objectname L[11];#P message 228 15 20 196622 K;#B color 5;#P objectname L[10];#P message 207 15 20 196622 J;#B color 5;#P objectname L[9];#P message 186 15 20 196622 I;#B color 5;#P objectname L[8];#P message 165 15 20 196622 H;#B color 5;#P objectname L[7];#P message 144 15 20 196622 G;#B color 5;#P objectname L[6];#P message 123 15 20 196622 F;#B color 5;#P objectname L[5];#P message 102 15 20 196622 E;#B color 5;#P objectname L[4];#P message 81 15 20 196622 D;#B color 5;#P objectname L[3];#P message 60 15 20 196622 C;#B color 5;#P objectname L[2];#P message 39 15 20 196622 B;#B color 5;#P objectname L[1];#P message 18 15 20 196622 A;#B color 5;#P objectname L[0];#P window setfont "Sans Serif" 9.;#P comment 1 1 100 196617;#N thispatcher;#Q end;#P hidden newobj 566 57 59 196617 thispatcher;#P hidden newex 566 38 88 196617 MOT-Loader MSP;#P user ubutton 1 2 582 51 0 0;#P hidden connect 0 1 80 0;#P hidden connect 4 0 1 0;#P hidden connect 5 0 1 0;#P hidden connect 6 0 1 0;#P hidden connect 7 0 1 0;#P hidden connect 8 0 1 0;#P hidden connect 9 0 1 0;#P hidden connect 10 0 1 0;#P hidden connect 11 0 1 0;#P hidden connect 12 0 1 0;#P hidden connect 13 0 1 0;#P hidden connect 14 0 1 0;#P hidden connect 15 0 1 0;#P hidden connect 16 0 1 0;#P hidden connect 17 0 1 0;#P hidden connect 18 0 1 0;#P hidden connect 19 0 1 0;#P hidden connect 20 0 1 0;#P hidden connect 21 0 1 0;#P hidden connect 22 0 1 0;#P hidden connect 23 0 1 0;#P hidden connect 24 0 1 0;#P hidden connect 25 0 1 0;#P hidden connect 26 0 1 0;#P hidden connect 27 0 1 0;#P hidden connect 28 0 1 0;#P hidden connect 80 0 1 0;#P hidden connect 81 0 2 0;#P hidden connect 29 0 2 0;#P hidden connect 1 0 2 0;#P hidden connect 33 2 77 0;#P hidden connect 35 2 77 0;#P hidden connect 37 2 77 0;#P hidden connect 39 2 77 0;#P hidden connect 41 2 77 0;#P hidden connect 43 2 77 0;#P hidden connect 45 2 77 0;#P hidden connect 47 2 77 0;#P hidden connect 49 2 77 0;#P hidden connect 51 2 77 0;#P hidden connect 53 2 77 0;#P hidden connect 55 2 77 0;#P hidden connect 57 2 77 0;#P hidden connect 59 2 77 0;#P hidden connect 61 2 77 0;#P hidden connect 63 2 77 0;#P hidden connect 65 2 77 0;#P hidden connect 67 2 77 0;#P hidden connect 69 2 77 0;#P hidden connect 71 2 77 0;#P hidden connect 73 2 77 0;#P hidden connect 75 2 77 0;#P hidden connect 78 2 77 0;#P hidden connect 30 0 29 0;#P hidden connect 32 0 81 0;#P pop;