max v2;#N vpatcher 9 47 608 309;#P origin 3 -4;#P window setfont "Sans Serif" 9.;#P hidden newex 655 38 88 196617 MOT-Loader Max;#P hidden message 565 15 29 196617 MOT;#P user textedit 17 36 373 54 2 3 9 Level control;#P objectname thes[80];#P user textedit 374 36 562 54 2 3 9 *~ \, /~ \, gain~ \, normalize~;#P objectname obj[78];#P hidden newex 574 117 38 196617 phelp;#P objectname phelp[1];#P user textedit 17 50 373 68 2 3 9 Level indicator;#P objectname thes[78];#P user textedit 374 50 562 68 2 3 9 levelmeter~;#P objectname obj[77];#P user textedit 17 64 373 82 2 3 9 Level meter;#P objectname thes[77];#P user textedit 374 64 562 82 2 3 9 meter~ \, number~;#P objectname obj[76];#P user textedit 17 78 373 96 2 3 9 Limit changes in signal amplitude;#P objectname thes[76];#P user textedit 374 78 562 96 2 3 9 deltaclip~;#P objectname obj[75];#P user textedit 17 92 373 110 2 3 9 Limiter;#P objectname thes[75];#P user textedit 374 92 562 110 2 3 9 clip~ \, lookup~;#P objectname obj[74];#P user textedit 17 106 373 124 2 3 9 Linked list function editor;#P objectname thes[74];#P user textedit 374 106 562 124 2 3 9 zigzag~;#P objectname obj[73];#P user textedit 17 120 373 150 2 3 9 Logarithmic curve function;#P objectname thes[73];#P user textedit 374 120 562 150 2 3 9 curve~ \, gain~ \, linedrive \, log~ \, pow~ \, sqrt~ \, techno~;#P objectname obj[72];#P user textedit 17 146 373 164 2 3 9 Logical operations using signal values;#P objectname thes[72];#P user textedit 374 146 562 164 2 3 9 <~ \, ==~ \, >~ \, edge~;#P objectname obj[71];#P user textedit 17 160 373 190 2 3 9 Lookup table;#P objectname thes[71];#P user textedit 374 160 562 190 2 3 9 buffer~ \, cycle~ \, function \, index~ \, lookup~ \, peek~ \, wave~;#P objectname obj[70];#P user textedit 17 186 373 204 2 3 9 Loop points in a sound file;#P objectname thes[70];#P user textedit 374 186 562 204 2 3 9 info~;#P objectname obj[69];#P user textedit 17 200 373 218 2 3 9 Looping a sample;#P objectname thes[69];#P user textedit 374 200 562 218 2 3 9 2d.wave~ \, groove~ \, info~ \, wave~;#P objectname obj[68];#P user textedit 17 214 373 232 2 3 9 Lowpass filter;#P objectname thes[68];#P user textedit 374 214 562 232 2 3 9 lores~ \, noise~ \, pink~ \, rand~ \, svf~;#P objectname obj[67];#P window setfont "Sans Serif" 14.;#P message 248 15 20 196622 L;#P objectname L[11];#P window setfont "Sans Serif" 9.;#P hidden newex 597 15 105 196617 bgcolor 170 170 255;#B color 5;#P hidden number 626 58 35 9 0 0 0 3 0 0 0 221 221 221 222 222 222 0 0 0;#P hidden newex 626 76 86 196617 sprintf script hidden connect obj[%i] 2 phelp 0;#P window setfont "Sans Serif" 14.;#P message 542 15 20 196622 Z;#B color 5;#P objectname L[25];#P message 521 15 20 196622 Y;#B color 5;#P objectname L[24];#P message 500 15 20 196622 X;#B color 5;#P objectname L[23];#P message 479 15 20 196622 W;#B color 5;#P objectname L[22];#P message 458 15 20 196622 V;#B color 5;#P objectname L[21];#P message 437 15 20 196622 U;#B color 5;#P objectname L[20];#P message 416 15 20 196622 T;#B color 5;#P objectname L[19];#P message 395 15 20 196622 S;#B color 5;#P objectname L[18];#P message 374 15 20 196622 R;#B color 5;#P objectname L[17];#P message 353 15 20 196622 Q;#B color 5;#P objectname L[16];#P message 332 15 20 196622 P;#B color 5;#P objectname L[15];#P message 311 15 20 196622 O;#B color 5;#P objectname L[14];#P message 290 15 20 196622 N;#B color 5;#P objectname L[13];#P message 269 15 20 196622 M;#B color 5;#P objectname L[12];#P message 227 15 20 196622 K;#B color 5;#P objectname L[10];#P message 206 15 20 196622 J;#B color 5;#P objectname L[9];#P message 185 15 20 196622 I;#B color 5;#P objectname L[8];#P message 164 15 20 196622 H;#B color 5;#P objectname L[7];#P message 143 15 20 196622 G;#B color 5;#P objectname L[6];#P message 122 15 20 196622 F;#B color 5;#P objectname L[5];#P message 101 15 20 196622 E;#B color 5;#P objectname L[4];#P message 80 15 20 196622 D;#B color 5;#P objectname L[3];#P message 59 15 20 196622 C;#B color 5;#P objectname L[2];#P message 38 15 20 196622 B;#B color 5;#P objectname L[1];#P message 17 15 20 196622 A;#B color 5;#P objectname L[0];#P window setfont "Sans Serif" 9.;#P comment 0 1 100 196617;#N thispatcher;#Q end;#P hidden newobj 565 57 59 196617 thispatcher;#P hidden newex 565 38 88 196617 MOT-Loader MSP;#P user ubutton 0 2 582 51 0 0;#P hidden connect 0 1 58 0;#P hidden connect 4 0 1 0;#P hidden connect 5 0 1 0;#P hidden connect 6 0 1 0;#P hidden connect 7 0 1 0;#P hidden connect 8 0 1 0;#P hidden connect 9 0 1 0;#P hidden connect 10 0 1 0;#P hidden connect 11 0 1 0;#P hidden connect 12 0 1 0;#P hidden connect 13 0 1 0;#P hidden connect 14 0 1 0;#P hidden connect 15 0 1 0;#P hidden connect 16 0 1 0;#P hidden connect 17 0 1 0;#P hidden connect 18 0 1 0;#P hidden connect 19 0 1 0;#P hidden connect 20 0 1 0;#P hidden connect 21 0 1 0;#P hidden connect 22 0 1 0;#P hidden connect 23 0 1 0;#P hidden connect 24 0 1 0;#P hidden connect 25 0 1 0;#P hidden connect 26 0 1 0;#P hidden connect 27 0 1 0;#P hidden connect 28 0 1 0;#P hidden connect 58 0 1 0;#P hidden connect 59 0 2 0;#P hidden connect 29 0 2 0;#P hidden connect 1 0 2 0;#P hidden connect 56 2 55 0;#P hidden connect 53 2 55 0;#P hidden connect 51 2 55 0;#P hidden connect 49 2 55 0;#P hidden connect 47 2 55 0;#P hidden connect 45 2 55 0;#P hidden connect 43 2 55 0;#P hidden connect 41 2 55 0;#P hidden connect 39 2 55 0;#P hidden connect 37 2 55 0;#P hidden connect 35 2 55 0;#P hidden connect 33 2 55 0;#P hidden connect 30 0 29 0;#P hidden connect 32 0 59 0;#P pop;