max v2;#N vpatcher 8 48 607 176;#P origin 3 -74;#P window setfont "Sans Serif" 9.;#P hidden newex 655 37 88 196617 MOT-Loader Max;#P hidden message 565 14 29 196617 MOT;#N thispatcher;#Q end;#P hidden newobj 565 57 59 196617 thispatcher;#P user textedit 17 35 373 53 2 3 9 Zero-cross counter;#P objectname thes[0];#P user textedit 374 35 562 53 2 3 9 zerox~;#P objectname obj[0];#P hidden newex 565 76 38 196617 phelp;#P objectname phelp;#P window setfont "Sans Serif" 14.;#P message 542 14 20 196622 Z;#P objectname L[25];#P message 521 14 20 196622 Y;#B color 5;#P objectname L[24];#P message 500 14 20 196622 X;#B color 5;#P objectname L[23];#P window setfont "Sans Serif" 9.;#P hidden newex 597 14 105 196617 bgcolor 170 170 255;#B color 5;#P hidden number 626 57 35 9 0 0 0 3 0 0 0 221 221 221 222 222 222 0 0 0;#P hidden newex 626 75 86 196617 sprintf script hidden connect obj[%i] 2 phelp 0;#P window setfont "Sans Serif" 14.;#P message 479 14 20 196622 W;#B color 5;#P objectname L[22];#P message 458 14 20 196622 V;#B color 5;#P objectname L[21];#P message 437 14 20 196622 U;#B color 5;#P objectname L[20];#P message 416 14 20 196622 T;#B color 5;#P objectname L[19];#P message 395 14 20 196622 S;#B color 5;#P objectname L[18];#P message 374 14 20 196622 R;#B color 5;#P objectname L[17];#P message 353 14 20 196622 Q;#B color 5;#P objectname L[16];#P message 332 14 20 196622 P;#B color 5;#P objectname L[15];#P message 311 14 20 196622 O;#B color 5;#P objectname L[14];#P message 290 14 20 196622 N;#B color 5;#P objectname L[13];#P message 269 14 20 196622 M;#B color 5;#P objectname L[12];#P message 248 14 20 196622 L;#B color 5;#P objectname L[11];#P message 227 14 20 196622 K;#B color 5;#P objectname L[10];#P message 206 14 20 196622 J;#B color 5;#P objectname L[9];#P message 185 14 20 196622 I;#B color 5;#P objectname L[8];#P message 164 14 20 196622 H;#B color 5;#P objectname L[7];#P message 143 14 20 196622 G;#B color 5;#P objectname L[6];#P message 122 14 20 196622 F;#B color 5;#P objectname L[5];#P message 101 14 20 196622 E;#B color 5;#P objectname L[4];#P message 80 14 20 196622 D;#B color 5;#P objectname L[3];#P message 59 14 20 196622 C;#B color 5;#P objectname L[2];#P message 38 14 20 196622 B;#B color 5;#P objectname L[1];#P message 17 14 20 196622 A;#B color 5;#P objectname L[0];#P window setfont "Sans Serif" 9.;#P comment 0 0 100 196617;#P hidden newex 565 37 88 196617 MOT-Loader MSP;#P user ubutton 0 1 582 51 0 0;#P hidden connect 0 1 36 0;#P hidden connect 36 0 1 0;#P hidden connect 30 0 1 0;#P hidden connect 29 0 1 0;#P hidden connect 3 0 1 0;#P hidden connect 4 0 1 0;#P hidden connect 5 0 1 0;#P hidden connect 6 0 1 0;#P hidden connect 7 0 1 0;#P hidden connect 8 0 1 0;#P hidden connect 9 0 1 0;#P hidden connect 10 0 1 0;#P hidden connect 11 0 1 0;#P hidden connect 12 0 1 0;#P hidden connect 13 0 1 0;#P hidden connect 14 0 1 0;#P hidden connect 15 0 1 0;#P hidden connect 16 0 1 0;#P hidden connect 17 0 1 0;#P hidden connect 18 0 1 0;#P hidden connect 19 0 1 0;#P hidden connect 20 0 1 0;#P hidden connect 21 0 1 0;#P hidden connect 22 0 1 0;#P hidden connect 23 0 1 0;#P hidden connect 24 0 1 0;#P hidden connect 25 0 1 0;#P hidden connect 1 0 35 0;#P hidden connect 37 0 35 0;#P hidden connect 33 2 32 0;#P hidden connect 27 0 26 0;#P hidden connect 31 0 37 0;#P pop;