max v2;#N vpatcher 9 48 609 251;#P origin 3 -4;#P window setfont "Sans Serif" 9.;#P hidden newex 655 38 88 196617 MOT-Loader Max;#P hidden message 565 15 29 196617 MOT;#P user textedit 17 36 373 54 2 3 9 Hertz equivalent of a MIDI key number;#P objectname thes[0];#P user textedit 374 36 562 54 2 3 9 ftom \, mtof \, ftom~ \, mtof~;#P objectname obj[0];#P hidden newex 573 94 38 196617 phelp;#P objectname phelp;#P user textedit 17 50 373 68 2 3 9 Host ReWire devices;#P objectname thes[1];#P user textedit 374 50 562 68 2 3 9 rewire~;#P objectname obj[1];#P user textedit 17 64 373 82 2 3 9 Host-synchronized sawtooth wave;#P objectname thes[2];#P user textedit 374 64 562 82 2 3 9 plugphasor~;#P objectname obj[2];#P user textedit 17 78 373 96 2 3 9 Hyperbolic arc-cosine function for signals;#P objectname thes[3];#P user textedit 374 78 562 96 2 3 9 acosh~;#P objectname obj[3];#P user textedit 17 92 373 110 2 3 9 Hyperbolic arc-sine function for signals;#P objectname thes[4];#P user textedit 374 92 562 110 2 3 9 asinh~;#P objectname obj[4];#P user textedit 17 106 373 124 2 3 9 Hyperbolic arc-tangent function for signals;#P objectname thes[5];#P user textedit 374 106 562 124 2 3 9 atanh~;#P objectname obj[5];#P user textedit 17 120 373 138 2 3 9 Hyperbolic cosine function for signals;#P objectname thes[6];#P user textedit 374 120 562 138 2 3 9 cosh~;#P objectname obj[6];#P user textedit 17 134 373 152 2 3 9 Hyperbolic sine function for signals;#P objectname thes[7];#P user textedit 374 134 562 152 2 3 9 sinh~;#P objectname obj[7];#P user textedit 17 148 373 166 2 3 9 Hyperbolic tangent function for signals;#P objectname thes[8];#P user textedit 374 148 562 166 2 3 9 tanh~;#P objectname obj[8];#P window setfont "Sans Serif" 14.;#P message 164 15 20 196622 H;#P objectname L[7];#P window setfont "Sans Serif" 9.;#P hidden newex 597 15 105 196617 bgcolor 170 170 255;#B color 5;#P hidden number 626 58 35 9 0 0 0 3 0 0 0 221 221 221 222 222 222 0 0 0;#P hidden newex 626 76 86 196617 sprintf script hidden connect obj[%i] 2 phelp 0;#P window setfont "Sans Serif" 14.;#P message 542 15 20 196622 Z;#B color 5;#P objectname L[25];#P message 521 15 20 196622 Y;#B color 5;#P objectname L[24];#P message 500 15 20 196622 X;#B color 5;#P objectname L[23];#P message 479 15 20 196622 W;#B color 5;#P objectname L[22];#P message 458 15 20 196622 V;#B color 5;#P objectname L[21];#P message 437 15 20 196622 U;#B color 5;#P objectname L[20];#P message 416 15 20 196622 T;#B color 5;#P objectname L[19];#P message 395 15 20 196622 S;#B color 5;#P objectname L[18];#P message 374 15 20 196622 R;#B color 5;#P objectname L[17];#P message 353 15 20 196622 Q;#B color 5;#P objectname L[16];#P message 332 15 20 196622 P;#B color 5;#P objectname L[15];#P message 311 15 20 196622 O;#B color 5;#P objectname L[14];#P message 290 15 20 196622 N;#B color 5;#P objectname L[13];#P message 269 15 20 196622 M;#B color 5;#P objectname L[12];#P message 248 15 20 196622 L;#B color 5;#P objectname L[11];#P message 227 15 20 196622 K;#B color 5;#P objectname L[10];#P message 206 15 20 196622 J;#B color 5;#P objectname L[9];#P message 185 15 20 196622 I;#B color 5;#P objectname L[8];#P message 143 15 20 196622 G;#B color 5;#P objectname L[6];#P message 122 15 20 196622 F;#B color 5;#P objectname L[5];#P message 101 15 20 196622 E;#B color 5;#P objectname L[4];#P message 80 15 20 196622 D;#B color 5;#P objectname L[3];#P message 59 15 20 196622 C;#B color 5;#P objectname L[2];#P message 38 15 20 196622 B;#B color 5;#P objectname L[1];#P message 17 15 20 196622 A;#B color 5;#P objectname L[0];#P window setfont "Sans Serif" 9.;#P comment 0 1 100 196617;#N thispatcher;#Q end;#P hidden newobj 565 57 59 196617 thispatcher;#P hidden newex 565 38 88 196617 MOT-Loader MSP;#P user ubutton 0 2 582 51 0 0;#P hidden connect 0 1 52 0;#P hidden connect 52 0 1 0;#P hidden connect 28 0 1 0;#P hidden connect 27 0 1 0;#P hidden connect 26 0 1 0;#P hidden connect 25 0 1 0;#P hidden connect 24 0 1 0;#P hidden connect 23 0 1 0;#P hidden connect 22 0 1 0;#P hidden connect 21 0 1 0;#P hidden connect 20 0 1 0;#P hidden connect 19 0 1 0;#P hidden connect 18 0 1 0;#P hidden connect 17 0 1 0;#P hidden connect 16 0 1 0;#P hidden connect 15 0 1 0;#P hidden connect 14 0 1 0;#P hidden connect 13 0 1 0;#P hidden connect 12 0 1 0;#P hidden connect 11 0 1 0;#P hidden connect 10 0 1 0;#P hidden connect 9 0 1 0;#P hidden connect 8 0 1 0;#P hidden connect 7 0 1 0;#P hidden connect 6 0 1 0;#P hidden connect 5 0 1 0;#P hidden connect 4 0 1 0;#P hidden connect 53 0 2 0;#P hidden connect 1 0 2 0;#P hidden connect 29 0 2 0;#P hidden connect 50 2 49 0;#P hidden connect 47 2 49 0;#P hidden connect 45 2 49 0;#P hidden connect 43 2 49 0;#P hidden connect 41 2 49 0;#P hidden connect 39 2 49 0;#P hidden connect 37 2 49 0;#P hidden connect 35 2 49 0;#P hidden connect 33 2 49 0;#P hidden connect 30 0 29 0;#P hidden connect 32 0 53 0;#P pop;