max v2;#N vpatcher 9 48 612 176;#P origin 3 -72;#P window setfont "Sans Serif" 9.;#P window linecount 1;#P hidden newex 655 36 88 196617 MOT-Loader Max;#P hidden message 565 13 29 196617 MOT;#P window setfont "Sans Serif" 14.;#P message 206 13 20 196622 J;#P objectname L[9];#P window setfont "Sans Serif" 9.;#P hidden newex 598 13 105 196617 bgcolor 170 170 255;#B color 5;#P user textedit 17 34 373 52 2 3 9 Java in MSP;#P objectname thes[0];#P hidden number 626 56 35 9 0 0 0 3 0 0 0 221 221 221 222 222 222 0 0 0;#P window linecount 3;#P hidden newex 626 74 86 196617 sprintf script hidden connect obj[%i] 2 phelp 0;#P window setfont "Sans Serif" 14.;#P window linecount 1;#P message 542 13 20 196622 Z;#B color 5;#P objectname L[25];#P message 521 13 20 196622 Y;#B color 5;#P objectname L[24];#P message 500 13 20 196622 X;#B color 5;#P objectname L[23];#P message 479 13 20 196622 W;#B color 5;#P objectname L[22];#P message 458 13 20 196622 V;#B color 5;#P objectname L[21];#P message 437 13 20 196622 U;#B color 5;#P objectname L[20];#P message 416 13 20 196622 T;#B color 5;#P objectname L[19];#P message 395 13 20 196622 S;#B color 5;#P objectname L[18];#P message 374 13 20 196622 R;#B color 5;#P objectname L[17];#P message 353 13 20 196622 Q;#B color 5;#P objectname L[16];#P message 332 13 20 196622 P;#B color 5;#P objectname L[15];#P message 311 13 20 196622 O;#B color 5;#P objectname L[14];#P message 290 13 20 196622 N;#B color 5;#P objectname L[13];#P message 269 13 20 196622 M;#B color 5;#P objectname L[12];#P message 248 13 20 196622 L;#B color 5;#P objectname L[11];#P message 227 13 20 196622 K;#B color 5;#P objectname L[10];#P message 185 13 20 196622 I;#B color 5;#P objectname L[8];#P message 164 13 20 196622 H;#B color 5;#P objectname L[7];#P message 143 13 20 196622 G;#B color 5;#P objectname L[6];#P message 122 13 20 196622 F;#B color 5;#P objectname L[5];#P message 101 13 20 196622 E;#B color 5;#P objectname L[4];#P message 80 13 20 196622 D;#B color 5;#P objectname L[3];#P message 59 13 20 196622 C;#B color 5;#P objectname L[2];#P message 38 13 20 196622 B;#B color 5;#P objectname L[1];#P message 17 13 20 196622 A;#B color 5;#P objectname L[0];#P window setfont "Sans Serif" 9.;#P user textedit 374 34 562 52 2 3 9 mxj~;#P objectname obj[0];#N thispatcher;#Q end;#P hidden newobj 565 55 59 196617 thispatcher;#P hidden newex 565 36 88 196617 MOT-Loader MSP;#P hidden newex 565 80 38 196617 phelp;#P objectname phelp;#P user ubutton 0 0 582 51 0 0;#P hidden connect 0 1 35 0;#P hidden connect 5 0 2 0;#P hidden connect 6 0 2 0;#P hidden connect 7 0 2 0;#P hidden connect 8 0 2 0;#P hidden connect 9 0 2 0;#P hidden connect 10 0 2 0;#P hidden connect 11 0 2 0;#P hidden connect 12 0 2 0;#P hidden connect 13 0 2 0;#P hidden connect 14 0 2 0;#P hidden connect 15 0 2 0;#P hidden connect 16 0 2 0;#P hidden connect 17 0 2 0;#P hidden connect 18 0 2 0;#P hidden connect 19 0 2 0;#P hidden connect 20 0 2 0;#P hidden connect 21 0 2 0;#P hidden connect 22 0 2 0;#P hidden connect 23 0 2 0;#P hidden connect 24 0 2 0;#P hidden connect 25 0 2 0;#P hidden connect 26 0 2 0;#P hidden connect 27 0 2 0;#P hidden connect 28 0 2 0;#P hidden connect 29 0 2 0;#P hidden connect 35 0 2 0;#P hidden connect 36 0 3 0;#P hidden connect 2 0 3 0;#P hidden connect 30 0 3 0;#P hidden connect 4 2 1 0;#P hidden connect 31 0 30 0;#P hidden connect 34 0 36 0;#P pop;