max v2;#N vpatcher 3 44 1224 854;#P origin 701 -815;#P window setfont "Sans Serif" 9.;#P window linecount 1;#P hidden message -221 902 14 196617 0;#P hidden flonum -871 1028 35 9 0 0 0 3 0 0 0 221 221 221 222 222 222 0 0 0;#P hidden message -530 938 14 196617 0;#P hidden newex -555 917 21 196617 r o;#P hidden message -555 938 23 196617 0.8;#P hidden newex -731 996 34 196617 *~ 1.;#P hidden newex -723 968 75 196617 phasor~ 0.025;#P hidden message -866 915 14 196617 1;#P hidden button -652 842 15 0;#P hidden newex -652 818 34 196617 edge~;#P hidden newex -652 767 35 196617 delta~;#P hidden newex -652 793 31 196617 <~ 0.;#P hidden newex -652 742 63 196617 phasor~ 0.5;#N counter 0 1 3;#X flags 0 0;#P hidden newobj -890 995 70 196617 counter 0 1 3;#P hidden newex -913 1061 33 196617 /~ 1.;#N standalone;#S creator !!ae;#S statusvisible 0;#S noloadbangdefeating 0;#S useownplist 0;#S preffilename "Max 4 Preferences";#S overdrive 1;#S allwindowsactive 0;#S searchformissingfiles 1;#S usesearchpath 1;#S cantclosetoplevelpatchers 1;#S audiosupport 1;#S midisupport 1;#P hidden newobj -863 555 55 196617 standalone;#P hidden user gain~ 967 951 24 100 158 0 1.071519 7.94321 10.;#P hidden newex 967 1093 29 196617 dac~;#P hidden button 1129 629 15 0;#P hidden newex 1129 605 34 196617 edge~;#P hidden newex 1129 554 35 196617 delta~;#P hidden newex 1129 580 31 196617 <~ 0.;#P hidden newex 1076 570 21 196617 r o;#P hidden message 1079 593 29 196617 -0.9;#P hidden message 1022 522 64 196617 0.8 \, 0 5000;#P hidden newex 1041 615 41 196617 curve~;#P hidden newex 969 925 33 196617 *~ 0.;#P hidden newex 955 442 55 196617 log~ 2048;#P hidden newex 955 466 35 196617 *~ 70;#P hidden newex 955 568 79 196617 clip~ 50 10000;#P hidden newex 955 495 30 196617 abs~;#P hidden newex 955 543 45 196617 -~ 1200;#P hidden newex 955 516 35 196617 *~ 32;#P hidden newex 978 748 60 196617 cycle~ 180;#P hidden newex 708 806 35 196617 log~ 2;#P hidden newex 782 1014 33 196617 *~ 0.;#P hidden message 580 1101 14 196617 0;#P hidden newex 564 1060 21 196617 r o;#P hidden newex 564 1228 38 196617 -~ 0.5;#P hidden newex 564 1197 40 196617 *~ 14.;#P hidden newex 1210 1128 49 196617 pack 0 0.;#P hidden newex 1210 1061 27 196617 t b i;#P hidden newex 1249 1105 38 196617 / 500.;#P hidden message 1238 1062 14 196617 0;#P hidden button 1238 1044 15 0;#N counter;#X flags 0 0;#P hidden newobj 1210 1082 66 196617 counter;#P hidden newex 1210 1039 25 196617 iter;#P user multiSlider 560 198 206 143 0. 500. 14 2665 15 0 0 2 0 0 1;#M frgb 0 0 0;#M brgb 255 255 255;#M rgb2 127 127 127;#M rgb3 0 0 0;#M rgb4 37 52 91;#M rgb5 74 105 182;#M rgb6 112 158 18;#M rgb7 149 211 110;#M rgb8 187 9 201;#M rgb9 224 62 37;#M rgb10 7 114 128;#P hidden newex 1210 1149 70 196617 peek~ steppin;#P hidden newex 564 1260 74 196617 index~ steppin;#P hidden newex 1210 1171 99 196617 buffer~ steppin 100;#P hidden newex 564 1173 99 196617 phasor~ 0.714286;#P hidden newex 959 22 21 196617 r o;#P hidden message 963 50 14 196617 1;#P hidden message 112 236 14 196617 1;#N vpreset 3;#X append 1 1 310 363 767 multiSlider list 0.234043 0.234043 0.265957 0.180851 0.095745 0.095745 0.106383 0.180851 \; 314 198 767 multiSlider list 14 64 73 45 57 55 32 17 \; 315 55 767 multiSlider list 3199 3676 4364 1450 3464 4258 4576;#X append 1 1 2828 \;;#X append 2 1 310 363 767 multiSlider list 0.234043 0.234043 0.265957 0.180851 0.095745 0.095745 0.106383 0.180851 \; 314 198 767 multiSlider list 14 64 73 45 57 55 32 17 \; 315 55 767 multiSlider list 3199 3676 4364 1609 3464 4258 4576;#X append 2 1 2828 \;;#X append 3 1 310 363 767 multiSlider list 0.234043 0.234043 0.265957 0.180851 0.095745 0.095745 0.106383 0.180851 \; 314 198 767 multiSlider list 14 64 73 45 57 55 32 17 \; 315 55 767 multiSlider list 3199 3676 4364 1609 2457 2245 4576;#X append 3 1 2828 \;;#P hidden preset 939 75 47 27;#P hidden message -476 590 30 196617 0.01;#P hidden newex -536 699 38 196617 cycle~;#P hidden newex -536 671 48 196617 *~ 1000;#P hidden newex -536 727 39 196617 *~ 0.2;#P hidden newex -536 611 60 196617 phasor~ 25;#P hidden newex -536 634 79 196617 sah~ 0.01;#B color 5;#P hidden newex -467 611 60 196617 phasor~ 15;#P hidden newex -536 876 33 196617 *~ 0.;#P hidden newex -420 854 78 196617 cycle~ 0.0625;#P hidden user gain~ -536 750 24 100 158 0 1.071519 7.94321 10.;#P hidden newex -448 219 45 196617 select 0;#P hidden button -425 252 15 0;#P hidden newex 195 1041 21 196617 r o;#P hidden message 195 1060 23 196617 0.2;#P hidden newex 92 1098 38 196617 *~ 0.;#P hidden newex 120 1078 85 196617 cycle~ 0.015625;#P hidden newex 365 1054 60 196617 clip~ -1. 1.;#P hidden newex 528 951 93 196617 cycle~ 0.007812;#P hidden newex 539 979 30 196617 cos~;#P hidden message -75 717 14 196617 0;#P hidden newex -680 1144 33 196617 /~ 4.;#P hidden user number~ 187 333 295 348 9 3 3 2 0. 0. 0 0. 20 0. 0 0 0 221 221 221 222 222 222 0 0 0;#P hidden newex 695 922 21 196617 r o;#P hidden newex 674 1031 60 196617 clip~ -1. 1.;#P hidden newex 750 975 33 196617 *~ 0.;#P hidden newex 659 996 39 196617 +~ 0.8;#P hidden message 686 949 14 196617 0;#P hidden newex 659 974 80 196617 phasor~ -0.125;#P hidden newex 244 394 39 196617 /~ 32.;#P hidden newex -123 356 27 196617 * 2;#N counter 1 1 10;#X flags 0 0;#P hidden newobj -123 334 75 196617 counter 1 1 10;#P hidden message -75 311 14 196617 0;#P hidden newex -75 283 21 196617 r o;#P hidden newex 245 374 34 196617 *~ 2.;#P hidden newex 1770 664 21 196617 r o;#P hidden message 1773 687 29 196617 -0.9;#P hidden message 1698 687 73 196617 3000 \, 200 50;#P hidden newex 1735 709 41 196617 curve~;#P hidden newex 1119 102 74 196617 prepend freq 0;#P hidden newex 1119 250 61 196617 prepend Q 0;#P user multiSlider 767 55 171 96 20. 5000. 8 2921 47 0 0 2 0 0 1;#M frgb 0 0 0;#M brgb 255 255 255;#M rgb2 127 127 127;#M rgb3 0 0 0;#M rgb4 37 52 91;#M rgb5 74 105 182;#M rgb6 112 158 18;#M rgb7 149 211 110;#M rgb8 187 9 201;#M rgb9 224 62 37;#M rgb10 7 114 128;#P user multiSlider 767 198 171 96 0. 100. 8 2921 47 0 0 2 0 0 1;#M frgb 0 0 0;#M brgb 255 255 255;#M rgb2 127 127 127;#M rgb3 0 0 0;#M rgb4 37 52 91;#M rgb5 74 105 182;#M rgb6 112 158 18;#M rgb7 149 211 110;#M rgb8 187 9 201;#M rgb9 224 62 37;#M rgb10 7 114 128;#P hidden newex 1097 456 39 196617 s cmds;#P hidden newex 1096 709 39 196617 r cmds;#P hidden newex 1119 422 73 196617 prepend gain 0;#P user multiSlider 767 363 171 96 0. 1. 8 2937 47 0 0 2 0 0 1;#M frgb 0 0 0;#M brgb 255 255 255;#M rgb2 127 127 127;#M rgb3 0 0 0;#M rgb4 37 52 91;#M rgb5 74 105 182;#M rgb6 112 158 18;#M rgb7 149 211 110;#M rgb8 187 9 201;#M rgb9 224 62 37;#M rgb10 7 114 128;#P hidden newex 1056 703 39 196617 *~ 0.3;#P hidden newex 1056 674 35 196617 noise~;#P hidden newex 1062 740 105 196617 fffb~ 8;#B color 5;#P comment 767 348 45 196617 gain:;#P comment 767 183 26 196617 q:;#P comment 768 40 85 196617 freq:;#P hidden newex 1750 893 34 196617 gate~;#P hidden message 1670 774 14 196617 0;#P hidden message 1721 908 14 196617 1;#P hidden button 1677 754 15 0;#P hidden newex 1683 729 48 196617 delay 20;#P hidden newex 1722 773 21 196617 r o;#P hidden message 1722 794 14 196617 0;#P hidden newex 1751 928 39 196617 +~ 0.9;#P hidden message 1829 711 23 196617 0.5;#P hidden user gain~ 1751 952 24 100 158 0 1.071519 7.94321 10.;#P hidden newex 1753 1107 29 196617 dac~;#P hidden newex 1780 790 29 196617 +~ 1;#P hidden newex 1780 814 48 196617 clip~ 0 1;#P hidden newex 1780 765 39 196617 *~ -1.;#P hidden newex 1757 863 33 196617 *~ 0.;#P hidden newex 1757 839 60 196617 cycle~ 220;#P hidden newex 1775 737 69 196617 phasor~ 1.25;#P hidden button 1312 786 15 0;#P hidden message 1284 756 14 196617 1;#P hidden message 1287 781 14 196617 0;#P hidden newex 1318 761 48 196617 delay 80;#P hidden button 1327 718 15 0;#P hidden newex 1327 694 34 196617 edge~;#P hidden newex 1327 643 35 196617 delta~;#P hidden newex 1327 669 31 196617 <~ 0.;#P hidden newex 1161 776 34 196617 gate~;#P hidden toggle 1042 1033 15 0;#P hidden newex 1406 762 30 196617 abs~;#P hidden newex 1827 685 21 196617 r o;#P hidden newex 1405 638 55 196617 log~ 1024;#P hidden newex 1405 662 35 196617 *~ 96;#P hidden newex 1405 691 30 196617 abs~;#P hidden newex 1405 739 45 196617 -~ 8192;#P hidden newex 1405 712 35 196617 *~ 32;#P hidden newex 1232 671 39 196617 +~ 0.1;#P hidden newex 1197 570 55 196617 log~ 8192;#P hidden message 1071 848 23 196617 0.7;#P hidden message 1047 848 23 196617 0.8;#P hidden newex 1030 826 21 196617 r o;#P hidden message 1032 848 14 196617 1;#P hidden newex 1019 879 66 196617 comb~;#P hidden newex 1244 484 21 196617 r o;#P hidden newex 1144 845 34 196617 *~ 1.;#P hidden user gain~ 1144 927 24 100 158 0 1.071519 7.94321 10.;#P hidden newex 1144 1069 29 196617 dac~;#P hidden message 1248 512 23 196617 0.5;#P hidden newex 1218 750 54 196617 clip~ -1 1;#P hidden newex 1218 722 39 196617 *~ -1.;#P hidden newex 1144 816 33 196617 *~ 0.;#P hidden newex 1196 535 69 196617 phasor~ 1.25;#P hidden newex 953 682 21 196617 r o;#P hidden flonum 817 793 35 9 0. 1. 3 3 0 0 0 221 221 221 222 222 222 0 0 0;#P hidden newex 850 846 45 196617 +~ 0.75;#P hidden newex 850 876 60 196617 clip~ -1. 1.;#P hidden newex 902 930 33 196617 *~ 0.;#P hidden message 953 733 14 196617 0;#P hidden newex 898 752 65 196617 phasor~ -10;#P hidden user gain~ 895 985 24 100 158 0 1.071519 7.94321 10.;#P hidden newex 895 1127 29 196617 dac~;#P hidden message 857 700 14 196617 0;#P hidden newex 856 520 55 196617 log~ 2048;#P hidden newex 856 544 35 196617 *~ 70;#P hidden newex 856 646 73 196617 clip~ 0 10000;#P hidden newex 856 573 30 196617 abs~;#P hidden newex 856 621 45 196617 -~ 1200;#P hidden newex 856 594 35 196617 *~ 32;#P hidden newex 925 828 29 196617 +~ 1;#P hidden newex 925 852 48 196617 clip~ 0 1;#P hidden newex 925 803 39 196617 *~ -1.;#P hidden newex 902 901 33 196617 *~ 0.;#P hidden newex 902 877 60 196617 cycle~ 180;#P hidden newex 807 719 69 196617 phasor~ 1.25;#P hidden newex -770 1061 34 196617 *~ 1.;#P hidden newex -627 592 21 196617 r o;#P hidden newex -793 1026 34 196617 *~ 1.;#P hidden newex -725 729 39 196617 +~ 0.3;#P hidden newex -725 759 60 196617 clip~ -1. 1.;#P hidden message -628 614 14 196617 0;#P hidden newex -677 635 68 196617 phasor~ -2.5;#P hidden user gain~ -816 1095 24 100 158 0 1.071519 7.94321 10.;#P hidden newex -816 1237 29 196617 dac~;#P hidden message -888 771 14 196617 0;#P hidden newex -859 609 43 196617 log~ 48;#P hidden newex -859 633 35 196617 *~ 32;#P hidden newex -843 836 73 196617 clip~ 0 20000;#P hidden newex -859 662 30 196617 abs~;#P hidden newex -843 811 45 196617 -~ 1200;#P hidden newex -859 683 35 196617 *~ 32;#P hidden newex -786 917 29 196617 +~ 1;#P hidden newex -786 941 48 196617 clip~ 0 1;#P hidden newex -786 892 39 196617 *~ -1.;#P hidden newex -809 990 33 196617 *~ 0.;#P hidden newex -809 966 60 196617 cycle~ 180;#P hidden newex -929 808 75 196617 phasor~ 0.125;#P hidden newex 706 859 39 196617 +~ 0.1;#P hidden newex 706 889 60 196617 clip~ -1. 1.;#P hidden newex -456 724 38 196617 cycle~;#P hidden newex -456 696 48 196617 *~ 1000;#P hidden newex -456 752 39 196617 *~ 0.2;#P hidden newex -456 636 60 196617 phasor~ 25;#P hidden newex -456 659 79 196617 sah~ 0.01;#B color 5;#P hidden newex -387 636 60 196617 phasor~ 15;#P hidden message 98 218 14 196617 0;#P hidden newex 102 195 21 196617 r o;#P hidden newex 271 251 35 196617 -~ 0.5;#P hidden newex 271 308 45 196617 *~ 500.;#P hidden newex 271 220 39 196617 *~ 16.;#P hidden newex 271 283 79 196617 index~ newstep;#P hidden newex 271 196 75 196617 phasor~ 0.625;#P hidden newex 339 472 49 196617 pack 0 0.;#P hidden newex 339 405 27 196617 t b i;#P hidden newex 378 449 38 196617 / 500.;#P hidden message 367 406 14 196617 0;#P hidden button 367 388 15 0;#N counter;#X flags 0 0;#P hidden newobj 339 426 66 196617 counter;#P hidden newex 339 383 25 196617 iter;#P user multiSlider 353 198 206 143 0. 500. 16 2665 15 0 0 2 0 0 1;#M frgb 0 0 0;#M brgb 255 255 255;#M rgb2 127 127 127;#M rgb3 0 0 0;#M rgb4 37 52 91;#M rgb5 74 105 182;#M rgb6 112 158 18;#M rgb7 149 211 110;#M rgb8 187 9 201;#M rgb9 224 62 37;#M rgb10 7 114 128;#P hidden newex 339 493 75 196617 peek~ newstep;#P hidden newex 339 515 104 196617 buffer~ newstep 100;#P hidden newex -201 636 40 196617 key;#P hidden newex -158 701 21 196617 s o;#P hidden newex 758 943 33 196617 *~ 0.;#P hidden message 746 745 14 196617 0;#P hidden newex 754 765 60 196617 phasor~ 10;#P hidden user gain~ 755 1058 24 100 158 0 1.071519 7.94321 10.;#P hidden newex 755 1200 29 196617 dac~;#P hidden message 704 695 14 196617 0;#P hidden newex 712 533 43 196617 log~ 48;#P hidden newex 712 557 35 196617 *~ 96;#P hidden newex 712 659 73 196617 clip~ 0 10000;#P hidden newex 712 586 30 196617 abs~;#P hidden newex 712 634 45 196617 -~ 1200;#P hidden newex 712 607 35 196617 *~ 32;#P hidden newex 781 841 29 196617 +~ 1;#P hidden newex 781 865 48 196617 clip~ 0 1;#P hidden newex 781 816 39 196617 *~ -1.;#P hidden newex 758 914 33 196617 *~ 0.;#P hidden newex 758 890 60 196617 cycle~ 180;#P hidden newex 663 732 60 196617 phasor~ 10;#P hidden newex 418 852 21 196617 r o;#P hidden message 424 900 23 196617 0.5;#P hidden newex 138 795 21 196617 r o;#P hidden message 167 811 14 196617 0;#P hidden newex 366 1025 39 196617 +~ 0.9;#P hidden newex 364 980 33 196617 *~ 0.;#P hidden newex 387 949 81 196617 cycle~ 0.03125;#P hidden newex 351 603 21 196617 r o;#P hidden user gain~ 622 969 24 100 158 0 1.071519 7.94321 10.;#P hidden newex 622 1111 29 196617 dac~;#P hidden message 555 717 30 196617 0.75;#P hidden newex 584 555 43 196617 log~ 48;#P hidden newex 584 579 35 196617 *~ 32;#P hidden newex 584 681 73 196617 clip~ 0 10000;#P hidden newex 584 608 30 196617 abs~;#P hidden newex 584 656 45 196617 -~ 1200;#P hidden newex 584 629 35 196617 *~ 32;#P hidden newex 653 863 29 196617 +~ 1;#P hidden newex 653 887 48 196617 clip~ 0 1;#P hidden newex 653 838 39 196617 *~ -1.;#P hidden newex 630 936 33 196617 *~ 0.;#P hidden newex 630 912 60 196617 cycle~ 180;#P hidden newex 514 754 75 196617 phasor~ 0.125;#P hidden newex -370 234 48 196617 !/ 1000.;#N vpreset 117;#X append 1 2 2 1013 -541 flonum float 0. \; 6 1037 -383 multiSlider list 450 319 362 213 46 216 376 213 330 46 422 433 67 330 78 89 \; 16 1297 -570 toggle int 0 \; 18 1192 -541 gain~;#X append 1 2 list 78 10. \; 21 973 -541 number int 0 \; 33 1081 57 toggle int 1 \; 38 901 -155 number int 197 \; 44 1011 -99 gain~ list 87 10. \; 51 972 92 gain~ list 87 10.;#X append 1 2 \; 76 978 325 gain~ list 82 10. \; 79 775 -456 gain~ list 92 10. \; 96 957 494 gain~ list 86 10. \; 100 435 -469 gain~ list 82 10. \; 108 527 -507 toggle int 1 \;;#X append 1 2 110 298 -336 flonum float 12.820513 \; 111 298 -410 flonum float 27. \; 112 349 -468 flonum float 1. \; 121 386 -246 flonum float 1. \; 156 969 622 gain~ list 83 10. \; 179 1058 755 gain~;#X append 1 2 list 99 10. \; 187 198 353 multiSlider list 245 135 254 28 28 35 39 319 270 177 39 110 92 78 57 32 \; 224 1095 -816 gain~ list 104 10. \; 246 985 895 gain~ list 110;#X append 1 2 10. \; 252 793 817 flonum float 0. \; 260 927 1144 gain~ list 141 10. \; 277 1033 1042 toggle int 1 \; 294 952 1751 gain~ list 114 10. \; 310 363 767 multiSlider list 0.234043 0.234043 0.265957;#X append 1 2 0.180851 0.095745 0.095745 0.106383 0.180851 \; 314 198 767 multiSlider list 14 64 73 45 57 55 32 17 \; 315 55 767 multiSlider list 3199 3676 4364 1450 3464 4258 4576 2828 \; 334 333 187 number~ list 0.;#X append 1 2 \; 346 750 -536 gain~ list 92 10. \; 364 198 560 multiSlider list 500 500 500 465 500 369 404 500 475 465 475 500 266 465 \; 395 951 967 gain~ list 104 10. \;;#X append 2 2 2 1013 -541 flonum float 0. \; 6 1037 -383 multiSlider list 450 319 362 213 46 216 376 213 330 46 422 433 67 330 78 89 \; 16 1297 -570 toggle int 0 \; 18 1192 -541 gain~;#X append 2 2 list 88 10. \; 21 973 -541 number int 0 \; 33 1081 57 toggle int 1 \; 38 901 -155 number int 198 \; 44 1011 -99 gain~ list 103 10. \; 51 972 92 gain~ list 104 10.;#X append 2 2 \; 76 978 325 gain~ list 80 10. \; 252 793 817 flonum float 0. \; 79 775 -456 gain~ list 106 10. \; 96 957 494 gain~ list 95 10. \; 334 333 187 number~ list 0. \; 100 435 -469;#X append 2 2 gain~ list 109 10. \; 108 527 -507 toggle int 1 \; 110 298 -336 flonum float 18.181818 \; 111 298 -410 flonum float 21. \; 112 349 -468 flonum float 1. \; 121 386 -246 flonum float 1. \;;#X append 2 2 156 969 622 gain~ list 90 10. \; 179 1058 755 gain~ list 113 10. \;;#X append 3 2 2 1013 -541 flonum float 0. \; 6 1037 -383 multiSlider list 450 319 362 213 46 216 376 213 330 46 422 433 67 330 78 89 \; 16 1297 -570 toggle int 1 \; 18 1192 -541 gain~;#X append 3 2 list 88 10. \; 21 973 -541 number int 0 \; 33 1081 57 toggle int 1 \; 38 901 -155 number int 197 \; 44 1011 -99 gain~ list 106 10. \; 51 972 92 gain~ list 104 10.;#X append 3 2 \; 76 978 325 gain~ list 80 10. \; 252 793 817 flonum float 0. \; 79 775 -456 gain~ list 106 10. \; 96 957 494 gain~ list 95 10. \; 334 333 187 number~ list 0. \; 100 435 -469;#X append 3 2 gain~ list 109 10. \; 108 527 -507 toggle int 1 \; 110 298 -336 flonum float 9.708738 \; 111 298 -410 flonum float 32. \; 112 349 -468 flonum float 1. \; 121 386 -246 flonum float 1. \;;#X append 3 2 156 969 622 gain~ list 90 10. \; 179 1058 755 gain~ list 108 10. \; 187 198 353 multiSlider list 245 135 254 284 85 319 39 319 270 177 39 110 92 18 25 0 \; 224 1095 -816;#X append 3 2 gain~ list 0 10. \;;#X append 4 2 2 1013 -541 flonum float 0. \; 6 1037 -383 multiSlider list 450 319 362 213 46 216 376 213 330 46 422 433 67 330 78 89 \; 16 1297 -570 toggle int 1 \; 18 1192 -541 gain~;#X append 4 2 list 88 10. \; 21 973 -541 number int 0 \; 33 1081 57 toggle int 1 \; 38 901 -155 number int 197 \; 44 1011 -99 gain~ list 106 10. \; 51 972 92 gain~ list 104 10.;#X append 4 2 \; 76 978 325 gain~ list 80 10. \; 252 793 817 flonum float 0. \; 79 775 -456 gain~ list 106 10. \; 96 957 494 gain~ list 95 10. \; 334 333 187 number~ list 0. \; 100 435 -469;#X append 4 2 gain~ list 109 10. \; 108 527 -507 toggle int 1 \; 110 298 -336 flonum float 13.69863 \; 111 298 -410 flonum float 26. \; 112 349 -468 flonum float 1. \; 121 386 -246 flonum float 1. \;;#X append 4 2 156 969 622 gain~ list 90 10. \; 179 1058 755 gain~ list 108 10. \; 187 198 353 multiSlider list 245 135 254 28 28 35 39 319 270 177 39 110 92 78 57 32 \; 224 1095 -816;#X append 4 2 gain~ list 0 10. \;;#X append 5 2 2 1013 -541 flonum float 0. \; 6 1037 -383 multiSlider list 450 319 362 213 46 216 376 213 330 46 422 433 67 330 78 89 \; 16 1297 -570 toggle int 0 \; 18 1192 -541 gain~;#X append 5 2 list 88 10. \; 21 973 -541 number int 0 \; 33 1081 57 toggle int 1 \; 38 901 -155 number int 198 \; 44 1011 -99 gain~ list 103 10. \; 51 972 92 gain~ list 104 10.;#X append 5 2 \; 76 978 325 gain~ list 80 10. \; 79 775 -456 gain~ list 106 10. \; 96 957 494 gain~ list 95 10. \; 334 333 187 number~ list 0. \; 100 435 -469 gain~ list 109 10. \;;#X append 5 2 108 527 -507 toggle int 1 \; 110 298 -336 flonum float 37.037037 \; 111 298 -410 flonum float 9. \; 112 349 -468 flonum float 1. \; 121 386 -246 flonum float 1. \; 156 969 622 gain~ list;#X append 5 2 90 10. \; 179 1058 755 gain~ list 0 10. \; 187 198 353 multiSlider list 245 135 254 28 28 35 39 319 270 177 39 110 92 78 57 32 \; 224 1095 -816 gain~ list 0 10.;#X append 5 2 \;;#X append 6 2 2 1013 -541 flonum float 0. \; 6 1037 -383 multiSlider list 450 319 362 213 46 216 376 213 330 46 422 433 67 330 78 89 \; 16 1297 -570 toggle int 0 \; 18 1192 -541 gain~;#X append 6 2 list 97 10. \; 21 973 -541 number int 0 \; 33 1081 57 toggle int 1 \; 38 901 -155 number int 198 \; 44 1011 -99 gain~ list 112 10. \; 51 972 92 gain~ list 99 10.;#X append 6 2 \; 76 978 325 gain~ list 99 10. \; 79 775 -456 gain~ list 106 10. \; 96 957 494 gain~ list 95 10. \; 334 333 187 number~ list 0. \; 100 435 -469 gain~ list 109 10. \;;#X append 6 2 108 527 -507 toggle int 1 \; 110 298 -336 flonum float 23.255814 \; 111 298 -410 flonum float 17. \; 112 349 -468 flonum float 0.07 \; 121 386 -246 flonum float 1. \; 156 969 622 gain~ list;#X append 6 2 90 10. \; 179 1058 755 gain~ list 103 10. \; 187 198 353 multiSlider list 245 135 254 28 28 35 39 319 270 177 39 110 92 78 57 32 \; 224 1095 -816 gain~ list 104 10.;#X append 6 2 \; 252 793 817 flonum float 0. \;;#X append 7 2 2 1013 -541 flonum float 0. \; 6 1037 -383 multiSlider list 450 319 362 213 46 216 376 213 330 46 422 433 67 330 78 89 \; 16 1297 -570 toggle int 0 \; 18 1192 -541 gain~;#X append 7 2 list 97 10. \; 21 973 -541 number int 0 \; 33 1081 57 toggle int 1 \; 38 901 -155 number int 197 \; 44 1011 -99 gain~ list 112 10. \; 51 972 92 gain~ list 98 10.;#X append 7 2 \; 76 978 325 gain~ list 92 10. \; 79 775 -456 gain~ list 106 10. \; 96 957 494 gain~ list 95 10. \; 334 333 187 number~ list 0. \; 100 435 -469 gain~ list 109 10. \;;#X append 7 2 108 527 -507 toggle int 1 \; 110 298 -336 flonum float 7.692307 \; 111 298 -410 flonum float 36. \; 112 349 -468 flonum float 0.07 \; 121 386 -246 flonum float 1. \; 156 969 622 gain~ list;#X append 7 2 90 10. \; 179 1058 755 gain~ list 103 10. \; 187 198 353 multiSlider list 245 135 254 28 28 35 39 319 270 177 39 110 92 78 57 32 \; 224 1095 -816 gain~ list 104 10.;#X append 7 2 \; 246 985 895 gain~ list 113 10. \; 252 793 817 flonum float 0. \; 260 927 1144 gain~ list 101 10. \;;#X append 104 2 2 1013 -541 flonum float 0. \; 6 1037 -383 multiSlider list 450 319 362 213 46 216 376 213 330 46 422 433 67 330 78 89 \; 16 1297 -570 toggle int 0 \; 18 1192 -541 gain~;#X append 104 2 list 90 10. \; 21 973 -541 number int 0 \; 33 1081 57 toggle int 1 \; 38 901 -155 number int 198 \; 44 1011 -99 gain~ list 87 10. \; 51 972 92 gain~ list 94 10.;#X append 104 2 \; 76 978 325 gain~ list 91 10. \; 79 775 -456 gain~ list 106 10. \; 96 957 494 gain~ list 87 10. \; 100 435 -469 gain~ list 82 10. \; 108 527 -507 toggle int 1 \;;#X append 104 2 110 298 -336 flonum float 7.407407 \; 111 298 -410 flonum float 24. \; 112 349 -468 flonum float -5. \; 121 386 -246 flonum float 1. \; 156 969 622 gain~ list 90 10. \; 179 1058 755 gain~;#X append 104 2 list 98 10. \; 187 198 353 multiSlider list 245 135 254 28 28 35 39 319 270 177 39 110 92 78 57 32 \; 224 1095 -816 gain~ list 104 10. \; 246 985 895 gain~ list 119;#X append 104 2 10. \; 252 793 817 flonum float 0. \; 260 927 1144 gain~ list 141 10. \; 277 1033 1042 toggle int 1 \; 294 952 1751 gain~ list 114 10. \; 310 363 767 multiSlider list 0.234043 0.234043 0.265957;#X append 104 2 0.180851 0.095745 0.095745 0.106383 0.180851 \; 314 198 767 multiSlider list 14 64 73 45 57 55 32 17 \; 315 55 767 multiSlider list 3199 3676 4364 1450 3464 4258 4576 2828 \; 334 333 187 number~ list 0.;#X append 104 2 \;;#X append 112 2 2 1013 -541 flonum float 0. \; 6 1037 -383 multiSlider list 450 319 362 213 46 216 376 213 330 46 422 433 67 330 78 89 \; 16 1297 -570 toggle int 0 \; 18 1192 -541 gain~;#X append 112 2 list 78 10. \; 21 973 -541 number int 0 \; 33 1081 57 toggle int 1 \; 38 901 -155 number int 209 \; 44 1011 -99 gain~ list 87 10. \; 51 972 92 gain~ list 87 10.;#X append 112 2 \; 76 978 325 gain~ list 82 10. \; 79 775 -456 gain~ list 92 10. \; 96 957 494 gain~ list 86 10. \; 100 435 -469 gain~ list 82 10. \; 108 527 -507 toggle int 1 \;;#X append 112 2 110 298 -336 flonum float 28.571428 \; 111 298 -410 flonum float 38. \; 112 349 -468 flonum float 1. \; 121 386 -246 flonum float 1. \; 156 969 622 gain~ list 83 10. \; 179 1058 755 gain~;#X append 112 2 list 98 10. \; 187 198 353 multiSlider list 245 135 254 28 28 35 39 319 270 177 39 110 92 78 57 32 \; 224 1095 -816 gain~ list 104 10. \; 246 985 895 gain~ list 113;#X append 112 2 10. \; 252 793 817 flonum float 0. \; 260 927 1144 gain~ list 141 10. \; 277 1033 1042 toggle int 1 \; 294 952 1751 gain~ list 114 10. \; 310 363 767 multiSlider list 0.234043 0.234043 0.265957;#X append 112 2 0.180851 0.095745 0.095745 0.106383 0.180851 \; 314 198 767 multiSlider list 14 64 73 45 57 55 32 17 \; 315 55 767 multiSlider list 3199 3676 4364 1450 3464 4258 4576 2828 \; 334 333 187 number~ list 0.;#X append 112 2 \; 346 750 -536 gain~ list 92 10. \;;#X append 113 2 2 1013 -541 flonum float 0. \; 6 1037 -383 multiSlider list 450 319 362 213 46 216 376 213 330 46 422 433 67 330 78 89 \; 16 1297 -570 toggle int 0 \; 18 1192 -541 gain~;#X append 113 2 list 78 10. \; 21 973 -541 number int 0 \; 33 1081 57 toggle int 1 \; 38 901 -155 number int 197 \; 44 1011 -99 gain~ list 87 10. \; 51 972 92 gain~ list 87 10.;#X append 113 2 \; 76 978 325 gain~ list 82 10. \; 79 775 -456 gain~ list 92 10. \; 96 957 494 gain~ list 86 10. \; 100 435 -469 gain~ list 82 10. \; 108 527 -507 toggle int 1 \;;#X append 113 2 110 298 -336 flonum float 28.571428 \; 111 298 -410 flonum float 22. \; 112 349 -468 flonum float 1. \; 121 386 -246 flonum float 1. \; 156 969 622 gain~ list 83 10. \; 179 1058 755 gain~;#X append 113 2 list 98 10. \; 187 198 353 multiSlider list 245 135 254 28 28 35 39 319 270 177 39 110 92 78 57 32 \; 224 1095 -816 gain~ list 104 10. \; 246 985 895 gain~ list 115;#X append 113 2 10. \; 252 793 817 flonum float 0. \; 260 927 1144 gain~ list 141 10. \; 277 1033 1042 toggle int 1 \; 294 952 1751 gain~ list 114 10. \; 310 363 767 multiSlider list 0.234043 0.234043 0.265957;#X append 113 2 0.180851 0.095745 0.095745 0.106383 0.180851 \; 314 198 767 multiSlider list 14 64 73 45 57 55 32 17 \; 315 55 767 multiSlider list 3199 3676 4364 1450 3464 4258 4576 2828 \; 334 333 187 number~ list 0.;#X append 113 2 \; 346 750 -536 gain~ list 92 10. \;;#X append 114 2 2 1013 -541 flonum float 0. \; 6 1037 -383 multiSlider list 450 319 362 213 46 216 376 213 330 46 422 433 67 330 78 89 \; 16 1297 -570 toggle int 0 \; 18 1192 -541 gain~;#X append 114 2 list 78 10. \; 21 973 -541 number int 0 \; 33 1081 57 toggle int 1 \; 38 901 -155 number int 198 \; 44 1011 -99 gain~ list 87 10. \; 51 972 92 gain~ list 87 10.;#X append 114 2 \; 76 978 325 gain~ list 82 10. \; 79 775 -456 gain~ list 92 10. \; 96 957 494 gain~ list 86 10. \; 100 435 -469 gain~ list 82 10. \; 108 527 -507 toggle int 1 \;;#X append 114 2 110 298 -336 flonum float 4.081633 \; 111 298 -410 flonum float 40. \; 112 349 -468 flonum float -5. \; 121 386 -246 flonum float 1. \; 156 969 622 gain~ list 83 10. \; 179 1058 755 gain~;#X append 114 2 list 97 10. \; 187 198 353 multiSlider list 245 135 254 28 28 35 39 319 270 177 39 110 92 78 57 32 \; 224 1095 -816 gain~ list 104 10. \; 246 985 895 gain~ list 115;#X append 114 2 10. \; 252 793 817 flonum float 0. \; 260 927 1144 gain~ list 141 10. \; 277 1033 1042 toggle int 1 \; 294 952 1751 gain~ list 114 10. \; 310 363 767 multiSlider list 0.234043 0.234043 0.265957;#X append 114 2 0.180851 0.095745 0.095745 0.106383 0.180851 \; 314 198 767 multiSlider list 14 64 73 45 57 55 32 17 \; 315 55 767 multiSlider list 3199 3676 4364 1450 3464 4258 4576 2828 \; 334 333 187 number~ list 0.;#X append 114 2 \; 346 750 -536 gain~ list 92 10. \;;#X append 115 2 2 1013 -541 flonum float 0. \; 6 1037 -383 multiSlider list 450 319 362 213 46 216 376 213 330 46 422 433 67 330 78 89 \; 16 1297 -570 toggle int 0 \; 18 1192 -541 gain~;#X append 115 2 list 97 10. \; 21 973 -541 number int 0 \; 33 1081 57 toggle int 1 \; 38 901 -155 number int 197 \; 44 1011 -99 gain~ list 87 10. \; 51 972 92 gain~ list 94 10.;#X append 115 2 \; 76 978 325 gain~ list 91 10. \; 79 775 -456 gain~ list 106 10. \; 96 957 494 gain~ list 87 10. \; 100 435 -469 gain~ list 82 10. \; 108 527 -507 toggle int 1 \;;#X append 115 2 110 298 -336 flonum float 28.571428 \; 111 298 -410 flonum float 22. \; 112 349 -468 flonum float -5. \; 121 386 -246 flonum float 1. \; 156 969 622 gain~ list 90 10. \; 179 1058 755 gain~;#X append 115 2 list 98 10. \; 187 198 353 multiSlider list 245 135 254 28 28 35 39 319 270 177 39 110 92 78 57 32 \; 224 1095 -816 gain~ list 104 10. \; 246 985 895 gain~ list 119;#X append 115 2 10. \; 252 793 817 flonum float 0. \; 260 927 1144 gain~ list 141 10. \; 277 1033 1042 toggle int 1 \; 294 952 1751 gain~ list 114 10. \; 310 363 767 multiSlider list 0.234043 0.234043 0.265957;#X append 115 2 0.180851 0.095745 0.095745 0.106383 0.180851 \; 314 198 767 multiSlider list 14 64 73 45 57 55 32 17 \; 315 55 767 multiSlider list 3199 3676 4364 1450 3464 4258 4576 2828 \; 334 333 187 number~ list 0.;#X append 115 2 \;;#X append 116 2 2 1013 -541 flonum float 0. \; 6 1037 -383 multiSlider list 450 319 362 213 46 216 376 213 330 46 422 433 67 330 78 89 \; 16 1297 -570 toggle int 0 \; 18 1192 -541 gain~;#X append 116 2 list 97 10. \; 21 973 -541 number int 0 \; 33 1081 57 toggle int 1 \; 38 901 -155 number int 197 \; 44 1011 -99 gain~ list 112 10. \; 51 972 92 gain~ list 98 10.;#X append 116 2 \; 76 978 325 gain~ list 92 10. \; 79 775 -456 gain~ list 106 10. \; 96 957 494 gain~ list 87 10. \; 100 435 -469 gain~ list 82 10. \; 108 527 -507 toggle int 1 \;;#X append 116 2 110 298 -336 flonum float 28.571428 \; 111 298 -410 flonum float 30. \; 112 349 -468 flonum float -5. \; 121 386 -246 flonum float 1. \; 156 969 622 gain~ list 90 10. \; 179 1058 755 gain~;#X append 116 2 list 98 10. \; 187 198 353 multiSlider list 245 135 254 28 28 35 39 319 270 177 39 110 92 78 57 32 \; 224 1095 -816 gain~ list 104 10. \; 246 985 895 gain~ list 119;#X append 116 2 10. \; 252 793 817 flonum float 0. \; 260 927 1144 gain~ list 141 10. \; 277 1033 1042 toggle int 1 \; 294 952 1751 gain~ list 114 10. \; 310 363 767 multiSlider list 0.234043 0.234043 0.265957;#X append 116 2 0.180851 0.095745 0.095745 0.106383 0.180851 \; 314 198 767 multiSlider list 14 64 73 45 57 55 32 17 \; 315 55 767 multiSlider list 3199 3676 4364 1450 3464 4258 4576 2828 \; 334 333 187 number~ list 0.;#X append 116 2 \;;#X append 117 2 2 1013 -541 flonum float 0. \; 6 1037 -383 multiSlider list 450 319 362 213 46 216 376 213 330 46 422 433 67 330 78 89 \; 16 1297 -570 toggle int 0 \; 18 1192 -541 gain~;#X append 117 2 list 78 10. \; 21 973 -541 number int 0 \; 33 1081 57 toggle int 1 \; 38 901 -155 number int 196 \; 44 1011 -99 gain~ list 87 10. \; 51 972 92 gain~ list 87 10.;#X append 117 2 \; 76 978 325 gain~ list 82 10. \; 79 775 -456 gain~ list 92 10. \; 96 957 494 gain~ list 86 10. \; 100 435 -469 gain~ list 82 10. \; 108 527 -507 toggle int 1 \;;#X append 117 2 110 298 -336 flonum float 28.571428 \; 111 298 -410 flonum float 14. \; 112 349 -468 flonum float 1. \; 121 386 -246 flonum float 1. \; 156 969 622 gain~ list 83 10. \; 179 1058 755 gain~;#X append 117 2 list 98 10. \; 187 198 353 multiSlider list 245 135 254 28 28 35 39 319 270 177 39 110 92 78 57 32 \; 224 1095 -816 gain~ list 104 10. \; 246 985 895 gain~ list 113;#X append 117 2 10. \; 252 793 817 flonum float 0. \; 260 927 1144 gain~ list 141 10. \; 277 1033 1042 toggle int 1 \; 294 952 1751 gain~ list 114 10. \; 310 363 767 multiSlider list 0.234043 0.234043 0.265957;#X append 117 2 0.180851 0.095745 0.095745 0.106383 0.180851 \; 314 198 767 multiSlider list 14 64 73 45 57 55 32 17 \; 315 55 767 multiSlider list 3199 3676 4364 1450 3464 4258 4576 2828 \; 334 333 187 number~ list 0.;#X append 117 2 \; 346 750 -536 gain~ list 92 10. \;;#P hidden preset 102 413 139 102;#N counter 1 1 40;#X flags 0 0;#P hidden newobj -487 193 75 196617 counter 1 1 40;#P hidden message -439 170 14 196617 0;#P hidden newex -439 142 21 196617 r o;#P hidden newex -617 262 39 196617 +~ 0.5;#P hidden message -542 214 23 196617 0.5;#P hidden newex -542 192 21 196617 r o;#P hidden newex -640 290 33 196617 *~ 0.;#P hidden newex -617 236 85 196617 phasor~ 0.03125;#P hidden newex -546 431 33 196617 *~ 0.;#P hidden message -619 314 49 196617 1 \, 0 300;#P hidden newex -619 334 30 196617 line~;#P hidden newex -642 386 33 196617 *~ 0.;#P hidden newex -642 362 60 196617 cycle~ 412;#P hidden message -336 256 50 196617 7777777;#P hidden newex -410 335 47 196617 t b f;#P hidden newex -336 320 38 196617 t b f;#P hidden message -246 282 14 196617 1;#P hidden comment -294 388 48 196617 duck time;#P hidden flonum -246 386 35 9 0 0 0 3 0 0 0 221 221 221 222 222 222 0 0 0;#P hidden message -509 405 26 196617 111;#P hidden message -272 282 17 196617 8.;#P hidden newex -272 256 45 196617 loadbang;#P hidden message -468 314 14 196617 1;#P hidden newex -336 351 38 196617 + 100.;#P hidden newex -410 374 85 196617 pack setloop 0. 0.;#P hidden newex -509 282 45 196617 loadbang;#P hidden comment -333 285 53 196617 loop length;#P hidden flonum -468 349 35 9 0 0 0 3 0 0 0 221 221 221 222 222 222 0 0 0;#P hidden flonum -410 298 58 9 0. 0 1 3 0 0 0 221 221 221 222 222 222 0 0 0;#P hidden flonum -336 298 58 9 0. 0 1 3 0 0 0 221 221 221 222 222 222 0 0 0;#P hidden message -503 314 35 196617 loop 1;#P hidden toggle -507 527 22 0;#P hidden message -552 314 49 196617 startloop;#P hidden newex -468 374 39 196617 sig~ 1.;#P message 518 182 41 196617 replace;#P hidden newex -572 496 89 196617 buffer~ spool 500;#P hidden newex -468 569 29 196617 dac~;#P hidden newex -468 402 100 196617 grooveduck spool 1;#P hidden comment -408 285 53 196617 loop start;#P hidden user gain~ -469 435 24 100 158 0 1.071519 7.94321 10.;#P hidden newex -456 902 50 196617 *~ 0.;#P hidden newex -109 975 33 196617 *~ 0.;#P hidden newex -253 923 69 196617 cycle~ 0.125;#P hidden user gain~ 494 957 24 100 158 0 1.071519 7.94321 10.;#P hidden newex 494 1104 29 196617 dac~;#P hidden message -272 673 14 196617 0;#P hidden message 427 710 14 196617 0;#P hidden newex 456 548 43 196617 log~ 32;#P hidden newex 456 572 35 196617 *~ 32;#P hidden newex 456 674 73 196617 clip~ 0 10000;#P hidden newex 456 601 30 196617 abs~;#P hidden newex 456 649 45 196617 -~ 1200;#P hidden newex 456 622 35 196617 *~ 32;#P hidden newex 525 856 29 196617 +~ 1;#P hidden newex 525 880 48 196617 clip~ 0 1;#P hidden newex 525 831 39 196617 *~ -1.;#P hidden newex 502 929 33 196617 *~ 0.;#P hidden newex 502 905 60 196617 cycle~ 220;#P hidden newex 386 747 75 196617 phasor~ 0.125;#P hidden message 251 727 23 196617 0.5;#P hidden user gain~ -456 775 24 100 158 0 1.071519 7.94321 10.;#P hidden newex -201 660 51 196617 select 32;#P hidden newex -492 930 30 196617 dac~;#P hidden user gain~ 325 978 24 100 158 0 1.071519 7.94321 10.;#P hidden newex 326 1134 29 196617 dac~;#P hidden newex 280 565 35 196617 log~ 4;#P hidden newex 280 589 35 196617 *~ 32;#P hidden newex 280 691 73 196617 clip~ 0 10000;#P hidden newex 280 618 30 196617 abs~;#P hidden newex 280 666 45 196617 -~ 1200;#P hidden newex 280 639 35 196617 *~ 32;#P hidden newex 349 873 29 196617 +~ 1;#P hidden newex 349 897 48 196617 clip~ 0 1;#P hidden newex 349 848 39 196617 *~ -1.;#P hidden newex 326 946 33 196617 *~ 0.;#P hidden newex 326 922 60 196617 cycle~ 220;#P hidden newex 210 764 55 196617 phasor~ 5.;#P hidden newex 113 558 35 196617 log~ 4;#P hidden newex 113 582 35 196617 *~ 32;#P hidden newex 113 684 73 196617 clip~ 0 10000;#P hidden newex 113 611 30 196617 abs~;#P hidden newex 113 659 45 196617 -~ 1200;#P hidden newex 113 632 35 196617 *~ 32;#P hidden message -188 709 14 196617 0;#P hidden button -697 936 15 0;#P hidden newex -697 912 34 196617 edge~;#P hidden newex -697 861 35 196617 delta~;#P hidden newex -697 887 31 196617 <~ 0.;#P hidden user gain~ 92 972 24 100 158 0 1.071519 7.94321 10.;#P hidden message -88 872 49 196617 1 \, 0 100;#P hidden newex -88 892 30 196617 line~;#P hidden newex -111 944 33 196617 *~ 0.;#P hidden newex -111 920 60 196617 cycle~ 206;#P hidden newex 6 927 45 196617 loadbang;#P hidden message 6 956 20 196617 99;#P hidden user gain~ -99 1011 24 100 158 0 1.071519 7.94321 10.;#P hidden newex 115 865 29 196617 +~ 1;#P hidden newex 115 889 48 196617 clip~ 0 1;#P hidden newex 115 840 39 196617 *~ -1.;#P hidden newex 92 938 33 196617 *~ 0.;#P hidden newex 92 914 60 196617 cycle~ 220;#P hidden number -155 901 35 9 0 0 0 3 0 0 0 221 221 221 222 222 222 0 0 0;#P hidden newex -155 877 33 196617 timer;#P hidden button -155 856 15 0;#P hidden newex -155 832 34 196617 edge~;#P hidden newex -155 781 35 196617 delta~;#P hidden toggle 57 1081 15 0;#P hidden newex 92 1131 29 196617 dac~;#P hidden newex -155 807 31 196617 <~ 0.;#P hidden newex -16 746 55 196617 phasor~ 5.;#P hidden newex -619 890 33 196617 / 16.;#N counter 0 1 64;#X flags 0 0;#P hidden newobj -619 860 75 196617 counter 0 1 64;#P hidden newex -617 990 35 196617 log~ 4;#P hidden newex -617 1014 35 196617 *~ 32;#P hidden newex -617 967 75 196617 phasor~ 0.125;#P hidden message -512 1216 26 196617 100;#P hidden newex -512 1196 45 196617 loadbang;#P hidden newex -541 1087 38 196617 -~ 0.5;#P hidden number -541 973 35 9 0 0 0 3 0 0 0 221 221 221 222 222 222 0 0 0;#P hidden newex -541 992 38 196617 / 240.;#P hidden newex -541 1144 45 196617 *~ 500.;#P hidden user gain~ -541 1192 24 100 158 0 1.071519 7.94321 10.;#P hidden newex -542 1168 59 196617 cycle~ 100;#P hidden toggle -570 1297 26 0;#P hidden newex -541 1324 29 196617 dac~;#P hidden newex -541 1056 39 196617 *~ 16.;#P hidden newex -465 1285 49 196617 pack 0 0.;#P hidden newex -465 1218 27 196617 t b i;#P hidden newex -426 1262 38 196617 / 500.;#P hidden message -437 1219 14 196617 0;#P hidden button -437 1201 15 0;#N counter;#X flags 0 0;#P hidden newobj -465 1239 66 196617 counter;#P hidden newex -465 1196 25 196617 iter;#P hidden user multiSlider -383 1037 206 143 0. 500. 16 2665 15 0 0 2 0 0 1;#M frgb 0 0 0;#M brgb 255 255 255;#M rgb2 127 127 127;#M rgb3 0 0 0;#M rgb4 37 52 91;#M rgb5 74 105 182;#M rgb6 112 158 18;#M rgb7 149 211 110;#M rgb8 187 9 201;#M rgb9 224 62 37;#M rgb10 7 114 128;#P hidden newex -465 1306 75 196617 peek~ thesteps;#P hidden newex -541 1119 79 196617 index~ thesteps;#P hidden newex -465 1328 104 196617 buffer~ thesteps 100;#P hidden flonum -541 1013 35 9 0 0 0 3 0 0 0 221 221 221 222 222 222 0 0 0;#P hidden newex -541 1032 68 196617 phasor~ 0.25;#P comment 560 183 190 196617 <<select short aif then press spacebar;#P hidden connect 397 0 210 0;#P hidden connect 19 0 397 0;#P hidden connect 403 0 398 0;#P hidden connect 398 0 397 1;#P hidden connect 230 0 222 0;#P hidden connect 398 0 410 0;#P hidden connect 78 0 404 0;#P hidden connect 222 0 210 1;#P hidden connect 210 0 221 0;#P hidden connect 221 0 220 0;#P hidden connect 220 0 218 0;#P hidden connect 218 0 216 0;#P hidden connect 404 0 398 3;#P hidden connect 216 0 217 0;#P hidden connect 217 0 219 0;#P hidden connect 231 0 224 0;#P hidden connect 224 0 223 0;#P hidden connect 219 0 211 0;#P hidden connect 211 0 212 0;#P hidden connect 224 0 223 1;#P hidden connect 212 0 229 0;#P hidden connect 210 0 213 0;#P hidden connect 213 0 215 0;#P hidden connect 215 0 214 0;#P hidden connect 214 0 212 1;#P hidden connect 406 0 231 0;#P hidden connect 227 0 229 1;#P hidden connect 25 0 231 1;#P hidden connect 229 0 406 0;#P hidden connect 225 0 228 0;#P hidden connect 228 0 227 0;#P hidden connect 405 0 406 1;#P hidden connect 25 0 53 0;#P hidden connect 53 0 52 0;#P hidden connect 52 0 54 0;#P hidden connect 54 0 55 0;#P hidden connect 19 0 335 0;#P hidden connect 407 0 405 1;#P hidden connect 399 0 401 0;#P hidden connect 401 0 400 0;#P hidden connect 400 0 402 0;#P hidden connect 402 0 403 0;#P hidden connect 127 0 128 0;#P hidden connect 131 0 133 0;#P hidden connect 230 0 226 0;#P hidden connect 36 0 130 0;#P hidden connect 130 0 129 0;#P hidden connect 129 0 128 1;#P hidden connect 226 0 225 1;#P hidden connect 55 0 28 0;#P hidden connect 28 0 29 0;#P hidden connect 132 0 136 0;#P hidden connect 136 0 133 1;#P hidden connect 25 0 27 0;#P hidden connect 27 0 26 0;#P hidden connect 56 0 399 1;#P hidden connect 29 0 27 1;#P hidden connect 105 0 104 0;#P hidden connect 404 0 28 3;#P hidden connect 408 0 407 0;#P hidden connect 114 0 107 0;#P hidden connect 409 0 25 1;#P hidden connect 102 0 131 0;#P hidden connect 134 0 135 0;#P hidden connect 135 0 132 1;#P hidden connect 335 0 17 0;#P hidden connect 21 0 20 0;#P hidden connect 20 0 2 0;#P hidden connect 26 0 1 0;#P hidden connect 2 0 1 0;#P hidden connect 1 0 14 0;#P hidden connect 14 0 22 0;#P hidden connect 22 0 4 0;#P hidden connect 4 0 19 0;#P hidden connect 24 0 18 0;#P hidden connect 17 0 18 0;#P hidden connect 18 0 15 0;#P hidden connect 16 0 15 0;#P hidden connect 351 0 350 0;#P hidden connect 350 0 353 0;#P hidden connect 353 0 354 0;#P hidden connect 354 0 352 0;#P hidden connect 79 1 346 0;#P hidden connect 352 0 346 0;#P hidden connect 346 0 348 0;#P hidden connect 408 0 409 0;#P hidden connect 128 0 131 1;#P hidden connect 18 0 15 1;#P hidden connect 347 0 348 1;#P hidden connect 23 0 24 0;#P hidden connect 114 0 120 0;#P hidden connect 114 0 109 0;#P hidden connect 348 0 77 0;#P hidden connect 36 0 139 0;#P hidden connect 355 0 351 1;#P hidden connect 56 0 1 1;#P hidden connect 344 0 355 0;#P hidden connect 99 0 77 1;#P hidden connect 120 0 100 0;#P hidden connect 133 0 100 0;#P hidden connect 114 0 117 0;#P hidden connect 117 0 112 0;#P hidden connect 112 0 106 0;#P hidden connect 115 0 102 0;#P hidden connect 106 0 102 0;#P hidden connect 107 0 102 0;#P hidden connect 109 0 102 0;#P hidden connect 100 0 103 0;#P hidden connect 108 0 103 0;#P hidden connect 349 0 350 1;#P hidden connect 6 0 7 0;#P hidden connect 7 0 12 0;#P hidden connect 12 0 8 0;#P hidden connect 8 0 13 0;#P hidden connect 13 0 5 0;#P hidden connect 204 0 203 0;#P hidden connect 203 0 206 0;#P hidden connect 206 0 207 0;#P hidden connect 207 0 205 0;#P hidden connect 205 0 79 0;#P hidden connect 79 0 99 0;#P hidden connect 100 0 103 1;#P hidden connect 139 1 345 0;#P hidden connect 137 0 138 0;#P hidden connect 138 0 139 3;#P hidden connect 6 0 9 0;#P hidden connect 9 0 10 0;#P hidden connect 10 0 8 2;#P hidden connect 12 1 11 0;#P hidden connect 11 0 13 1;#P hidden connect 345 0 344 0;#P hidden connect 355 0 349 1;#P hidden connect 347 0 99 1;#P hidden connect 139 0 111 0;#P hidden connect 111 0 125 0;#P hidden connect 124 0 115 0;#P hidden connect 125 0 115 0;#P hidden connect 94 0 204 1;#P hidden connect 202 0 203 1;#P hidden connect 140 0 6 0;#P hidden connect 121 0 102 3;#P hidden connect 125 1 115 1;#P hidden connect 334 1 141 0;#P hidden connect 56 0 347 1;#P hidden connect 94 0 202 1;#P hidden connect 126 0 110 0;#P hidden connect 119 0 110 0;#P hidden connect 141 0 110 0;#P hidden connect 110 0 124 0;#P hidden connect 111 0 116 0;#P hidden connect 124 0 116 0;#P hidden connect 116 0 115 2;#P hidden connect 124 1 116 1;#P hidden connect 118 0 119 0;#P hidden connect 78 0 94 0;#P hidden connect 344 0 94 0;#P hidden connect 118 0 123 0;#P hidden connect 123 0 121 0;#P hidden connect 184 0 78 0;#P hidden connect 56 0 97 1;#P hidden connect 78 0 56 0;#P hidden connect 78 0 183 0;#P hidden fasten 30 0 34 0 -11 772 -150 772;#P hidden connect 34 0 31 0;#P hidden connect 31 0 35 0;#P hidden connect 35 0 36 0;#P hidden connect 36 0 37 0;#P hidden connect 37 0 38 0;#P hidden connect 36 0 37 1;#P hidden connect 55 0 325 0;#P hidden connect 325 0 326 0;#P hidden connect 47 0 48 0;#P hidden connect 48 0 98 0;#P hidden connect 45 0 44 0;#P hidden connect 98 0 44 0;#P hidden connect 36 0 50 0;#P hidden connect 50 0 49 0;#P hidden connect 49 0 48 1;#P hidden connect 97 0 98 1;#P hidden connect 323 0 324 0;#P hidden connect 324 0 325 3;#P hidden connect 78 0 336 0;#P hidden connect 161 0 47 1;#P hidden connect 46 0 45 0;#P hidden connect 336 0 30 1;#P hidden connect 60 0 39 0;#P hidden connect 39 0 40 0;#P hidden connect 45 0 51 0;#P hidden connect 40 0 51 0;#P hidden connect 51 0 341 0;#P hidden connect 341 0 32 0;#P hidden connect 44 0 32 0;#P hidden connect 33 0 32 0;#P hidden connect 200 0 201 0;#P hidden connect 357 0 140 0;#P hidden connect 341 0 32 1;#P hidden connect 200 0 357 0;#P hidden connect 30 0 62 0;#P hidden connect 62 0 61 0;#P hidden connect 61 0 59 0;#P hidden connect 59 0 57 0;#P hidden connect 57 0 58 0;#P hidden connect 58 0 60 0;#P hidden fasten 30 0 41 0 -11 772 120 772;#P hidden connect 41 0 43 0;#P hidden connect 43 0 42 0;#P hidden connect 42 0 40 1;#P hidden connect 340 0 341 1;#P hidden connect 161 0 39 1;#P hidden connect 162 0 161 0;#P hidden connect 198 0 334 0;#P hidden connect 343 0 342 0;#P hidden connect 342 0 340 1;#P hidden connect 322 0 327 0;#P hidden connect 198 0 322 0;#P hidden connect 78 0 80 0;#P hidden connect 80 0 63 1;#P hidden connect 326 0 322 1;#P hidden connect 195 0 197 0;#P hidden connect 197 0 199 0;#P hidden connect 199 0 196 0;#P hidden connect 196 0 198 0;#P hidden connect 63 0 74 0;#P hidden connect 74 0 73 0;#P hidden connect 73 0 71 0;#P hidden connect 71 0 69 0;#P hidden connect 69 0 70 0;#P hidden connect 70 0 72 0;#P hidden connect 339 0 76 0;#P hidden connect 72 0 64 0;#P hidden connect 64 0 65 0;#P hidden connect 76 0 75 0;#P hidden connect 201 0 195 1;#P hidden connect 187 0 188 0;#P hidden connect 188 0 193 0;#P hidden connect 193 0 189 0;#P hidden connect 189 0 194 0;#P hidden connect 194 0 186 0;#P hidden connect 76 0 75 1;#P hidden connect 63 0 66 0;#P hidden connect 66 0 68 0;#P hidden connect 68 0 67 0;#P hidden connect 67 0 65 1;#P hidden connect 65 0 159 0;#P hidden connect 160 0 339 0;#P hidden connect 159 0 160 0;#P hidden connect 187 0 190 0;#P hidden connect 190 0 191 0;#P hidden connect 191 0 189 2;#P hidden connect 161 0 64 1;#P hidden connect 193 1 192 0;#P hidden connect 192 0 194 1;#P hidden connect 158 0 159 1;#P hidden connect 164 0 163 0;#P hidden connect 157 0 93 0;#P hidden connect 93 0 81 1;#P hidden connect 81 0 92 0;#P hidden connect 92 0 91 0;#P hidden connect 91 0 89 0;#P hidden connect 89 0 87 0;#P hidden connect 87 0 88 0;#P hidden connect 88 0 90 0;#P hidden connect 163 0 158 1;#P hidden connect 83 0 96 0;#P hidden connect 96 0 95 0;#P hidden connect 90 0 82 0;#P hidden connect 82 0 83 0;#P hidden connect 96 0 95 1;#P hidden connect 81 0 84 0;#P hidden connect 84 0 86 0;#P hidden connect 86 0 85 0;#P hidden connect 85 0 83 1;#P hidden connect 338 0 337 0;#P hidden connect 161 0 82 1;#P hidden connect 157 0 154 0;#P hidden connect 360 0 372 0;#P hidden connect 372 0 373 0;#P hidden connect 373 0 362 0;#P hidden connect 154 0 142 1;#P hidden connect 374 0 375 0;#P hidden connect 142 0 153 0;#P hidden connect 153 0 152 0;#P hidden connect 152 0 150 0;#P hidden connect 150 0 148 0;#P hidden connect 148 0 149 0;#P hidden connect 149 0 151 0;#P hidden connect 163 0 338 1;#P hidden connect 144 0 156 0;#P hidden connect 156 0 155 0;#P hidden connect 151 0 143 0;#P hidden connect 143 0 144 0;#P hidden connect 156 0 155 1;#P hidden connect 142 0 145 0;#P hidden connect 145 0 147 0;#P hidden connect 147 0 146 0;#P hidden connect 146 0 144 1;#P hidden connect 375 0 360 1;#P hidden connect 328 0 330 0;#P hidden connect 327 0 165 0;#P hidden connect 330 0 332 0;#P hidden connect 161 0 143 1;#P hidden connect 333 0 329 0;#P hidden connect 337 0 330 1;#P hidden connect 157 0 177 0;#P hidden connect 377 0 209 0;#P hidden connect 209 0 208 0;#P hidden connect 180 0 377 0;#P hidden connect 165 0 176 0;#P hidden connect 176 0 175 0;#P hidden connect 175 0 173 0;#P hidden connect 173 0 171 0;#P hidden connect 171 0 172 0;#P hidden connect 172 0 174 0;#P hidden connect 177 0 165 1;#P hidden connect 329 0 328 1;#P hidden connect 157 0 181 0;#P hidden connect 182 0 331 0;#P hidden connect 376 0 179 0;#P hidden connect 179 0 178 0;#P hidden connect 174 0 166 0;#P hidden connect 166 0 167 0;#P hidden connect 167 0 182 0;#P hidden connect 356 0 315 0;#P hidden connect 356 0 314 0;#P hidden connect 356 0 310 0;#P hidden connect 332 0 331 1;#P hidden connect 179 0 178 1;#P hidden connect 165 0 168 0;#P hidden connect 168 0 170 0;#P hidden connect 170 0 169 0;#P hidden connect 169 0 167 1;#P hidden connect 208 0 182 1;#P hidden connect 331 0 376 0;#P hidden connect 181 0 180 1;#P hidden connect 362 0 376 1;#P hidden connect 247 0 251 0;#P hidden connect 251 0 250 0;#P hidden connect 232 0 243 0;#P hidden connect 243 0 242 0;#P hidden connect 242 0 240 0;#P hidden connect 240 0 238 0;#P hidden connect 238 0 239 0;#P hidden connect 239 0 241 0;#P hidden connect 253 0 244 0;#P hidden connect 244 0 232 1;#P hidden connect 252 0 251 1;#P hidden connect 249 0 246 0;#P hidden connect 246 0 245 0;#P hidden connect 241 0 233 0;#P hidden connect 233 0 234 0;#P hidden connect 234 0 249 0;#P hidden connect 246 0 245 1;#P hidden connect 232 0 235 0;#P hidden connect 235 0 237 0;#P hidden connect 237 0 236 0;#P hidden connect 236 0 234 1;#P hidden connect 250 0 249 1;#P hidden connect 358 0 356 0;#P hidden connect 253 0 248 0;#P hidden connect 248 0 247 1;#P hidden connect 232 0 384 0;#P hidden connect 384 0 383 0;#P hidden connect 383 0 381 0;#P hidden connect 381 0 379 0;#P hidden connect 379 0 380 0;#P hidden connect 380 0 382 0;#P hidden connect 359 0 358 0;#P hidden connect 385 0 395 0;#P hidden connect 395 0 394 0;#P hidden connect 378 0 385 0;#P hidden connect 382 0 378 0;#P hidden connect 395 0 394 1;#P hidden connect 386 0 385 1;#P hidden connect 261 0 263 0;#P hidden connect 393 0 387 0;#P hidden connect 248 0 378 1;#P hidden connect 265 0 264 0;#P hidden connect 276 0 263 1;#P hidden connect 387 0 386 0;#P hidden connect 265 0 266 0;#P hidden connect 264 0 263 2;#P hidden connect 308 0 309 0;#P hidden connect 266 0 263 3;#P hidden connect 312 0 307 0;#P hidden connect 309 0 307 0;#P hidden connect 388 0 386 2;#P hidden connect 265 0 267 0;#P hidden connect 267 0 263 4;#P hidden connect 389 0 388 0;#P hidden fasten 311 0 313 0 1124 447 1102 447;#P hidden fasten 316 0 313 0 1124 272 1102 272;#P hidden fasten 317 0 313 0 1124 122 1102 122;#P hidden fasten 315 0 317 0 1124 99;#P hidden connect 314 0 316 0;#P hidden connect 310 0 311 0;#P hidden connect 232 0 391 0;#P hidden connect 391 0 390 0;#P hidden connect 390 0 392 0;#P hidden connect 392 0 393 0;#P hidden connect 307 0 255 0;#P hidden connect 307 1 255 0;#P hidden connect 307 2 255 0;#P hidden connect 307 3 255 0;#P hidden connect 307 4 255 0;#P hidden connect 307 5 255 0;#P hidden connect 307 6 255 0;#P hidden connect 307 7 255 0;#P hidden connect 255 0 261 0;#P hidden connect 261 0 260 0;#P hidden connect 263 0 260 0;#P hidden connect 260 0 259 0;#P hidden connect 277 0 259 0;#P hidden connect 285 0 278 0;#P hidden connect 284 0 278 0;#P hidden connect 260 0 259 1;#P hidden connect 278 0 255 1;#P hidden connect 256 0 278 1;#P hidden connect 254 0 268 0;#P hidden connect 364 0 365 0;#P hidden connect 365 0 370 0;#P hidden connect 370 0 366 0;#P hidden connect 366 0 371 0;#P hidden connect 371 0 363 0;#P hidden connect 269 0 256 0;#P hidden connect 256 0 257 0;#P hidden connect 268 0 269 0;#P hidden connect 364 0 367 0;#P hidden connect 367 0 368 0;#P hidden connect 368 0 366 2;#P hidden connect 262 0 258 0;#P hidden connect 370 1 369 0;#P hidden connect 369 0 371 1;#P hidden connect 258 0 254 1;#P hidden connect 282 0 285 0;#P hidden connect 283 0 284 0;#P hidden connect 283 0 286 0;#P hidden connect 282 0 283 0;#P hidden connect 254 0 280 0;#P hidden connect 280 0 279 0;#P hidden connect 279 0 281 0;#P hidden connect 281 0 282 0;#P hidden connect 254 0 274 0;#P hidden connect 274 0 273 0;#P hidden connect 273 0 272 0;#P hidden connect 272 0 270 0;#P hidden connect 270 0 271 0;#P hidden connect 271 0 276 0;#P hidden connect 300 0 302 0;#P hidden connect 299 0 300 0;#P hidden connect 282 0 299 0;#P hidden connect 282 0 319 0;#P hidden connect 282 0 301 0;#P hidden connect 298 0 297 0;#P hidden connect 319 0 318 0;#P hidden connect 301 0 303 0;#P hidden connect 302 0 303 0;#P hidden connect 303 0 296 0;#P hidden connect 296 0 294 0;#P hidden connect 294 0 293 0;#P hidden connect 318 0 288 0;#P hidden connect 288 0 289 0;#P hidden connect 320 0 318 2;#P hidden connect 294 0 293 1;#P hidden connect 321 0 320 0;#P hidden connect 289 0 303 1;#P hidden connect 287 0 290 0;#P hidden connect 290 0 292 0;#P hidden connect 292 0 291 0;#P hidden connect 291 0 289 1;#P hidden connect 297 0 288 1;#P hidden connect 275 0 295 0;#P hidden connect 295 0 287 1;#P pop;