{
	"patcher" : 	{
		"rect" : [ 419.0, 44.0, 592.0, 407.0 ],
		"bgcolor" : [ 0.784314, 0.862745, 0.705882, 1.0 ],
		"bglocked" : 0,
		"defrect" : [ 419.0, 44.0, 592.0, 407.0 ],
		"openinpresentation" : 0,
		"default_fontsize" : 10.0,
		"default_fontface" : 0,
		"default_fontname" : "Arial",
		"gridonopen" : 0,
		"gridsize" : [ 15.0, 15.0 ],
		"gridsnaponopen" : 0,
		"toolbarvisible" : 1,
		"boxfadetime" : 200,
		"boxanimatetime" : 200,
		"scrollanimatetime" : 200,
		"metadata" : [  ],
		"boxes" : [ 			{
				"box" : 				{
					"maxclass" : "message",
					"text" : "fullscreen $1",
					"outlettype" : [ "" ],
					"fontsize" : 10.0,
					"patching_rect" : [ 13.0, 349.0, 76.0, 18.0 ],
					"fontname" : "Arial",
					"numinlets" : 2,
					"id" : "obj-30",
					"numoutlets" : 1
				}

			}
, 			{
				"box" : 				{
					"maxclass" : "toggle",
					"outlettype" : [ "int" ],
					"patching_rect" : [ 13.0, 327.0, 20.0, 20.0 ],
					"numinlets" : 1,
					"id" : "obj-29",
					"numoutlets" : 1
				}

			}
, 			{
				"box" : 				{
					"maxclass" : "newobj",
					"text" : "sel 27",
					"outlettype" : [ "bang", "" ],
					"fontsize" : 10.0,
					"patching_rect" : [ 13.0, 305.0, 41.0, 20.0 ],
					"fontname" : "Arial",
					"numinlets" : 2,
					"id" : "obj-28",
					"numoutlets" : 2
				}

			}
, 			{
				"box" : 				{
					"maxclass" : "newobj",
					"text" : "key",
					"outlettype" : [ "int", "int", "int" ],
					"fontsize" : 10.0,
					"patching_rect" : [ 13.0, 283.0, 46.0, 20.0 ],
					"fontname" : "Arial",
					"numinlets" : 0,
					"id" : "obj-27",
					"numoutlets" : 3
				}

			}
, 			{
				"box" : 				{
					"maxclass" : "newobj",
					"text" : "jit.window swirly @interp 1",
					"outlettype" : [ "bang", "" ],
					"fontsize" : 10.0,
					"patching_rect" : [ 13.0, 369.0, 147.0, 20.0 ],
					"fontname" : "Arial",
					"numinlets" : 1,
					"id" : "obj-26",
					"numoutlets" : 2
				}

			}
, 			{
				"box" : 				{
					"maxclass" : "newobj",
					"text" : "jit.rota @anchor_x 160 @anchor_y 120",
					"outlettype" : [ "jit_matrix", "" ],
					"fontsize" : 10.0,
					"patching_rect" : [ 162.0, 369.0, 213.0, 20.0 ],
					"fontname" : "Arial",
					"numinlets" : 1,
					"id" : "obj-25",
					"numoutlets" : 2
				}

			}
, 			{
				"box" : 				{
					"maxclass" : "newobj",
					"text" : "p rotate",
					"outlettype" : [ "" ],
					"fontsize" : 10.0,
					"patching_rect" : [ 288.0, 338.0, 50.0, 20.0 ],
					"fontname" : "Arial",
					"numinlets" : 1,
					"id" : "obj-24",
					"numoutlets" : 1,
					"patcher" : 					{
						"rect" : [ 587.0, 44.0, 282.0, 143.0 ],
						"bgcolor" : [ 1.0, 1.0, 1.0, 1.0 ],
						"bglocked" : 0,
						"defrect" : [ 587.0, 44.0, 282.0, 143.0 ],
						"openinpresentation" : 0,
						"default_fontsize" : 10.0,
						"default_fontface" : 0,
						"default_fontname" : "Arial",
						"gridonopen" : 0,
						"gridsize" : [ 15.0, 15.0 ],
						"gridsnaponopen" : 0,
						"toolbarvisible" : 1,
						"boxfadetime" : 200,
						"boxanimatetime" : 200,
						"scrollanimatetime" : 200,
						"metadata" : [  ],
						"boxes" : [ 							{
								"box" : 								{
									"maxclass" : "message",
									"text" : "theta $1",
									"outlettype" : [ "" ],
									"fontsize" : 10.0,
									"patching_rect" : [ 10.0, 85.0, 52.0, 18.0 ],
									"fontname" : "Arial",
									"numinlets" : 2,
									"id" : "obj-8",
									"numoutlets" : 1
								}

							}
, 							{
								"box" : 								{
									"maxclass" : "message",
									"text" : "anchor_x $1, anchor_y $2",
									"outlettype" : [ "" ],
									"fontsize" : 10.0,
									"patching_rect" : [ 128.0, 85.0, 145.0, 18.0 ],
									"fontname" : "Arial",
									"numinlets" : 2,
									"id" : "obj-7",
									"numoutlets" : 1
								}

							}
, 							{
								"box" : 								{
									"maxclass" : "newobj",
									"text" : "pak 1 1",
									"outlettype" : [ "" ],
									"fontsize" : 10.0,
									"patching_rect" : [ 128.0, 63.0, 93.0, 20.0 ],
									"fontname" : "Arial",
									"numinlets" : 2,
									"id" : "obj-6",
									"numoutlets" : 1
								}

							}
, 							{
								"box" : 								{
									"maxclass" : "newobj",
									"text" : "random 240",
									"outlettype" : [ "int" ],
									"fontsize" : 10.0,
									"patching_rect" : [ 202.0, 41.0, 72.0, 20.0 ],
									"fontname" : "Arial",
									"numinlets" : 2,
									"id" : "obj-5",
									"numoutlets" : 1
								}

							}
, 							{
								"box" : 								{
									"maxclass" : "newobj",
									"text" : "random 320",
									"outlettype" : [ "int" ],
									"fontsize" : 10.0,
									"patching_rect" : [ 128.0, 41.0, 72.0, 20.0 ],
									"fontname" : "Arial",
									"numinlets" : 2,
									"id" : "obj-4",
									"numoutlets" : 1
								}

							}
, 							{
								"box" : 								{
									"maxclass" : "newobj",
									"text" : "expr ($i1-50)*0.0003",
									"outlettype" : [ "" ],
									"fontsize" : 10.0,
									"patching_rect" : [ 10.0, 63.0, 116.0, 20.0 ],
									"fontname" : "Arial",
									"numinlets" : 1,
									"id" : "obj-3",
									"numoutlets" : 1
								}

							}
, 							{
								"box" : 								{
									"maxclass" : "newobj",
									"text" : "random 100",
									"outlettype" : [ "int" ],
									"fontsize" : 10.0,
									"patching_rect" : [ 10.0, 41.0, 72.0, 20.0 ],
									"fontname" : "Arial",
									"numinlets" : 2,
									"id" : "obj-2",
									"numoutlets" : 1
								}

							}
, 							{
								"box" : 								{
									"maxclass" : "outlet",
									"patching_rect" : [ 10.0, 109.0, 25.0, 25.0 ],
									"numinlets" : 1,
									"id" : "obj-17",
									"numoutlets" : 0,
									"comment" : ""
								}

							}
, 							{
								"box" : 								{
									"maxclass" : "inlet",
									"outlettype" : [ "bang" ],
									"patching_rect" : [ 10.0, 8.0, 25.0, 25.0 ],
									"numinlets" : 0,
									"id" : "obj-1",
									"numoutlets" : 1,
									"comment" : ""
								}

							}
 ],
						"lines" : [ 							{
								"patchline" : 								{
									"source" : [ "obj-1", 0 ],
									"destination" : [ "obj-2", 0 ],
									"hidden" : 0
								}

							}
, 							{
								"patchline" : 								{
									"source" : [ "obj-2", 0 ],
									"destination" : [ "obj-3", 0 ],
									"hidden" : 0
								}

							}
, 							{
								"patchline" : 								{
									"source" : [ "obj-3", 0 ],
									"destination" : [ "obj-8", 0 ],
									"hidden" : 0
								}

							}
, 							{
								"patchline" : 								{
									"source" : [ "obj-1", 0 ],
									"destination" : [ "obj-4", 0 ],
									"hidden" : 0,
									"midpoints" : [ 19.5, 36.0, 137.5, 36.0 ]
								}

							}
, 							{
								"patchline" : 								{
									"source" : [ "obj-1", 0 ],
									"destination" : [ "obj-5", 0 ],
									"hidden" : 0,
									"midpoints" : [ 19.5, 39.0, 211.5, 39.0 ]
								}

							}
, 							{
								"patchline" : 								{
									"source" : [ "obj-4", 0 ],
									"destination" : [ "obj-6", 0 ],
									"hidden" : 0
								}

							}
, 							{
								"patchline" : 								{
									"source" : [ "obj-6", 0 ],
									"destination" : [ "obj-7", 0 ],
									"hidden" : 0
								}

							}
, 							{
								"patchline" : 								{
									"source" : [ "obj-8", 0 ],
									"destination" : [ "obj-17", 0 ],
									"hidden" : 0
								}

							}
, 							{
								"patchline" : 								{
									"source" : [ "obj-5", 0 ],
									"destination" : [ "obj-6", 1 ],
									"hidden" : 0
								}

							}
, 							{
								"patchline" : 								{
									"source" : [ "obj-7", 0 ],
									"destination" : [ "obj-17", 0 ],
									"hidden" : 0,
									"midpoints" : [ 137.5, 106.0, 19.5, 106.0 ]
								}

							}
 ]
					}
,
					"saved_object_attributes" : 					{
						"default_fontface" : 0,
						"default_fontname" : "Arial",
						"fontsize" : 10.0,
						"fontname" : "Arial",
						"globalpatchername" : "",
						"fontface" : 0,
						"default_fontsize" : 10.0
					}

				}

			}
, 			{
				"box" : 				{
					"maxclass" : "message",
					"text" : "clear",
					"outlettype" : [ "" ],
					"fontsize" : 10.0,
					"patching_rect" : [ 122.0, 284.0, 34.0, 18.0 ],
					"fontname" : "Arial",
					"numinlets" : 2,
					"id" : "obj-23",
					"numoutlets" : 1
				}

			}
, 			{
				"box" : 				{
					"maxclass" : "newobj",
					"text" : "jit.lumakey @lum 0.16 @tol 0.1 @minkey 0. @maxkey 1. @fade 0.4",
					"outlettype" : [ "jit_matrix", "" ],
					"fontsize" : 10.0,
					"patching_rect" : [ 162.0, 307.0, 361.0, 20.0 ],
					"fontname" : "Arial",
					"numinlets" : 2,
					"id" : "obj-22",
					"numoutlets" : 2
				}

			}
, 			{
				"box" : 				{
					"maxclass" : "newobj",
					"text" : "jit.matrix 4 char 320 240",
					"outlettype" : [ "jit_matrix", "" ],
					"fontsize" : 10.0,
					"patching_rect" : [ 162.0, 283.0, 134.0, 20.0 ],
					"fontname" : "Arial",
					"numinlets" : 1,
					"id" : "obj-21",
					"numoutlets" : 2
				}

			}
, 			{
				"box" : 				{
					"maxclass" : "newobj",
					"text" : "jit.graph @mode 1",
					"outlettype" : [ "jit_matrix", "" ],
					"fontsize" : 10.0,
					"patching_rect" : [ 162.0, 259.0, 105.0, 20.0 ],
					"fontname" : "Arial",
					"numinlets" : 1,
					"id" : "obj-20",
					"numoutlets" : 2
				}

			}
, 			{
				"box" : 				{
					"maxclass" : "newobj",
					"text" : "bgcolor 200 220 180",
					"fontsize" : 10.0,
					"patching_rect" : [ 390.0, 7.0, 116.0, 20.0 ],
					"hidden" : 1,
					"fontname" : "Arial",
					"numinlets" : 4,
					"id" : "obj-19",
					"numoutlets" : 0
				}

			}
, 			{
				"box" : 				{
					"maxclass" : "newobj",
					"text" : "p colors",
					"outlettype" : [ "" ],
					"fontsize" : 10.0,
					"patching_rect" : [ 288.0, 229.0, 51.0, 20.0 ],
					"fontname" : "Arial",
					"numinlets" : 1,
					"id" : "obj-18",
					"numoutlets" : 1,
					"patcher" : 					{
						"rect" : [ 642.0, 44.0, 307.0, 232.0 ],
						"bgcolor" : [ 1.0, 1.0, 1.0, 1.0 ],
						"bglocked" : 0,
						"defrect" : [ 642.0, 44.0, 307.0, 232.0 ],
						"openinpresentation" : 0,
						"default_fontsize" : 10.0,
						"default_fontface" : 0,
						"default_fontname" : "Arial",
						"gridonopen" : 0,
						"gridsize" : [ 15.0, 15.0 ],
						"gridsnaponopen" : 0,
						"toolbarvisible" : 1,
						"boxfadetime" : 200,
						"boxanimatetime" : 200,
						"scrollanimatetime" : 200,
						"metadata" : [  ],
						"boxes" : [ 							{
								"box" : 								{
									"maxclass" : "outlet",
									"patching_rect" : [ 9.0, 197.0, 25.0, 25.0 ],
									"numinlets" : 1,
									"id" : "obj-17",
									"numoutlets" : 0,
									"comment" : ""
								}

							}
, 							{
								"box" : 								{
									"maxclass" : "newobj",
									"text" : "prepend frgb",
									"outlettype" : [ "" ],
									"fontsize" : 10.0,
									"patching_rect" : [ 9.0, 174.0, 76.0, 20.0 ],
									"fontname" : "Arial",
									"numinlets" : 1,
									"id" : "obj-16",
									"numoutlets" : 1
								}

							}
, 							{
								"box" : 								{
									"maxclass" : "flonum",
									"outlettype" : [ "float", "bang" ],
									"fontsize" : 10.0,
									"patching_rect" : [ 228.0, 128.0, 50.0, 20.0 ],
									"fontname" : "Arial",
									"numinlets" : 1,
									"id" : "obj-12",
									"numoutlets" : 2
								}

							}
, 							{
								"box" : 								{
									"maxclass" : "newobj",
									"text" : "line 0.",
									"outlettype" : [ "", "", "" ],
									"fontsize" : 10.0,
									"patching_rect" : [ 228.0, 105.0, 46.0, 20.0 ],
									"fontname" : "Arial",
									"numinlets" : 3,
									"id" : "obj-13",
									"numoutlets" : 3
								}

							}
, 							{
								"box" : 								{
									"maxclass" : "message",
									"text" : "$1 500",
									"outlettype" : [ "" ],
									"fontsize" : 10.0,
									"patching_rect" : [ 228.0, 84.0, 46.0, 18.0 ],
									"fontname" : "Arial",
									"numinlets" : 2,
									"id" : "obj-14",
									"numoutlets" : 1
								}

							}
, 							{
								"box" : 								{
									"maxclass" : "newobj",
									"text" : "random 256",
									"outlettype" : [ "int" ],
									"fontsize" : 10.0,
									"patching_rect" : [ 228.0, 61.0, 72.0, 20.0 ],
									"fontname" : "Arial",
									"numinlets" : 2,
									"id" : "obj-15",
									"numoutlets" : 1
								}

							}
, 							{
								"box" : 								{
									"maxclass" : "flonum",
									"outlettype" : [ "float", "bang" ],
									"fontsize" : 10.0,
									"patching_rect" : [ 155.0, 128.0, 50.0, 20.0 ],
									"fontname" : "Arial",
									"numinlets" : 1,
									"id" : "obj-8",
									"numoutlets" : 2
								}

							}
, 							{
								"box" : 								{
									"maxclass" : "newobj",
									"text" : "line 0.",
									"outlettype" : [ "", "", "" ],
									"fontsize" : 10.0,
									"patching_rect" : [ 155.0, 105.0, 46.0, 20.0 ],
									"fontname" : "Arial",
									"numinlets" : 3,
									"id" : "obj-9",
									"numoutlets" : 3
								}

							}
, 							{
								"box" : 								{
									"maxclass" : "message",
									"text" : "$1 500",
									"outlettype" : [ "" ],
									"fontsize" : 10.0,
									"patching_rect" : [ 155.0, 84.0, 46.0, 18.0 ],
									"fontname" : "Arial",
									"numinlets" : 2,
									"id" : "obj-10",
									"numoutlets" : 1
								}

							}
, 							{
								"box" : 								{
									"maxclass" : "newobj",
									"text" : "random 256",
									"outlettype" : [ "int" ],
									"fontsize" : 10.0,
									"patching_rect" : [ 155.0, 61.0, 72.0, 20.0 ],
									"fontname" : "Arial",
									"numinlets" : 2,
									"id" : "obj-11",
									"numoutlets" : 1
								}

							}
, 							{
								"box" : 								{
									"maxclass" : "newobj",
									"text" : "pak 255 255 255 255",
									"outlettype" : [ "" ],
									"fontsize" : 10.0,
									"patching_rect" : [ 9.0, 151.0, 238.0, 20.0 ],
									"fontname" : "Arial",
									"numinlets" : 4,
									"id" : "obj-7",
									"numoutlets" : 1
								}

							}
, 							{
								"box" : 								{
									"maxclass" : "flonum",
									"outlettype" : [ "float", "bang" ],
									"fontsize" : 10.0,
									"patching_rect" : [ 82.0, 128.0, 50.0, 20.0 ],
									"fontname" : "Arial",
									"numinlets" : 1,
									"id" : "obj-6",
									"numoutlets" : 2
								}

							}
, 							{
								"box" : 								{
									"maxclass" : "newobj",
									"text" : "line 0.",
									"outlettype" : [ "", "", "" ],
									"fontsize" : 10.0,
									"patching_rect" : [ 82.0, 105.0, 46.0, 20.0 ],
									"fontname" : "Arial",
									"numinlets" : 3,
									"id" : "obj-5",
									"numoutlets" : 3
								}

							}
, 							{
								"box" : 								{
									"maxclass" : "message",
									"text" : "$1 500",
									"outlettype" : [ "" ],
									"fontsize" : 10.0,
									"patching_rect" : [ 82.0, 84.0, 46.0, 18.0 ],
									"fontname" : "Arial",
									"numinlets" : 2,
									"id" : "obj-4",
									"numoutlets" : 1
								}

							}
, 							{
								"box" : 								{
									"maxclass" : "newobj",
									"text" : "random 256",
									"outlettype" : [ "int" ],
									"fontsize" : 10.0,
									"patching_rect" : [ 82.0, 61.0, 72.0, 20.0 ],
									"fontname" : "Arial",
									"numinlets" : 2,
									"id" : "obj-3",
									"numoutlets" : 1
								}

							}
, 							{
								"box" : 								{
									"maxclass" : "newobj",
									"text" : "t b b b",
									"outlettype" : [ "bang", "bang", "bang" ],
									"fontsize" : 10.0,
									"patching_rect" : [ 82.0, 37.0, 165.0, 20.0 ],
									"fontname" : "Arial",
									"numinlets" : 1,
									"id" : "obj-2",
									"numoutlets" : 3
								}

							}
, 							{
								"box" : 								{
									"maxclass" : "inlet",
									"outlettype" : [ "bang" ],
									"patching_rect" : [ 82.0, 9.0, 25.0, 25.0 ],
									"numinlets" : 0,
									"id" : "obj-1",
									"numoutlets" : 1,
									"comment" : ""
								}

							}
 ],
						"lines" : [ 							{
								"patchline" : 								{
									"source" : [ "obj-5", 0 ],
									"destination" : [ "obj-6", 0 ],
									"hidden" : 0
								}

							}
, 							{
								"patchline" : 								{
									"source" : [ "obj-6", 0 ],
									"destination" : [ "obj-7", 1 ],
									"hidden" : 0
								}

							}
, 							{
								"patchline" : 								{
									"source" : [ "obj-4", 0 ],
									"destination" : [ "obj-5", 0 ],
									"hidden" : 0
								}

							}
, 							{
								"patchline" : 								{
									"source" : [ "obj-3", 0 ],
									"destination" : [ "obj-4", 0 ],
									"hidden" : 0
								}

							}
, 							{
								"patchline" : 								{
									"source" : [ "obj-11", 0 ],
									"destination" : [ "obj-10", 0 ],
									"hidden" : 0
								}

							}
, 							{
								"patchline" : 								{
									"source" : [ "obj-10", 0 ],
									"destination" : [ "obj-9", 0 ],
									"hidden" : 0
								}

							}
, 							{
								"patchline" : 								{
									"source" : [ "obj-9", 0 ],
									"destination" : [ "obj-8", 0 ],
									"hidden" : 0
								}

							}
, 							{
								"patchline" : 								{
									"source" : [ "obj-8", 0 ],
									"destination" : [ "obj-7", 2 ],
									"hidden" : 0
								}

							}
, 							{
								"patchline" : 								{
									"source" : [ "obj-13", 0 ],
									"destination" : [ "obj-12", 0 ],
									"hidden" : 0
								}

							}
, 							{
								"patchline" : 								{
									"source" : [ "obj-14", 0 ],
									"destination" : [ "obj-13", 0 ],
									"hidden" : 0
								}

							}
, 							{
								"patchline" : 								{
									"source" : [ "obj-15", 0 ],
									"destination" : [ "obj-14", 0 ],
									"hidden" : 0
								}

							}
, 							{
								"patchline" : 								{
									"source" : [ "obj-12", 0 ],
									"destination" : [ "obj-7", 3 ],
									"hidden" : 0
								}

							}
, 							{
								"patchline" : 								{
									"source" : [ "obj-16", 0 ],
									"destination" : [ "obj-17", 0 ],
									"hidden" : 0
								}

							}
, 							{
								"patchline" : 								{
									"source" : [ "obj-7", 0 ],
									"destination" : [ "obj-16", 0 ],
									"hidden" : 0
								}

							}
, 							{
								"patchline" : 								{
									"source" : [ "obj-2", 0 ],
									"destination" : [ "obj-3", 0 ],
									"hidden" : 0
								}

							}
, 							{
								"patchline" : 								{
									"source" : [ "obj-2", 1 ],
									"destination" : [ "obj-11", 0 ],
									"hidden" : 0
								}

							}
, 							{
								"patchline" : 								{
									"source" : [ "obj-2", 2 ],
									"destination" : [ "obj-15", 0 ],
									"hidden" : 0
								}

							}
, 							{
								"patchline" : 								{
									"source" : [ "obj-1", 0 ],
									"destination" : [ "obj-2", 0 ],
									"hidden" : 0
								}

							}
 ]
					}
,
					"saved_object_attributes" : 					{
						"default_fontface" : 0,
						"default_fontname" : "Arial",
						"fontsize" : 10.0,
						"fontname" : "Arial",
						"globalpatchername" : "",
						"fontface" : 0,
						"default_fontsize" : 10.0
					}

				}

			}
, 			{
				"box" : 				{
					"maxclass" : "newobj",
					"text" : "metro 500",
					"outlettype" : [ "bang" ],
					"fontsize" : 10.0,
					"patching_rect" : [ 518.0, 157.0, 63.0, 20.0 ],
					"fontname" : "Arial",
					"numinlets" : 2,
					"id" : "obj-17",
					"numoutlets" : 1
				}

			}
, 			{
				"box" : 				{
					"maxclass" : "newobj",
					"text" : "jit.catch~ @mode 2 @downsample 16",
					"outlettype" : [ "jit_matrix", "" ],
					"fontsize" : 10.0,
					"patching_rect" : [ 162.0, 199.0, 207.0, 20.0 ],
					"fontname" : "Arial",
					"numinlets" : 1,
					"id" : "obj-16",
					"numoutlets" : 2
				}

			}
, 			{
				"box" : 				{
					"maxclass" : "message",
					"text" : "framesize $1",
					"outlettype" : [ "" ],
					"fontsize" : 10.0,
					"patching_rect" : [ 186.0, 172.0, 77.0, 18.0 ],
					"fontname" : "Arial",
					"numinlets" : 2,
					"id" : "obj-15",
					"numoutlets" : 1
				}

			}
, 			{
				"box" : 				{
					"maxclass" : "number",
					"outlettype" : [ "int", "bang" ],
					"fontsize" : 10.0,
					"patching_rect" : [ 186.0, 150.0, 50.0, 20.0 ],
					"fontname" : "Arial",
					"numinlets" : 1,
					"id" : "obj-14",
					"numoutlets" : 2
				}

			}
, 			{
				"box" : 				{
					"maxclass" : "ezdac~",
					"patching_rect" : [ 49.0, 116.0, 45.0, 45.0 ],
					"numinlets" : 2,
					"id" : "obj-13",
					"numoutlets" : 0
				}

			}
, 			{
				"box" : 				{
					"maxclass" : "newobj",
					"text" : "metro 5",
					"outlettype" : [ "bang" ],
					"fontsize" : 10.0,
					"patching_rect" : [ 115.0, 122.0, 50.0, 20.0 ],
					"fontname" : "Arial",
					"numinlets" : 2,
					"id" : "obj-12",
					"numoutlets" : 1
				}

			}
, 			{
				"box" : 				{
					"maxclass" : "comment",
					"text" : "Using Jitter audio --> matrix features to generate psychedelic visuals.",
					"linecount" : 2,
					"fontsize" : 10.0,
					"patching_rect" : [ 308.0, 56.0, 199.0, 33.0 ],
					"fontname" : "Arial",
					"numinlets" : 1,
					"id" : "obj-11",
					"numoutlets" : 0
				}

			}
, 			{
				"box" : 				{
					"maxclass" : "newobj",
					"text" : "*~ 0.2",
					"outlettype" : [ "signal" ],
					"fontsize" : 10.0,
					"patching_rect" : [ 162.0, 76.0, 41.0, 20.0 ],
					"fontname" : "Arial",
					"numinlets" : 2,
					"id" : "obj-10",
					"numoutlets" : 1
				}

			}
, 			{
				"box" : 				{
					"maxclass" : "flonum",
					"outlettype" : [ "float", "bang" ],
					"fontsize" : 10.0,
					"patching_rect" : [ 227.0, 56.0, 50.0, 20.0 ],
					"fontname" : "Arial",
					"numinlets" : 1,
					"id" : "obj-9",
					"numoutlets" : 2
				}

			}
, 			{
				"box" : 				{
					"maxclass" : "newobj",
					"text" : "sfplay~",
					"outlettype" : [ "signal", "bang" ],
					"fontsize" : 10.0,
					"patching_rect" : [ 162.0, 48.0, 48.0, 20.0 ],
					"fontname" : "Arial",
					"numinlets" : 2,
					"id" : "obj-8",
					"numoutlets" : 2,
					"save" : [ "#N", "sfplay~", "", 1, 120960, 0, "", ";" ]
				}

			}
, 			{
				"box" : 				{
					"maxclass" : "message",
					"text" : "loop 1",
					"outlettype" : [ "" ],
					"fontsize" : 10.0,
					"patching_rect" : [ 224.0, 17.0, 42.0, 18.0 ],
					"fontname" : "Arial",
					"numinlets" : 2,
					"id" : "obj-7",
					"numoutlets" : 1
				}

			}
, 			{
				"box" : 				{
					"maxclass" : "message",
					"text" : "open",
					"outlettype" : [ "" ],
					"fontsize" : 10.0,
					"patching_rect" : [ 185.0, 17.0, 36.0, 18.0 ],
					"fontname" : "Arial",
					"numinlets" : 2,
					"id" : "obj-6",
					"numoutlets" : 1
				}

			}
, 			{
				"box" : 				{
					"maxclass" : "toggle",
					"outlettype" : [ "int" ],
					"patching_rect" : [ 162.0, 16.0, 20.0, 20.0 ],
					"numinlets" : 1,
					"id" : "obj-5",
					"numoutlets" : 1
				}

			}
, 			{
				"box" : 				{
					"maxclass" : "toggle",
					"outlettype" : [ "int" ],
					"patching_rect" : [ 115.0, 16.0, 20.0, 20.0 ],
					"numinlets" : 1,
					"id" : "obj-4",
					"numoutlets" : 1
				}

			}
, 			{
				"box" : 				{
					"maxclass" : "comment",
					"text" : "Shifty",
					"fontsize" : 20.0,
					"patching_rect" : [ 317.0, 4.0, 68.0, 33.0 ],
					"fontname" : "Arial",
					"numinlets" : 1,
					"id" : "obj-3",
					"numoutlets" : 0
				}

			}
, 			{
				"box" : 				{
					"maxclass" : "comment",
					"text" : "andrewb@cycling74.com",
					"fontsize" : 10.0,
					"patching_rect" : [ 317.0, 33.0, 138.0, 20.0 ],
					"fontname" : "Arial",
					"numinlets" : 1,
					"id" : "obj-2",
					"numoutlets" : 0
				}

			}
, 			{
				"box" : 				{
					"maxclass" : "comment",
					"text" : "start rendering",
					"fontsize" : 10.0,
					"patching_rect" : [ 33.0, 15.0, 84.0, 20.0 ],
					"fontname" : "Arial",
					"numinlets" : 1,
					"id" : "obj-1",
					"numoutlets" : 0
				}

			}
 ],
		"lines" : [ 			{
				"patchline" : 				{
					"source" : [ "obj-5", 0 ],
					"destination" : [ "obj-8", 0 ],
					"hidden" : 0
				}

			}
, 			{
				"patchline" : 				{
					"source" : [ "obj-6", 0 ],
					"destination" : [ "obj-8", 0 ],
					"hidden" : 0
				}

			}
, 			{
				"patchline" : 				{
					"source" : [ "obj-7", 0 ],
					"destination" : [ "obj-8", 0 ],
					"hidden" : 0
				}

			}
, 			{
				"patchline" : 				{
					"source" : [ "obj-8", 0 ],
					"destination" : [ "obj-10", 0 ],
					"hidden" : 0
				}

			}
, 			{
				"patchline" : 				{
					"source" : [ "obj-9", 0 ],
					"destination" : [ "obj-10", 1 ],
					"hidden" : 0
				}

			}
, 			{
				"patchline" : 				{
					"source" : [ "obj-4", 0 ],
					"destination" : [ "obj-12", 0 ],
					"hidden" : 0
				}

			}
, 			{
				"patchline" : 				{
					"source" : [ "obj-10", 0 ],
					"destination" : [ "obj-13", 0 ],
					"hidden" : 0,
					"midpoints" : [ 171.5, 107.0, 58.5, 107.0 ]
				}

			}
, 			{
				"patchline" : 				{
					"source" : [ "obj-10", 0 ],
					"destination" : [ "obj-13", 1 ],
					"hidden" : 0,
					"midpoints" : [ 171.5, 102.0, 84.5, 102.0 ]
				}

			}
, 			{
				"patchline" : 				{
					"source" : [ "obj-4", 0 ],
					"destination" : [ "obj-13", 0 ],
					"hidden" : 0,
					"midpoints" : [ 124.5, 111.0, 58.5, 111.0 ]
				}

			}
, 			{
				"patchline" : 				{
					"source" : [ "obj-14", 0 ],
					"destination" : [ "obj-15", 0 ],
					"hidden" : 0
				}

			}
, 			{
				"patchline" : 				{
					"source" : [ "obj-15", 0 ],
					"destination" : [ "obj-16", 0 ],
					"hidden" : 0,
					"midpoints" : [ 195.5, 195.0, 171.5, 195.0 ]
				}

			}
, 			{
				"patchline" : 				{
					"source" : [ "obj-10", 0 ],
					"destination" : [ "obj-16", 0 ],
					"hidden" : 0
				}

			}
, 			{
				"patchline" : 				{
					"source" : [ "obj-4", 0 ],
					"destination" : [ "obj-17", 0 ],
					"hidden" : 0,
					"midpoints" : [ 124.5, 98.0, 527.5, 98.0 ]
				}

			}
, 			{
				"patchline" : 				{
					"source" : [ "obj-17", 0 ],
					"destination" : [ "obj-18", 0 ],
					"hidden" : 0,
					"midpoints" : [ 527.5, 225.0, 297.5, 225.0 ]
				}

			}
, 			{
				"patchline" : 				{
					"source" : [ "obj-16", 0 ],
					"destination" : [ "obj-20", 0 ],
					"hidden" : 0
				}

			}
, 			{
				"patchline" : 				{
					"source" : [ "obj-18", 0 ],
					"destination" : [ "obj-20", 0 ],
					"hidden" : 0,
					"midpoints" : [ 297.5, 253.0, 171.5, 253.0 ]
				}

			}
, 			{
				"patchline" : 				{
					"source" : [ "obj-20", 0 ],
					"destination" : [ "obj-21", 0 ],
					"hidden" : 0
				}

			}
, 			{
				"patchline" : 				{
					"source" : [ "obj-21", 0 ],
					"destination" : [ "obj-22", 0 ],
					"hidden" : 0
				}

			}
, 			{
				"patchline" : 				{
					"source" : [ "obj-23", 0 ],
					"destination" : [ "obj-22", 0 ],
					"hidden" : 0,
					"midpoints" : [ 131.5, 305.0, 171.5, 305.0 ]
				}

			}
, 			{
				"patchline" : 				{
					"source" : [ "obj-17", 0 ],
					"destination" : [ "obj-24", 0 ],
					"hidden" : 0,
					"midpoints" : [ 527.5, 334.0, 297.5, 334.0 ]
				}

			}
, 			{
				"patchline" : 				{
					"source" : [ "obj-24", 0 ],
					"destination" : [ "obj-25", 0 ],
					"hidden" : 0,
					"midpoints" : [ 297.5, 362.0, 171.5, 362.0 ]
				}

			}
, 			{
				"patchline" : 				{
					"source" : [ "obj-22", 0 ],
					"destination" : [ "obj-25", 0 ],
					"hidden" : 0
				}

			}
, 			{
				"patchline" : 				{
					"source" : [ "obj-27", 0 ],
					"destination" : [ "obj-28", 0 ],
					"hidden" : 0
				}

			}
, 			{
				"patchline" : 				{
					"source" : [ "obj-28", 0 ],
					"destination" : [ "obj-29", 0 ],
					"hidden" : 0
				}

			}
, 			{
				"patchline" : 				{
					"source" : [ "obj-29", 0 ],
					"destination" : [ "obj-30", 0 ],
					"hidden" : 0
				}

			}
, 			{
				"patchline" : 				{
					"source" : [ "obj-30", 0 ],
					"destination" : [ "obj-26", 0 ],
					"hidden" : 0
				}

			}
, 			{
				"patchline" : 				{
					"source" : [ "obj-22", 0 ],
					"destination" : [ "obj-26", 0 ],
					"hidden" : 0
				}

			}
, 			{
				"patchline" : 				{
					"source" : [ "obj-12", 0 ],
					"destination" : [ "obj-16", 0 ],
					"hidden" : 0,
					"midpoints" : [ 124.5, 159.0, 171.5, 159.0 ]
				}

			}
, 			{
				"patchline" : 				{
					"source" : [ "obj-25", 0 ],
					"destination" : [ "obj-22", 1 ],
					"hidden" : 0,
					"midpoints" : [ 171.5, 393.0, 535.0, 393.0, 535.0, 303.0, 513.5, 303.0 ]
				}

			}
 ]
	}

}
