{
	"patcher" : 	{
		"rect" : [ 100.0, 44.0, 908.0, 503.0 ],
		"bgcolor" : [ 1.0, 1.0, 1.0, 1.0 ],
		"bglocked" : 0,
		"defrect" : [ 100.0, 44.0, 908.0, 503.0 ],
		"openinpresentation" : 0,
		"default_fontsize" : 10.0,
		"default_fontface" : 0,
		"default_fontname" : "Arial",
		"gridonopen" : 0,
		"gridsize" : [ 15.0, 15.0 ],
		"gridsnaponopen" : 0,
		"toolbarvisible" : 1,
		"boxfadetime" : 200,
		"boxanimatetime" : 200,
		"scrollanimatetime" : 200,
		"metadata" : [  ],
		"boxes" : [ 			{
				"box" : 				{
					"maxclass" : "comment",
					"text" : "• start\/stop audio.",
					"patching_rect" : [ 306.0, 115.0, 102.0, 20.0 ],
					"fontsize" : 10.0,
					"fontname" : "Arial",
					"numinlets" : 1,
					"id" : "obj-57",
					"numoutlets" : 0
				}

			}
, 			{
				"box" : 				{
					"maxclass" : "newobj",
					"text" : "dac~",
					"patching_rect" : [ 304.0, 156.0, 36.0, 20.0 ],
					"fontsize" : 10.0,
					"fontname" : "Arial",
					"numinlets" : 2,
					"id" : "obj-56",
					"numoutlets" : 0
				}

			}
, 			{
				"box" : 				{
					"maxclass" : "message",
					"text" : "stop",
					"patching_rect" : [ 377.0, 134.0, 32.5, 18.0 ],
					"fontsize" : 10.0,
					"fontname" : "Arial",
					"numinlets" : 2,
					"id" : "obj-55",
					"numoutlets" : 1,
					"outlettype" : [ "" ]
				}

			}
, 			{
				"box" : 				{
					"maxclass" : "message",
					"text" : "startwindow",
					"patching_rect" : [ 304.0, 134.0, 72.0, 18.0 ],
					"fontsize" : 10.0,
					"fontname" : "Arial",
					"numinlets" : 2,
					"id" : "obj-54",
					"numoutlets" : 1,
					"outlettype" : [ "" ]
				}

			}
, 			{
				"box" : 				{
					"maxclass" : "flonum",
					"patching_rect" : [ 837.0, 192.0, 50.0, 20.0 ],
					"fontsize" : 10.0,
					"fontname" : "Arial",
					"numinlets" : 1,
					"id" : "obj-53",
					"numoutlets" : 2,
					"outlettype" : [ "float", "bang" ]
				}

			}
, 			{
				"box" : 				{
					"maxclass" : "flonum",
					"patching_rect" : [ 837.0, 143.0, 50.0, 20.0 ],
					"fontsize" : 10.0,
					"fontname" : "Arial",
					"numinlets" : 1,
					"id" : "obj-52",
					"numoutlets" : 2,
					"outlettype" : [ "float", "bang" ]
				}

			}
, 			{
				"box" : 				{
					"maxclass" : "comment",
					"text" : "draw y offset",
					"patching_rect" : [ 824.0, 175.0, 76.0, 20.0 ],
					"fontsize" : 10.0,
					"fontname" : "Arial",
					"numinlets" : 1,
					"id" : "obj-51",
					"numoutlets" : 0
				}

			}
, 			{
				"box" : 				{
					"maxclass" : "comment",
					"text" : "draw y range",
					"patching_rect" : [ 824.0, 126.0, 76.0, 20.0 ],
					"fontsize" : 10.0,
					"fontname" : "Arial",
					"numinlets" : 1,
					"id" : "obj-50",
					"numoutlets" : 0
				}

			}
, 			{
				"box" : 				{
					"maxclass" : "comment",
					"text" : "draw x offset",
					"patching_rect" : [ 784.0, 67.0, 76.0, 20.0 ],
					"fontsize" : 10.0,
					"fontname" : "Arial",
					"numinlets" : 1,
					"id" : "obj-48",
					"numoutlets" : 0
				}

			}
, 			{
				"box" : 				{
					"maxclass" : "number",
					"patching_rect" : [ 797.0, 85.0, 50.0, 20.0 ],
					"fontsize" : 10.0,
					"fontname" : "Arial",
					"numinlets" : 1,
					"id" : "obj-49",
					"numoutlets" : 2,
					"outlettype" : [ "int", "bang" ]
				}

			}
, 			{
				"box" : 				{
					"maxclass" : "comment",
					"text" : "draw x range",
					"patching_rect" : [ 827.0, 8.0, 76.0, 20.0 ],
					"fontsize" : 10.0,
					"fontname" : "Arial",
					"numinlets" : 1,
					"id" : "obj-47",
					"numoutlets" : 0
				}

			}
, 			{
				"box" : 				{
					"maxclass" : "number",
					"patching_rect" : [ 840.0, 26.0, 50.0, 20.0 ],
					"fontsize" : 10.0,
					"fontname" : "Arial",
					"numinlets" : 1,
					"id" : "obj-46",
					"numoutlets" : 2,
					"outlettype" : [ "int", "bang" ]
				}

			}
, 			{
				"box" : 				{
					"maxclass" : "newobj",
					"text" : "+~ 120.",
					"patching_rect" : [ 778.0, 214.0, 50.0, 20.0 ],
					"fontsize" : 10.0,
					"fontname" : "Arial",
					"numinlets" : 2,
					"id" : "obj-45",
					"numoutlets" : 1,
					"outlettype" : [ "signal" ]
				}

			}
, 			{
				"box" : 				{
					"maxclass" : "newobj",
					"text" : "*~ 120.",
					"patching_rect" : [ 778.0, 165.0, 48.0, 20.0 ],
					"fontsize" : 10.0,
					"fontname" : "Arial",
					"numinlets" : 2,
					"id" : "obj-44",
					"numoutlets" : 1,
					"outlettype" : [ "signal" ]
				}

			}
, 			{
				"box" : 				{
					"maxclass" : "newobj",
					"text" : "adc~",
					"patching_rect" : [ 778.0, 136.0, 36.0, 20.0 ],
					"fontsize" : 10.0,
					"fontname" : "Arial",
					"numinlets" : 1,
					"id" : "obj-43",
					"numoutlets" : 2,
					"outlettype" : [ "signal", "signal" ]
				}

			}
, 			{
				"box" : 				{
					"maxclass" : "newobj",
					"text" : "+~ 0",
					"patching_rect" : [ 762.0, 107.0, 34.0, 20.0 ],
					"fontsize" : 10.0,
					"fontname" : "Arial",
					"numinlets" : 2,
					"id" : "obj-42",
					"numoutlets" : 1,
					"outlettype" : [ "signal" ]
				}

			}
, 			{
				"box" : 				{
					"maxclass" : "newobj",
					"text" : "count~ 0 320 1 1",
					"patching_rect" : [ 762.0, 47.0, 97.0, 20.0 ],
					"fontsize" : 10.0,
					"fontname" : "Arial",
					"numinlets" : 2,
					"id" : "obj-41",
					"numoutlets" : 1,
					"outlettype" : [ "signal" ]
				}

			}
, 			{
				"box" : 				{
					"maxclass" : "comment",
					"text" : "turn on the audio and send some sound into MSP.",
					"patching_rect" : [ 558.0, 389.0, 266.0, 20.0 ],
					"fontsize" : 10.0,
					"fontname" : "Arial",
					"numinlets" : 1,
					"id" : "obj-40",
					"numoutlets" : 0
				}

			}
, 			{
				"box" : 				{
					"maxclass" : "comment",
					"text" : "maxTunes2.",
					"patching_rect" : [ 558.0, 355.0, 170.0, 33.0 ],
					"fontsize" : 20.0,
					"fontname" : "Courier",
					"numinlets" : 1,
					"id" : "obj-39",
					"numoutlets" : 0
				}

			}
, 			{
				"box" : 				{
					"maxclass" : "comment",
					"text" : "blue",
					"patching_rect" : [ 714.0, 149.0, 32.0, 20.0 ],
					"fontsize" : 10.0,
					"fontname" : "Arial",
					"numinlets" : 1,
					"id" : "obj-32",
					"numoutlets" : 0
				}

			}
, 			{
				"box" : 				{
					"maxclass" : "newobj",
					"text" : "jit.poke~ bar 2 3",
					"patching_rect" : [ 704.0, 261.0, 93.0, 20.0 ],
					"fontsize" : 10.0,
					"fontname" : "Arial",
					"numinlets" : 3,
					"id" : "obj-33",
					"numoutlets" : 1,
					"outlettype" : [ "" ]
				}

			}
, 			{
				"box" : 				{
					"maxclass" : "newobj",
					"text" : "sig~ 1.",
					"patching_rect" : [ 704.0, 210.0, 45.0, 20.0 ],
					"fontsize" : 10.0,
					"fontname" : "Arial",
					"numinlets" : 1,
					"id" : "obj-36",
					"numoutlets" : 1,
					"outlettype" : [ "signal" ]
				}

			}
, 			{
				"box" : 				{
					"maxclass" : "flonum",
					"patching_rect" : [ 704.0, 188.0, 50.0, 20.0 ],
					"fontsize" : 10.0,
					"fontname" : "Arial",
					"numinlets" : 1,
					"id" : "obj-37",
					"numoutlets" : 2,
					"outlettype" : [ "float", "bang" ]
				}

			}
, 			{
				"box" : 				{
					"maxclass" : "newobj",
					"text" : "\/ 255.",
					"patching_rect" : [ 704.0, 166.0, 40.0, 20.0 ],
					"fontsize" : 10.0,
					"fontname" : "Arial",
					"numinlets" : 2,
					"id" : "obj-38",
					"numoutlets" : 1,
					"outlettype" : [ "float" ]
				}

			}
, 			{
				"box" : 				{
					"maxclass" : "comment",
					"text" : "green",
					"patching_rect" : [ 617.0, 149.0, 38.0, 20.0 ],
					"fontsize" : 10.0,
					"fontname" : "Arial",
					"numinlets" : 1,
					"id" : "obj-27",
					"numoutlets" : 0
				}

			}
, 			{
				"box" : 				{
					"maxclass" : "newobj",
					"text" : "jit.poke~ bar 2 2",
					"patching_rect" : [ 607.0, 261.0, 93.0, 20.0 ],
					"fontsize" : 10.0,
					"fontname" : "Arial",
					"numinlets" : 3,
					"id" : "obj-28",
					"numoutlets" : 1,
					"outlettype" : [ "" ]
				}

			}
, 			{
				"box" : 				{
					"maxclass" : "newobj",
					"text" : "sig~ 1.",
					"patching_rect" : [ 607.0, 210.0, 45.0, 20.0 ],
					"fontsize" : 10.0,
					"fontname" : "Arial",
					"numinlets" : 1,
					"id" : "obj-29",
					"numoutlets" : 1,
					"outlettype" : [ "signal" ]
				}

			}
, 			{
				"box" : 				{
					"maxclass" : "flonum",
					"patching_rect" : [ 607.0, 188.0, 50.0, 20.0 ],
					"fontsize" : 10.0,
					"fontname" : "Arial",
					"numinlets" : 1,
					"id" : "obj-30",
					"numoutlets" : 2,
					"outlettype" : [ "float", "bang" ]
				}

			}
, 			{
				"box" : 				{
					"maxclass" : "newobj",
					"text" : "\/ 255.",
					"patching_rect" : [ 607.0, 166.0, 40.0, 20.0 ],
					"fontsize" : 10.0,
					"fontname" : "Arial",
					"numinlets" : 2,
					"id" : "obj-31",
					"numoutlets" : 1,
					"outlettype" : [ "float" ]
				}

			}
, 			{
				"box" : 				{
					"maxclass" : "comment",
					"text" : "red",
					"patching_rect" : [ 520.0, 149.0, 25.0, 20.0 ],
					"fontsize" : 10.0,
					"fontname" : "Arial",
					"numinlets" : 1,
					"id" : "obj-26",
					"numoutlets" : 0
				}

			}
, 			{
				"box" : 				{
					"maxclass" : "newobj",
					"text" : "jit.poke~ bar 2 1",
					"patching_rect" : [ 510.0, 261.0, 93.0, 20.0 ],
					"fontsize" : 10.0,
					"fontname" : "Arial",
					"numinlets" : 3,
					"id" : "obj-25",
					"numoutlets" : 1,
					"outlettype" : [ "" ]
				}

			}
, 			{
				"box" : 				{
					"maxclass" : "newobj",
					"text" : "sig~ 1.",
					"patching_rect" : [ 510.0, 210.0, 45.0, 20.0 ],
					"fontsize" : 10.0,
					"fontname" : "Arial",
					"numinlets" : 1,
					"id" : "obj-24",
					"numoutlets" : 1,
					"outlettype" : [ "signal" ]
				}

			}
, 			{
				"box" : 				{
					"maxclass" : "flonum",
					"patching_rect" : [ 510.0, 188.0, 50.0, 20.0 ],
					"fontsize" : 10.0,
					"fontname" : "Arial",
					"numinlets" : 1,
					"id" : "obj-23",
					"numoutlets" : 2,
					"outlettype" : [ "float", "bang" ]
				}

			}
, 			{
				"box" : 				{
					"maxclass" : "newobj",
					"text" : "\/ 255.",
					"patching_rect" : [ 510.0, 166.0, 40.0, 20.0 ],
					"fontsize" : 10.0,
					"fontname" : "Arial",
					"numinlets" : 2,
					"id" : "obj-22",
					"numoutlets" : 1,
					"outlettype" : [ "float" ]
				}

			}
, 			{
				"box" : 				{
					"maxclass" : "newobj",
					"text" : "unpack 0 0 0",
					"patching_rect" : [ 510.0, 131.0, 213.0, 20.0 ],
					"fontsize" : 10.0,
					"fontname" : "Arial",
					"numinlets" : 1,
					"id" : "obj-21",
					"numoutlets" : 3,
					"outlettype" : [ "int", "int", "int" ]
				}

			}
, 			{
				"box" : 				{
					"maxclass" : "swatch",
					"compatibility" : 1,
					"patching_rect" : [ 510.0, 97.0, 128.0, 32.0 ],
					"numinlets" : 3,
					"id" : "obj-20",
					"numoutlets" : 2,
					"outlettype" : [ "", "float" ]
				}

			}
, 			{
				"box" : 				{
					"maxclass" : "number",
					"patching_rect" : [ 601.0, 50.0, 50.0, 20.0 ],
					"fontsize" : 10.0,
					"fontname" : "Arial",
					"numinlets" : 1,
					"id" : "obj-19",
					"numoutlets" : 2,
					"outlettype" : [ "int", "bang" ]
				}

			}
, 			{
				"box" : 				{
					"maxclass" : "number",
					"patching_rect" : [ 550.0, 50.0, 50.0, 20.0 ],
					"fontsize" : 10.0,
					"fontname" : "Arial",
					"numinlets" : 1,
					"id" : "obj-18",
					"numoutlets" : 2,
					"outlettype" : [ "int", "bang" ]
				}

			}
, 			{
				"box" : 				{
					"maxclass" : "message",
					"text" : "1",
					"patching_rect" : [ 391.0, 35.0, 22.5, 18.0 ],
					"fontsize" : 10.0,
					"fontname" : "Arial",
					"hidden" : 1,
					"numinlets" : 2,
					"id" : "obj-17",
					"numoutlets" : 1,
					"outlettype" : [ "" ]
				}

			}
, 			{
				"box" : 				{
					"maxclass" : "newobj",
					"text" : "loadbang",
					"patching_rect" : [ 391.0, 0.0, 58.0, 20.0 ],
					"fontsize" : 10.0,
					"fontname" : "Arial",
					"hidden" : 1,
					"numinlets" : 1,
					"id" : "obj-16",
					"numoutlets" : 1,
					"outlettype" : [ "bang" ]
				}

			}
, 			{
				"box" : 				{
					"maxclass" : "newobj",
					"text" : "p mood_machine",
					"patching_rect" : [ 510.0, 75.0, 99.0, 20.0 ],
					"fontsize" : 10.0,
					"fontname" : "Arial",
					"numinlets" : 3,
					"id" : "obj-35",
					"numoutlets" : 1,
					"outlettype" : [ "bang" ],
					"patcher" : 					{
						"rect" : [ 379.0, 44.0, 293.0, 271.0 ],
						"bgcolor" : [ 1.0, 1.0, 1.0, 1.0 ],
						"bglocked" : 0,
						"defrect" : [ 379.0, 44.0, 293.0, 271.0 ],
						"openinpresentation" : 0,
						"default_fontsize" : 10.0,
						"default_fontface" : 0,
						"default_fontname" : "Arial",
						"gridonopen" : 0,
						"gridsize" : [ 15.0, 15.0 ],
						"gridsnaponopen" : 0,
						"toolbarvisible" : 1,
						"boxfadetime" : 200,
						"boxanimatetime" : 200,
						"scrollanimatetime" : 200,
						"metadata" : [  ],
						"boxes" : [ 							{
								"box" : 								{
									"maxclass" : "inlet",
									"patching_rect" : [ 255.0, 18.0, 25.0, 25.0 ],
									"numinlets" : 0,
									"id" : "obj-22",
									"numoutlets" : 1,
									"outlettype" : [ "int" ],
									"comment" : ""
								}

							}
, 							{
								"box" : 								{
									"maxclass" : "inlet",
									"patching_rect" : [ 233.0, 18.0, 25.0, 25.0 ],
									"numinlets" : 0,
									"id" : "obj-21",
									"numoutlets" : 1,
									"outlettype" : [ "int" ],
									"comment" : ""
								}

							}
, 							{
								"box" : 								{
									"maxclass" : "button",
									"color" : [ 0.082353, 0.25098, 0.431373, 1.0 ],
									"patching_rect" : [ 60.0, 207.0, 20.0, 20.0 ],
									"numinlets" : 1,
									"id" : "obj-7",
									"numoutlets" : 1,
									"outlettype" : [ "bang" ]
								}

							}
, 							{
								"box" : 								{
									"maxclass" : "newobj",
									"text" : "prepend hsl",
									"patching_rect" : [ 83.0, 206.0, 71.0, 20.0 ],
									"fontsize" : 10.0,
									"fontname" : "Arial",
									"numinlets" : 1,
									"id" : "obj-6",
									"numoutlets" : 1,
									"outlettype" : [ "" ]
								}

							}
, 							{
								"box" : 								{
									"maxclass" : "newobj",
									"text" : "zmap 0 255 0 60",
									"patching_rect" : [ 166.0, 178.0, 108.0, 20.0 ],
									"fontsize" : 10.0,
									"fontname" : "Arial",
									"numinlets" : 5,
									"id" : "obj-5",
									"numoutlets" : 1,
									"outlettype" : [ "float" ]
								}

							}
, 							{
								"box" : 								{
									"maxclass" : "outlet",
									"patching_rect" : [ 83.0, 230.0, 25.0, 25.0 ],
									"numinlets" : 1,
									"id" : "obj-20",
									"numoutlets" : 0,
									"comment" : ""
								}

							}
, 							{
								"box" : 								{
									"maxclass" : "message",
									"text" : "$1 1300",
									"patching_rect" : [ 167.0, 127.0, 52.0, 18.0 ],
									"fontsize" : 10.0,
									"fontname" : "Arial",
									"numinlets" : 2,
									"id" : "obj-16",
									"numoutlets" : 1,
									"outlettype" : [ "" ]
								}

							}
, 							{
								"box" : 								{
									"maxclass" : "newobj",
									"text" : "line 100",
									"patching_rect" : [ 167.0, 148.0, 51.0, 20.0 ],
									"fontsize" : 10.0,
									"fontname" : "Arial",
									"numinlets" : 3,
									"id" : "obj-17",
									"numoutlets" : 3,
									"outlettype" : [ "", "", "" ]
								}

							}
, 							{
								"box" : 								{
									"maxclass" : "newobj",
									"text" : "random 256",
									"patching_rect" : [ 167.0, 104.0, 72.0, 20.0 ],
									"fontsize" : 10.0,
									"fontname" : "Arial",
									"numinlets" : 2,
									"id" : "obj-18",
									"numoutlets" : 1,
									"outlettype" : [ "int" ]
								}

							}
, 							{
								"box" : 								{
									"maxclass" : "newobj",
									"text" : "metro 1300",
									"patching_rect" : [ 167.0, 81.0, 69.0, 20.0 ],
									"fontsize" : 10.0,
									"fontname" : "Arial",
									"numinlets" : 2,
									"id" : "obj-19",
									"numoutlets" : 1,
									"outlettype" : [ "bang" ]
								}

							}
, 							{
								"box" : 								{
									"maxclass" : "message",
									"text" : "$1 900",
									"patching_rect" : [ 90.0, 127.0, 46.0, 18.0 ],
									"fontsize" : 10.0,
									"fontname" : "Arial",
									"numinlets" : 2,
									"id" : "obj-12",
									"numoutlets" : 1,
									"outlettype" : [ "" ]
								}

							}
, 							{
								"box" : 								{
									"maxclass" : "newobj",
									"text" : "line 100",
									"patching_rect" : [ 90.0, 148.0, 51.0, 20.0 ],
									"fontsize" : 10.0,
									"fontname" : "Arial",
									"numinlets" : 3,
									"id" : "obj-13",
									"numoutlets" : 3,
									"outlettype" : [ "", "", "" ]
								}

							}
, 							{
								"box" : 								{
									"maxclass" : "newobj",
									"text" : "random 256",
									"patching_rect" : [ 90.0, 104.0, 72.0, 20.0 ],
									"fontsize" : 10.0,
									"fontname" : "Arial",
									"numinlets" : 2,
									"id" : "obj-14",
									"numoutlets" : 1,
									"outlettype" : [ "int" ]
								}

							}
, 							{
								"box" : 								{
									"maxclass" : "newobj",
									"text" : "metro 900",
									"patching_rect" : [ 90.0, 81.0, 63.0, 20.0 ],
									"fontsize" : 10.0,
									"fontname" : "Arial",
									"numinlets" : 2,
									"id" : "obj-15",
									"numoutlets" : 1,
									"outlettype" : [ "bang" ]
								}

							}
, 							{
								"box" : 								{
									"maxclass" : "message",
									"text" : "$1 1000",
									"patching_rect" : [ 13.0, 127.0, 52.0, 18.0 ],
									"fontsize" : 10.0,
									"fontname" : "Arial",
									"numinlets" : 2,
									"id" : "obj-11",
									"numoutlets" : 1,
									"outlettype" : [ "" ]
								}

							}
, 							{
								"box" : 								{
									"maxclass" : "newobj",
									"text" : "pack i 0.3 i",
									"patching_rect" : [ 60.0, 178.0, 79.0, 20.0 ],
									"fontsize" : 10.0,
									"fontname" : "Arial",
									"numinlets" : 3,
									"id" : "obj-10",
									"numoutlets" : 1,
									"outlettype" : [ "" ]
								}

							}
, 							{
								"box" : 								{
									"maxclass" : "newobj",
									"text" : "line 100",
									"patching_rect" : [ 13.0, 148.0, 51.0, 20.0 ],
									"fontsize" : 10.0,
									"fontname" : "Arial",
									"numinlets" : 3,
									"id" : "obj-9",
									"numoutlets" : 3,
									"outlettype" : [ "", "", "" ]
								}

							}
, 							{
								"box" : 								{
									"maxclass" : "newobj",
									"text" : "random 256",
									"patching_rect" : [ 13.0, 104.0, 72.0, 20.0 ],
									"fontsize" : 10.0,
									"fontname" : "Arial",
									"numinlets" : 2,
									"id" : "obj-8",
									"numoutlets" : 1,
									"outlettype" : [ "int" ]
								}

							}
, 							{
								"box" : 								{
									"maxclass" : "newobj",
									"text" : "metro 1000",
									"patching_rect" : [ 13.0, 81.0, 69.0, 20.0 ],
									"fontsize" : 10.0,
									"fontname" : "Arial",
									"numinlets" : 2,
									"id" : "obj-4",
									"numoutlets" : 1,
									"outlettype" : [ "bang" ]
								}

							}
, 							{
								"box" : 								{
									"maxclass" : "comment",
									"text" : "<- turn on mood machine",
									"patching_rect" : [ 40.0, 45.0, 138.0, 20.0 ],
									"fontsize" : 10.0,
									"fontname" : "Arial",
									"numinlets" : 1,
									"id" : "obj-3",
									"numoutlets" : 0
								}

							}
, 							{
								"box" : 								{
									"maxclass" : "toggle",
									"patching_rect" : [ 13.0, 40.0, 29.0, 29.0 ],
									"numinlets" : 1,
									"id" : "obj-2",
									"numoutlets" : 1,
									"outlettype" : [ "int" ]
								}

							}
, 							{
								"box" : 								{
									"maxclass" : "inlet",
									"patching_rect" : [ 13.0, 11.0, 25.0, 25.0 ],
									"numinlets" : 0,
									"id" : "obj-1",
									"numoutlets" : 1,
									"outlettype" : [ "int" ],
									"comment" : ""
								}

							}
 ],
						"lines" : [ 							{
								"patchline" : 								{
									"source" : [ "obj-22", 0 ],
									"destination" : [ "obj-5", 4 ],
									"hidden" : 0
								}

							}
, 							{
								"patchline" : 								{
									"source" : [ "obj-21", 0 ],
									"destination" : [ "obj-5", 3 ],
									"hidden" : 0
								}

							}
, 							{
								"patchline" : 								{
									"source" : [ "obj-5", 0 ],
									"destination" : [ "obj-10", 0 ],
									"hidden" : 0,
									"midpoints" : [ 175.5, 258.0, 55.0, 258.0, 55.0, 177.0, 69.5, 177.0 ]
								}

							}
, 							{
								"patchline" : 								{
									"source" : [ "obj-7", 0 ],
									"destination" : [ "obj-20", 0 ],
									"hidden" : 0,
									"midpoints" : [ 69.5, 228.0, 92.5, 228.0 ]
								}

							}
, 							{
								"patchline" : 								{
									"source" : [ "obj-10", 0 ],
									"destination" : [ "obj-7", 0 ],
									"hidden" : 0
								}

							}
, 							{
								"patchline" : 								{
									"source" : [ "obj-6", 0 ],
									"destination" : [ "obj-20", 0 ],
									"hidden" : 0
								}

							}
, 							{
								"patchline" : 								{
									"source" : [ "obj-10", 0 ],
									"destination" : [ "obj-6", 0 ],
									"hidden" : 0,
									"midpoints" : [ 69.5, 202.0, 92.5, 202.0 ]
								}

							}
, 							{
								"patchline" : 								{
									"source" : [ "obj-9", 0 ],
									"destination" : [ "obj-5", 0 ],
									"hidden" : 0,
									"midpoints" : [ 22.5, 174.0, 175.5, 174.0 ]
								}

							}
, 							{
								"patchline" : 								{
									"source" : [ "obj-17", 0 ],
									"destination" : [ "obj-10", 2 ],
									"hidden" : 0
								}

							}
, 							{
								"patchline" : 								{
									"source" : [ "obj-13", 0 ],
									"destination" : [ "obj-10", 1 ],
									"hidden" : 0
								}

							}
, 							{
								"patchline" : 								{
									"source" : [ "obj-1", 0 ],
									"destination" : [ "obj-2", 0 ],
									"hidden" : 0
								}

							}
, 							{
								"patchline" : 								{
									"source" : [ "obj-4", 0 ],
									"destination" : [ "obj-8", 0 ],
									"hidden" : 0
								}

							}
, 							{
								"patchline" : 								{
									"source" : [ "obj-8", 0 ],
									"destination" : [ "obj-11", 0 ],
									"hidden" : 0
								}

							}
, 							{
								"patchline" : 								{
									"source" : [ "obj-11", 0 ],
									"destination" : [ "obj-9", 0 ],
									"hidden" : 0
								}

							}
, 							{
								"patchline" : 								{
									"source" : [ "obj-12", 0 ],
									"destination" : [ "obj-13", 0 ],
									"hidden" : 0
								}

							}
, 							{
								"patchline" : 								{
									"source" : [ "obj-14", 0 ],
									"destination" : [ "obj-12", 0 ],
									"hidden" : 0
								}

							}
, 							{
								"patchline" : 								{
									"source" : [ "obj-15", 0 ],
									"destination" : [ "obj-14", 0 ],
									"hidden" : 0
								}

							}
, 							{
								"patchline" : 								{
									"source" : [ "obj-18", 0 ],
									"destination" : [ "obj-16", 0 ],
									"hidden" : 0
								}

							}
, 							{
								"patchline" : 								{
									"source" : [ "obj-16", 0 ],
									"destination" : [ "obj-17", 0 ],
									"hidden" : 0
								}

							}
, 							{
								"patchline" : 								{
									"source" : [ "obj-19", 0 ],
									"destination" : [ "obj-18", 0 ],
									"hidden" : 0
								}

							}
, 							{
								"patchline" : 								{
									"source" : [ "obj-2", 0 ],
									"destination" : [ "obj-4", 0 ],
									"hidden" : 0
								}

							}
, 							{
								"patchline" : 								{
									"source" : [ "obj-2", 0 ],
									"destination" : [ "obj-15", 0 ],
									"hidden" : 0
								}

							}
, 							{
								"patchline" : 								{
									"source" : [ "obj-2", 0 ],
									"destination" : [ "obj-19", 0 ],
									"hidden" : 0
								}

							}
 ]
					}
,
					"saved_object_attributes" : 					{
						"default_fontname" : "Arial",
						"fontsize" : 10.0,
						"fontname" : "Arial",
						"globalpatchername" : "",
						"fontface" : 0,
						"default_fontsize" : 10.0,
						"default_fontface" : 0
					}

				}

			}
, 			{
				"box" : 				{
					"maxclass" : "toggle",
					"patching_rect" : [ 510.0, 53.0, 20.0, 20.0 ],
					"numinlets" : 1,
					"id" : "obj-34",
					"numoutlets" : 1,
					"outlettype" : [ "int" ]
				}

			}
, 			{
				"box" : 				{
					"maxclass" : "jit.fpsgui",
					"patching_rect" : [ 185.0, 460.0, 80.0, 33.333271 ],
					"fontsize" : 10.0,
					"fontname" : "Arial",
					"numinlets" : 1,
					"id" : "obj-15",
					"numoutlets" : 1,
					"outlettype" : [ "" ]
				}

			}
, 			{
				"box" : 				{
					"maxclass" : "jit.pwindow",
					"patching_rect" : [ 185.0, 219.0, 320.0, 240.0 ],
					"numinlets" : 1,
					"id" : "obj-14",
					"numoutlets" : 2,
					"outlettype" : [ "", "" ]
				}

			}
, 			{
				"box" : 				{
					"maxclass" : "newobj",
					"text" : "jit.matrix bar",
					"patching_rect" : [ 6.0, 184.0, 74.0, 20.0 ],
					"fontsize" : 10.0,
					"fontname" : "Arial",
					"numinlets" : 1,
					"id" : "obj-13",
					"numoutlets" : 2,
					"outlettype" : [ "jit_matrix", "" ]
				}

			}
, 			{
				"box" : 				{
					"maxclass" : "comment",
					"text" : "warp amount",
					"patching_rect" : [ 119.0, 134.0, 76.0, 20.0 ],
					"fontsize" : 10.0,
					"fontname" : "Arial",
					"numinlets" : 1,
					"id" : "obj-12",
					"numoutlets" : 0
				}

			}
, 			{
				"box" : 				{
					"maxclass" : "flonum",
					"patching_rect" : [ 71.0, 134.0, 50.0, 20.0 ],
					"fontsize" : 10.0,
					"fontname" : "Arial",
					"numinlets" : 1,
					"id" : "obj-11",
					"numoutlets" : 2,
					"outlettype" : [ "float", "bang" ]
				}

			}
, 			{
				"box" : 				{
					"maxclass" : "newobj",
					"text" : "p repos",
					"patching_rect" : [ 6.0, 156.0, 49.0, 20.0 ],
					"fontsize" : 10.0,
					"fontname" : "Arial",
					"numinlets" : 3,
					"id" : "obj-10",
					"numoutlets" : 1,
					"outlettype" : [ "jit_matrix" ],
					"patcher" : 					{
						"rect" : [ 327.0, 44.0, 639.0, 465.0 ],
						"bgcolor" : [ 1.0, 1.0, 1.0, 1.0 ],
						"bglocked" : 0,
						"defrect" : [ 327.0, 44.0, 639.0, 465.0 ],
						"openinpresentation" : 0,
						"default_fontsize" : 10.0,
						"default_fontface" : 0,
						"default_fontname" : "Arial",
						"gridonopen" : 0,
						"gridsize" : [ 15.0, 15.0 ],
						"gridsnaponopen" : 0,
						"toolbarvisible" : 1,
						"boxfadetime" : 200,
						"boxanimatetime" : 200,
						"scrollanimatetime" : 200,
						"metadata" : [  ],
						"boxes" : [ 							{
								"box" : 								{
									"maxclass" : "outlet",
									"patching_rect" : [ 12.0, 232.0, 25.0, 25.0 ],
									"numinlets" : 1,
									"id" : "obj-40",
									"numoutlets" : 0,
									"comment" : ""
								}

							}
, 							{
								"box" : 								{
									"maxclass" : "comment",
									"text" : "spatial low pass filter",
									"patching_rect" : [ 516.0, 292.0, 116.0, 20.0 ],
									"fontsize" : 10.0,
									"fontname" : "Arial",
									"numinlets" : 1,
									"id" : "obj-39",
									"numoutlets" : 0
								}

							}
, 							{
								"box" : 								{
									"maxclass" : "message",
									"text" : "slide_down $1",
									"patching_rect" : [ 542.0, 318.0, 85.0, 18.0 ],
									"fontsize" : 10.0,
									"fontname" : "Arial",
									"numinlets" : 2,
									"id" : "obj-38",
									"numoutlets" : 1,
									"outlettype" : [ "" ]
								}

							}
, 							{
								"box" : 								{
									"maxclass" : "message",
									"text" : "slide_up $1",
									"patching_rect" : [ 468.0, 318.0, 70.0, 18.0 ],
									"fontsize" : 10.0,
									"fontname" : "Arial",
									"numinlets" : 2,
									"id" : "obj-37",
									"numoutlets" : 1,
									"outlettype" : [ "" ]
								}

							}
, 							{
								"box" : 								{
									"maxclass" : "flonum",
									"patching_rect" : [ 468.0, 292.0, 50.0, 20.0 ],
									"fontsize" : 10.0,
									"fontname" : "Arial",
									"numinlets" : 1,
									"id" : "obj-36",
									"numoutlets" : 2,
									"outlettype" : [ "float", "bang" ]
								}

							}
, 							{
								"box" : 								{
									"maxclass" : "message",
									"text" : "interp $1",
									"patching_rect" : [ 388.0, 296.0, 56.0, 18.0 ],
									"fontsize" : 10.0,
									"fontname" : "Arial",
									"numinlets" : 2,
									"id" : "obj-35",
									"numoutlets" : 1,
									"outlettype" : [ "" ]
								}

							}
, 							{
								"box" : 								{
									"maxclass" : "toggle",
									"patching_rect" : [ 388.0, 275.0, 20.0, 20.0 ],
									"numinlets" : 1,
									"id" : "obj-34",
									"numoutlets" : 1,
									"outlettype" : [ "int" ]
								}

							}
, 							{
								"box" : 								{
									"maxclass" : "comment",
									"text" : "upsample",
									"patching_rect" : [ 315.0, 299.0, 59.0, 20.0 ],
									"fontsize" : 10.0,
									"fontname" : "Arial",
									"numinlets" : 1,
									"id" : "obj-33",
									"numoutlets" : 0
								}

							}
, 							{
								"box" : 								{
									"maxclass" : "newobj",
									"text" : "prepend in2_name",
									"patching_rect" : [ 291.0, 425.0, 107.0, 20.0 ],
									"fontsize" : 10.0,
									"fontname" : "Arial",
									"numinlets" : 1,
									"id" : "obj-32",
									"numoutlets" : 1,
									"outlettype" : [ "" ]
								}

							}
, 							{
								"box" : 								{
									"maxclass" : "newobj",
									"text" : "route jit_matrix",
									"patching_rect" : [ 291.0, 402.0, 87.0, 20.0 ],
									"fontsize" : 10.0,
									"fontname" : "Arial",
									"numinlets" : 1,
									"id" : "obj-31",
									"numoutlets" : 2,
									"outlettype" : [ "", "" ]
								}

							}
, 							{
								"box" : 								{
									"maxclass" : "newobj",
									"text" : "jit.scanslide @out_name scrap @dimmode 1",
									"patching_rect" : [ 291.0, 378.0, 241.0, 20.0 ],
									"fontsize" : 10.0,
									"fontname" : "Arial",
									"numinlets" : 1,
									"id" : "obj-30",
									"numoutlets" : 2,
									"outlettype" : [ "jit_matrix", "" ]
								}

							}
, 							{
								"box" : 								{
									"maxclass" : "newobj",
									"text" : "jit.scanslide @out_name scrap",
									"patching_rect" : [ 291.0, 349.0, 169.0, 20.0 ],
									"fontsize" : 10.0,
									"fontname" : "Arial",
									"numinlets" : 1,
									"id" : "obj-29",
									"numoutlets" : 2,
									"outlettype" : [ "jit_matrix", "" ]
								}

							}
, 							{
								"box" : 								{
									"maxclass" : "newobj",
									"text" : "jit.matrix scrap 2 long 320 240",
									"patching_rect" : [ 291.0, 320.0, 165.0, 20.0 ],
									"fontsize" : 10.0,
									"fontname" : "Arial",
									"numinlets" : 1,
									"id" : "obj-28",
									"numoutlets" : 2,
									"outlettype" : [ "jit_matrix", "" ]
								}

							}
, 							{
								"box" : 								{
									"maxclass" : "newobj",
									"text" : "jit.op @op -",
									"patching_rect" : [ 291.0, 261.0, 70.0, 20.0 ],
									"fontsize" : 10.0,
									"fontname" : "Arial",
									"numinlets" : 2,
									"id" : "obj-27",
									"numoutlets" : 2,
									"outlettype" : [ "jit_matrix", "" ]
								}

							}
, 							{
								"box" : 								{
									"maxclass" : "newobj",
									"text" : "* 256.",
									"patching_rect" : [ 364.0, 232.0, 41.0, 20.0 ],
									"fontsize" : 10.0,
									"fontname" : "Arial",
									"numinlets" : 2,
									"id" : "obj-26",
									"numoutlets" : 1,
									"outlettype" : [ "float" ]
								}

							}
, 							{
								"box" : 								{
									"maxclass" : "newobj",
									"text" : "\/ 2.",
									"patching_rect" : [ 364.0, 210.0, 32.5, 20.0 ],
									"fontsize" : 10.0,
									"fontname" : "Arial",
									"numinlets" : 2,
									"id" : "obj-25",
									"numoutlets" : 1,
									"outlettype" : [ "float" ]
								}

							}
, 							{
								"box" : 								{
									"maxclass" : "newobj",
									"text" : "jit.op @op *",
									"patching_rect" : [ 291.0, 207.0, 71.0, 20.0 ],
									"fontsize" : 10.0,
									"fontname" : "Arial",
									"numinlets" : 2,
									"id" : "obj-24",
									"numoutlets" : 2,
									"outlettype" : [ "jit_matrix", "" ]
								}

							}
, 							{
								"box" : 								{
									"maxclass" : "newobj",
									"text" : "jit.op @op & @val 255",
									"patching_rect" : [ 291.0, 180.0, 126.0, 20.0 ],
									"fontsize" : 10.0,
									"fontname" : "Arial",
									"numinlets" : 2,
									"id" : "obj-23",
									"numoutlets" : 2,
									"outlettype" : [ "jit_matrix", "" ]
								}

							}
, 							{
								"box" : 								{
									"maxclass" : "inlet",
									"patching_rect" : [ 546.0, 11.0, 25.0, 25.0 ],
									"numinlets" : 0,
									"id" : "obj-22",
									"numoutlets" : 1,
									"outlettype" : [ "float" ],
									"comment" : ""
								}

							}
, 							{
								"box" : 								{
									"maxclass" : "flonum",
									"patching_rect" : [ 476.0, 127.0, 50.0, 20.0 ],
									"fontsize" : 10.0,
									"fontname" : "Arial",
									"numinlets" : 1,
									"id" : "obj-21",
									"numoutlets" : 2,
									"outlettype" : [ "float", "bang" ]
								}

							}
, 							{
								"box" : 								{
									"maxclass" : "comment",
									"text" : "scale noise",
									"patching_rect" : [ 524.0, 127.0, 67.0, 20.0 ],
									"fontsize" : 10.0,
									"fontname" : "Arial",
									"numinlets" : 1,
									"id" : "obj-20",
									"numoutlets" : 0
								}

							}
, 							{
								"box" : 								{
									"maxclass" : "comment",
									"text" : "dimensions of noise",
									"patching_rect" : [ 409.0, 76.0, 111.0, 20.0 ],
									"fontsize" : 10.0,
									"fontname" : "Arial",
									"numinlets" : 1,
									"id" : "obj-19",
									"numoutlets" : 0
								}

							}
, 							{
								"box" : 								{
									"maxclass" : "message",
									"text" : "50",
									"patching_rect" : [ 499.0, 32.0, 21.5, 18.0 ],
									"fontsize" : 10.0,
									"fontname" : "Arial",
									"numinlets" : 2,
									"id" : "obj-18",
									"numoutlets" : 1,
									"outlettype" : [ "" ]
								}

							}
, 							{
								"box" : 								{
									"maxclass" : "message",
									"text" : "10",
									"patching_rect" : [ 476.0, 32.0, 21.5, 18.0 ],
									"fontsize" : 10.0,
									"fontname" : "Arial",
									"numinlets" : 2,
									"id" : "obj-17",
									"numoutlets" : 1,
									"outlettype" : [ "" ]
								}

							}
, 							{
								"box" : 								{
									"maxclass" : "message",
									"text" : "4",
									"patching_rect" : [ 456.0, 32.0, 18.0, 18.0 ],
									"fontsize" : 10.0,
									"fontname" : "Arial",
									"numinlets" : 2,
									"id" : "obj-16",
									"numoutlets" : 1,
									"outlettype" : [ "" ]
								}

							}
, 							{
								"box" : 								{
									"maxclass" : "message",
									"text" : "1",
									"patching_rect" : [ 436.0, 32.0, 18.0, 18.0 ],
									"fontsize" : 10.0,
									"fontname" : "Arial",
									"numinlets" : 2,
									"id" : "obj-15",
									"numoutlets" : 1,
									"outlettype" : [ "" ]
								}

							}
, 							{
								"box" : 								{
									"maxclass" : "newobj",
									"text" : "loadbang",
									"patching_rect" : [ 377.0, 12.0, 58.0, 20.0 ],
									"fontsize" : 10.0,
									"fontname" : "Arial",
									"numinlets" : 1,
									"id" : "obj-14",
									"numoutlets" : 1,
									"outlettype" : [ "bang" ]
								}

							}
, 							{
								"box" : 								{
									"maxclass" : "message",
									"text" : "dim $1 $1",
									"patching_rect" : [ 350.0, 77.0, 61.0, 18.0 ],
									"fontsize" : 10.0,
									"fontname" : "Arial",
									"numinlets" : 2,
									"id" : "obj-13",
									"numoutlets" : 1,
									"outlettype" : [ "" ]
								}

							}
, 							{
								"box" : 								{
									"maxclass" : "number",
									"patching_rect" : [ 350.0, 56.0, 50.0, 20.0 ],
									"fontsize" : 10.0,
									"fontname" : "Arial",
									"numinlets" : 1,
									"id" : "obj-12",
									"numoutlets" : 2,
									"outlettype" : [ "int", "bang" ]
								}

							}
, 							{
								"box" : 								{
									"maxclass" : "newobj",
									"text" : "jit.noise 2 long 6 6",
									"patching_rect" : [ 291.0, 100.0, 104.0, 20.0 ],
									"fontsize" : 10.0,
									"fontname" : "Arial",
									"numinlets" : 1,
									"id" : "obj-11",
									"numoutlets" : 2,
									"outlettype" : [ "jit_matrix", "" ]
								}

							}
, 							{
								"box" : 								{
									"maxclass" : "button",
									"color" : [ 0.082353, 0.25098, 0.431373, 1.0 ],
									"patching_rect" : [ 291.0, 74.0, 20.0, 20.0 ],
									"numinlets" : 1,
									"id" : "obj-10",
									"numoutlets" : 1,
									"outlettype" : [ "bang" ]
								}

							}
, 							{
								"box" : 								{
									"maxclass" : "inlet",
									"patching_rect" : [ 291.0, 11.0, 25.0, 25.0 ],
									"numinlets" : 0,
									"id" : "obj-9",
									"numoutlets" : 1,
									"outlettype" : [ "bang" ],
									"comment" : ""
								}

							}
, 							{
								"box" : 								{
									"maxclass" : "newobj",
									"text" : "jit.repos 4 char 320 240 @interpbits 8 @mode 1",
									"patching_rect" : [ 12.0, 177.0, 257.0, 20.0 ],
									"fontsize" : 10.0,
									"fontname" : "Arial",
									"numinlets" : 2,
									"id" : "obj-8",
									"numoutlets" : 2,
									"outlettype" : [ "jit_matrix", "" ]
								}

							}
, 							{
								"box" : 								{
									"maxclass" : "message",
									"text" : "boundmode $1",
									"patching_rect" : [ 170.0, 133.0, 88.0, 18.0 ],
									"fontsize" : 10.0,
									"fontname" : "Arial",
									"numinlets" : 2,
									"id" : "obj-6",
									"numoutlets" : 1,
									"outlettype" : [ "" ]
								}

							}
, 							{
								"box" : 								{
									"maxclass" : "number",
									"patching_rect" : [ 170.0, 111.0, 50.0, 20.0 ],
									"fontsize" : 10.0,
									"fontname" : "Arial",
									"numinlets" : 1,
									"id" : "obj-7",
									"numoutlets" : 2,
									"outlettype" : [ "int", "bang" ]
								}

							}
, 							{
								"box" : 								{
									"maxclass" : "message",
									"text" : "offset_y $1",
									"patching_rect" : [ 100.0, 133.0, 67.0, 18.0 ],
									"fontsize" : 10.0,
									"fontname" : "Arial",
									"numinlets" : 2,
									"id" : "obj-4",
									"numoutlets" : 1,
									"outlettype" : [ "" ]
								}

							}
, 							{
								"box" : 								{
									"maxclass" : "number",
									"patching_rect" : [ 100.0, 111.0, 50.0, 20.0 ],
									"fontsize" : 10.0,
									"fontname" : "Arial",
									"numinlets" : 1,
									"id" : "obj-5",
									"numoutlets" : 2,
									"outlettype" : [ "int", "bang" ]
								}

							}
, 							{
								"box" : 								{
									"maxclass" : "message",
									"text" : "offset_x $1",
									"patching_rect" : [ 30.0, 133.0, 67.0, 18.0 ],
									"fontsize" : 10.0,
									"fontname" : "Arial",
									"numinlets" : 2,
									"id" : "obj-3",
									"numoutlets" : 1,
									"outlettype" : [ "" ]
								}

							}
, 							{
								"box" : 								{
									"maxclass" : "number",
									"patching_rect" : [ 30.0, 111.0, 50.0, 20.0 ],
									"fontsize" : 10.0,
									"fontname" : "Arial",
									"numinlets" : 1,
									"id" : "obj-2",
									"numoutlets" : 2,
									"outlettype" : [ "int", "bang" ]
								}

							}
, 							{
								"box" : 								{
									"maxclass" : "inlet",
									"patching_rect" : [ 12.0, 11.0, 25.0, 25.0 ],
									"numinlets" : 0,
									"id" : "obj-1",
									"numoutlets" : 1,
									"outlettype" : [ "jit_matrix" ],
									"comment" : ""
								}

							}
 ],
						"lines" : [ 							{
								"patchline" : 								{
									"source" : [ "obj-8", 0 ],
									"destination" : [ "obj-40", 0 ],
									"hidden" : 0
								}

							}
, 							{
								"patchline" : 								{
									"source" : [ "obj-18", 0 ],
									"destination" : [ "obj-36", 0 ],
									"hidden" : 0,
									"midpoints" : [ 508.5, 273.0, 477.5, 273.0 ]
								}

							}
, 							{
								"patchline" : 								{
									"source" : [ "obj-38", 0 ],
									"destination" : [ "obj-30", 0 ],
									"hidden" : 0,
									"midpoints" : [ 551.5, 372.0, 300.5, 372.0 ]
								}

							}
, 							{
								"patchline" : 								{
									"source" : [ "obj-37", 0 ],
									"destination" : [ "obj-30", 0 ],
									"hidden" : 0,
									"midpoints" : [ 477.5, 375.0, 300.5, 375.0 ]
								}

							}
, 							{
								"patchline" : 								{
									"source" : [ "obj-38", 0 ],
									"destination" : [ "obj-29", 0 ],
									"hidden" : 0,
									"midpoints" : [ 551.5, 343.0, 300.5, 343.0 ]
								}

							}
, 							{
								"patchline" : 								{
									"source" : [ "obj-37", 0 ],
									"destination" : [ "obj-29", 0 ],
									"hidden" : 0,
									"midpoints" : [ 477.5, 346.0, 300.5, 346.0 ]
								}

							}
, 							{
								"patchline" : 								{
									"source" : [ "obj-36", 0 ],
									"destination" : [ "obj-38", 0 ],
									"hidden" : 0,
									"midpoints" : [ 477.5, 315.0, 551.5, 315.0 ]
								}

							}
, 							{
								"patchline" : 								{
									"source" : [ "obj-36", 0 ],
									"destination" : [ "obj-37", 0 ],
									"hidden" : 0
								}

							}
, 							{
								"patchline" : 								{
									"source" : [ "obj-16", 0 ],
									"destination" : [ "obj-7", 0 ],
									"hidden" : 0,
									"midpoints" : [ 465.5, 52.0, 179.5, 52.0 ]
								}

							}
, 							{
								"patchline" : 								{
									"source" : [ "obj-35", 0 ],
									"destination" : [ "obj-28", 0 ],
									"hidden" : 0,
									"midpoints" : [ 397.5, 318.0, 300.5, 318.0 ]
								}

							}
, 							{
								"patchline" : 								{
									"source" : [ "obj-15", 0 ],
									"destination" : [ "obj-34", 0 ],
									"hidden" : 0,
									"midpoints" : [ 445.5, 264.0, 397.5, 264.0 ]
								}

							}
, 							{
								"patchline" : 								{
									"source" : [ "obj-34", 0 ],
									"destination" : [ "obj-35", 0 ],
									"hidden" : 0
								}

							}
, 							{
								"patchline" : 								{
									"source" : [ "obj-32", 0 ],
									"destination" : [ "obj-8", 1 ],
									"hidden" : 0,
									"midpoints" : [ 300.5, 450.0, 540.0, 450.0, 540.0, 175.0, 259.5, 175.0 ]
								}

							}
, 							{
								"patchline" : 								{
									"source" : [ "obj-11", 0 ],
									"destination" : [ "obj-23", 0 ],
									"hidden" : 0
								}

							}
, 							{
								"patchline" : 								{
									"source" : [ "obj-31", 0 ],
									"destination" : [ "obj-32", 0 ],
									"hidden" : 0
								}

							}
, 							{
								"patchline" : 								{
									"source" : [ "obj-30", 0 ],
									"destination" : [ "obj-31", 0 ],
									"hidden" : 0
								}

							}
, 							{
								"patchline" : 								{
									"source" : [ "obj-29", 0 ],
									"destination" : [ "obj-30", 0 ],
									"hidden" : 0
								}

							}
, 							{
								"patchline" : 								{
									"source" : [ "obj-28", 0 ],
									"destination" : [ "obj-29", 0 ],
									"hidden" : 0
								}

							}
, 							{
								"patchline" : 								{
									"source" : [ "obj-27", 0 ],
									"destination" : [ "obj-28", 0 ],
									"hidden" : 0
								}

							}
, 							{
								"patchline" : 								{
									"source" : [ "obj-26", 0 ],
									"destination" : [ "obj-27", 1 ],
									"hidden" : 0,
									"midpoints" : [ 373.5, 256.0, 351.5, 256.0 ]
								}

							}
, 							{
								"patchline" : 								{
									"source" : [ "obj-24", 0 ],
									"destination" : [ "obj-27", 0 ],
									"hidden" : 0
								}

							}
, 							{
								"patchline" : 								{
									"source" : [ "obj-21", 0 ],
									"destination" : [ "obj-24", 1 ],
									"hidden" : 0,
									"midpoints" : [ 485.5, 205.0, 352.5, 205.0 ]
								}

							}
, 							{
								"patchline" : 								{
									"source" : [ "obj-21", 0 ],
									"destination" : [ "obj-25", 0 ],
									"hidden" : 0,
									"midpoints" : [ 485.5, 202.0, 373.5, 202.0 ]
								}

							}
, 							{
								"patchline" : 								{
									"source" : [ "obj-25", 0 ],
									"destination" : [ "obj-26", 0 ],
									"hidden" : 0
								}

							}
, 							{
								"patchline" : 								{
									"source" : [ "obj-23", 0 ],
									"destination" : [ "obj-24", 0 ],
									"hidden" : 0
								}

							}
, 							{
								"patchline" : 								{
									"source" : [ "obj-22", 0 ],
									"destination" : [ "obj-21", 0 ],
									"hidden" : 0,
									"midpoints" : [ 555.5, 114.0, 485.5, 114.0 ]
								}

							}
, 							{
								"patchline" : 								{
									"source" : [ "obj-17", 0 ],
									"destination" : [ "obj-21", 0 ],
									"hidden" : 0
								}

							}
, 							{
								"patchline" : 								{
									"source" : [ "obj-14", 0 ],
									"destination" : [ "obj-18", 0 ],
									"hidden" : 0
								}

							}
, 							{
								"patchline" : 								{
									"source" : [ "obj-14", 0 ],
									"destination" : [ "obj-17", 0 ],
									"hidden" : 0
								}

							}
, 							{
								"patchline" : 								{
									"source" : [ "obj-14", 0 ],
									"destination" : [ "obj-16", 0 ],
									"hidden" : 0
								}

							}
, 							{
								"patchline" : 								{
									"source" : [ "obj-14", 0 ],
									"destination" : [ "obj-15", 0 ],
									"hidden" : 0
								}

							}
, 							{
								"patchline" : 								{
									"source" : [ "obj-14", 0 ],
									"destination" : [ "obj-10", 0 ],
									"hidden" : 1
								}

							}
, 							{
								"patchline" : 								{
									"source" : [ "obj-13", 0 ],
									"destination" : [ "obj-11", 0 ],
									"hidden" : 0,
									"midpoints" : [ 359.5, 97.0, 300.5, 97.0 ]
								}

							}
, 							{
								"patchline" : 								{
									"source" : [ "obj-12", 0 ],
									"destination" : [ "obj-13", 0 ],
									"hidden" : 0
								}

							}
, 							{
								"patchline" : 								{
									"source" : [ "obj-10", 0 ],
									"destination" : [ "obj-11", 0 ],
									"hidden" : 0
								}

							}
, 							{
								"patchline" : 								{
									"source" : [ "obj-9", 0 ],
									"destination" : [ "obj-10", 0 ],
									"hidden" : 0
								}

							}
, 							{
								"patchline" : 								{
									"source" : [ "obj-6", 0 ],
									"destination" : [ "obj-8", 0 ],
									"hidden" : 0,
									"midpoints" : [ 179.5, 157.0, 21.5, 157.0 ]
								}

							}
, 							{
								"patchline" : 								{
									"source" : [ "obj-4", 0 ],
									"destination" : [ "obj-8", 0 ],
									"hidden" : 0,
									"midpoints" : [ 109.5, 160.0, 21.5, 160.0 ]
								}

							}
, 							{
								"patchline" : 								{
									"source" : [ "obj-3", 0 ],
									"destination" : [ "obj-8", 0 ],
									"hidden" : 0,
									"midpoints" : [ 39.5, 163.0, 21.5, 163.0 ]
								}

							}
, 							{
								"patchline" : 								{
									"source" : [ "obj-1", 0 ],
									"destination" : [ "obj-8", 0 ],
									"hidden" : 0
								}

							}
, 							{
								"patchline" : 								{
									"source" : [ "obj-7", 0 ],
									"destination" : [ "obj-6", 0 ],
									"hidden" : 0
								}

							}
, 							{
								"patchline" : 								{
									"source" : [ "obj-5", 0 ],
									"destination" : [ "obj-4", 0 ],
									"hidden" : 0
								}

							}
, 							{
								"patchline" : 								{
									"source" : [ "obj-2", 0 ],
									"destination" : [ "obj-3", 0 ],
									"hidden" : 0
								}

							}
 ]
					}
,
					"saved_object_attributes" : 					{
						"default_fontname" : "Arial",
						"fontsize" : 10.0,
						"fontname" : "Arial",
						"globalpatchername" : "",
						"fontface" : 0,
						"default_fontsize" : 10.0,
						"default_fontface" : 0
					}

				}

			}
, 			{
				"box" : 				{
					"maxclass" : "comment",
					"text" : "recalc warping",
					"linecount" : 2,
					"patching_rect" : [ 30.0, 65.0, 49.0, 33.0 ],
					"fontsize" : 10.0,
					"fontname" : "Arial",
					"numinlets" : 1,
					"id" : "obj-9",
					"numoutlets" : 0
				}

			}
, 			{
				"box" : 				{
					"maxclass" : "button",
					"color" : [ 0.082353, 0.25098, 0.431373, 1.0 ],
					"patching_rect" : [ 21.0, 98.0, 32.0, 32.0 ],
					"numinlets" : 1,
					"id" : "obj-8",
					"numoutlets" : 1,
					"outlettype" : [ "bang" ]
				}

			}
, 			{
				"box" : 				{
					"maxclass" : "flonum",
					"minimum" : 0.5,
					"patching_rect" : [ 222.0, 20.0, 50.0, 20.0 ],
					"fontsize" : 10.0,
					"fontname" : "Arial",
					"numinlets" : 1,
					"id" : "obj-6",
					"numoutlets" : 2,
					"outlettype" : [ "float", "bang" ]
				}

			}
, 			{
				"box" : 				{
					"maxclass" : "toggle",
					"patching_rect" : [ 185.0, 20.0, 20.0, 20.0 ],
					"numinlets" : 1,
					"id" : "obj-7",
					"numoutlets" : 1,
					"outlettype" : [ "int" ]
				}

			}
, 			{
				"box" : 				{
					"maxclass" : "flonum",
					"minimum" : 0.5,
					"patching_rect" : [ 71.0, 20.0, 50.0, 20.0 ],
					"fontsize" : 10.0,
					"fontname" : "Arial",
					"numinlets" : 1,
					"id" : "obj-5",
					"numoutlets" : 2,
					"outlettype" : [ "float", "bang" ]
				}

			}
, 			{
				"box" : 				{
					"maxclass" : "newobj",
					"text" : "jit.matrix bar 4 char 320 240",
					"patching_rect" : [ 185.0, 64.0, 154.0, 20.0 ],
					"fontsize" : 10.0,
					"fontname" : "Arial",
					"numinlets" : 1,
					"id" : "obj-4",
					"numoutlets" : 2,
					"outlettype" : [ "jit_matrix", "" ]
				}

			}
, 			{
				"box" : 				{
					"maxclass" : "newobj",
					"text" : "metro 20",
					"patching_rect" : [ 185.0, 42.0, 56.0, 20.0 ],
					"fontsize" : 10.0,
					"fontname" : "Arial",
					"numinlets" : 2,
					"id" : "obj-3",
					"numoutlets" : 1,
					"outlettype" : [ "bang" ]
				}

			}
, 			{
				"box" : 				{
					"maxclass" : "newobj",
					"text" : "metro 5000",
					"patching_rect" : [ 21.0, 42.0, 69.0, 20.0 ],
					"fontsize" : 10.0,
					"fontname" : "Arial",
					"numinlets" : 2,
					"id" : "obj-2",
					"numoutlets" : 1,
					"outlettype" : [ "bang" ]
				}

			}
, 			{
				"box" : 				{
					"maxclass" : "toggle",
					"patching_rect" : [ 21.0, 20.0, 20.0, 20.0 ],
					"numinlets" : 1,
					"id" : "obj-1",
					"numoutlets" : 1,
					"outlettype" : [ "int" ]
				}

			}
 ],
		"lines" : [ 			{
				"patchline" : 				{
					"source" : [ "obj-55", 0 ],
					"destination" : [ "obj-56", 0 ],
					"hidden" : 0,
					"midpoints" : [ 386.5, 154.0, 313.5, 154.0 ]
				}

			}
, 			{
				"patchline" : 				{
					"source" : [ "obj-54", 0 ],
					"destination" : [ "obj-56", 0 ],
					"hidden" : 0
				}

			}
, 			{
				"patchline" : 				{
					"source" : [ "obj-45", 0 ],
					"destination" : [ "obj-28", 2 ],
					"hidden" : 0,
					"midpoints" : [ 787.5, 250.0, 690.5, 250.0 ]
				}

			}
, 			{
				"patchline" : 				{
					"source" : [ "obj-45", 0 ],
					"destination" : [ "obj-25", 2 ],
					"hidden" : 0,
					"midpoints" : [ 787.5, 254.0, 593.5, 254.0 ]
				}

			}
, 			{
				"patchline" : 				{
					"source" : [ "obj-45", 0 ],
					"destination" : [ "obj-33", 2 ],
					"hidden" : 0
				}

			}
, 			{
				"patchline" : 				{
					"source" : [ "obj-53", 0 ],
					"destination" : [ "obj-45", 1 ],
					"hidden" : 0,
					"midpoints" : [ 846.5, 213.0, 818.5, 213.0 ]
				}

			}
, 			{
				"patchline" : 				{
					"source" : [ "obj-52", 0 ],
					"destination" : [ "obj-44", 1 ],
					"hidden" : 0,
					"midpoints" : [ 846.5, 164.0, 816.5, 164.0 ]
				}

			}
, 			{
				"patchline" : 				{
					"source" : [ "obj-42", 0 ],
					"destination" : [ "obj-33", 1 ],
					"hidden" : 0,
					"midpoints" : [ 771.5, 232.0, 750.5, 232.0 ]
				}

			}
, 			{
				"patchline" : 				{
					"source" : [ "obj-42", 0 ],
					"destination" : [ "obj-28", 1 ],
					"hidden" : 0,
					"midpoints" : [ 771.5, 236.0, 653.5, 236.0 ]
				}

			}
, 			{
				"patchline" : 				{
					"source" : [ "obj-42", 0 ],
					"destination" : [ "obj-25", 1 ],
					"hidden" : 0,
					"midpoints" : [ 771.5, 240.0, 556.5, 240.0 ]
				}

			}
, 			{
				"patchline" : 				{
					"source" : [ "obj-49", 0 ],
					"destination" : [ "obj-42", 1 ],
					"hidden" : 0,
					"midpoints" : [ 806.5, 106.0, 786.5, 106.0 ]
				}

			}
, 			{
				"patchline" : 				{
					"source" : [ "obj-46", 0 ],
					"destination" : [ "obj-41", 1 ],
					"hidden" : 0
				}

			}
, 			{
				"patchline" : 				{
					"source" : [ "obj-41", 0 ],
					"destination" : [ "obj-42", 0 ],
					"hidden" : 0
				}

			}
, 			{
				"patchline" : 				{
					"source" : [ "obj-43", 0 ],
					"destination" : [ "obj-44", 0 ],
					"hidden" : 0
				}

			}
, 			{
				"patchline" : 				{
					"source" : [ "obj-44", 0 ],
					"destination" : [ "obj-45", 0 ],
					"hidden" : 0
				}

			}
, 			{
				"patchline" : 				{
					"source" : [ "obj-36", 0 ],
					"destination" : [ "obj-33", 0 ],
					"hidden" : 0
				}

			}
, 			{
				"patchline" : 				{
					"source" : [ "obj-21", 2 ],
					"destination" : [ "obj-38", 0 ],
					"hidden" : 0
				}

			}
, 			{
				"patchline" : 				{
					"source" : [ "obj-37", 0 ],
					"destination" : [ "obj-36", 0 ],
					"hidden" : 0
				}

			}
, 			{
				"patchline" : 				{
					"source" : [ "obj-38", 0 ],
					"destination" : [ "obj-37", 0 ],
					"hidden" : 0
				}

			}
, 			{
				"patchline" : 				{
					"source" : [ "obj-29", 0 ],
					"destination" : [ "obj-28", 0 ],
					"hidden" : 0
				}

			}
, 			{
				"patchline" : 				{
					"source" : [ "obj-21", 1 ],
					"destination" : [ "obj-31", 0 ],
					"hidden" : 0
				}

			}
, 			{
				"patchline" : 				{
					"source" : [ "obj-31", 0 ],
					"destination" : [ "obj-30", 0 ],
					"hidden" : 0
				}

			}
, 			{
				"patchline" : 				{
					"source" : [ "obj-30", 0 ],
					"destination" : [ "obj-29", 0 ],
					"hidden" : 0
				}

			}
, 			{
				"patchline" : 				{
					"source" : [ "obj-23", 0 ],
					"destination" : [ "obj-24", 0 ],
					"hidden" : 0
				}

			}
, 			{
				"patchline" : 				{
					"source" : [ "obj-24", 0 ],
					"destination" : [ "obj-25", 0 ],
					"hidden" : 0
				}

			}
, 			{
				"patchline" : 				{
					"source" : [ "obj-21", 0 ],
					"destination" : [ "obj-22", 0 ],
					"hidden" : 0
				}

			}
, 			{
				"patchline" : 				{
					"source" : [ "obj-22", 0 ],
					"destination" : [ "obj-23", 0 ],
					"hidden" : 0
				}

			}
, 			{
				"patchline" : 				{
					"source" : [ "obj-20", 0 ],
					"destination" : [ "obj-21", 0 ],
					"hidden" : 0
				}

			}
, 			{
				"patchline" : 				{
					"source" : [ "obj-35", 0 ],
					"destination" : [ "obj-20", 0 ],
					"hidden" : 0
				}

			}
, 			{
				"patchline" : 				{
					"source" : [ "obj-19", 0 ],
					"destination" : [ "obj-35", 2 ],
					"hidden" : 0,
					"midpoints" : [ 610.5, 72.0, 599.5, 72.0 ]
				}

			}
, 			{
				"patchline" : 				{
					"source" : [ "obj-18", 0 ],
					"destination" : [ "obj-35", 1 ],
					"hidden" : 0
				}

			}
, 			{
				"patchline" : 				{
					"source" : [ "obj-17", 0 ],
					"destination" : [ "obj-34", 0 ],
					"hidden" : 1
				}

			}
, 			{
				"patchline" : 				{
					"source" : [ "obj-16", 0 ],
					"destination" : [ "obj-17", 0 ],
					"hidden" : 1
				}

			}
, 			{
				"patchline" : 				{
					"source" : [ "obj-16", 0 ],
					"destination" : [ "obj-7", 0 ],
					"hidden" : 1
				}

			}
, 			{
				"patchline" : 				{
					"source" : [ "obj-16", 0 ],
					"destination" : [ "obj-1", 0 ],
					"hidden" : 1
				}

			}
, 			{
				"patchline" : 				{
					"source" : [ "obj-34", 0 ],
					"destination" : [ "obj-35", 0 ],
					"hidden" : 0
				}

			}
, 			{
				"patchline" : 				{
					"source" : [ "obj-14", 0 ],
					"destination" : [ "obj-15", 0 ],
					"hidden" : 0
				}

			}
, 			{
				"patchline" : 				{
					"source" : [ "obj-4", 0 ],
					"destination" : [ "obj-14", 0 ],
					"hidden" : 0
				}

			}
, 			{
				"patchline" : 				{
					"source" : [ "obj-10", 0 ],
					"destination" : [ "obj-13", 0 ],
					"hidden" : 0
				}

			}
, 			{
				"patchline" : 				{
					"source" : [ "obj-11", 0 ],
					"destination" : [ "obj-10", 2 ],
					"hidden" : 0,
					"midpoints" : [ 80.5, 155.0, 45.5, 155.0 ]
				}

			}
, 			{
				"patchline" : 				{
					"source" : [ "obj-4", 0 ],
					"destination" : [ "obj-10", 0 ],
					"hidden" : 0
				}

			}
, 			{
				"patchline" : 				{
					"source" : [ "obj-8", 0 ],
					"destination" : [ "obj-10", 1 ],
					"hidden" : 0
				}

			}
, 			{
				"patchline" : 				{
					"source" : [ "obj-2", 0 ],
					"destination" : [ "obj-8", 0 ],
					"hidden" : 0
				}

			}
, 			{
				"patchline" : 				{
					"source" : [ "obj-6", 0 ],
					"destination" : [ "obj-3", 1 ],
					"hidden" : 0
				}

			}
, 			{
				"patchline" : 				{
					"source" : [ "obj-7", 0 ],
					"destination" : [ "obj-3", 0 ],
					"hidden" : 0
				}

			}
, 			{
				"patchline" : 				{
					"source" : [ "obj-5", 0 ],
					"destination" : [ "obj-2", 1 ],
					"hidden" : 0
				}

			}
, 			{
				"patchline" : 				{
					"source" : [ "obj-1", 0 ],
					"destination" : [ "obj-2", 0 ],
					"hidden" : 0
				}

			}
, 			{
				"patchline" : 				{
					"source" : [ "obj-3", 0 ],
					"destination" : [ "obj-4", 0 ],
					"hidden" : 0
				}

			}
 ]
	}

}
