{
	"patcher" : 	{
		"fileversion" : 1,
		"rect" : [ 98.0, 92.0, 237.0, 300.0 ],
		"bglocked" : 0,
		"defrect" : [ 98.0, 92.0, 237.0, 300.0 ],
		"openrect" : [ 0.0, 0.0, 0.0, 0.0 ],
		"openinpresentation" : 0,
		"default_fontsize" : 10.0,
		"default_fontface" : 0,
		"default_fontname" : "Arial Bold",
		"gridonopen" : 0,
		"gridsize" : [ 8.0, 8.0 ],
		"gridsnaponopen" : 0,
		"toolbarvisible" : 1,
		"boxanimatetime" : 200,
		"imprint" : 0,
		"enablehscroll" : 1,
		"enablevscroll" : 1,
		"devicewidth" : 0.0,
		"boxes" : [ 			{
				"box" : 				{
					"maxclass" : "comment",
					"text" : "Generate list of voices to exclude",
					"linecount" : 3,
					"numinlets" : 1,
					"fontname" : "Arial Bold Italic",
					"patching_rect" : [ 136.0, 104.0, 72.0, 41.0 ],
					"id" : "obj-7",
					"numoutlets" : 0,
					"fontsize" : 10.0
				}

			}
, 			{
				"box" : 				{
					"maxclass" : "comment",
					"text" : "To poly~",
					"numinlets" : 1,
					"fontname" : "Arial Bold",
					"patching_rect" : [ 96.0, 256.0, 51.0, 18.0 ],
					"id" : "obj-5",
					"numoutlets" : 0,
					"fontsize" : 10.0
				}

			}
, 			{
				"box" : 				{
					"maxclass" : "comment",
					"text" : "Voices",
					"numinlets" : 1,
					"fontname" : "Arial Bold",
					"patching_rect" : [ 72.0, 16.0, 42.0, 18.0 ],
					"id" : "obj-4",
					"numoutlets" : 0,
					"fontsize" : 10.0
				}

			}
, 			{
				"box" : 				{
					"maxclass" : "message",
					"text" : "exclude $1 $2",
					"numinlets" : 2,
					"fontname" : "Arial Bold",
					"patching_rect" : [ 72.0, 216.0, 76.0, 16.0 ],
					"id" : "obj-25",
					"numoutlets" : 1,
					"outlettype" : [ "" ],
					"fontsize" : 10.0
				}

			}
, 			{
				"box" : 				{
					"maxclass" : "newobj",
					"text" : "t i i",
					"numinlets" : 1,
					"fontname" : "Arial Bold",
					"patching_rect" : [ 72.0, 144.0, 50.5, 18.0 ],
					"id" : "obj-23",
					"numoutlets" : 2,
					"outlettype" : [ "int", "int" ],
					"fontsize" : 10.0
				}

			}
, 			{
				"box" : 				{
					"maxclass" : "newobj",
					"text" : "pack 0 0",
					"numinlets" : 2,
					"fontname" : "Arial Bold",
					"patching_rect" : [ 72.0, 192.0, 51.0, 18.0 ],
					"id" : "obj-22",
					"numoutlets" : 1,
					"outlettype" : [ "" ],
					"fontsize" : 10.0
				}

			}
, 			{
				"box" : 				{
					"maxclass" : "newobj",
					"text" : ">",
					"numinlets" : 2,
					"fontname" : "Arial Bold",
					"patching_rect" : [ 104.0, 168.0, 30.5, 18.0 ],
					"id" : "obj-21",
					"numoutlets" : 1,
					"outlettype" : [ "int" ],
					"fontsize" : 10.0
				}

			}
, 			{
				"box" : 				{
					"maxclass" : "newobj",
					"text" : "+ 1",
					"numinlets" : 2,
					"fontname" : "Arial Bold",
					"patching_rect" : [ 72.0, 120.0, 32.5, 18.0 ],
					"id" : "obj-18",
					"numoutlets" : 1,
					"outlettype" : [ "int" ],
					"fontsize" : 10.0
				}

			}
, 			{
				"box" : 				{
					"maxclass" : "newobj",
					"text" : "uzi 31",
					"numinlets" : 2,
					"fontname" : "Arial Bold",
					"patching_rect" : [ 48.0, 96.0, 43.0, 18.0 ],
					"id" : "obj-17",
					"numoutlets" : 3,
					"outlettype" : [ "bang", "bang", "int" ],
					"fontsize" : 10.0
				}

			}
, 			{
				"box" : 				{
					"maxclass" : "newobj",
					"text" : "t b i",
					"numinlets" : 1,
					"fontname" : "Arial Bold",
					"patching_rect" : [ 48.0, 72.0, 86.5, 18.0 ],
					"id" : "obj-16",
					"numoutlets" : 2,
					"outlettype" : [ "bang", "int" ],
					"fontsize" : 10.0
				}

			}
, 			{
				"box" : 				{
					"maxclass" : "newobj",
					"text" : "change",
					"numinlets" : 1,
					"fontname" : "Arial Bold",
					"patching_rect" : [ 48.0, 48.0, 50.0, 18.0 ],
					"id" : "obj-6",
					"numoutlets" : 3,
					"outlettype" : [ "", "int", "int" ],
					"fontsize" : 10.0
				}

			}
, 			{
				"box" : 				{
					"maxclass" : "inlet",
					"numinlets" : 0,
					"patching_rect" : [ 48.0, 16.0, 18.0, 18.0 ],
					"id" : "obj-29",
					"numoutlets" : 1,
					"outlettype" : [ "" ],
					"comment" : ""
				}

			}
, 			{
				"box" : 				{
					"maxclass" : "outlet",
					"numinlets" : 1,
					"patching_rect" : [ 72.0, 256.0, 18.0, 18.0 ],
					"id" : "obj-30",
					"numoutlets" : 0,
					"comment" : ""
				}

			}
 ],
		"lines" : [ 			{
				"patchline" : 				{
					"source" : [ "obj-17", 2 ],
					"destination" : [ "obj-18", 0 ],
					"hidden" : 0,
					"midpoints" : [  ]
				}

			}
, 			{
				"patchline" : 				{
					"source" : [ "obj-18", 0 ],
					"destination" : [ "obj-23", 0 ],
					"hidden" : 0,
					"midpoints" : [  ]
				}

			}
, 			{
				"patchline" : 				{
					"source" : [ "obj-16", 0 ],
					"destination" : [ "obj-17", 0 ],
					"hidden" : 0,
					"midpoints" : [  ]
				}

			}
, 			{
				"patchline" : 				{
					"source" : [ "obj-25", 0 ],
					"destination" : [ "obj-30", 0 ],
					"hidden" : 0,
					"midpoints" : [  ]
				}

			}
, 			{
				"patchline" : 				{
					"source" : [ "obj-29", 0 ],
					"destination" : [ "obj-6", 0 ],
					"hidden" : 0,
					"midpoints" : [  ]
				}

			}
, 			{
				"patchline" : 				{
					"source" : [ "obj-6", 0 ],
					"destination" : [ "obj-16", 0 ],
					"hidden" : 0,
					"midpoints" : [  ]
				}

			}
, 			{
				"patchline" : 				{
					"source" : [ "obj-22", 0 ],
					"destination" : [ "obj-25", 0 ],
					"hidden" : 0,
					"midpoints" : [  ]
				}

			}
, 			{
				"patchline" : 				{
					"source" : [ "obj-23", 0 ],
					"destination" : [ "obj-22", 0 ],
					"hidden" : 0,
					"midpoints" : [  ]
				}

			}
, 			{
				"patchline" : 				{
					"source" : [ "obj-21", 0 ],
					"destination" : [ "obj-22", 1 ],
					"hidden" : 0,
					"midpoints" : [  ]
				}

			}
, 			{
				"patchline" : 				{
					"source" : [ "obj-23", 1 ],
					"destination" : [ "obj-21", 0 ],
					"hidden" : 0,
					"midpoints" : [  ]
				}

			}
, 			{
				"patchline" : 				{
					"source" : [ "obj-16", 1 ],
					"destination" : [ "obj-21", 1 ],
					"hidden" : 0,
					"midpoints" : [  ]
				}

			}
 ]
	}

}
