{
	"patcher" : 	{
		"rect" : [ 261.0, 44.0, 570.0, 472.0 ],
		"bgcolor" : [ 1.0, 1.0, 1.0, 1.0 ],
		"bglocked" : 0,
		"defrect" : [ 261.0, 44.0, 570.0, 472.0 ],
		"openinpresentation" : 0,
		"default_fontsize" : 10.0,
		"default_fontface" : 0,
		"default_fontname" : "Arial",
		"gridonopen" : 0,
		"gridsize" : [ 15.0, 15.0 ],
		"gridsnaponopen" : 0,
		"toolbarvisible" : 1,
		"boxfadetime" : 200,
		"boxanimatetime" : 200,
		"scrollanimatetime" : 200,
		"metadata" : [  ],
		"boxes" : [ 			{
				"box" : 				{
					"maxclass" : "flonum",
					"numinlets" : 1,
					"patching_rect" : [ 484.0, 108.0, 50.0, 20.0 ],
					"fontsize" : 10.0,
					"numoutlets" : 2,
					"fontname" : "Arial",
					"outlettype" : [ "float", "bang" ],
					"maximum" : 2,
					"id" : "obj-20",
					"minimum" : -2
				}

			}
, 			{
				"box" : 				{
					"maxclass" : "message",
					"text" : "y_anchor $1",
					"numinlets" : 2,
					"patching_rect" : [ 484.0, 129.0, 74.0, 18.0 ],
					"fontsize" : 10.0,
					"numoutlets" : 1,
					"fontname" : "Arial",
					"outlettype" : [ "" ],
					"id" : "obj-29"
				}

			}
, 			{
				"box" : 				{
					"maxclass" : "comment",
					"text" : "• y_anchor (-2 - 2)",
					"numinlets" : 1,
					"patching_rect" : [ 459.0, 91.0, 107.0, 20.0 ],
					"fontsize" : 10.0,
					"numoutlets" : 0,
					"fontname" : "Arial",
					"id" : "obj-30"
				}

			}
, 			{
				"box" : 				{
					"maxclass" : "flonum",
					"numinlets" : 1,
					"patching_rect" : [ 375.0, 108.0, 50.0, 20.0 ],
					"fontsize" : 10.0,
					"numoutlets" : 2,
					"fontname" : "Arial",
					"outlettype" : [ "float", "bang" ],
					"maximum" : 2,
					"id" : "obj-13",
					"minimum" : -2
				}

			}
, 			{
				"box" : 				{
					"maxclass" : "message",
					"text" : "x_anchor $1",
					"numinlets" : 2,
					"patching_rect" : [ 375.0, 129.0, 74.0, 18.0 ],
					"fontsize" : 10.0,
					"numoutlets" : 1,
					"fontname" : "Arial",
					"outlettype" : [ "" ],
					"id" : "obj-19"
				}

			}
, 			{
				"box" : 				{
					"maxclass" : "message",
					"text" : "amount $1",
					"numinlets" : 2,
					"patching_rect" : [ 244.0, 129.0, 65.0, 18.0 ],
					"fontsize" : 10.0,
					"numoutlets" : 1,
					"fontname" : "Arial",
					"outlettype" : [ "" ],
					"id" : "obj-18"
				}

			}
, 			{
				"box" : 				{
					"maxclass" : "flonum",
					"numinlets" : 1,
					"patching_rect" : [ 244.0, 108.0, 50.0, 20.0 ],
					"fontsize" : 10.0,
					"numoutlets" : 2,
					"fontname" : "Arial",
					"outlettype" : [ "float", "bang" ],
					"maximum" : 1,
					"id" : "obj-12",
					"minimum" : 0
				}

			}
, 			{
				"box" : 				{
					"maxclass" : "comment",
					"text" : "• x_anchor (-2 - 2)",
					"numinlets" : 1,
					"patching_rect" : [ 350.0, 91.0, 107.0, 20.0 ],
					"fontsize" : 10.0,
					"numoutlets" : 0,
					"fontname" : "Arial",
					"id" : "obj-11"
				}

			}
, 			{
				"box" : 				{
					"maxclass" : "flonum",
					"numinlets" : 1,
					"patching_rect" : [ 223.0, 11.0, 50.0, 20.0 ],
					"fontsize" : 10.0,
					"numoutlets" : 2,
					"fontname" : "Arial",
					"outlettype" : [ "float", "bang" ],
					"id" : "obj-26",
					"minimum" : 0.5
				}

			}
, 			{
				"box" : 				{
					"maxclass" : "newobj",
					"text" : "metro 2",
					"numinlets" : 2,
					"patching_rect" : [ 192.0, 33.0, 50.0, 20.0 ],
					"fontsize" : 10.0,
					"numoutlets" : 1,
					"fontname" : "Arial",
					"outlettype" : [ "bang" ],
					"id" : "obj-27"
				}

			}
, 			{
				"box" : 				{
					"maxclass" : "toggle",
					"numinlets" : 1,
					"patching_rect" : [ 192.0, 11.0, 20.0, 20.0 ],
					"numoutlets" : 1,
					"outlettype" : [ "int" ],
					"id" : "obj-28"
				}

			}
, 			{
				"box" : 				{
					"maxclass" : "comment",
					"text" : "2 source explode wipe",
					"numinlets" : 1,
					"patching_rect" : [ 348.0, 254.0, 136.0, 20.0 ],
					"fontsize" : 10.0,
					"numoutlets" : 0,
					"fontname" : "Arial",
					"id" : "obj-24"
				}

			}
, 			{
				"box" : 				{
					"maxclass" : "comment",
					"text" : "• explode amount (0-1)",
					"numinlets" : 1,
					"patching_rect" : [ 215.0, 91.0, 127.0, 20.0 ],
					"fontsize" : 10.0,
					"numoutlets" : 0,
					"fontname" : "Arial",
					"id" : "obj-21"
				}

			}
, 			{
				"box" : 				{
					"maxclass" : "flonum",
					"numinlets" : 1,
					"patching_rect" : [ 307.0, 13.0, 50.0, 20.0 ],
					"fontsize" : 10.0,
					"numoutlets" : 2,
					"fontname" : "Arial",
					"outlettype" : [ "float", "bang" ],
					"id" : "obj-15"
				}

			}
, 			{
				"box" : 				{
					"maxclass" : "message",
					"text" : "rate $1",
					"numinlets" : 2,
					"patching_rect" : [ 307.0, 35.0, 45.0, 18.0 ],
					"fontsize" : 10.0,
					"numoutlets" : 1,
					"fontname" : "Arial",
					"outlettype" : [ "" ],
					"id" : "obj-17"
				}

			}
, 			{
				"box" : 				{
					"maxclass" : "message",
					"text" : "stop",
					"numinlets" : 2,
					"patching_rect" : [ 276.0, 35.0, 30.5, 18.0 ],
					"fontsize" : 10.0,
					"numoutlets" : 1,
					"fontname" : "Arial",
					"outlettype" : [ "" ],
					"id" : "obj-22"
				}

			}
, 			{
				"box" : 				{
					"maxclass" : "message",
					"text" : "read",
					"numinlets" : 2,
					"patching_rect" : [ 243.0, 35.0, 32.0, 18.0 ],
					"fontsize" : 10.0,
					"numoutlets" : 1,
					"fontname" : "Arial",
					"outlettype" : [ "" ],
					"id" : "obj-23"
				}

			}
, 			{
				"box" : 				{
					"maxclass" : "newobj",
					"text" : "jit.qt.movie 320 240",
					"numinlets" : 1,
					"patching_rect" : [ 192.0, 68.0, 111.0, 20.0 ],
					"fontsize" : 10.0,
					"numoutlets" : 2,
					"fontname" : "Arial",
					"outlettype" : [ "jit_matrix", "" ],
					"id" : "obj-25"
				}

			}
, 			{
				"box" : 				{
					"maxclass" : "jit.fpsgui",
					"numinlets" : 1,
					"patching_rect" : [ 14.0, 425.0, 80.0, 33.333271 ],
					"fontsize" : 10.0,
					"numoutlets" : 1,
					"fontname" : "Arial",
					"outlettype" : [ "" ],
					"id" : "obj-16"
				}

			}
, 			{
				"box" : 				{
					"maxclass" : "comment",
					"text" : "jit.qtfx.xplo",
					"numinlets" : 1,
					"patching_rect" : [ 348.0, 226.0, 140.0, 33.0 ],
					"fontsize" : 20.0,
					"numoutlets" : 0,
					"fontname" : "Arial",
					"fontface" : 1,
					"id" : "obj-14"
				}

			}
, 			{
				"box" : 				{
					"maxclass" : "jit.pwindow",
					"depthbuffer" : 0,
					"numinlets" : 1,
					"patching_rect" : [ 14.0, 183.0, 320.0, 240.0 ],
					"numoutlets" : 2,
					"outlettype" : [ "", "" ],
					"id" : "obj-10"
				}

			}
, 			{
				"box" : 				{
					"maxclass" : "flonum",
					"numinlets" : 1,
					"patching_rect" : [ 136.0, 13.0, 50.0, 20.0 ],
					"fontsize" : 10.0,
					"numoutlets" : 2,
					"fontname" : "Arial",
					"outlettype" : [ "float", "bang" ],
					"id" : "obj-9"
				}

			}
, 			{
				"box" : 				{
					"maxclass" : "message",
					"text" : "rate $1",
					"numinlets" : 2,
					"patching_rect" : [ 136.0, 35.0, 47.0, 18.0 ],
					"fontsize" : 10.0,
					"numoutlets" : 1,
					"fontname" : "Arial",
					"outlettype" : [ "" ],
					"id" : "obj-8"
				}

			}
, 			{
				"box" : 				{
					"maxclass" : "message",
					"text" : "stop",
					"numinlets" : 2,
					"patching_rect" : [ 103.0, 35.0, 32.5, 18.0 ],
					"fontsize" : 10.0,
					"numoutlets" : 1,
					"fontname" : "Arial",
					"outlettype" : [ "" ],
					"id" : "obj-7"
				}

			}
, 			{
				"box" : 				{
					"maxclass" : "message",
					"text" : "read",
					"numinlets" : 2,
					"patching_rect" : [ 68.0, 35.0, 34.0, 18.0 ],
					"fontsize" : 10.0,
					"numoutlets" : 1,
					"fontname" : "Arial",
					"outlettype" : [ "" ],
					"id" : "obj-6"
				}

			}
, 			{
				"box" : 				{
					"maxclass" : "flonum",
					"numinlets" : 1,
					"patching_rect" : [ 45.0, 11.0, 50.0, 20.0 ],
					"fontsize" : 10.0,
					"numoutlets" : 2,
					"fontname" : "Arial",
					"outlettype" : [ "float", "bang" ],
					"id" : "obj-5",
					"minimum" : 0.5
				}

			}
, 			{
				"box" : 				{
					"maxclass" : "newobj",
					"text" : "jit.qtfx.xplo",
					"numinlets" : 2,
					"patching_rect" : [ 14.0, 161.0, 65.0, 20.0 ],
					"fontsize" : 10.0,
					"numoutlets" : 2,
					"fontname" : "Arial",
					"outlettype" : [ "jit_matrix", "" ],
					"id" : "obj-4"
				}

			}
, 			{
				"box" : 				{
					"maxclass" : "newobj",
					"text" : "jit.qt.movie 320 240",
					"numinlets" : 1,
					"patching_rect" : [ 14.0, 66.0, 111.0, 20.0 ],
					"fontsize" : 10.0,
					"numoutlets" : 2,
					"fontname" : "Arial",
					"outlettype" : [ "jit_matrix", "" ],
					"id" : "obj-3"
				}

			}
, 			{
				"box" : 				{
					"maxclass" : "newobj",
					"text" : "metro 2",
					"numinlets" : 2,
					"patching_rect" : [ 14.0, 33.0, 50.0, 20.0 ],
					"fontsize" : 10.0,
					"numoutlets" : 1,
					"fontname" : "Arial",
					"outlettype" : [ "bang" ],
					"id" : "obj-2"
				}

			}
, 			{
				"box" : 				{
					"maxclass" : "toggle",
					"numinlets" : 1,
					"patching_rect" : [ 14.0, 11.0, 20.0, 20.0 ],
					"numoutlets" : 1,
					"outlettype" : [ "int" ],
					"id" : "obj-1"
				}

			}
 ],
		"lines" : [ 			{
				"patchline" : 				{
					"source" : [ "obj-19", 0 ],
					"destination" : [ "obj-4", 0 ],
					"hidden" : 0,
					"midpoints" : [ 384.5, 152.0, 23.5, 152.0 ]
				}

			}
, 			{
				"patchline" : 				{
					"source" : [ "obj-18", 0 ],
					"destination" : [ "obj-4", 0 ],
					"hidden" : 0,
					"midpoints" : [ 253.5, 155.0, 23.5, 155.0 ]
				}

			}
, 			{
				"patchline" : 				{
					"source" : [ "obj-25", 0 ],
					"destination" : [ "obj-4", 1 ],
					"hidden" : 0
				}

			}
, 			{
				"patchline" : 				{
					"source" : [ "obj-4", 0 ],
					"destination" : [ "obj-10", 0 ],
					"hidden" : 0
				}

			}
, 			{
				"patchline" : 				{
					"source" : [ "obj-3", 0 ],
					"destination" : [ "obj-4", 0 ],
					"hidden" : 0
				}

			}
, 			{
				"patchline" : 				{
					"source" : [ "obj-29", 0 ],
					"destination" : [ "obj-4", 0 ],
					"hidden" : 0,
					"midpoints" : [ 493.5, 149.0, 23.5, 149.0 ]
				}

			}
, 			{
				"patchline" : 				{
					"source" : [ "obj-12", 0 ],
					"destination" : [ "obj-18", 0 ],
					"hidden" : 0
				}

			}
, 			{
				"patchline" : 				{
					"source" : [ "obj-17", 0 ],
					"destination" : [ "obj-25", 0 ],
					"hidden" : 0,
					"midpoints" : [ 316.5, 57.0, 201.5, 57.0 ]
				}

			}
, 			{
				"patchline" : 				{
					"source" : [ "obj-22", 0 ],
					"destination" : [ "obj-25", 0 ],
					"hidden" : 0,
					"midpoints" : [ 285.5, 60.0, 201.5, 60.0 ]
				}

			}
, 			{
				"patchline" : 				{
					"source" : [ "obj-23", 0 ],
					"destination" : [ "obj-25", 0 ],
					"hidden" : 0,
					"midpoints" : [ 252.5, 63.0, 201.5, 63.0 ]
				}

			}
, 			{
				"patchline" : 				{
					"source" : [ "obj-15", 0 ],
					"destination" : [ "obj-17", 0 ],
					"hidden" : 0
				}

			}
, 			{
				"patchline" : 				{
					"source" : [ "obj-1", 0 ],
					"destination" : [ "obj-2", 0 ],
					"hidden" : 0
				}

			}
, 			{
				"patchline" : 				{
					"source" : [ "obj-5", 0 ],
					"destination" : [ "obj-2", 1 ],
					"hidden" : 0
				}

			}
, 			{
				"patchline" : 				{
					"source" : [ "obj-9", 0 ],
					"destination" : [ "obj-8", 0 ],
					"hidden" : 0
				}

			}
, 			{
				"patchline" : 				{
					"source" : [ "obj-2", 0 ],
					"destination" : [ "obj-3", 0 ],
					"hidden" : 0
				}

			}
, 			{
				"patchline" : 				{
					"source" : [ "obj-6", 0 ],
					"destination" : [ "obj-3", 0 ],
					"hidden" : 0,
					"midpoints" : [ 77.5, 61.0, 23.5, 61.0 ]
				}

			}
, 			{
				"patchline" : 				{
					"source" : [ "obj-7", 0 ],
					"destination" : [ "obj-3", 0 ],
					"hidden" : 0,
					"midpoints" : [ 112.5, 58.0, 23.5, 58.0 ]
				}

			}
, 			{
				"patchline" : 				{
					"source" : [ "obj-8", 0 ],
					"destination" : [ "obj-3", 0 ],
					"hidden" : 0,
					"midpoints" : [ 145.5, 55.0, 23.5, 55.0 ]
				}

			}
, 			{
				"patchline" : 				{
					"source" : [ "obj-10", 0 ],
					"destination" : [ "obj-16", 0 ],
					"hidden" : 0
				}

			}
, 			{
				"patchline" : 				{
					"source" : [ "obj-26", 0 ],
					"destination" : [ "obj-27", 1 ],
					"hidden" : 0
				}

			}
, 			{
				"patchline" : 				{
					"source" : [ "obj-28", 0 ],
					"destination" : [ "obj-27", 0 ],
					"hidden" : 0
				}

			}
, 			{
				"patchline" : 				{
					"source" : [ "obj-27", 0 ],
					"destination" : [ "obj-25", 0 ],
					"hidden" : 0
				}

			}
, 			{
				"patchline" : 				{
					"source" : [ "obj-13", 0 ],
					"destination" : [ "obj-19", 0 ],
					"hidden" : 0
				}

			}
, 			{
				"patchline" : 				{
					"source" : [ "obj-20", 0 ],
					"destination" : [ "obj-29", 0 ],
					"hidden" : 0
				}

			}
 ]
	}

}
