max v2;#N vpatcher 3 46 648 257;#P origin 3 -4;#P window setfont "Sans Serif" 14.;#P window linecount 1;#P hidden message 591 84 20 196622 Z;#B color 5;#P objectname L[81];#P hidden message 570 84 20 196622 Y;#B color 5;#P objectname L[82];#P hidden message 549 84 20 196622 X;#B color 5;#P objectname L[83];#P hidden message 528 84 20 196622 W;#B color 5;#P objectname L[84];#P hidden message 507 84 20 196622 V;#B color 5;#P objectname L[85];#P hidden message 486 84 20 196622 U;#B color 5;#P objectname L[86];#P hidden message 465 84 20 196622 T;#B color 5;#P objectname L[87];#P hidden message 444 84 20 196622 S;#B color 5;#P objectname L[88];#P hidden message 423 84 20 196622 R;#B color 5;#P objectname L[89];#P hidden message 402 84 20 196622 Q;#B color 5;#P objectname L[90];#P hidden message 381 84 20 196622 P;#B color 5;#P objectname L[91];#P hidden message 360 84 20 196622 O;#B color 5;#P objectname L[92];#P hidden message 339 84 20 196622 N;#B color 5;#P objectname L[93];#P hidden message 318 84 20 196622 M;#B color 5;#P objectname L[94];#P hidden message 297 84 20 196622 L;#B color 5;#P objectname L[95];#P hidden message 276 84 20 196622 K;#B color 5;#P objectname L[96];#P hidden message 255 84 20 196622 J;#B color 5;#P objectname L[97];#P hidden message 234 84 20 196622 I;#B color 5;#P objectname L[98];#P hidden message 213 84 20 196622 H;#B color 5;#P objectname L[99];#P hidden message 192 84 20 196622 G;#B color 5;#P objectname L[100];#P hidden message 171 84 20 196622 F;#B color 5;#P objectname L[101];#P hidden message 150 84 20 196622 E;#B color 5;#P objectname L[102];#P hidden message 129 84 20 196622 D;#B color 5;#P objectname L[103];#P hidden message 108 84 20 196622 C;#B color 5;#P objectname L[104];#P hidden message 87 84 20 196622 B;#B color 5;#P objectname L[105];#P hidden message 66 84 20 196622 A;#B color 5;#P objectname L[106];#P window setfont "Sans Serif" 9.;#P hidden newex 614 107 94 196617 MOT-Loader 3rdP;#P window setfont "Sans Serif" 14.;#P hidden message 17 84 48 196622 3rd P;#B color 14;#P objectname L[107];#P hidden message 591 61 20 196622 Z;#B color 5;#P objectname L[80];#P hidden message 570 61 20 196622 Y;#B color 5;#P objectname L[79];#P hidden message 549 61 20 196622 X;#B color 5;#P objectname L[78];#P hidden message 528 61 20 196622 W;#B color 5;#P objectname L[77];#P hidden message 507 61 20 196622 V;#B color 5;#P objectname L[76];#P hidden message 486 61 20 196622 U;#B color 5;#P objectname L[75];#P hidden message 465 61 20 196622 T;#B color 5;#P objectname L[74];#P hidden message 444 61 20 196622 S;#B color 5;#P objectname L[73];#P hidden message 423 61 20 196622 R;#B color 5;#P objectname L[72];#P hidden message 402 61 20 196622 Q;#B color 5;#P objectname L[71];#P hidden message 381 61 20 196622 P;#B color 5;#P objectname L[70];#P hidden message 360 61 20 196622 O;#B color 5;#P objectname L[69];#P hidden message 339 61 20 196622 N;#B color 5;#P objectname L[68];#P hidden message 318 61 20 196622 M;#B color 5;#P objectname L[67];#P hidden message 297 61 20 196622 L;#B color 5;#P objectname L[66];#P hidden message 276 61 20 196622 K;#B color 5;#P objectname L[65];#P hidden message 255 61 20 196622 J;#B color 5;#P objectname L[64];#P hidden message 234 61 20 196622 I;#B color 5;#P objectname L[63];#P hidden message 213 61 20 196622 H;#B color 5;#P objectname L[62];#P hidden message 192 61 20 196622 G;#B color 5;#P objectname L[61];#P hidden message 171 61 20 196622 F;#B color 5;#P objectname L[60];#P hidden message 150 61 20 196622 E;#B color 5;#P objectname L[59];#P hidden message 129 61 20 196622 D;#B color 5;#P objectname L[58];#P hidden message 108 61 20 196622 C;#B color 5;#P objectname L[57];#P hidden message 87 61 20 196622 B;#B color 5;#P objectname L[56];#P hidden message 66 61 20 196622 A;#B color 5;#P objectname L[55];#P window setfont "Sans Serif" 9.;#P hidden newex 614 84 94 196617 MOT-Loader Jitter;#P window setfont "Sans Serif" 14.;#P message 591 38 20 196622 Z;#B color 5;#P objectname L[54];#P message 570 38 20 196622 Y;#B color 5;#P objectname L[53];#P message 549 38 20 196622 X;#B color 5;#P objectname L[52];#P message 528 38 20 196622 W;#B color 5;#P objectname L[51];#P message 507 38 20 196622 V;#B color 5;#P objectname L[50];#P message 486 38 20 196622 U;#B color 5;#P objectname L[49];#P message 465 38 20 196622 T;#B color 5;#P objectname L[48];#P message 444 38 20 196622 S;#B color 5;#P objectname L[47];#P message 423 38 20 196622 R;#B color 5;#P objectname L[46];#P message 402 38 20 196622 Q;#B color 5;#P objectname L[45];#P message 381 38 20 196622 P;#B color 5;#P objectname L[44];#P message 360 38 20 196622 O;#B color 5;#P objectname L[43];#P message 339 38 20 196622 N;#B color 5;#P objectname L[42];#P message 318 38 20 196622 M;#B color 5;#P objectname L[41];#P message 297 38 20 196622 L;#B color 5;#P objectname L[40];#P message 276 38 20 196622 K;#B color 5;#P objectname L[39];#P message 255 38 20 196622 J;#B color 5;#P objectname L[38];#P message 234 38 20 196622 I;#B color 5;#P objectname L[37];#P message 213 38 20 196622 H;#B color 5;#P objectname L[36];#P message 192 38 20 196622 G;#B color 5;#P objectname L[35];#P message 171 38 20 196622 F;#B color 5;#P objectname L[34];#P message 150 38 20 196622 E;#B color 5;#P objectname L[33];#P message 129 38 20 196622 D;#B color 5;#P objectname L[32];#P message 108 38 20 196622 C;#B color 5;#P objectname L[31];#P message 87 38 20 196622 B;#B color 5;#P objectname L[30];#P message 66 38 20 196622 A;#B color 5;#P objectname L[29];#P window setfont "Sans Serif" 9.;#P hidden newex 614 61 94 196617 MOT-Loader MSP;#P window setfont "Sans Serif" 14.;#P hidden message 17 61 48 196622 Jitter;#B color 14;#P objectname L[28];#P message 17 38 48 196622 MSP;#B color 14;#P objectname L[27];#P message 17 15 48 196622 Max;#B color 14;#P objectname L[26];#P window setfont "Sans Serif" 9.;#P hidden newex 614 15 105 196617 bgcolor 170 170 255;#B color 5;#P window setfont "Sans Serif" 14.;#P message 591 15 20 196622 Z;#B color 5;#P objectname L[25];#P message 570 15 20 196622 Y;#B color 5;#P objectname L[24];#P message 549 15 20 196622 X;#B color 5;#P objectname L[23];#P message 528 15 20 196622 W;#B color 5;#P objectname L[22];#P message 507 15 20 196622 V;#B color 5;#P objectname L[21];#P message 486 15 20 196622 U;#B color 5;#P objectname L[20];#P message 465 15 20 196622 T;#B color 5;#P objectname L[19];#P message 444 15 20 196622 S;#B color 5;#P objectname L[18];#P message 423 15 20 196622 R;#B color 5;#P objectname L[17];#P message 402 15 20 196622 Q;#B color 5;#P objectname L[16];#P message 381 15 20 196622 P;#B color 5;#P objectname L[15];#P message 360 15 20 196622 O;#B color 5;#P objectname L[14];#P message 339 15 20 196622 N;#B color 5;#P objectname L[13];#P message 318 15 20 196622 M;#B color 5;#P objectname L[12];#P message 297 15 20 196622 L;#B color 5;#P objectname L[11];#P message 276 15 20 196622 K;#B color 5;#P objectname L[10];#P message 255 15 20 196622 J;#B color 5;#P objectname L[9];#P message 234 15 20 196622 I;#B color 5;#P objectname L[8];#P message 213 15 20 196622 H;#B color 5;#P objectname L[7];#P message 192 15 20 196622 G;#B color 5;#P objectname L[6];#P message 171 15 20 196622 F;#B color 5;#P objectname L[5];#P message 150 15 20 196622 E;#B color 5;#P objectname L[4];#P message 129 15 20 196622 D;#B color 5;#P objectname L[3];#P message 108 15 20 196622 C;#B color 5;#P objectname L[2];#P message 87 15 20 196622 B;#B color 5;#P objectname L[1];#P message 66 15 20 196622 A;#B color 5;#P objectname L[0];#P window setfont "Sans Serif" 9.;#P window linecount 0;#P comment 0 1 100 196617;#P window linecount 1;#N thispatcher;#Q end;#P hidden newobj 614 133 59 196617 thispatcher;#P hidden newex 614 38 94 196617 MOT-Loader Max;#P comment 67 128 100 196617 Have fun \,;#P comment 67 147 100 196617 Stefan;#P user textedit 66 83 611 168 0 3 9 This is the Max Object Thesaurus as Max patch. It will call the corresponding help files by clicking on the object names. Just choose a letter from above \, and it will close the existing window and open the thesaurus for that letter. The grey letter will switch between Max and MSP versions and the border will bring you back to this place;#P hidden connect 6 0 3 0;#P hidden connect 7 0 3 0;#P hidden connect 8 0 3 0;#P hidden connect 9 0 3 0;#P hidden connect 10 0 3 0;#P hidden connect 11 0 3 0;#P hidden connect 12 0 3 0;#P hidden connect 13 0 3 0;#P hidden connect 14 0 3 0;#P hidden connect 15 0 3 0;#P hidden connect 16 0 3 0;#P hidden connect 17 0 3 0;#P hidden connect 18 0 3 0;#P hidden connect 19 0 3 0;#P hidden connect 20 0 3 0;#P hidden connect 21 0 3 0;#P hidden connect 22 0 3 0;#P hidden connect 23 0 3 0;#P hidden connect 24 0 3 0;#P hidden connect 25 0 3 0;#P hidden connect 26 0 3 0;#P hidden connect 27 0 3 0;#P hidden connect 28 0 3 0;#P hidden connect 29 0 3 0;#P hidden connect 30 0 3 0;#P hidden connect 31 0 3 0;#P hidden connect 37 0 36 0;#P hidden connect 38 0 36 0;#P hidden connect 39 0 36 0;#P hidden connect 40 0 36 0;#P hidden connect 41 0 36 0;#P hidden connect 42 0 36 0;#P hidden connect 43 0 36 0;#P hidden connect 44 0 36 0;#P hidden connect 45 0 36 0;#P hidden connect 46 0 36 0;#P hidden connect 47 0 36 0;#P hidden connect 48 0 36 0;#P hidden connect 49 0 36 0;#P hidden connect 50 0 36 0;#P hidden connect 51 0 36 0;#P hidden connect 52 0 36 0;#P hidden connect 53 0 36 0;#P hidden connect 54 0 36 0;#P hidden connect 55 0 36 0;#P hidden connect 56 0 36 0;#P hidden connect 57 0 36 0;#P hidden connect 58 0 36 0;#P hidden connect 59 0 36 0;#P hidden connect 60 0 36 0;#P hidden connect 61 0 36 0;#P hidden connect 62 0 36 0;#P hidden connect 89 0 63 0;#P hidden connect 88 0 63 0;#P hidden connect 87 0 63 0;#P hidden connect 86 0 63 0;#P hidden connect 85 0 63 0;#P hidden connect 84 0 63 0;#P hidden connect 83 0 63 0;#P hidden connect 82 0 63 0;#P hidden connect 81 0 63 0;#P hidden connect 80 0 63 0;#P hidden connect 79 0 63 0;#P hidden connect 78 0 63 0;#P hidden connect 77 0 63 0;#P hidden connect 76 0 63 0;#P hidden connect 75 0 63 0;#P hidden connect 74 0 63 0;#P hidden connect 73 0 63 0;#P hidden connect 72 0 63 0;#P hidden connect 71 0 63 0;#P hidden connect 70 0 63 0;#P hidden connect 69 0 63 0;#P hidden connect 68 0 63 0;#P hidden connect 67 0 63 0;#P hidden connect 66 0 63 0;#P hidden connect 65 0 63 0;#P hidden connect 64 0 63 0;#P hidden connect 117 0 91 0;#P hidden connect 116 0 91 0;#P hidden connect 115 0 91 0;#P hidden connect 114 0 91 0;#P hidden connect 113 0 91 0;#P hidden connect 112 0 91 0;#P hidden connect 111 0 91 0;#P hidden connect 110 0 91 0;#P hidden connect 109 0 91 0;#P hidden connect 108 0 91 0;#P hidden connect 107 0 91 0;#P hidden connect 106 0 91 0;#P hidden connect 105 0 91 0;#P hidden connect 104 0 91 0;#P hidden connect 103 0 91 0;#P hidden connect 102 0 91 0;#P hidden connect 101 0 91 0;#P hidden connect 100 0 91 0;#P hidden connect 99 0 91 0;#P hidden connect 98 0 91 0;#P hidden connect 97 0 91 0;#P hidden connect 96 0 91 0;#P hidden connect 95 0 91 0;#P hidden connect 94 0 91 0;#P hidden connect 93 0 91 0;#P hidden connect 92 0 91 0;#P hidden connect 91 0 4 0;#P hidden connect 3 0 4 0;#P hidden connect 36 0 4 0;#P hidden connect 63 0 4 0;#P pop;