{
	"patcher" : 	{
		"fileversion" : 1,
		"appversion" : 		{
			"major" : 6,
			"minor" : 0,
			"revision" : 0
		}
,
		"rect" : [ 8.0, 44.0, 917.0, 618.0 ],
		"bglocked" : 0,
		"openinpresentation" : 0,
		"default_fontsize" : 12.0,
		"default_fontface" : 0,
		"default_fontname" : "Verdana",
		"gridonopen" : 0,
		"gridsize" : [ 10.0, 10.0 ],
		"gridsnaponopen" : 0,
		"statusbarvisible" : 2,
		"toolbarvisible" : 1,
		"boxanimatetime" : 200,
		"imprint" : 0,
		"enablehscroll" : 1,
		"enablevscroll" : 1,
		"devicewidth" : 0.0,
		"description" : "",
		"digest" : "",
		"tags" : "",
		"boxes" : [ 			{
				"box" : 				{
					"fontname" : "Verdana",
					"fontsize" : 12.0,
					"id" : "obj-16",
					"linecount" : 7,
					"maxclass" : "comment",
					"numinlets" : 1,
					"numoutlets" : 0,
					"patching_rect" : [ 612.0, 432.5, 277.0, 109.0 ],
					"text" : "try:\nenable ui_listen on the jit.anim.drive, disable the jit.gl.handle, and drag mouse in the window.\n\ndouble click the jit.anim.drive to edit the ui-mapping dictionary"
				}

			}
, 			{
				"box" : 				{
					"fontname" : "Verdana",
					"fontsize" : 16.0,
					"id" : "obj-34",
					"maxclass" : "comment",
					"numinlets" : 1,
					"numoutlets" : 0,
					"patching_rect" : [ 369.5, 51.5, 235.0, 26.0 ],
					"text" : "Pivot points with anim.node"
				}

			}
, 			{
				"box" : 				{
					"bubble" : 1,
					"fontname" : "Verdana",
					"fontsize" : 12.0,
					"id" : "obj-32",
					"linecount" : 2,
					"maxclass" : "comment",
					"numinlets" : 1,
					"numoutlets" : 0,
					"patching_rect" : [ 264.0, 541.0, 120.0, 40.0 ],
					"text" : "pivot point visualization"
				}

			}
, 			{
				"box" : 				{
					"color" : [ 0.501961, 0.0, 0.501961, 1.0 ],
					"fontname" : "Verdana",
					"fontsize" : 12.0,
					"id" : "obj-31",
					"maxclass" : "newobj",
					"numinlets" : 1,
					"numoutlets" : 2,
					"outlettype" : [ "jit_matrix", "" ],
					"patching_rect" : [ 19.0, 571.0, 238.0, 21.0 ],
					"text" : "jit.gl.gridshape @color 1 0 0 @axes 1"
				}

			}
, 			{
				"box" : 				{
					"color" : [ 1.0, 0.501961, 0.0, 1.0 ],
					"fontname" : "Verdana",
					"fontsize" : 12.0,
					"id" : "obj-30",
					"maxclass" : "newobj",
					"numinlets" : 1,
					"numoutlets" : 2,
					"outlettype" : [ "", "" ],
					"patching_rect" : [ 19.0, 541.0, 214.0, 21.0 ],
					"text" : "jit.anim.node @scale 0.3 0.3 0.3"
				}

			}
, 			{
				"box" : 				{
					"bubble" : 1,
					"fontname" : "Verdana",
					"fontsize" : 12.0,
					"id" : "obj-29",
					"linecount" : 3,
					"maxclass" : "comment",
					"numinlets" : 1,
					"numoutlets" : 0,
					"patching_rect" : [ 399.5, 432.5, 176.0, 54.0 ],
					"text" : "dynamic node offset 1 unit relative to pivot point on Y axis"
				}

			}
, 			{
				"box" : 				{
					"bubble" : 1,
					"fontname" : "Verdana",
					"fontsize" : 12.0,
					"id" : "obj-28",
					"linecount" : 3,
					"maxclass" : "comment",
					"numinlets" : 1,
					"numoutlets" : 0,
					"patching_rect" : [ 477.5, 337.0, 176.0, 54.0 ],
					"text" : "pivot point positioned 1 unit up Y axis and made to turn around X axis"
				}

			}
, 			{
				"box" : 				{
					"bubble" : 1,
					"fontname" : "Verdana",
					"fontsize" : 12.0,
					"id" : "obj-27",
					"maxclass" : "comment",
					"numinlets" : 1,
					"numoutlets" : 0,
					"patching_rect" : [ 369.5, 174.0, 94.0, 25.0 ],
					"text" : "static node"
				}

			}
, 			{
				"box" : 				{
					"bubble" : 1,
					"fontname" : "Verdana",
					"fontsize" : 12.0,
					"id" : "obj-25",
					"maxclass" : "comment",
					"numinlets" : 1,
					"numoutlets" : 0,
					"patching_rect" : [ 178.0, 108.0, 86.0, 25.0 ],
					"text" : "root node"
				}

			}
, 			{
				"box" : 				{
					"attr" : "rotatexyz",
					"fontname" : "Verdana",
					"fontsize" : 12.0,
					"id" : "obj-20",
					"maxclass" : "attrui",
					"numinlets" : 1,
					"numoutlets" : 1,
					"outlettype" : [ "" ],
					"patching_rect" : [ 86.0, 78.5, 199.5, 21.0 ],
					"text_width" : 75.0
				}

			}
, 			{
				"box" : 				{
					"attr" : "position",
					"fontname" : "Verdana",
					"fontsize" : 12.0,
					"id" : "obj-19",
					"maxclass" : "attrui",
					"numinlets" : 1,
					"numoutlets" : 1,
					"outlettype" : [ "" ],
					"patching_rect" : [ 58.0, 51.5, 199.5, 21.0 ],
					"text_width" : 75.0
				}

			}
, 			{
				"box" : 				{
					"color" : [ 1.0, 0.501961, 0.0, 1.0 ],
					"fontname" : "Verdana",
					"fontsize" : 12.0,
					"id" : "obj-17",
					"maxclass" : "newobj",
					"numinlets" : 1,
					"numoutlets" : 2,
					"outlettype" : [ "", "" ],
					"patching_rect" : [ 58.0, 110.0, 100.0, 21.0 ],
					"text" : "jit.anim.node"
				}

			}
, 			{
				"box" : 				{
					"attr" : "position",
					"fontname" : "Verdana",
					"fontsize" : 12.0,
					"id" : "obj-15",
					"maxclass" : "attrui",
					"numinlets" : 1,
					"numoutlets" : 1,
					"outlettype" : [ "" ],
					"patching_rect" : [ 264.0, 353.5, 199.5, 21.0 ],
					"text_width" : 75.0
				}

			}
, 			{
				"box" : 				{
					"color" : [ 0.0, 0.501961, 1.0, 1.0 ],
					"fontname" : "Verdana",
					"fontsize" : 12.0,
					"id" : "obj-12",
					"maxclass" : "newobj",
					"numinlets" : 1,
					"numoutlets" : 2,
					"outlettype" : [ "", "" ],
					"patching_rect" : [ 151.0, 309.5, 183.0, 21.0 ],
					"text" : "jit.anim.drive @turn 1 0 0"
				}

			}
, 			{
				"box" : 				{
					"color" : [ 1.0, 0.501961, 0.0, 1.0 ],
					"fontname" : "Verdana",
					"fontsize" : 12.0,
					"frozen_object_attributes" : 					{
						"position" : [ 0.0, 1.0, 0.0 ]
					}
,
					"id" : "obj-10",
					"maxclass" : "newobj",
					"numinlets" : 1,
					"numoutlets" : 2,
					"outlettype" : [ "", "" ],
					"patching_rect" : [ 151.0, 403.75, 100.0, 21.0 ],
					"text" : "jit.anim.node"
				}

			}
, 			{
				"box" : 				{
					"color" : [ 1.0, 0.501961, 0.0, 1.0 ],
					"fontname" : "Verdana",
					"fontsize" : 12.0,
					"frozen_object_attributes" : 					{
						"position" : [ 0.0, 1.0, 0.0 ]
					}
,
					"id" : "obj-9",
					"maxclass" : "newobj",
					"numinlets" : 1,
					"numoutlets" : 2,
					"outlettype" : [ "", "" ],
					"patching_rect" : [ 151.0, 449.0, 212.0, 21.0 ],
					"text" : "jit.anim.node @scale 0.25 1 0.25"
				}

			}
, 			{
				"box" : 				{
					"color" : [ 1.0, 0.501961, 0.0, 1.0 ],
					"fontname" : "Verdana",
					"fontsize" : 12.0,
					"id" : "obj-8",
					"maxclass" : "newobj",
					"numinlets" : 1,
					"numoutlets" : 2,
					"outlettype" : [ "", "" ],
					"patching_rect" : [ 151.0, 174.0, 212.0, 21.0 ],
					"text" : "jit.anim.node @scale 0.26 1 0.26"
				}

			}
, 			{
				"box" : 				{
					"color" : [ 0.501961, 0.0, 0.501961, 1.0 ],
					"fontname" : "Verdana",
					"fontsize" : 12.0,
					"id" : "obj-7",
					"maxclass" : "newobj",
					"numinlets" : 1,
					"numoutlets" : 2,
					"outlettype" : [ "jit_matrix", "" ],
					"patching_rect" : [ 264.0, 499.75, 279.0, 21.0 ],
					"text" : "jit.gl.gridshape @shape cube @color 0 0 1 1"
				}

			}
, 			{
				"box" : 				{
					"fontname" : "Verdana",
					"fontsize" : 12.0,
					"id" : "obj-5",
					"maxclass" : "newobj",
					"numinlets" : 8,
					"numoutlets" : 2,
					"outlettype" : [ "", "" ],
					"patching_rect" : [ 313.75, 217.0, 100.0, 21.0 ],
					"text" : "jit.gl.material"
				}

			}
, 			{
				"box" : 				{
					"color" : [ 0.501961, 0.0, 0.501961, 1.0 ],
					"fontname" : "Verdana",
					"fontsize" : 12.0,
					"id" : "obj-1",
					"maxclass" : "newobj",
					"numinlets" : 1,
					"numoutlets" : 2,
					"outlettype" : [ "jit_matrix", "" ],
					"patching_rect" : [ 264.0, 256.25, 279.0, 21.0 ],
					"text" : "jit.gl.gridshape @shape cube @color 1 1 0 1"
				}

			}
, 			{
				"box" : 				{
					"fontname" : "Verdana",
					"fontsize" : 12.0,
					"id" : "obj-14",
					"maxclass" : "newobj",
					"numinlets" : 1,
					"numoutlets" : 2,
					"outlettype" : [ "", "" ],
					"patching_rect" : [ 739.0, 106.0, 111.0, 21.0 ],
					"text" : "jit.gl.handle"
				}

			}
, 			{
				"box" : 				{
					"fontname" : "Arial",
					"fontsize" : 12.0,
					"id" : "obj-76",
					"maxclass" : "newobj",
					"numinlets" : 1,
					"numoutlets" : 0,
					"patching_rect" : [ 725.0, 166.0, 74.0, 20.0 ],
					"text" : "s drawbang"
				}

			}
, 			{
				"box" : 				{
					"bgcolor" : [ 1.0, 0.0, 0.501961, 1.0 ],
					"id" : "obj-6",
					"maxclass" : "toggle",
					"numinlets" : 1,
					"numoutlets" : 1,
					"outlettype" : [ "int" ],
					"parameter_enable" : 0,
					"patching_rect" : [ 655.0, 51.5, 43.5, 43.5 ]
				}

			}
, 			{
				"box" : 				{
					"fontname" : "Arial",
					"fontsize" : 12.0,
					"id" : "obj-22",
					"maxclass" : "newobj",
					"numinlets" : 1,
					"numoutlets" : 2,
					"outlettype" : [ "bang", "erase" ],
					"patching_rect" : [ 655.0, 133.0, 57.0, 20.0 ],
					"text" : "t b erase"
				}

			}
, 			{
				"box" : 				{
					"fontname" : "Arial",
					"fontsize" : 12.0,
					"id" : "obj-23",
					"maxclass" : "newobj",
					"numinlets" : 2,
					"numoutlets" : 1,
					"outlettype" : [ "bang" ],
					"patching_rect" : [ 655.0, 106.0, 65.0, 20.0 ],
					"text" : "qmetro 20"
				}

			}
, 			{
				"box" : 				{
					"fontname" : "Arial",
					"fontsize" : 12.0,
					"id" : "obj-24",
					"maxclass" : "newobj",
					"numinlets" : 1,
					"numoutlets" : 2,
					"outlettype" : [ "bang", "" ],
					"patching_rect" : [ 655.0, 166.0, 72.0, 20.0 ],
					"text" : "jit.gl.render"
				}

			}
, 			{
				"box" : 				{
					"fontname" : "Arial",
					"fontsize" : 12.0,
					"frozen_object_attributes" : 					{
						"rect" : [ 927, 44, 1247, 284 ]
					}
,
					"id" : "obj-26",
					"maxclass" : "newobj",
					"numinlets" : 1,
					"numoutlets" : 2,
					"outlettype" : [ "bang", "" ],
					"patching_rect" : [ 655.0, 227.5, 100.0, 20.0 ],
					"text" : "jit.window"
				}

			}
, 			{
				"box" : 				{
					"attr" : "floating",
					"fontname" : "Verdana",
					"fontsize" : 12.0,
					"id" : "obj-3",
					"maxclass" : "attrui",
					"numinlets" : 1,
					"numoutlets" : 1,
					"outlettype" : [ "" ],
					"patching_rect" : [ 655.0, 196.5, 102.0, 21.0 ],
					"text_width" : 63.327633
				}

			}
, 			{
				"box" : 				{
					"attr" : "position",
					"fontname" : "Verdana",
					"fontsize" : 12.0,
					"id" : "obj-13",
					"maxclass" : "attrui",
					"numinlets" : 1,
					"numoutlets" : 1,
					"outlettype" : [ "" ],
					"patching_rect" : [ 264.0, 403.75, 199.5, 21.0 ],
					"text_width" : 75.0
				}

			}
, 			{
				"box" : 				{
					"attr" : "ui_listen",
					"fontname" : "Verdana",
					"fontsize" : 12.0,
					"id" : "obj-2",
					"maxclass" : "attrui",
					"numinlets" : 1,
					"numoutlets" : 1,
					"outlettype" : [ "" ],
					"patching_rect" : [ 151.0, 282.5, 100.0, 21.0 ],
					"text_width" : 72.0
				}

			}
, 			{
				"box" : 				{
					"attr" : "enable",
					"fontname" : "Verdana",
					"fontsize" : 12.0,
					"id" : "obj-4",
					"maxclass" : "attrui",
					"numinlets" : 1,
					"numoutlets" : 1,
					"outlettype" : [ "" ],
					"patching_rect" : [ 739.0, 78.5, 111.0, 21.0 ],
					"text_width" : 68.0
				}

			}
 ],
		"lines" : [ 			{
				"patchline" : 				{
					"destination" : [ "obj-30", 0 ],
					"disabled" : 0,
					"hidden" : 0,
					"source" : [ "obj-10", 0 ]
				}

			}
, 			{
				"patchline" : 				{
					"destination" : [ "obj-9", 0 ],
					"disabled" : 0,
					"hidden" : 0,
					"source" : [ "obj-10", 0 ]
				}

			}
, 			{
				"patchline" : 				{
					"destination" : [ "obj-10", 0 ],
					"disabled" : 0,
					"hidden" : 0,
					"source" : [ "obj-12", 0 ]
				}

			}
, 			{
				"patchline" : 				{
					"destination" : [ "obj-9", 0 ],
					"disabled" : 0,
					"hidden" : 0,
					"source" : [ "obj-13", 0 ]
				}

			}
, 			{
				"patchline" : 				{
					"destination" : [ "obj-24", 0 ],
					"disabled" : 0,
					"hidden" : 0,
					"source" : [ "obj-14", 0 ]
				}

			}
, 			{
				"patchline" : 				{
					"destination" : [ "obj-10", 0 ],
					"disabled" : 0,
					"hidden" : 0,
					"source" : [ "obj-15", 0 ]
				}

			}
, 			{
				"patchline" : 				{
					"destination" : [ "obj-10", 0 ],
					"disabled" : 0,
					"hidden" : 0,
					"source" : [ "obj-17", 0 ]
				}

			}
, 			{
				"patchline" : 				{
					"destination" : [ "obj-8", 0 ],
					"disabled" : 0,
					"hidden" : 0,
					"source" : [ "obj-17", 0 ]
				}

			}
, 			{
				"patchline" : 				{
					"destination" : [ "obj-17", 0 ],
					"disabled" : 0,
					"hidden" : 0,
					"source" : [ "obj-19", 0 ]
				}

			}
, 			{
				"patchline" : 				{
					"destination" : [ "obj-12", 0 ],
					"disabled" : 0,
					"hidden" : 0,
					"source" : [ "obj-2", 0 ]
				}

			}
, 			{
				"patchline" : 				{
					"destination" : [ "obj-17", 0 ],
					"disabled" : 0,
					"hidden" : 0,
					"source" : [ "obj-20", 0 ]
				}

			}
, 			{
				"patchline" : 				{
					"destination" : [ "obj-24", 0 ],
					"disabled" : 0,
					"hidden" : 0,
					"source" : [ "obj-22", 1 ]
				}

			}
, 			{
				"patchline" : 				{
					"destination" : [ "obj-24", 0 ],
					"disabled" : 0,
					"hidden" : 0,
					"source" : [ "obj-22", 0 ]
				}

			}
, 			{
				"patchline" : 				{
					"destination" : [ "obj-76", 0 ],
					"disabled" : 0,
					"hidden" : 0,
					"source" : [ "obj-22", 0 ]
				}

			}
, 			{
				"patchline" : 				{
					"destination" : [ "obj-22", 0 ],
					"disabled" : 0,
					"hidden" : 0,
					"source" : [ "obj-23", 0 ]
				}

			}
, 			{
				"patchline" : 				{
					"destination" : [ "obj-26", 0 ],
					"disabled" : 0,
					"hidden" : 0,
					"source" : [ "obj-3", 0 ]
				}

			}
, 			{
				"patchline" : 				{
					"destination" : [ "obj-31", 0 ],
					"disabled" : 0,
					"hidden" : 0,
					"source" : [ "obj-30", 0 ]
				}

			}
, 			{
				"patchline" : 				{
					"destination" : [ "obj-14", 0 ],
					"disabled" : 0,
					"hidden" : 0,
					"source" : [ "obj-4", 0 ]
				}

			}
, 			{
				"patchline" : 				{
					"destination" : [ "obj-1", 0 ],
					"disabled" : 0,
					"hidden" : 0,
					"source" : [ "obj-5", 0 ]
				}

			}
, 			{
				"patchline" : 				{
					"destination" : [ "obj-7", 0 ],
					"disabled" : 0,
					"hidden" : 0,
					"source" : [ "obj-5", 0 ]
				}

			}
, 			{
				"patchline" : 				{
					"destination" : [ "obj-23", 0 ],
					"disabled" : 0,
					"hidden" : 0,
					"source" : [ "obj-6", 0 ]
				}

			}
, 			{
				"patchline" : 				{
					"destination" : [ "obj-1", 0 ],
					"disabled" : 0,
					"hidden" : 0,
					"source" : [ "obj-8", 0 ]
				}

			}
, 			{
				"patchline" : 				{
					"destination" : [ "obj-7", 0 ],
					"disabled" : 0,
					"hidden" : 0,
					"source" : [ "obj-9", 0 ]
				}

			}
 ],
		"dependency_cache" : [  ]
	}

}
