{
	"patcher" : 	{
		"fileversion" : 1,
		"rect" : [ 622.0, 44.0, 477.0, 250.0 ],
		"bglocked" : 0,
		"defrect" : [ 622.0, 44.0, 477.0, 250.0 ],
		"openrect" : [ 0.0, 0.0, 0.0, 0.0 ],
		"openinpresentation" : 0,
		"default_fontsize" : 11.595187,
		"default_fontface" : 0,
		"default_fontname" : "Arial",
		"gridonopen" : 0,
		"gridsize" : [ 15.0, 15.0 ],
		"gridsnaponopen" : 0,
		"toolbarvisible" : 1,
		"boxanimatetime" : 200,
		"imprint" : 0,
		"enablehscroll" : 1,
		"enablevscroll" : 1,
		"devicewidth" : 0.0,
		"boxes" : [ 			{
				"box" : 				{
					"maxclass" : "message",
					"text" : "stop",
					"outlettype" : [ "" ],
					"fontsize" : 11.595187,
					"patching_rect" : [ 221.0, 197.0, 30.0, 18.0 ],
					"id" : "obj-22",
					"numinlets" : 2,
					"fontname" : "Arial",
					"numoutlets" : 1
				}

			}
, 			{
				"box" : 				{
					"maxclass" : "message",
					"text" : "startwindow",
					"outlettype" : [ "" ],
					"fontsize" : 11.595187,
					"patching_rect" : [ 149.0, 197.0, 70.0, 18.0 ],
					"id" : "obj-21",
					"numinlets" : 2,
					"fontname" : "Arial",
					"numoutlets" : 1
				}

			}
, 			{
				"box" : 				{
					"maxclass" : "newobj",
					"text" : "dac~",
					"fontsize" : 11.595187,
					"patching_rect" : [ 13.0, 225.0, 90.0, 20.0 ],
					"id" : "obj-20",
					"numinlets" : 2,
					"fontname" : "Arial",
					"numoutlets" : 0
				}

			}
, 			{
				"box" : 				{
					"maxclass" : "newobj",
					"text" : "*~ 0.6",
					"outlettype" : [ "signal" ],
					"fontsize" : 11.595187,
					"patching_rect" : [ 84.0, 190.0, 41.0, 20.0 ],
					"id" : "obj-19",
					"numinlets" : 2,
					"fontname" : "Arial",
					"numoutlets" : 1
				}

			}
, 			{
				"box" : 				{
					"maxclass" : "newobj",
					"text" : "*~ 0.6",
					"outlettype" : [ "signal" ],
					"fontsize" : 11.595187,
					"patching_rect" : [ 13.0, 190.0, 41.0, 20.0 ],
					"id" : "obj-18",
					"numinlets" : 2,
					"fontname" : "Arial",
					"numoutlets" : 1
				}

			}
, 			{
				"box" : 				{
					"maxclass" : "newobj",
					"text" : "p samplePlayer",
					"outlettype" : [ "signal", "signal" ],
					"fontsize" : 11.595187,
					"patching_rect" : [ 13.0, 155.0, 90.0, 20.0 ],
					"id" : "obj-17",
					"numinlets" : 1,
					"fontname" : "Arial",
					"numoutlets" : 2,
					"patcher" : 					{
						"fileversion" : 1,
						"rect" : [ 650.0, 44.0, 342.0, 371.0 ],
						"bglocked" : 0,
						"defrect" : [ 650.0, 44.0, 342.0, 371.0 ],
						"openrect" : [ 0.0, 0.0, 0.0, 0.0 ],
						"openinpresentation" : 0,
						"default_fontsize" : 10.0,
						"default_fontface" : 0,
						"default_fontname" : "Arial",
						"gridonopen" : 0,
						"gridsize" : [ 15.0, 15.0 ],
						"gridsnaponopen" : 0,
						"toolbarvisible" : 1,
						"boxanimatetime" : 200,
						"imprint" : 0,
						"enablehscroll" : 1,
						"enablevscroll" : 1,
						"devicewidth" : 0.0,
						"boxes" : [ 							{
								"box" : 								{
									"maxclass" : "comment",
									"text" : "2 voice sampler so samples can overlap",
									"linecount" : 2,
									"frgb" : [ 0.0, 0.0, 0.0, 1.0 ],
									"fontsize" : 11.595187,
									"patching_rect" : [ 167.0, 317.0, 115.0, 33.0 ],
									"id" : "obj-28",
									"numinlets" : 1,
									"fontname" : "Arial",
									"numoutlets" : 0
								}

							}
, 							{
								"box" : 								{
									"maxclass" : "outlet",
									"patching_rect" : [ 38.0, 340.0, 25.0, 25.0 ],
									"id" : "obj-27",
									"numinlets" : 1,
									"numoutlets" : 0,
									"comment" : "Audio Out R"
								}

							}
, 							{
								"box" : 								{
									"maxclass" : "outlet",
									"patching_rect" : [ 6.0, 340.0, 25.0, 25.0 ],
									"id" : "obj-26",
									"numinlets" : 1,
									"numoutlets" : 0,
									"comment" : "Audio Out L"
								}

							}
, 							{
								"box" : 								{
									"maxclass" : "newobj",
									"text" : "+~",
									"outlettype" : [ "signal" ],
									"fontsize" : 11.595187,
									"patching_rect" : [ 38.0, 306.0, 30.470589, 20.0 ],
									"id" : "obj-24",
									"numinlets" : 2,
									"fontname" : "Arial",
									"numoutlets" : 1
								}

							}
, 							{
								"box" : 								{
									"maxclass" : "newobj",
									"text" : "+~",
									"outlettype" : [ "signal" ],
									"fontsize" : 11.595187,
									"patching_rect" : [ 6.0, 306.0, 30.470589, 20.0 ],
									"id" : "obj-25",
									"numinlets" : 2,
									"fontname" : "Arial",
									"numoutlets" : 1
								}

							}
, 							{
								"box" : 								{
									"maxclass" : "newobj",
									"text" : "*~",
									"outlettype" : [ "signal" ],
									"fontsize" : 11.595187,
									"patching_rect" : [ 38.0, 265.0, 30.470589, 20.0 ],
									"id" : "obj-22",
									"numinlets" : 2,
									"fontname" : "Arial",
									"numoutlets" : 1
								}

							}
, 							{
								"box" : 								{
									"maxclass" : "newobj",
									"text" : "*~",
									"outlettype" : [ "signal" ],
									"fontsize" : 11.595187,
									"patching_rect" : [ 6.0, 265.0, 30.470589, 20.0 ],
									"id" : "obj-23",
									"numinlets" : 2,
									"fontname" : "Arial",
									"numoutlets" : 1
								}

							}
, 							{
								"box" : 								{
									"maxclass" : "newobj",
									"text" : "line~",
									"outlettype" : [ "signal", "bang" ],
									"fontsize" : 11.595187,
									"patching_rect" : [ 6.0, 160.0, 35.0, 20.0 ],
									"id" : "obj-21",
									"numinlets" : 2,
									"fontname" : "Arial",
									"numoutlets" : 2
								}

							}
, 							{
								"box" : 								{
									"maxclass" : "newobj",
									"text" : "gate 2",
									"outlettype" : [ "", "" ],
									"fontsize" : 11.595187,
									"patching_rect" : [ 6.0, 136.0, 58.0, 20.0 ],
									"id" : "obj-20",
									"numinlets" : 2,
									"fontname" : "Arial",
									"numoutlets" : 2
								}

							}
, 							{
								"box" : 								{
									"maxclass" : "newobj",
									"text" : "+ 1",
									"outlettype" : [ "int" ],
									"fontsize" : 11.595187,
									"patching_rect" : [ 6.0, 111.0, 30.470589, 20.0 ],
									"id" : "obj-19",
									"numinlets" : 2,
									"fontname" : "Arial",
									"numoutlets" : 1
								}

							}
, 							{
								"box" : 								{
									"maxclass" : "toggle",
									"outlettype" : [ "int" ],
									"patching_rect" : [ 6.0, 88.0, 20.0, 20.0 ],
									"id" : "obj-18",
									"numinlets" : 1,
									"numoutlets" : 1
								}

							}
, 							{
								"box" : 								{
									"maxclass" : "newobj",
									"text" : "line~",
									"outlettype" : [ "signal", "bang" ],
									"fontsize" : 11.595187,
									"patching_rect" : [ 144.0, 236.0, 35.0, 20.0 ],
									"id" : "obj-17",
									"numinlets" : 2,
									"fontname" : "Arial",
									"numoutlets" : 2
								}

							}
, 							{
								"box" : 								{
									"maxclass" : "newobj",
									"text" : "play~ drum 2",
									"outlettype" : [ "signal", "signal" ],
									"fontsize" : 11.595187,
									"patching_rect" : [ 6.0, 188.0, 78.0, 20.0 ],
									"id" : "obj-16",
									"numinlets" : 1,
									"fontname" : "Arial",
									"numoutlets" : 2
								}

							}
, 							{
								"box" : 								{
									"maxclass" : "newobj",
									"text" : "line~",
									"outlettype" : [ "signal", "bang" ],
									"fontsize" : 11.595187,
									"patching_rect" : [ 302.0, 237.0, 35.0, 20.0 ],
									"id" : "obj-15",
									"numinlets" : 2,
									"fontname" : "Arial",
									"numoutlets" : 2
								}

							}
, 							{
								"box" : 								{
									"maxclass" : "newobj",
									"text" : "*~",
									"outlettype" : [ "signal" ],
									"fontsize" : 11.595187,
									"patching_rect" : [ 236.0, 270.0, 30.470589, 20.0 ],
									"id" : "obj-14",
									"numinlets" : 2,
									"fontname" : "Arial",
									"numoutlets" : 1
								}

							}
, 							{
								"box" : 								{
									"maxclass" : "newobj",
									"text" : "*~",
									"outlettype" : [ "signal" ],
									"fontsize" : 11.595187,
									"patching_rect" : [ 204.0, 270.0, 30.470589, 20.0 ],
									"id" : "obj-13",
									"numinlets" : 2,
									"fontname" : "Arial",
									"numoutlets" : 1
								}

							}
, 							{
								"box" : 								{
									"maxclass" : "newobj",
									"text" : "play~ drum 2",
									"outlettype" : [ "signal", "signal" ],
									"fontsize" : 11.595187,
									"patching_rect" : [ 204.0, 208.0, 78.0, 20.0 ],
									"id" : "obj-12",
									"numinlets" : 1,
									"fontname" : "Arial",
									"numoutlets" : 2
								}

							}
, 							{
								"box" : 								{
									"maxclass" : "newobj",
									"text" : "line~",
									"outlettype" : [ "signal", "bang" ],
									"fontsize" : 11.595187,
									"patching_rect" : [ 204.0, 179.0, 35.0, 20.0 ],
									"id" : "obj-11",
									"numinlets" : 2,
									"fontname" : "Arial",
									"numoutlets" : 2
								}

							}
, 							{
								"box" : 								{
									"maxclass" : "newobj",
									"text" : "gate 2",
									"outlettype" : [ "", "" ],
									"fontsize" : 11.595187,
									"patching_rect" : [ 144.0, 211.0, 43.0, 20.0 ],
									"id" : "obj-10",
									"numinlets" : 2,
									"fontname" : "Arial",
									"numoutlets" : 2
								}

							}
, 							{
								"box" : 								{
									"maxclass" : "message",
									"text" : "0 1 1. 2 1. $1 0 $2",
									"outlettype" : [ "" ],
									"fontsize" : 11.595187,
									"patching_rect" : [ 187.0, 143.0, 104.0, 18.0 ],
									"id" : "obj-9",
									"numinlets" : 2,
									"fontname" : "Arial",
									"numoutlets" : 1
								}

							}
, 							{
								"box" : 								{
									"maxclass" : "newobj",
									"text" : "pack 0. 0.",
									"outlettype" : [ "" ],
									"fontsize" : 11.595187,
									"patching_rect" : [ 187.0, 119.0, 61.0, 20.0 ],
									"id" : "obj-8",
									"numinlets" : 2,
									"fontname" : "Arial",
									"numoutlets" : 1
								}

							}
, 							{
								"box" : 								{
									"maxclass" : "newobj",
									"text" : "* 0.1",
									"outlettype" : [ "float" ],
									"fontsize" : 11.595187,
									"patching_rect" : [ 229.0, 94.0, 34.0, 20.0 ],
									"id" : "obj-7",
									"numinlets" : 2,
									"fontname" : "Arial",
									"numoutlets" : 1
								}

							}
, 							{
								"box" : 								{
									"maxclass" : "newobj",
									"text" : "* 0.9",
									"outlettype" : [ "float" ],
									"fontsize" : 11.595187,
									"patching_rect" : [ 187.0, 94.0, 34.0, 20.0 ],
									"id" : "obj-6",
									"numinlets" : 2,
									"fontname" : "Arial",
									"numoutlets" : 1
								}

							}
, 							{
								"box" : 								{
									"maxclass" : "newobj",
									"text" : "unpack 1 2 3",
									"outlettype" : [ "int", "int", "int" ],
									"fontsize" : 11.595187,
									"patching_rect" : [ 129.0, 67.0, 77.0, 20.0 ],
									"id" : "obj-5",
									"numinlets" : 1,
									"fontname" : "Arial",
									"numoutlets" : 3
								}

							}
, 							{
								"box" : 								{
									"maxclass" : "message",
									"text" : "$1, $2 $3",
									"outlettype" : [ "" ],
									"fontsize" : 11.595187,
									"patching_rect" : [ 45.0, 66.0, 59.0, 18.0 ],
									"id" : "obj-4",
									"numinlets" : 2,
									"fontname" : "Arial",
									"numoutlets" : 1
								}

							}
, 							{
								"box" : 								{
									"maxclass" : "newobj",
									"text" : "t l l b",
									"outlettype" : [ "", "", "bang" ],
									"fontsize" : 11.595187,
									"patching_rect" : [ 45.0, 36.0, 186.705887, 20.0 ],
									"id" : "obj-3",
									"numinlets" : 1,
									"fontname" : "Arial",
									"numoutlets" : 3
								}

							}
, 							{
								"box" : 								{
									"maxclass" : "comment",
									"text" : "start point, end point, time",
									"frgb" : [ 0.0, 0.0, 0.0, 1.0 ],
									"fontsize" : 11.595187,
									"patching_rect" : [ 69.0, 9.0, 142.0, 20.0 ],
									"id" : "obj-2",
									"numinlets" : 1,
									"fontname" : "Arial",
									"numoutlets" : 0
								}

							}
, 							{
								"box" : 								{
									"maxclass" : "inlet",
									"outlettype" : [ "" ],
									"patching_rect" : [ 45.0, 6.0, 25.0, 25.0 ],
									"id" : "obj-1",
									"numinlets" : 0,
									"numoutlets" : 1,
									"comment" : "start point, end point, time"
								}

							}
 ],
						"lines" : [ 							{
								"patchline" : 								{
									"source" : [ "obj-24", 0 ],
									"destination" : [ "obj-27", 0 ],
									"hidden" : 0,
									"midpoints" : [  ]
								}

							}
, 							{
								"patchline" : 								{
									"source" : [ "obj-25", 0 ],
									"destination" : [ "obj-26", 0 ],
									"hidden" : 0,
									"midpoints" : [  ]
								}

							}
, 							{
								"patchline" : 								{
									"source" : [ "obj-14", 0 ],
									"destination" : [ "obj-24", 1 ],
									"hidden" : 0,
									"color" : [ 1.0, 0.501961, 0.0, 1.0 ],
									"midpoints" : [ 245.5, 296.0, 58.970589, 296.0 ]
								}

							}
, 							{
								"patchline" : 								{
									"source" : [ "obj-13", 0 ],
									"destination" : [ "obj-25", 1 ],
									"hidden" : 0,
									"color" : [ 0.945098, 0.913725, 0.407843, 1.0 ],
									"midpoints" : [ 213.5, 301.0, 26.970589, 301.0 ]
								}

							}
, 							{
								"patchline" : 								{
									"source" : [ "obj-22", 0 ],
									"destination" : [ "obj-24", 0 ],
									"hidden" : 0,
									"color" : [ 1.0, 0.501961, 0.0, 1.0 ],
									"midpoints" : [  ]
								}

							}
, 							{
								"patchline" : 								{
									"source" : [ "obj-23", 0 ],
									"destination" : [ "obj-25", 0 ],
									"hidden" : 0,
									"color" : [ 0.945098, 0.913725, 0.407843, 1.0 ],
									"midpoints" : [  ]
								}

							}
, 							{
								"patchline" : 								{
									"source" : [ "obj-17", 0 ],
									"destination" : [ "obj-22", 1 ],
									"hidden" : 0,
									"midpoints" : [ 153.5, 259.0, 58.970589, 259.0 ]
								}

							}
, 							{
								"patchline" : 								{
									"source" : [ "obj-17", 0 ],
									"destination" : [ "obj-23", 1 ],
									"hidden" : 0,
									"midpoints" : [ 153.5, 259.0, 26.970589, 259.0 ]
								}

							}
, 							{
								"patchline" : 								{
									"source" : [ "obj-16", 1 ],
									"destination" : [ "obj-22", 0 ],
									"hidden" : 0,
									"color" : [ 1.0, 0.501961, 0.0, 1.0 ],
									"midpoints" : [ 74.5, 231.0, 47.5, 231.0 ]
								}

							}
, 							{
								"patchline" : 								{
									"source" : [ "obj-16", 0 ],
									"destination" : [ "obj-23", 0 ],
									"hidden" : 0,
									"color" : [ 0.945098, 0.913725, 0.407843, 1.0 ],
									"midpoints" : [  ]
								}

							}
, 							{
								"patchline" : 								{
									"source" : [ "obj-11", 0 ],
									"destination" : [ "obj-12", 0 ],
									"hidden" : 0,
									"midpoints" : [  ]
								}

							}
, 							{
								"patchline" : 								{
									"source" : [ "obj-1", 0 ],
									"destination" : [ "obj-3", 0 ],
									"hidden" : 0,
									"midpoints" : [  ]
								}

							}
, 							{
								"patchline" : 								{
									"source" : [ "obj-19", 0 ],
									"destination" : [ "obj-10", 0 ],
									"hidden" : 0,
									"midpoints" : [ 15.5, 134.0, 153.5, 134.0 ]
								}

							}
, 							{
								"patchline" : 								{
									"source" : [ "obj-3", 2 ],
									"destination" : [ "obj-18", 0 ],
									"hidden" : 0,
									"midpoints" : [ 222.205887, 60.0, 15.5, 60.0 ]
								}

							}
, 							{
								"patchline" : 								{
									"source" : [ "obj-21", 0 ],
									"destination" : [ "obj-16", 0 ],
									"hidden" : 0,
									"midpoints" : [  ]
								}

							}
, 							{
								"patchline" : 								{
									"source" : [ "obj-20", 0 ],
									"destination" : [ "obj-21", 0 ],
									"hidden" : 0,
									"midpoints" : [  ]
								}

							}
, 							{
								"patchline" : 								{
									"source" : [ "obj-19", 0 ],
									"destination" : [ "obj-20", 0 ],
									"hidden" : 0,
									"midpoints" : [  ]
								}

							}
, 							{
								"patchline" : 								{
									"source" : [ "obj-18", 0 ],
									"destination" : [ "obj-19", 0 ],
									"hidden" : 0,
									"midpoints" : [  ]
								}

							}
, 							{
								"patchline" : 								{
									"source" : [ "obj-9", 0 ],
									"destination" : [ "obj-10", 1 ],
									"hidden" : 0,
									"midpoints" : [ 196.5, 165.0, 177.5, 165.0 ]
								}

							}
, 							{
								"patchline" : 								{
									"source" : [ "obj-10", 1 ],
									"destination" : [ "obj-15", 0 ],
									"hidden" : 0,
									"midpoints" : [ 177.5, 233.0, 311.5, 233.0 ]
								}

							}
, 							{
								"patchline" : 								{
									"source" : [ "obj-10", 0 ],
									"destination" : [ "obj-17", 0 ],
									"hidden" : 0,
									"midpoints" : [  ]
								}

							}
, 							{
								"patchline" : 								{
									"source" : [ "obj-12", 1 ],
									"destination" : [ "obj-14", 0 ],
									"hidden" : 0,
									"color" : [ 1.0, 0.501961, 0.0, 1.0 ],
									"midpoints" : [ 272.5, 253.0, 245.5, 253.0 ]
								}

							}
, 							{
								"patchline" : 								{
									"source" : [ "obj-12", 0 ],
									"destination" : [ "obj-13", 0 ],
									"hidden" : 0,
									"color" : [ 0.945098, 0.913725, 0.407843, 1.0 ],
									"midpoints" : [  ]
								}

							}
, 							{
								"patchline" : 								{
									"source" : [ "obj-15", 0 ],
									"destination" : [ "obj-14", 1 ],
									"hidden" : 0,
									"midpoints" : [ 311.5, 262.0, 256.970581, 262.0 ]
								}

							}
, 							{
								"patchline" : 								{
									"source" : [ "obj-15", 0 ],
									"destination" : [ "obj-13", 1 ],
									"hidden" : 0,
									"midpoints" : [ 311.5, 266.0, 224.970581, 266.0 ]
								}

							}
, 							{
								"patchline" : 								{
									"source" : [ "obj-8", 0 ],
									"destination" : [ "obj-9", 0 ],
									"hidden" : 0,
									"midpoints" : [  ]
								}

							}
, 							{
								"patchline" : 								{
									"source" : [ "obj-7", 0 ],
									"destination" : [ "obj-8", 1 ],
									"hidden" : 0,
									"midpoints" : [  ]
								}

							}
, 							{
								"patchline" : 								{
									"source" : [ "obj-6", 0 ],
									"destination" : [ "obj-8", 0 ],
									"hidden" : 0,
									"midpoints" : [  ]
								}

							}
, 							{
								"patchline" : 								{
									"source" : [ "obj-5", 2 ],
									"destination" : [ "obj-7", 0 ],
									"hidden" : 0,
									"midpoints" : [ 196.5, 91.0, 238.5, 91.0 ]
								}

							}
, 							{
								"patchline" : 								{
									"source" : [ "obj-5", 2 ],
									"destination" : [ "obj-6", 0 ],
									"hidden" : 0,
									"midpoints" : [  ]
								}

							}
, 							{
								"patchline" : 								{
									"source" : [ "obj-3", 1 ],
									"destination" : [ "obj-5", 0 ],
									"hidden" : 0,
									"midpoints" : [  ]
								}

							}
, 							{
								"patchline" : 								{
									"source" : [ "obj-3", 0 ],
									"destination" : [ "obj-4", 0 ],
									"hidden" : 0,
									"midpoints" : [  ]
								}

							}
, 							{
								"patchline" : 								{
									"source" : [ "obj-4", 0 ],
									"destination" : [ "obj-20", 1 ],
									"hidden" : 0,
									"midpoints" : [  ]
								}

							}
, 							{
								"patchline" : 								{
									"source" : [ "obj-20", 1 ],
									"destination" : [ "obj-11", 0 ],
									"hidden" : 0,
									"midpoints" : [ 54.5, 172.0, 213.5, 172.0 ]
								}

							}
 ]
					}
,
					"saved_object_attributes" : 					{
						"fontface" : 0,
						"fontsize" : 10.0,
						"default_fontface" : 0,
						"default_fontname" : "Arial",
						"fontname" : "Arial",
						"globalpatchername" : "",
						"default_fontsize" : 10.0
					}

				}

			}
, 			{
				"box" : 				{
					"maxclass" : "comment",
					"text" : "•",
					"frgb" : [ 0.0, 0.0, 0.0, 1.0 ],
					"fontsize" : 20.871338,
					"patching_rect" : [ 149.0, 176.0, 26.0, 30.0 ],
					"id" : "obj-15",
					"numinlets" : 1,
					"fontname" : "Arial",
					"numoutlets" : 0
				}

			}
, 			{
				"box" : 				{
					"maxclass" : "comment",
					"text" : "start audio",
					"frgb" : [ 0.0, 0.0, 0.0, 1.0 ],
					"fontsize" : 11.595187,
					"patching_rect" : [ 157.0, 180.0, 63.0, 20.0 ],
					"id" : "obj-16",
					"numinlets" : 1,
					"fontname" : "Arial",
					"numoutlets" : 0
				}

			}
, 			{
				"box" : 				{
					"maxclass" : "comment",
					"text" : "•",
					"frgb" : [ 0.0, 0.0, 0.0, 1.0 ],
					"fontsize" : 20.871338,
					"patching_rect" : [ 5.0, 68.0, 26.0, 30.0 ],
					"id" : "obj-14",
					"numinlets" : 1,
					"fontname" : "Arial",
					"numoutlets" : 0
				}

			}
, 			{
				"box" : 				{
					"maxclass" : "comment",
					"text" : "play",
					"frgb" : [ 0.0, 0.0, 0.0, 1.0 ],
					"fontsize" : 11.595187,
					"patching_rect" : [ 13.0, 72.0, 44.0, 20.0 ],
					"id" : "obj-13",
					"numinlets" : 1,
					"fontname" : "Arial",
					"numoutlets" : 0
				}

			}
, 			{
				"box" : 				{
					"maxclass" : "toggle",
					"outlettype" : [ "int" ],
					"patching_rect" : [ 13.0, 89.0, 20.0, 20.0 ],
					"id" : "obj-12",
					"numinlets" : 1,
					"numoutlets" : 1
				}

			}
, 			{
				"box" : 				{
					"maxclass" : "newobj",
					"text" : "p sequencePlayer",
					"outlettype" : [ "" ],
					"fontsize" : 11.595187,
					"patching_rect" : [ 13.0, 125.0, 179.0, 20.0 ],
					"id" : "obj-11",
					"numinlets" : 3,
					"fontname" : "Arial",
					"numoutlets" : 1,
					"patcher" : 					{
						"fileversion" : 1,
						"rect" : [ 675.0, 44.0, 482.0, 424.0 ],
						"bglocked" : 0,
						"defrect" : [ 675.0, 44.0, 482.0, 424.0 ],
						"openrect" : [ 0.0, 0.0, 0.0, 0.0 ],
						"openinpresentation" : 0,
						"default_fontsize" : 10.0,
						"default_fontface" : 0,
						"default_fontname" : "Arial",
						"gridonopen" : 0,
						"gridsize" : [ 15.0, 15.0 ],
						"gridsnaponopen" : 0,
						"toolbarvisible" : 1,
						"boxanimatetime" : 200,
						"imprint" : 0,
						"enablehscroll" : 1,
						"enablevscroll" : 1,
						"devicewidth" : 0.0,
						"boxes" : [ 							{
								"box" : 								{
									"maxclass" : "message",
									"text" : "4",
									"outlettype" : [ "" ],
									"fontsize" : 10.0,
									"patching_rect" : [ 80.0, 211.0, 50.0, 16.0 ],
									"id" : "obj-3",
									"numinlets" : 2,
									"fontname" : "Arial",
									"numoutlets" : 1
								}

							}
, 							{
								"box" : 								{
									"maxclass" : "comment",
									"text" : "Play/Stop",
									"frgb" : [ 0.0, 0.0, 0.0, 1.0 ],
									"fontsize" : 11.595187,
									"patching_rect" : [ 36.0, 14.0, 60.0, 20.0 ],
									"id" : "obj-41",
									"numinlets" : 1,
									"fontname" : "Arial",
									"numoutlets" : 0
								}

							}
, 							{
								"box" : 								{
									"maxclass" : "comment",
									"text" : "sel 18 used for looping because the example midifile has 18 notes.",
									"linecount" : 3,
									"frgb" : [ 0.0, 0.0, 0.0, 1.0 ],
									"fontsize" : 11.595187,
									"patching_rect" : [ 191.0, 134.0, 128.0, 46.0 ],
									"id" : "obj-40",
									"numinlets" : 1,
									"fontname" : "Arial",
									"numoutlets" : 0
								}

							}
, 							{
								"box" : 								{
									"maxclass" : "newobj",
									"text" : "del",
									"outlettype" : [ "bang" ],
									"fontsize" : 11.595187,
									"patching_rect" : [ 137.0, 369.0, 30.470589, 20.0 ],
									"id" : "obj-38",
									"numinlets" : 2,
									"fontname" : "Arial",
									"numoutlets" : 1
								}

							}
, 							{
								"box" : 								{
									"maxclass" : "newobj",
									"text" : "t b i",
									"outlettype" : [ "bang", "int" ],
									"fontsize" : 11.595187,
									"patching_rect" : [ 137.0, 345.0, 30.470589, 20.0 ],
									"id" : "obj-37",
									"numinlets" : 1,
									"fontname" : "Arial",
									"numoutlets" : 2
								}

							}
, 							{
								"box" : 								{
									"maxclass" : "newobj",
									"text" : "* 1.",
									"outlettype" : [ "float" ],
									"fontsize" : 11.595187,
									"patching_rect" : [ 137.0, 321.0, 30.470589, 20.0 ],
									"id" : "obj-36",
									"numinlets" : 2,
									"fontname" : "Arial",
									"numoutlets" : 1
								}

							}
, 							{
								"box" : 								{
									"maxclass" : "newobj",
									"text" : "clip 0.1 4.",
									"outlettype" : [ "" ],
									"fontsize" : 11.595187,
									"patching_rect" : [ 148.0, 294.0, 60.0, 20.0 ],
									"id" : "obj-35",
									"numinlets" : 3,
									"fontname" : "Arial",
									"numoutlets" : 1
								}

							}
, 							{
								"box" : 								{
									"maxclass" : "comment",
									"text" : "(float) tempo",
									"linecount" : 2,
									"frgb" : [ 0.0, 0.0, 0.0, 1.0 ],
									"fontsize" : 11.595187,
									"patching_rect" : [ 171.0, 243.0, 41.0, 33.0 ],
									"id" : "obj-34",
									"numinlets" : 1,
									"fontname" : "Arial",
									"numoutlets" : 0
								}

							}
, 							{
								"box" : 								{
									"maxclass" : "flonum",
									"outlettype" : [ "float", "bang" ],
									"fontsize" : 11.595187,
									"patching_rect" : [ 148.0, 273.0, 50.0, 20.0 ],
									"id" : "obj-33",
									"numinlets" : 1,
									"fontname" : "Arial",
									"numoutlets" : 2
								}

							}
, 							{
								"box" : 								{
									"maxclass" : "inlet",
									"outlettype" : [ "float" ],
									"patching_rect" : [ 148.0, 247.0, 25.0, 25.0 ],
									"id" : "obj-32",
									"numinlets" : 0,
									"numoutlets" : 1,
									"comment" : "(float) tempo"
								}

							}
, 							{
								"box" : 								{
									"maxclass" : "comment",
									"text" : "start point, end point, time",
									"frgb" : [ 0.0, 0.0, 0.0, 1.0 ],
									"fontsize" : 11.595187,
									"patching_rect" : [ 223.0, 388.0, 143.0, 20.0 ],
									"id" : "obj-31",
									"numinlets" : 1,
									"fontname" : "Arial",
									"numoutlets" : 0
								}

							}
, 							{
								"box" : 								{
									"maxclass" : "outlet",
									"patching_rect" : [ 199.0, 387.0, 25.0, 25.0 ],
									"id" : "obj-30",
									"numinlets" : 1,
									"numoutlets" : 0,
									"comment" : "start point, end point, time"
								}

							}
, 							{
								"box" : 								{
									"maxclass" : "newobj",
									"text" : "pack 1 2 3",
									"outlettype" : [ "" ],
									"fontsize" : 11.595187,
									"patching_rect" : [ 199.0, 363.0, 101.0, 20.0 ],
									"id" : "obj-29",
									"numinlets" : 3,
									"fontname" : "Arial",
									"numoutlets" : 1
								}

							}
, 							{
								"box" : 								{
									"maxclass" : "newobj",
									"text" : "+",
									"outlettype" : [ "int" ],
									"fontsize" : 11.595187,
									"patching_rect" : [ 240.0, 337.0, 30.470589, 20.0 ],
									"id" : "obj-28",
									"numinlets" : 2,
									"fontname" : "Arial",
									"numoutlets" : 1
								}

							}
, 							{
								"box" : 								{
									"maxclass" : "newobj",
									"text" : "* 1.",
									"outlettype" : [ "float" ],
									"fontsize" : 11.595187,
									"patching_rect" : [ 281.0, 283.0, 30.470589, 20.0 ],
									"id" : "obj-27",
									"numinlets" : 2,
									"fontname" : "Arial",
									"numoutlets" : 1
								}

							}
, 							{
								"box" : 								{
									"maxclass" : "newobj",
									"text" : "* 1.",
									"outlettype" : [ "float" ],
									"fontsize" : 11.595187,
									"patching_rect" : [ 214.0, 283.0, 30.470589, 20.0 ],
									"id" : "obj-26",
									"numinlets" : 2,
									"fontname" : "Arial",
									"numoutlets" : 1
								}

							}
, 							{
								"box" : 								{
									"maxclass" : "newobj",
									"text" : "/ 2000.",
									"outlettype" : [ "float" ],
									"fontsize" : 11.595187,
									"patching_rect" : [ 415.0, 251.0, 46.0, 20.0 ],
									"id" : "obj-25",
									"numinlets" : 2,
									"fontname" : "Arial",
									"numoutlets" : 1
								}

							}
, 							{
								"box" : 								{
									"maxclass" : "message",
									"text" : "3478",
									"outlettype" : [ "" ],
									"fontsize" : 11.595187,
									"patching_rect" : [ 415.0, 229.0, 36.0, 18.0 ],
									"id" : "obj-24",
									"numinlets" : 2,
									"fontname" : "Arial",
									"numoutlets" : 1
								}

							}
, 							{
								"box" : 								{
									"maxclass" : "newobj",
									"text" : "loadbang",
									"outlettype" : [ "bang" ],
									"fontsize" : 11.595187,
									"patching_rect" : [ 415.0, 205.0, 58.0, 20.0 ],
									"id" : "obj-23",
									"numinlets" : 1,
									"fontname" : "Arial",
									"numoutlets" : 1
								}

							}
, 							{
								"box" : 								{
									"maxclass" : "comment",
									"text" : "(bang) read MIDI file",
									"frgb" : [ 0.0, 0.0, 0.0, 1.0 ],
									"fontsize" : 11.595187,
									"patching_rect" : [ 295.0, 194.0, 114.0, 20.0 ],
									"id" : "obj-22",
									"numinlets" : 1,
									"fontname" : "Arial",
									"numoutlets" : 0
								}

							}
, 							{
								"box" : 								{
									"maxclass" : "newobj",
									"text" : "detonate",
									"outlettype" : [ "int", "int", "int", "int", "int", "int", "int", "int" ],
									"fontsize" : 11.595187,
									"patching_rect" : [ 214.0, 243.0, 175.882355, 20.0 ],
									"id" : "obj-21",
									"numinlets" : 8,
									"fontname" : "Arial",
									"numoutlets" : 8,
				"save" : [ "#N", "detonate", "", ";", "#X", "setparam", 0, "Time", 0, 0, 999999, 0, 1000, 200, 0, ";", "#X", "setparam", 1, "Pitch", 1, 0, 127, 60, 12, 4, 0, ";", "#X", "setparam", 2, "Vel", 4, 0, 127, 64, 12, 4, 0, ";", "#X", "setparam", 3, "Dur", 3, 1, 99999, 200, 800, 200, 0, ";", "#X", "setparam", 4, "Chan", 0, 1, 16, 1, 8, 1, 0, ";", "#X", "setparam", 5, "Track", 0, 1, 32, 1, 8, 1, 0, ";", "#X", "setparam", 6, "X1", 0, 0, 999, 0, 80, 20, 0, ";", "#X", "setparam", 7, "X2", 0, 0, 999, 0, 80, 20, 0, ";", "#X", "restore", ";", "#X", 0, 36, 127, 174, 1, 2, 0, 0, ";", "#X", 174, 37, 127, 83, 1, 2, 0, 0, ";", "#X", 83, 38, 127, 167, 1, 2, 0, 0, ";", "#X", 167, 39, 127, 79, 1, 2, 0, 0, ";", "#X", 79, 40, 127, 180, 1, 2, 0, 0, ";", "#X", 180, 41, 127, 83, 1, 2, 0, 0, ";", "#X", 83, 42, 127, 75, 1, 2, 0, 0, ";", "#X", 75, 43, 127, 82, 1, 2, 0, 0, ";", "#X", 82, 44, 127, 238, 1, 2, 0, 0, ";", "#X", 238, 45, 127, 7, 1, 2, 0, 0, ";", "#X", 7, 46, 127, 87, 1, 2, 0, 0, ";", "#X", 87, 47, 127, 80, 1, 2, 0, 0, ";", "#X", 80, 48, 127, 74, 1, 2, 0, 0, ";", "#X", 74, 49, 127, 45, 1, 2, 0, 0, ";", "#X", 45, 50, 127, 43, 1, 2, 0, 0, ";", "#X", 43, 51, 127, 177, 1, 2, 0, 0, ";", "#X", 177, 52, 127, 77, 1, 2, 0, 0, ";", "#X", 77, 53, 127, 248, 1, 2, 0, 0, ";", "#X", "stop", ";" ]
								}

							}
, 							{
								"box" : 								{
									"maxclass" : "message",
									"text" : "read",
									"outlettype" : [ "" ],
									"fontsize" : 11.595187,
									"patching_rect" : [ 272.0, 220.0, 34.0, 18.0 ],
									"id" : "obj-20",
									"numinlets" : 2,
									"fontname" : "Arial",
									"numoutlets" : 1
								}

							}
, 							{
								"box" : 								{
									"maxclass" : "inlet",
									"outlettype" : [ "bang" ],
									"patching_rect" : [ 272.0, 192.0, 25.0, 25.0 ],
									"id" : "obj-19",
									"numinlets" : 0,
									"numoutlets" : 1,
									"comment" : "(bang) read MIDI file"
								}

							}
, 							{
								"box" : 								{
									"maxclass" : "message",
									"text" : "nth $1",
									"outlettype" : [ "" ],
									"fontsize" : 11.595187,
									"patching_rect" : [ 214.0, 219.0, 43.0, 18.0 ],
									"id" : "obj-18",
									"numinlets" : 2,
									"fontname" : "Arial",
									"numoutlets" : 1
								}

							}
, 							{
								"box" : 								{
									"maxclass" : "newobj",
									"text" : "gate",
									"outlettype" : [ "" ],
									"fontsize" : 11.595187,
									"patching_rect" : [ 14.0, 393.0, 33.0, 20.0 ],
									"id" : "obj-17",
									"numinlets" : 2,
									"fontname" : "Arial",
									"numoutlets" : 1
								}

							}
, 							{
								"box" : 								{
									"maxclass" : "toggle",
									"outlettype" : [ "int" ],
									"patching_rect" : [ 14.0, 233.0, 20.0, 20.0 ],
									"id" : "obj-16",
									"numinlets" : 1,
									"numoutlets" : 1
								}

							}
, 							{
								"box" : 								{
									"maxclass" : "newobj",
									"text" : "del 1",
									"outlettype" : [ "bang" ],
									"fontsize" : 11.595187,
									"patching_rect" : [ 43.0, 170.0, 36.0, 20.0 ],
									"id" : "obj-15",
									"numinlets" : 2,
									"fontname" : "Arial",
									"numoutlets" : 1
								}

							}
, 							{
								"box" : 								{
									"maxclass" : "newobj",
									"text" : "sel 18",
									"outlettype" : [ "bang", "" ],
									"fontsize" : 11.595187,
									"patching_rect" : [ 43.0, 146.0, 41.0, 20.0 ],
									"id" : "obj-14",
									"numinlets" : 2,
									"fontname" : "Arial",
									"numoutlets" : 2
								}

							}
, 							{
								"box" : 								{
									"maxclass" : "number",
									"outlettype" : [ "int", "bang" ],
									"fontsize" : 11.595187,
									"patching_rect" : [ 65.0, 117.0, 50.0, 20.0 ],
									"id" : "obj-13",
									"numinlets" : 1,
									"fontname" : "Arial",
									"numoutlets" : 2
								}

							}
, 							{
								"box" : 								{
									"maxclass" : "newobj",
									"text" : "t i i",
									"outlettype" : [ "int", "int" ],
									"fontsize" : 11.595187,
									"patching_rect" : [ 135.0, 200.0, 30.470589, 20.0 ],
									"id" : "obj-12",
									"numinlets" : 1,
									"fontname" : "Arial",
									"numoutlets" : 2
								}

							}
, 							{
								"box" : 								{
									"maxclass" : "newobj",
									"text" : "i",
									"outlettype" : [ "int" ],
									"fontsize" : 11.595187,
									"patching_rect" : [ 135.0, 175.0, 36.470589, 20.0 ],
									"id" : "obj-11",
									"numinlets" : 2,
									"fontname" : "Arial",
									"numoutlets" : 1
								}

							}
, 							{
								"box" : 								{
									"maxclass" : "newobj",
									"text" : "+ 1",
									"outlettype" : [ "int" ],
									"fontsize" : 11.595187,
									"patching_rect" : [ 152.0, 147.0, 30.470589, 20.0 ],
									"id" : "obj-10",
									"numinlets" : 2,
									"fontname" : "Arial",
									"numoutlets" : 1
								}

							}
, 							{
								"box" : 								{
									"maxclass" : "message",
									"text" : "1",
									"outlettype" : [ "" ],
									"fontsize" : 11.595187,
									"patching_rect" : [ 169.0, 120.0, 18.0, 18.0 ],
									"id" : "obj-9",
									"numinlets" : 2,
									"fontname" : "Arial",
									"numoutlets" : 1
								}

							}
, 							{
								"box" : 								{
									"maxclass" : "message",
									"text" : "0",
									"outlettype" : [ "" ],
									"fontsize" : 11.595187,
									"patching_rect" : [ 152.0, 120.0, 18.0, 18.0 ],
									"id" : "obj-8",
									"numinlets" : 2,
									"fontname" : "Arial",
									"numoutlets" : 1
								}

							}
, 							{
								"box" : 								{
									"maxclass" : "message",
									"text" : "0",
									"outlettype" : [ "" ],
									"fontsize" : 11.595187,
									"patching_rect" : [ 135.0, 120.0, 18.0, 18.0 ],
									"id" : "obj-7",
									"numinlets" : 2,
									"fontname" : "Arial",
									"numoutlets" : 1
								}

							}
, 							{
								"box" : 								{
									"maxclass" : "newobj",
									"text" : "t b b b",
									"outlettype" : [ "bang", "bang", "bang" ],
									"fontsize" : 11.595187,
									"patching_rect" : [ 133.0, 93.0, 53.0, 20.0 ],
									"id" : "obj-6",
									"numinlets" : 1,
									"fontname" : "Arial",
									"numoutlets" : 3
								}

							}
, 							{
								"box" : 								{
									"maxclass" : "message",
									"text" : "0",
									"outlettype" : [ "" ],
									"fontsize" : 11.595187,
									"patching_rect" : [ 14.0, 89.0, 18.0, 18.0 ],
									"id" : "obj-5",
									"numinlets" : 2,
									"fontname" : "Arial",
									"numoutlets" : 1
								}

							}
, 							{
								"box" : 								{
									"maxclass" : "newobj",
									"text" : "sel 0 1",
									"outlettype" : [ "bang", "bang", "" ],
									"fontsize" : 11.595187,
									"patching_rect" : [ 12.0, 64.0, 261.0, 20.0 ],
									"id" : "obj-4",
									"numinlets" : 1,
									"fontname" : "Arial",
									"numoutlets" : 3
								}

							}
, 							{
								"box" : 								{
									"maxclass" : "toggle",
									"outlettype" : [ "int" ],
									"patching_rect" : [ 12.0, 39.0, 20.0, 20.0 ],
									"id" : "obj-2",
									"numinlets" : 1,
									"numoutlets" : 1
								}

							}
, 							{
								"box" : 								{
									"maxclass" : "inlet",
									"outlettype" : [ "int" ],
									"patching_rect" : [ 12.0, 11.0, 25.0, 25.0 ],
									"id" : "obj-1",
									"numinlets" : 0,
									"numoutlets" : 1,
									"comment" : "play/stop"
								}

							}
 ],
						"lines" : [ 							{
								"patchline" : 								{
									"source" : [ "obj-12", 0 ],
									"destination" : [ "obj-3", 1 ],
									"hidden" : 0,
									"midpoints" : [  ]
								}

							}
, 							{
								"patchline" : 								{
									"source" : [ "obj-38", 0 ],
									"destination" : [ "obj-17", 1 ],
									"hidden" : 0,
									"midpoints" : [ 146.5, 391.0, 67.0, 391.0, 67.0, 391.0, 37.5, 391.0 ]
								}

							}
, 							{
								"patchline" : 								{
									"source" : [ "obj-27", 0 ],
									"destination" : [ "obj-36", 0 ],
									"hidden" : 0,
									"midpoints" : [ 290.5, 316.0, 146.5, 316.0 ]
								}

							}
, 							{
								"patchline" : 								{
									"source" : [ "obj-33", 0 ],
									"destination" : [ "obj-35", 0 ],
									"hidden" : 0,
									"midpoints" : [  ]
								}

							}
, 							{
								"patchline" : 								{
									"source" : [ "obj-35", 0 ],
									"destination" : [ "obj-36", 1 ],
									"hidden" : 0,
									"midpoints" : [  ]
								}

							}
, 							{
								"patchline" : 								{
									"source" : [ "obj-36", 0 ],
									"destination" : [ "obj-37", 0 ],
									"hidden" : 0,
									"midpoints" : [  ]
								}

							}
, 							{
								"patchline" : 								{
									"source" : [ "obj-37", 0 ],
									"destination" : [ "obj-38", 0 ],
									"hidden" : 0,
									"midpoints" : [  ]
								}

							}
, 							{
								"patchline" : 								{
									"source" : [ "obj-37", 1 ],
									"destination" : [ "obj-38", 1 ],
									"hidden" : 0,
									"midpoints" : [  ]
								}

							}
, 							{
								"patchline" : 								{
									"source" : [ "obj-32", 0 ],
									"destination" : [ "obj-33", 0 ],
									"hidden" : 0,
									"midpoints" : [  ]
								}

							}
, 							{
								"patchline" : 								{
									"source" : [ "obj-29", 0 ],
									"destination" : [ "obj-30", 0 ],
									"hidden" : 0,
									"midpoints" : [  ]
								}

							}
, 							{
								"patchline" : 								{
									"source" : [ "obj-26", 0 ],
									"destination" : [ "obj-29", 0 ],
									"hidden" : 0,
									"midpoints" : [ 223.5, 349.0, 208.5, 349.0 ]
								}

							}
, 							{
								"patchline" : 								{
									"source" : [ "obj-27", 0 ],
									"destination" : [ "obj-29", 2 ],
									"hidden" : 0,
									"midpoints" : [  ]
								}

							}
, 							{
								"patchline" : 								{
									"source" : [ "obj-28", 0 ],
									"destination" : [ "obj-29", 1 ],
									"hidden" : 0,
									"midpoints" : [  ]
								}

							}
, 							{
								"patchline" : 								{
									"source" : [ "obj-27", 0 ],
									"destination" : [ "obj-28", 1 ],
									"hidden" : 0,
									"midpoints" : [ 290.5, 321.0, 260.970581, 321.0 ]
								}

							}
, 							{
								"patchline" : 								{
									"source" : [ "obj-26", 0 ],
									"destination" : [ "obj-28", 0 ],
									"hidden" : 0,
									"midpoints" : [ 223.5, 321.0, 249.5, 321.0 ]
								}

							}
, 							{
								"patchline" : 								{
									"source" : [ "obj-25", 0 ],
									"destination" : [ "obj-27", 1 ],
									"hidden" : 0,
									"midpoints" : [ 424.5, 274.0, 301.970581, 274.0 ]
								}

							}
, 							{
								"patchline" : 								{
									"source" : [ "obj-25", 0 ],
									"destination" : [ "obj-26", 1 ],
									"hidden" : 0,
									"midpoints" : [ 424.5, 277.0, 234.970581, 277.0 ]
								}

							}
, 							{
								"patchline" : 								{
									"source" : [ "obj-21", 3 ],
									"destination" : [ "obj-27", 0 ],
									"hidden" : 0,
									"midpoints" : [  ]
								}

							}
, 							{
								"patchline" : 								{
									"source" : [ "obj-21", 0 ],
									"destination" : [ "obj-26", 0 ],
									"hidden" : 0,
									"midpoints" : [  ]
								}

							}
, 							{
								"patchline" : 								{
									"source" : [ "obj-24", 0 ],
									"destination" : [ "obj-25", 0 ],
									"hidden" : 0,
									"midpoints" : [  ]
								}

							}
, 							{
								"patchline" : 								{
									"source" : [ "obj-23", 0 ],
									"destination" : [ "obj-24", 0 ],
									"hidden" : 0,
									"midpoints" : [  ]
								}

							}
, 							{
								"patchline" : 								{
									"source" : [ "obj-20", 0 ],
									"destination" : [ "obj-21", 0 ],
									"hidden" : 0,
									"midpoints" : [ 281.5, 240.0, 223.5, 240.0 ]
								}

							}
, 							{
								"patchline" : 								{
									"source" : [ "obj-18", 0 ],
									"destination" : [ "obj-21", 0 ],
									"hidden" : 0,
									"midpoints" : [  ]
								}

							}
, 							{
								"patchline" : 								{
									"source" : [ "obj-19", 0 ],
									"destination" : [ "obj-20", 0 ],
									"hidden" : 0,
									"midpoints" : [  ]
								}

							}
, 							{
								"patchline" : 								{
									"source" : [ "obj-12", 1 ],
									"destination" : [ "obj-18", 0 ],
									"hidden" : 0,
									"midpoints" : [  ]
								}

							}
, 							{
								"patchline" : 								{
									"source" : [ "obj-17", 0 ],
									"destination" : [ "obj-11", 0 ],
									"hidden" : 0,
									"midpoints" : [  ]
								}

							}
, 							{
								"patchline" : 								{
									"source" : [ "obj-9", 0 ],
									"destination" : [ "obj-16", 0 ],
									"hidden" : 0,
									"midpoints" : [ 178.5, 224.0, 23.5, 224.0 ]
								}

							}
, 							{
								"patchline" : 								{
									"source" : [ "obj-5", 0 ],
									"destination" : [ "obj-16", 0 ],
									"hidden" : 0,
									"midpoints" : [  ]
								}

							}
, 							{
								"patchline" : 								{
									"source" : [ "obj-16", 0 ],
									"destination" : [ "obj-17", 0 ],
									"hidden" : 0,
									"midpoints" : [  ]
								}

							}
, 							{
								"patchline" : 								{
									"source" : [ "obj-11", 0 ],
									"destination" : [ "obj-10", 0 ],
									"hidden" : 0,
									"midpoints" : [  ]
								}

							}
, 							{
								"patchline" : 								{
									"source" : [ "obj-15", 0 ],
									"destination" : [ "obj-7", 0 ],
									"hidden" : 0,
									"midpoints" : [  ]
								}

							}
, 							{
								"patchline" : 								{
									"source" : [ "obj-14", 0 ],
									"destination" : [ "obj-15", 0 ],
									"hidden" : 0,
									"midpoints" : [  ]
								}

							}
, 							{
								"patchline" : 								{
									"source" : [ "obj-12", 0 ],
									"destination" : [ "obj-14", 0 ],
									"hidden" : 0,
									"midpoints" : [  ]
								}

							}
, 							{
								"patchline" : 								{
									"source" : [ "obj-13", 0 ],
									"destination" : [ "obj-14", 1 ],
									"hidden" : 0,
									"midpoints" : [  ]
								}

							}
, 							{
								"patchline" : 								{
									"source" : [ "obj-11", 0 ],
									"destination" : [ "obj-12", 0 ],
									"hidden" : 0,
									"midpoints" : [  ]
								}

							}
, 							{
								"patchline" : 								{
									"source" : [ "obj-10", 0 ],
									"destination" : [ "obj-11", 1 ],
									"hidden" : 0,
									"midpoints" : [  ]
								}

							}
, 							{
								"patchline" : 								{
									"source" : [ "obj-7", 0 ],
									"destination" : [ "obj-11", 0 ],
									"hidden" : 0,
									"midpoints" : [  ]
								}

							}
, 							{
								"patchline" : 								{
									"source" : [ "obj-8", 0 ],
									"destination" : [ "obj-10", 0 ],
									"hidden" : 0,
									"midpoints" : [  ]
								}

							}
, 							{
								"patchline" : 								{
									"source" : [ "obj-6", 2 ],
									"destination" : [ "obj-9", 0 ],
									"hidden" : 0,
									"midpoints" : [  ]
								}

							}
, 							{
								"patchline" : 								{
									"source" : [ "obj-6", 1 ],
									"destination" : [ "obj-8", 0 ],
									"hidden" : 0,
									"midpoints" : [  ]
								}

							}
, 							{
								"patchline" : 								{
									"source" : [ "obj-6", 0 ],
									"destination" : [ "obj-7", 0 ],
									"hidden" : 0,
									"midpoints" : [  ]
								}

							}
, 							{
								"patchline" : 								{
									"source" : [ "obj-4", 1 ],
									"destination" : [ "obj-6", 0 ],
									"hidden" : 0,
									"midpoints" : [  ]
								}

							}
, 							{
								"patchline" : 								{
									"source" : [ "obj-2", 0 ],
									"destination" : [ "obj-4", 0 ],
									"hidden" : 0,
									"midpoints" : [  ]
								}

							}
, 							{
								"patchline" : 								{
									"source" : [ "obj-4", 0 ],
									"destination" : [ "obj-5", 0 ],
									"hidden" : 0,
									"midpoints" : [  ]
								}

							}
, 							{
								"patchline" : 								{
									"source" : [ "obj-1", 0 ],
									"destination" : [ "obj-2", 0 ],
									"hidden" : 0,
									"midpoints" : [  ]
								}

							}
 ]
					}
,
					"saved_object_attributes" : 					{
						"fontface" : 0,
						"fontsize" : 10.0,
						"default_fontface" : 0,
						"default_fontname" : "Arial",
						"fontname" : "Arial",
						"globalpatchername" : "",
						"default_fontsize" : 10.0
					}

				}

			}
, 			{
				"box" : 				{
					"maxclass" : "button",
					"outlettype" : [ "bang" ],
					"patching_rect" : [ 173.0, 85.0, 20.0, 20.0 ],
					"id" : "obj-10",
					"numinlets" : 1,
					"numoutlets" : 1
				}

			}
, 			{
				"box" : 				{
					"maxclass" : "flonum",
					"outlettype" : [ "float", "bang" ],
					"fontsize" : 11.595187,
					"patching_rect" : [ 93.0, 81.0, 50.0, 20.0 ],
					"id" : "obj-9",
					"numinlets" : 1,
					"fontname" : "Arial",
					"numoutlets" : 2
				}

			}
, 			{
				"box" : 				{
					"maxclass" : "comment",
					"text" : "read MIDI file",
					"linecount" : 2,
					"frgb" : [ 0.0, 0.0, 0.0, 1.0 ],
					"fontsize" : 11.595187,
					"patching_rect" : [ 144.0, 90.0, 54.0, 33.0 ],
					"id" : "obj-8",
					"numinlets" : 1,
					"fontname" : "Arial",
					"numoutlets" : 0
				}

			}
, 			{
				"box" : 				{
					"maxclass" : "comment",
					"text" : "tempo factor",
					"linecount" : 2,
					"frgb" : [ 0.0, 0.0, 0.0, 1.0 ],
					"fontsize" : 11.595187,
					"patching_rect" : [ 102.0, 52.0, 44.0, 33.0 ],
					"id" : "obj-7",
					"numinlets" : 1,
					"fontname" : "Arial",
					"numoutlets" : 0
				}

			}
, 			{
				"box" : 				{
					"maxclass" : "newobj",
					"text" : "zmap 0 127 0.4 1.",
					"outlettype" : [ "" ],
					"fontsize" : 11.595187,
					"patching_rect" : [ 93.0, 34.0, 103.0, 20.0 ],
					"id" : "obj-6",
					"numinlets" : 5,
					"fontname" : "Arial",
					"numoutlets" : 1
				}

			}
, 			{
				"box" : 				{
					"maxclass" : "slider",
					"bgcolor" : [ 0.843137, 0.741176, 0.431373, 1.0 ],
					"outlettype" : [ "" ],
					"patching_rect" : [ 93.0, 7.0, 139.0, 22.0 ],
					"id" : "obj-5",
					"numinlets" : 1,
					"numoutlets" : 1
				}

			}
, 			{
				"box" : 				{
					"maxclass" : "newobj",
					"text" : "p sound",
					"fontsize" : 11.595187,
					"patching_rect" : [ 369.0, 185.0, 52.0, 20.0 ],
					"id" : "obj-4",
					"numinlets" : 0,
					"fontname" : "Arial",
					"numoutlets" : 0,
					"patcher" : 					{
						"fileversion" : 1,
						"rect" : [ 571.0, 298.0, 204.0, 102.0 ],
						"bglocked" : 0,
						"defrect" : [ 571.0, 298.0, 204.0, 102.0 ],
						"openrect" : [ 0.0, 0.0, 0.0, 0.0 ],
						"openinpresentation" : 0,
						"default_fontsize" : 10.0,
						"default_fontface" : 0,
						"default_fontname" : "Arial",
						"gridonopen" : 0,
						"gridsize" : [ 15.0, 15.0 ],
						"gridsnaponopen" : 0,
						"toolbarvisible" : 1,
						"boxanimatetime" : 200,
						"imprint" : 0,
						"enablehscroll" : 1,
						"enablevscroll" : 1,
						"devicewidth" : 0.0,
						"boxes" : [ 							{
								"box" : 								{
									"maxclass" : "newobj",
									"text" : "info~ drum",
									"outlettype" : [ "float", "list", "float", "float", "float", "float", "float", "" ],
									"fontsize" : 11.595187,
									"patching_rect" : [ 15.0, 65.0, 79.882355, 20.0 ],
									"id" : "obj-3",
									"numinlets" : 1,
									"fontname" : "Arial",
									"numoutlets" : 8
								}

							}
, 							{
								"box" : 								{
									"maxclass" : "newobj",
									"text" : "loadbang",
									"outlettype" : [ "bang" ],
									"fontsize" : 11.595187,
									"patching_rect" : [ 30.0, 40.0, 58.0, 20.0 ],
									"id" : "obj-2",
									"numinlets" : 1,
									"fontname" : "Arial",
									"numoutlets" : 1
								}

							}
, 							{
								"box" : 								{
									"maxclass" : "newobj",
									"text" : "buffer~ drum drumLoop.aif -1 2",
									"outlettype" : [ "float", "bang" ],
									"fontsize" : 11.595187,
									"patching_rect" : [ 16.0, 14.0, 171.0, 20.0 ],
									"id" : "obj-1",
									"numinlets" : 1,
									"fontname" : "Arial",
									"numoutlets" : 2
								}

							}
 ],
						"lines" : [ 							{
								"patchline" : 								{
									"source" : [ "obj-1", 1 ],
									"destination" : [ "obj-3", 0 ],
									"hidden" : 0,
									"midpoints" : [ 177.5, 37.0, 24.5, 37.0 ]
								}

							}
, 							{
								"patchline" : 								{
									"source" : [ "obj-2", 0 ],
									"destination" : [ "obj-3", 0 ],
									"hidden" : 0,
									"midpoints" : [  ]
								}

							}
 ]
					}
,
					"saved_object_attributes" : 					{
						"fontface" : 0,
						"fontsize" : 10.0,
						"default_fontface" : 0,
						"default_fontname" : "Arial",
						"fontname" : "Arial",
						"globalpatchername" : "",
						"default_fontsize" : 10.0
					}

				}

			}
, 			{
				"box" : 				{
					"maxclass" : "comment",
					"text" : "Analyze a sound with Propellerhead's Recycle™, save the midifile, and load it in this patch. By playing the sequence, the loop can be sped up without transposing, in stereo. You can reanalyze the sound using Recycle™, reload the MIDI file, and hear the results immediately, without having to export and reload samples into your sampler.",
					"linecount" : 7,
					"frgb" : [ 0.0, 0.0, 0.0, 1.0 ],
					"fontsize" : 11.595187,
					"patching_rect" : [ 210.0, 49.0, 265.0, 100.0 ],
					"id" : "obj-3",
					"numinlets" : 1,
					"fontname" : "Arial",
					"numoutlets" : 0
				}

			}
, 			{
				"box" : 				{
					"maxclass" : "comment",
					"text" : "- les",
					"frgb" : [ 0.0, 0.0, 0.0, 1.0 ],
					"fontsize" : 11.595187,
					"patching_rect" : [ 436.0, 27.0, 30.0, 20.0 ],
					"id" : "obj-2",
					"numinlets" : 1,
					"fontname" : "Arial",
					"numoutlets" : 0
				}

			}
, 			{
				"box" : 				{
					"maxclass" : "comment",
					"text" : "recycler",
					"frgb" : [ 0.0, 0.0, 0.0, 1.0 ],
					"fontsize" : 18.910435,
					"patching_rect" : [ 378.0, 0.0, 94.0, 33.0 ],
					"id" : "obj-1",
					"numinlets" : 1,
					"fontname" : "Arial Black",
					"numoutlets" : 0
				}

			}
 ],
		"lines" : [ 			{
				"patchline" : 				{
					"source" : [ "obj-22", 0 ],
					"destination" : [ "obj-20", 0 ],
					"hidden" : 0,
					"midpoints" : [ 230.5, 218.0, 22.5, 218.0 ]
				}

			}
, 			{
				"patchline" : 				{
					"source" : [ "obj-21", 0 ],
					"destination" : [ "obj-20", 0 ],
					"hidden" : 0,
					"midpoints" : [ 158.5, 218.0, 22.5, 218.0 ]
				}

			}
, 			{
				"patchline" : 				{
					"source" : [ "obj-19", 0 ],
					"destination" : [ "obj-20", 1 ],
					"hidden" : 0,
					"midpoints" : [  ]
				}

			}
, 			{
				"patchline" : 				{
					"source" : [ "obj-18", 0 ],
					"destination" : [ "obj-20", 0 ],
					"hidden" : 0,
					"midpoints" : [  ]
				}

			}
, 			{
				"patchline" : 				{
					"source" : [ "obj-17", 1 ],
					"destination" : [ "obj-19", 0 ],
					"hidden" : 0,
					"midpoints" : [  ]
				}

			}
, 			{
				"patchline" : 				{
					"source" : [ "obj-17", 0 ],
					"destination" : [ "obj-18", 0 ],
					"hidden" : 0,
					"midpoints" : [  ]
				}

			}
, 			{
				"patchline" : 				{
					"source" : [ "obj-11", 0 ],
					"destination" : [ "obj-17", 0 ],
					"hidden" : 0,
					"midpoints" : [  ]
				}

			}
, 			{
				"patchline" : 				{
					"source" : [ "obj-12", 0 ],
					"destination" : [ "obj-11", 0 ],
					"hidden" : 0,
					"midpoints" : [  ]
				}

			}
, 			{
				"patchline" : 				{
					"source" : [ "obj-9", 0 ],
					"destination" : [ "obj-11", 1 ],
					"hidden" : 0,
					"midpoints" : [  ]
				}

			}
, 			{
				"patchline" : 				{
					"source" : [ "obj-10", 0 ],
					"destination" : [ "obj-11", 2 ],
					"hidden" : 0,
					"midpoints" : [  ]
				}

			}
, 			{
				"patchline" : 				{
					"source" : [ "obj-6", 0 ],
					"destination" : [ "obj-9", 0 ],
					"hidden" : 0,
					"midpoints" : [  ]
				}

			}
, 			{
				"patchline" : 				{
					"source" : [ "obj-5", 0 ],
					"destination" : [ "obj-6", 0 ],
					"hidden" : 0,
					"midpoints" : [  ]
				}

			}
 ]
	}

}
