{
	"patcher" : 	{
		"fileversion" : 1,
		"appversion" : 		{
			"major" : 6,
			"minor" : 0,
			"revision" : 5
		}
,
		"rect" : [ 60.0, 44.0, 399.0, 404.0 ],
		"bgcolor" : [ 0.807843, 0.807843, 0.807843, 1.0 ],
		"bglocked" : 0,
		"openinpresentation" : 1,
		"default_fontsize" : 10.0,
		"default_fontface" : 0,
		"default_fontname" : "Arial",
		"gridonopen" : 0,
		"gridsize" : [ 5.0, 5.0 ],
		"gridsnaponopen" : 0,
		"statusbarvisible" : 2,
		"toolbarvisible" : 1,
		"boxanimatetime" : 1000,
		"imprint" : 0,
		"enablehscroll" : 1,
		"enablevscroll" : 1,
		"devicewidth" : 0.0,
		"description" : "",
		"digest" : "",
		"tags" : "",
		"boxes" : [ 			{
				"box" : 				{
					"fontname" : "Arial",
					"fontsize" : 13.0,
					"frgb" : [ 0.501961, 0.501961, 0.501961, 1.0 ],
					"id" : "obj-2",
					"linecount" : 16,
					"maxclass" : "comment",
					"numinlets" : 1,
					"numoutlets" : 0,
					"patching_rect" : [ 108.000008, 493.0, 57.0, 246.0 ],
					"presentation" : 1,
					"presentation_linecount" : 3,
					"presentation_rect" : [ 50.000008, 344.0, 242.0, 51.0 ],
					"text" : "This patch opens in Persentation Mode. Click Patching Mode button to see another view of the patch.",
					"textcolor" : [ 0.501961, 0.501961, 0.501961, 1.0 ]
				}

			}
, 			{
				"box" : 				{
					"fontname" : "Arial",
					"fontsize" : 13.0,
					"frgb" : [ 0.501961, 0.501961, 0.501961, 1.0 ],
					"id" : "obj-1",
					"linecount" : 4,
					"maxclass" : "comment",
					"numinlets" : 1,
					"numoutlets" : 0,
					"patching_rect" : [ 198.354111, 21.672749, 57.0, 66.0 ],
					"presentation" : 1,
					"presentation_rect" : [ 179.765213, 24.0, 186.0, 21.0 ],
					"text" : "Frequency Band Compression",
					"textcolor" : [ 0.501961, 0.501961, 0.501961, 1.0 ]
				}

			}
, 			{
				"box" : 				{
					"fontface" : 3,
					"fontname" : "Arial",
					"fontsize" : 12.0,
					"frgb" : [ 1.0, 1.0, 1.0, 1.0 ],
					"id" : "obj-63",
					"linecount" : 3,
					"maxclass" : "comment",
					"numinlets" : 1,
					"numoutlets" : 0,
					"patching_rect" : [ 375.0, 155.0, 293.0, 48.0 ],
					"text" : "The autopattr object inclues the crossover frequencies in the pattrstorage object, along with the parameters from each komp abstraction.",
					"textcolor" : [ 1.0, 1.0, 1.0, 1.0 ]
				}

			}
, 			{
				"box" : 				{
					"fontname" : "Arial Black",
					"fontsize" : 14.0,
					"frgb" : [ 1.0, 1.0, 1.0, 1.0 ],
					"id" : "obj-7",
					"maxclass" : "comment",
					"numinlets" : 1,
					"numoutlets" : 0,
					"patching_rect" : [ 300.0, 445.0, 26.0, 26.0 ],
					"presentation" : 1,
					"presentation_rect" : [ 330.0, 235.0, 26.0, 26.0 ],
					"text" : "Hi",
					"textcolor" : [ 1.0, 1.0, 1.0, 1.0 ]
				}

			}
, 			{
				"box" : 				{
					"fontname" : "Arial Black",
					"fontsize" : 14.0,
					"frgb" : [ 1.0, 1.0, 1.0, 1.0 ],
					"id" : "obj-6",
					"maxclass" : "comment",
					"numinlets" : 1,
					"numoutlets" : 0,
					"patching_rect" : [ 195.0, 445.0, 36.0, 26.0 ],
					"presentation" : 1,
					"presentation_rect" : [ 263.0, 235.0, 36.0, 26.0 ],
					"text" : "Mid",
					"textcolor" : [ 1.0, 1.0, 1.0, 1.0 ]
				}

			}
, 			{
				"box" : 				{
					"fontname" : "Arial Black",
					"fontsize" : 14.0,
					"frgb" : [ 1.0, 1.0, 1.0, 1.0 ],
					"id" : "obj-5",
					"maxclass" : "comment",
					"numinlets" : 1,
					"numoutlets" : 0,
					"patching_rect" : [ 45.0, 445.0, 27.0, 26.0 ],
					"presentation" : 1,
					"presentation_rect" : [ 200.0, 235.0, 27.0, 26.0 ],
					"text" : "Lo",
					"textcolor" : [ 1.0, 1.0, 1.0, 1.0 ]
				}

			}
, 			{
				"box" : 				{
					"fontface" : 3,
					"fontname" : "Arial",
					"fontsize" : 12.0,
					"frgb" : [ 1.0, 1.0, 1.0, 1.0 ],
					"id" : "obj-62",
					"linecount" : 4,
					"maxclass" : "comment",
					"numinlets" : 1,
					"numoutlets" : 0,
					"patching_rect" : [ 370.0, 415.0, 317.0, 62.0 ],
					"text" : "When komp is used in 3komp, it is seen in presentation mode (with vertical parameter arrangement). Otherwise, komp can be used with a more horizontal arragement, as in komp-help.maxpat.",
					"textcolor" : [ 1.0, 1.0, 1.0, 1.0 ]
				}

			}
, 			{
				"box" : 				{
					"color" : [ 0.858824, 0.858824, 0.858824, 1.0 ],
					"fontname" : "Arial",
					"fontsize" : 10.0,
					"id" : "obj-75",
					"maxclass" : "newobj",
					"numinlets" : 1,
					"numoutlets" : 1,
					"outlettype" : [ "" ],
					"patching_rect" : [ 428.0, 390.0, 171.0, 18.0 ],
					"text" : "loadmess thispatcher presentation 1"
				}

			}
, 			{
				"box" : 				{
					"fontname" : "Arial",
					"fontsize" : 10.0,
					"id" : "obj-74",
					"maxclass" : "newobj",
					"numinlets" : 1,
					"numoutlets" : 1,
					"outlettype" : [ "" ],
					"patching_rect" : [ 375.0, 98.0, 131.0, 18.0 ],
					"saved_object_attributes" : 					{
						"parameter_enable" : 0,
						"storage_rect" : [ 365, 44, 816, 172 ],
						"client_rect" : [ 4, 44, 358, 172 ]
					}
,
					"text" : "pattrstorage 3komp @flat 0",
					"varname" : "3komp"
				}

			}
, 			{
				"box" : 				{
					"fontname" : "Arial",
					"fontsize" : 10.0,
					"id" : "obj-40",
					"maxclass" : "newobj",
					"numinlets" : 1,
					"numoutlets" : 4,
					"outlettype" : [ "", "", "", "" ],
					"patching_rect" : [ 375.0, 120.0, 89.0, 18.0 ],
					"restore" : 					{
						"xoverFrequencyHi" : [ 0 ],
						"xoverFrequencyLo" : [ 0 ]
					}
,
					"text" : "autopattr",
					"varname" : "u202000243"
				}

			}
, 			{
				"box" : 				{
					"fontface" : 3,
					"fontname" : "Arial",
					"fontsize" : 12.0,
					"frgb" : [ 1.0, 1.0, 1.0, 1.0 ],
					"id" : "obj-79",
					"linecount" : 2,
					"maxclass" : "comment",
					"numinlets" : 1,
					"numoutlets" : 0,
					"patching_rect" : [ 315.0, 345.0, 375.994751, 34.0 ],
					"text" : "incoming audio is split into three frequency bands (by cross~). each band is compressed separately, then mixed back together.",
					"textcolor" : [ 1.0, 1.0, 1.0, 1.0 ]
				}

			}
, 			{
				"box" : 				{
					"fontname" : "Arial",
					"fontsize" : 11.595187,
					"id" : "obj-70",
					"maxclass" : "comment",
					"numinlets" : 1,
					"numoutlets" : 0,
					"patching_rect" : [ 62.999996, 492.0, 56.0, 20.0 ],
					"text" : "audio out"
				}

			}
, 			{
				"box" : 				{
					"fontname" : "Arial",
					"fontsize" : 11.595187,
					"id" : "obj-69",
					"maxclass" : "comment",
					"numinlets" : 1,
					"numoutlets" : 0,
					"patching_rect" : [ 15.0, 295.0, 49.0, 20.0 ],
					"text" : "audio in"
				}

			}
, 			{
				"box" : 				{
					"comment" : "audio out",
					"id" : "obj-68",
					"maxclass" : "outlet",
					"numinlets" : 1,
					"numoutlets" : 0,
					"patching_rect" : [ 30.0, 490.0, 25.0, 25.0 ]
				}

			}
, 			{
				"box" : 				{
					"comment" : "audio in",
					"id" : "obj-67",
					"maxclass" : "inlet",
					"numinlets" : 0,
					"numoutlets" : 1,
					"outlettype" : [ "" ],
					"patching_rect" : [ 30.0, 275.0, 25.0, 25.0 ]
				}

			}
, 			{
				"box" : 				{
					"color" : [ 0.858824, 0.858824, 0.858824, 1.0 ],
					"fontname" : "Arial",
					"fontsize" : 10.0,
					"id" : "obj-64",
					"maxclass" : "newobj",
					"numinlets" : 2,
					"numoutlets" : 2,
					"outlettype" : [ "signal", "signal" ],
					"patching_rect" : [ 180.0, 350.0, 123.026299, 18.0 ],
					"text" : "cross~ 2000"
				}

			}
, 			{
				"box" : 				{
					"fontname" : "Arial",
					"fontsize" : 10.0,
					"id" : "obj-65",
					"maxclass" : "newobj",
					"numinlets" : 3,
					"numoutlets" : 1,
					"outlettype" : [ "signal" ],
					"patching_rect" : [ 285.0, 320.0, 133.0, 18.0 ],
					"text" : "rampsmooth~ 44100 44100"
				}

			}
, 			{
				"box" : 				{
					"fontname" : "Arial",
					"fontsize" : 10.0,
					"id" : "obj-66",
					"maxclass" : "newobj",
					"numinlets" : 1,
					"numoutlets" : 1,
					"outlettype" : [ "signal" ],
					"patching_rect" : [ 285.0, 292.0, 29.0, 18.0 ],
					"text" : "sig~"
				}

			}
, 			{
				"box" : 				{
					"color" : [ 0.858824, 0.858824, 0.858824, 1.0 ],
					"fontname" : "Arial",
					"fontsize" : 10.0,
					"id" : "obj-60",
					"maxclass" : "newobj",
					"numinlets" : 2,
					"numoutlets" : 2,
					"outlettype" : [ "signal", "signal" ],
					"patching_rect" : [ 30.0, 350.0, 63.010517, 18.0 ],
					"text" : "cross~ 80"
				}

			}
, 			{
				"box" : 				{
					"fontname" : "Arial",
					"fontsize" : 10.0,
					"id" : "obj-59",
					"maxclass" : "newobj",
					"numinlets" : 3,
					"numoutlets" : 1,
					"outlettype" : [ "signal" ],
					"patching_rect" : [ 75.0, 320.0, 133.0, 18.0 ],
					"text" : "rampsmooth~ 44100 44100"
				}

			}
, 			{
				"box" : 				{
					"fontname" : "Arial",
					"fontsize" : 10.0,
					"id" : "obj-58",
					"maxclass" : "newobj",
					"numinlets" : 1,
					"numoutlets" : 1,
					"outlettype" : [ "signal" ],
					"patching_rect" : [ 75.0, 292.0, 29.0, 18.0 ],
					"text" : "sig~"
				}

			}
, 			{
				"box" : 				{
					"fontname" : "Arial",
					"fontsize" : 13.0,
					"frgb" : [ 0.501961, 0.501961, 0.501961, 1.0 ],
					"id" : "obj-56",
					"maxclass" : "comment",
					"numinlets" : 1,
					"numoutlets" : 0,
					"patching_rect" : [ 343.0, 262.0, 24.0, 21.0 ],
					"presentation" : 1,
					"presentation_rect" : [ 327.0, 270.0, 24.0, 21.0 ],
					"text" : "Hz",
					"textcolor" : [ 0.501961, 0.501961, 0.501961, 1.0 ]
				}

			}
, 			{
				"box" : 				{
					"fontname" : "Arial",
					"fontsize" : 13.0,
					"frgb" : [ 0.501961, 0.501961, 0.501961, 1.0 ],
					"id" : "obj-55",
					"maxclass" : "comment",
					"numinlets" : 1,
					"numoutlets" : 0,
					"patching_rect" : [ 134.0, 202.0, 26.0, 21.0 ],
					"presentation" : 1,
					"presentation_rect" : [ 141.0, 172.0, 26.0, 21.0 ],
					"text" : "dB",
					"textcolor" : [ 0.501961, 0.501961, 0.501961, 1.0 ]
				}

			}
, 			{
				"box" : 				{
					"fontname" : "Arial",
					"fontsize" : 13.0,
					"frgb" : [ 0.501961, 0.501961, 0.501961, 1.0 ],
					"id" : "obj-54",
					"maxclass" : "comment",
					"numinlets" : 1,
					"numoutlets" : 0,
					"patching_rect" : [ 134.0, 180.0, 40.0, 21.0 ],
					"presentation" : 1,
					"presentation_rect" : [ 141.0, 149.0, 45.0, 21.0 ],
					"text" : "samp",
					"textcolor" : [ 0.501961, 0.501961, 0.501961, 1.0 ]
				}

			}
, 			{
				"box" : 				{
					"fontname" : "Arial",
					"fontsize" : 13.0,
					"frgb" : [ 0.501961, 0.501961, 0.501961, 1.0 ],
					"id" : "obj-53",
					"maxclass" : "comment",
					"numinlets" : 1,
					"numoutlets" : 0,
					"patching_rect" : [ 134.0, 157.0, 26.0, 21.0 ],
					"presentation" : 1,
					"presentation_rect" : [ 141.0, 125.0, 26.0, 21.0 ],
					"text" : "ms",
					"textcolor" : [ 0.501961, 0.501961, 0.501961, 1.0 ]
				}

			}
, 			{
				"box" : 				{
					"fontname" : "Arial",
					"fontsize" : 13.0,
					"frgb" : [ 0.501961, 0.501961, 0.501961, 1.0 ],
					"id" : "obj-52",
					"maxclass" : "comment",
					"numinlets" : 1,
					"numoutlets" : 0,
					"patching_rect" : [ 134.0, 134.0, 29.0, 21.0 ],
					"presentation" : 1,
					"presentation_rect" : [ 141.0, 98.0, 29.0, 21.0 ],
					"text" : "ms",
					"textcolor" : [ 0.501961, 0.501961, 0.501961, 1.0 ]
				}

			}
, 			{
				"box" : 				{
					"fontname" : "Arial",
					"fontsize" : 13.0,
					"frgb" : [ 0.501961, 0.501961, 0.501961, 1.0 ],
					"id" : "obj-51",
					"maxclass" : "comment",
					"numinlets" : 1,
					"numoutlets" : 0,
					"patching_rect" : [ 134.0, 88.0, 26.0, 21.0 ],
					"presentation" : 1,
					"presentation_rect" : [ 141.0, 49.0, 26.0, 21.0 ],
					"text" : "dB",
					"textcolor" : [ 0.501961, 0.501961, 0.501961, 1.0 ]
				}

			}
, 			{
				"box" : 				{
					"id" : "obj-50",
					"maxclass" : "toggle",
					"numinlets" : 1,
					"numoutlets" : 1,
					"outlettype" : [ "int" ],
					"parameter_enable" : 0,
					"patching_rect" : [ 84.0, 226.0, 20.0, 20.0 ],
					"presentation" : 1,
					"presentation_rect" : [ 84.0, 226.0, 20.0, 20.0 ]
				}

			}
, 			{
				"box" : 				{
					"fontname" : "Arial",
					"fontsize" : 13.0,
					"frgb" : [ 0.501961, 0.501961, 0.501961, 1.0 ],
					"id" : "obj-47",
					"maxclass" : "comment",
					"numinlets" : 1,
					"numoutlets" : 0,
					"patching_rect" : [ 36.000008, 225.0, 50.0, 21.0 ],
					"presentation" : 1,
					"presentation_rect" : [ 36.000008, 225.0, 50.0, 21.0 ],
					"text" : "bypass",
					"textcolor" : [ 0.501961, 0.501961, 0.501961, 1.0 ]
				}

			}
, 			{
				"box" : 				{
					"fontname" : "Arial",
					"fontsize" : 13.0,
					"frgb" : [ 0.501961, 0.501961, 0.501961, 1.0 ],
					"id" : "obj-46",
					"maxclass" : "comment",
					"numinlets" : 1,
					"numoutlets" : 0,
					"patching_rect" : [ 31.000008, 202.0, 55.0, 21.0 ],
					"presentation" : 1,
					"presentation_rect" : [ 39.000008, 172.0, 55.0, 21.0 ],
					"text" : "makeup",
					"textcolor" : [ 0.501961, 0.501961, 0.501961, 1.0 ]
				}

			}
, 			{
				"box" : 				{
					"fontname" : "Arial",
					"fontsize" : 13.0,
					"frgb" : [ 0.501961, 0.501961, 0.501961, 1.0 ],
					"id" : "obj-45",
					"maxclass" : "comment",
					"numinlets" : 1,
					"numoutlets" : 0,
					"patching_rect" : [ 19.000004, 180.0, 69.0, 21.0 ],
					"presentation" : 1,
					"presentation_rect" : [ 25.000004, 149.0, 69.0, 21.0 ],
					"text" : "lookahead",
					"textcolor" : [ 0.501961, 0.501961, 0.501961, 1.0 ]
				}

			}
, 			{
				"box" : 				{
					"fontname" : "Arial",
					"fontsize" : 13.0,
					"frgb" : [ 0.501961, 0.501961, 0.501961, 1.0 ],
					"id" : "obj-44",
					"maxclass" : "comment",
					"numinlets" : 1,
					"numoutlets" : 0,
					"patching_rect" : [ 34.000008, 157.0, 51.0, 21.0 ],
					"presentation" : 1,
					"presentation_rect" : [ 42.000008, 124.0, 51.0, 21.0 ],
					"text" : "release",
					"textcolor" : [ 0.501961, 0.501961, 0.501961, 1.0 ]
				}

			}
, 			{
				"box" : 				{
					"fontname" : "Arial",
					"fontsize" : 13.0,
					"frgb" : [ 0.501961, 0.501961, 0.501961, 1.0 ],
					"id" : "obj-43",
					"maxclass" : "comment",
					"numinlets" : 1,
					"numoutlets" : 0,
					"patching_rect" : [ 42.000008, 134.0, 43.0, 21.0 ],
					"presentation" : 1,
					"presentation_rect" : [ 50.000008, 98.0, 43.0, 21.0 ],
					"text" : "attack",
					"textcolor" : [ 0.501961, 0.501961, 0.501961, 1.0 ]
				}

			}
, 			{
				"box" : 				{
					"fontname" : "Arial",
					"fontsize" : 13.0,
					"frgb" : [ 0.501961, 0.501961, 0.501961, 1.0 ],
					"id" : "obj-42",
					"maxclass" : "comment",
					"numinlets" : 1,
					"numoutlets" : 0,
					"patching_rect" : [ 49.000008, 110.0, 38.0, 21.0 ],
					"presentation" : 1,
					"presentation_rect" : [ 58.000008, 72.0, 38.0, 21.0 ],
					"text" : "ratio",
					"textcolor" : [ 0.501961, 0.501961, 0.501961, 1.0 ]
				}

			}
, 			{
				"box" : 				{
					"fontname" : "Arial",
					"fontsize" : 13.0,
					"frgb" : [ 0.501961, 0.501961, 0.501961, 1.0 ],
					"id" : "obj-41",
					"maxclass" : "comment",
					"numinlets" : 1,
					"numoutlets" : 0,
					"patching_rect" : [ 25.000004, 88.0, 62.0, 21.0 ],
					"presentation" : 1,
					"presentation_rect" : [ 31.000004, 49.0, 62.0, 21.0 ],
					"text" : "threshold",
					"textcolor" : [ 0.501961, 0.501961, 0.501961, 1.0 ]
				}

			}
, 			{
				"box" : 				{
					"fontname" : "Arial Black",
					"fontsize" : 13.0,
					"id" : "obj-33",
					"maxclass" : "number",
					"numinlets" : 1,
					"numoutlets" : 2,
					"outlettype" : [ "int", "bang" ],
					"parameter_enable" : 0,
					"patching_rect" : [ 285.0, 260.0, 55.0, 25.0 ],
					"presentation" : 1,
					"presentation_rect" : [ 267.0, 267.0, 55.0, 25.0 ],
					"textcolor" : [ 0.501961, 0.501961, 0.501961, 1.0 ],
					"triangle" : 0,
					"varname" : "xoverFrequencyHi"
				}

			}
, 			{
				"box" : 				{
					"fontname" : "Arial Black",
					"fontsize" : 13.0,
					"id" : "obj-32",
					"maxclass" : "number",
					"numinlets" : 1,
					"numoutlets" : 2,
					"outlettype" : [ "int", "bang" ],
					"parameter_enable" : 0,
					"patching_rect" : [ 75.0, 260.0, 51.0, 25.0 ],
					"presentation" : 1,
					"presentation_rect" : [ 207.0, 267.0, 51.0, 25.0 ],
					"textcolor" : [ 0.501961, 0.501961, 0.501961, 1.0 ],
					"triangle" : 0,
					"varname" : "xoverFrequencyLo"
				}

			}
, 			{
				"box" : 				{
					"fontname" : "Arial",
					"fontsize" : 12.0,
					"id" : "obj-13",
					"maxclass" : "flonum",
					"numinlets" : 1,
					"numoutlets" : 2,
					"outlettype" : [ "float", "bang" ],
					"parameter_enable" : 0,
					"patching_rect" : [ 84.0, 204.0, 50.0, 20.0 ],
					"presentation" : 1,
					"presentation_rect" : [ 91.0, 174.0, 50.0, 20.0 ]
				}

			}
, 			{
				"box" : 				{
					"fontname" : "Arial",
					"fontsize" : 12.0,
					"id" : "obj-12",
					"maxclass" : "flonum",
					"numinlets" : 1,
					"numoutlets" : 2,
					"outlettype" : [ "float", "bang" ],
					"parameter_enable" : 0,
					"patching_rect" : [ 84.0, 181.0, 50.0, 20.0 ],
					"presentation" : 1,
					"presentation_rect" : [ 91.0, 150.0, 50.0, 20.0 ]
				}

			}
, 			{
				"box" : 				{
					"fontname" : "Arial",
					"fontsize" : 12.0,
					"id" : "obj-11",
					"maxclass" : "flonum",
					"numinlets" : 1,
					"numoutlets" : 2,
					"outlettype" : [ "float", "bang" ],
					"parameter_enable" : 0,
					"patching_rect" : [ 84.0, 158.0, 50.0, 20.0 ],
					"presentation" : 1,
					"presentation_rect" : [ 91.0, 125.0, 50.0, 20.0 ]
				}

			}
, 			{
				"box" : 				{
					"fontname" : "Arial",
					"fontsize" : 12.0,
					"id" : "obj-10",
					"maxclass" : "flonum",
					"numinlets" : 1,
					"numoutlets" : 2,
					"outlettype" : [ "float", "bang" ],
					"parameter_enable" : 0,
					"patching_rect" : [ 84.0, 135.0, 50.0, 20.0 ],
					"presentation" : 1,
					"presentation_rect" : [ 91.0, 99.0, 50.0, 20.0 ]
				}

			}
, 			{
				"box" : 				{
					"fontname" : "Arial",
					"fontsize" : 12.0,
					"id" : "obj-9",
					"maxclass" : "flonum",
					"numinlets" : 1,
					"numoutlets" : 2,
					"outlettype" : [ "float", "bang" ],
					"parameter_enable" : 0,
					"patching_rect" : [ 84.0, 112.0, 50.0, 20.0 ],
					"presentation" : 1,
					"presentation_rect" : [ 91.0, 74.0, 50.0, 20.0 ]
				}

			}
, 			{
				"box" : 				{
					"fontname" : "Arial",
					"fontsize" : 12.0,
					"id" : "obj-8",
					"maxclass" : "flonum",
					"numinlets" : 1,
					"numoutlets" : 2,
					"outlettype" : [ "float", "bang" ],
					"parameter_enable" : 0,
					"patching_rect" : [ 84.0, 89.0, 50.0, 20.0 ],
					"presentation" : 1,
					"presentation_rect" : [ 91.0, 50.0, 50.0, 20.0 ]
				}

			}
, 			{
				"box" : 				{
					"fontname" : "Arial",
					"fontsize" : 13.0,
					"frgb" : [ 0.501961, 0.501961, 0.501961, 1.0 ],
					"id" : "obj-4",
					"maxclass" : "comment",
					"numinlets" : 1,
					"numoutlets" : 0,
					"patching_rect" : [ 380.0, 260.0, 142.0, 21.0 ],
					"presentation" : 1,
					"presentation_rect" : [ 190.0, 291.0, 136.0, 21.0 ],
					"text" : "crossover frequencies",
					"textcolor" : [ 0.501961, 0.501961, 0.501961, 1.0 ]
				}

			}
, 			{
				"box" : 				{
					"fontname" : "Arial",
					"fontsize" : 13.0,
					"frgb" : [ 0.501961, 0.501961, 0.501961, 1.0 ],
					"id" : "obj-3",
					"linecount" : 3,
					"maxclass" : "comment",
					"numinlets" : 1,
					"numoutlets" : 0,
					"patching_rect" : [ 66.0, 56.0, 57.0, 51.0 ],
					"presentation" : 1,
					"presentation_rect" : [ 43.000008, 24.0, 119.013428, 21.0 ],
					"text" : "Global Parameters",
					"textcolor" : [ 0.501961, 0.501961, 0.501961, 1.0 ]
				}

			}
, 			{
				"box" : 				{
					"bgmode" : 1,
					"id" : "obj-57",
					"maxclass" : "bpatcher",
					"name" : "komp.maxpat",
					"numinlets" : 10,
					"numoutlets" : 2,
					"offset" : [ -101.732056, -76.483307 ],
					"outlettype" : [ "signal", "signal" ],
					"patching_rect" : [ 285.0, 420.0, 65.530434, 28.22916 ],
					"presentation" : 1,
					"presentation_rect" : [ 305.0, 45.0, 65.530434, 213.344421 ],
					"varname" : "hi"
				}

			}
, 			{
				"box" : 				{
					"bgmode" : 1,
					"id" : "obj-77",
					"maxclass" : "bpatcher",
					"name" : "komp.maxpat",
					"numinlets" : 10,
					"numoutlets" : 2,
					"offset" : [ -102.124184, -76.41996 ],
					"outlettype" : [ "signal", "signal" ],
					"patching_rect" : [ 180.0, 420.0, 65.530434, 28.22916 ],
					"presentation" : 1,
					"presentation_rect" : [ 240.0, 45.0, 65.530434, 213.344421 ],
					"varname" : "mid"
				}

			}
, 			{
				"box" : 				{
					"bgmode" : 1,
					"id" : "obj-76",
					"maxclass" : "bpatcher",
					"name" : "komp.maxpat",
					"numinlets" : 10,
					"numoutlets" : 2,
					"offset" : [ -101.66996, -76.303932 ],
					"outlettype" : [ "signal", "signal" ],
					"patching_rect" : [ 30.0, 420.0, 66.281746, 28.985735 ],
					"presentation" : 1,
					"presentation_rect" : [ 175.0, 45.0, 66.281746, 213.34967 ],
					"varname" : "lo"
				}

			}
 ],
		"lines" : [ 			{
				"patchline" : 				{
					"color" : [ 0.211765, 0.282353, 0.45098, 0.337255 ],
					"destination" : [ "obj-57", 4 ],
					"disabled" : 0,
					"hidden" : 0,
					"source" : [ "obj-10", 0 ]
				}

			}
, 			{
				"patchline" : 				{
					"color" : [ 0.211765, 0.282353, 0.45098, 0.337255 ],
					"destination" : [ "obj-76", 4 ],
					"disabled" : 0,
					"hidden" : 0,
					"source" : [ "obj-10", 0 ]
				}

			}
, 			{
				"patchline" : 				{
					"color" : [ 0.211765, 0.282353, 0.45098, 0.337255 ],
					"destination" : [ "obj-77", 4 ],
					"disabled" : 0,
					"hidden" : 0,
					"source" : [ "obj-10", 0 ]
				}

			}
, 			{
				"patchline" : 				{
					"color" : [ 0.211765, 0.282353, 0.45098, 0.337255 ],
					"destination" : [ "obj-57", 5 ],
					"disabled" : 0,
					"hidden" : 0,
					"source" : [ "obj-11", 0 ]
				}

			}
, 			{
				"patchline" : 				{
					"color" : [ 0.211765, 0.282353, 0.45098, 0.337255 ],
					"destination" : [ "obj-76", 5 ],
					"disabled" : 0,
					"hidden" : 0,
					"source" : [ "obj-11", 0 ]
				}

			}
, 			{
				"patchline" : 				{
					"color" : [ 0.211765, 0.282353, 0.45098, 0.337255 ],
					"destination" : [ "obj-77", 5 ],
					"disabled" : 0,
					"hidden" : 0,
					"source" : [ "obj-11", 0 ]
				}

			}
, 			{
				"patchline" : 				{
					"color" : [ 0.211765, 0.282353, 0.45098, 0.337255 ],
					"destination" : [ "obj-57", 6 ],
					"disabled" : 0,
					"hidden" : 0,
					"source" : [ "obj-12", 0 ]
				}

			}
, 			{
				"patchline" : 				{
					"color" : [ 0.211765, 0.282353, 0.45098, 0.337255 ],
					"destination" : [ "obj-76", 6 ],
					"disabled" : 0,
					"hidden" : 0,
					"source" : [ "obj-12", 0 ]
				}

			}
, 			{
				"patchline" : 				{
					"color" : [ 0.211765, 0.282353, 0.45098, 0.337255 ],
					"destination" : [ "obj-77", 6 ],
					"disabled" : 0,
					"hidden" : 0,
					"source" : [ "obj-12", 0 ]
				}

			}
, 			{
				"patchline" : 				{
					"color" : [ 0.211765, 0.282353, 0.45098, 0.337255 ],
					"destination" : [ "obj-57", 7 ],
					"disabled" : 0,
					"hidden" : 0,
					"source" : [ "obj-13", 0 ]
				}

			}
, 			{
				"patchline" : 				{
					"color" : [ 0.211765, 0.282353, 0.45098, 0.337255 ],
					"destination" : [ "obj-76", 7 ],
					"disabled" : 0,
					"hidden" : 0,
					"source" : [ "obj-13", 0 ]
				}

			}
, 			{
				"patchline" : 				{
					"color" : [ 0.211765, 0.282353, 0.45098, 0.337255 ],
					"destination" : [ "obj-77", 7 ],
					"disabled" : 0,
					"hidden" : 0,
					"source" : [ "obj-13", 0 ]
				}

			}
, 			{
				"patchline" : 				{
					"destination" : [ "obj-58", 0 ],
					"disabled" : 0,
					"hidden" : 0,
					"source" : [ "obj-32", 0 ]
				}

			}
, 			{
				"patchline" : 				{
					"destination" : [ "obj-66", 0 ],
					"disabled" : 0,
					"hidden" : 0,
					"source" : [ "obj-33", 0 ]
				}

			}
, 			{
				"patchline" : 				{
					"color" : [ 0.211765, 0.282353, 0.45098, 0.337255 ],
					"destination" : [ "obj-57", 8 ],
					"disabled" : 0,
					"hidden" : 0,
					"source" : [ "obj-50", 0 ]
				}

			}
, 			{
				"patchline" : 				{
					"color" : [ 0.211765, 0.282353, 0.45098, 0.337255 ],
					"destination" : [ "obj-76", 8 ],
					"disabled" : 0,
					"hidden" : 0,
					"source" : [ "obj-50", 0 ]
				}

			}
, 			{
				"patchline" : 				{
					"color" : [ 0.211765, 0.282353, 0.45098, 0.337255 ],
					"destination" : [ "obj-77", 8 ],
					"disabled" : 0,
					"hidden" : 0,
					"source" : [ "obj-50", 0 ]
				}

			}
, 			{
				"patchline" : 				{
					"destination" : [ "obj-68", 0 ],
					"disabled" : 0,
					"hidden" : 0,
					"midpoints" : [ 294.5, 481.074341, 39.5, 481.074341 ],
					"source" : [ "obj-57", 0 ]
				}

			}
, 			{
				"patchline" : 				{
					"destination" : [ "obj-59", 0 ],
					"disabled" : 0,
					"hidden" : 0,
					"source" : [ "obj-58", 0 ]
				}

			}
, 			{
				"patchline" : 				{
					"destination" : [ "obj-60", 1 ],
					"disabled" : 0,
					"hidden" : 0,
					"source" : [ "obj-59", 0 ]
				}

			}
, 			{
				"patchline" : 				{
					"destination" : [ "obj-64", 0 ],
					"disabled" : 0,
					"hidden" : 0,
					"source" : [ "obj-60", 1 ]
				}

			}
, 			{
				"patchline" : 				{
					"destination" : [ "obj-76", 0 ],
					"disabled" : 0,
					"hidden" : 0,
					"source" : [ "obj-60", 0 ]
				}

			}
, 			{
				"patchline" : 				{
					"destination" : [ "obj-57", 0 ],
					"disabled" : 0,
					"hidden" : 0,
					"source" : [ "obj-64", 1 ]
				}

			}
, 			{
				"patchline" : 				{
					"destination" : [ "obj-77", 0 ],
					"disabled" : 0,
					"hidden" : 0,
					"source" : [ "obj-64", 0 ]
				}

			}
, 			{
				"patchline" : 				{
					"destination" : [ "obj-64", 1 ],
					"disabled" : 0,
					"hidden" : 0,
					"source" : [ "obj-65", 0 ]
				}

			}
, 			{
				"patchline" : 				{
					"destination" : [ "obj-65", 0 ],
					"disabled" : 0,
					"hidden" : 0,
					"source" : [ "obj-66", 0 ]
				}

			}
, 			{
				"patchline" : 				{
					"destination" : [ "obj-60", 0 ],
					"disabled" : 0,
					"hidden" : 0,
					"source" : [ "obj-67", 0 ]
				}

			}
, 			{
				"patchline" : 				{
					"destination" : [ "obj-57", 0 ],
					"disabled" : 0,
					"hidden" : 0,
					"midpoints" : [ 437.5, 413.974426, 294.5, 413.974426 ],
					"source" : [ "obj-75", 0 ]
				}

			}
, 			{
				"patchline" : 				{
					"destination" : [ "obj-76", 0 ],
					"disabled" : 0,
					"hidden" : 0,
					"midpoints" : [ 437.5, 413.974426, 39.5, 413.974426 ],
					"source" : [ "obj-75", 0 ]
				}

			}
, 			{
				"patchline" : 				{
					"destination" : [ "obj-77", 0 ],
					"disabled" : 0,
					"hidden" : 0,
					"midpoints" : [ 437.5, 413.223114, 189.5, 413.223114 ],
					"source" : [ "obj-75", 0 ]
				}

			}
, 			{
				"patchline" : 				{
					"destination" : [ "obj-68", 0 ],
					"disabled" : 0,
					"hidden" : 0,
					"source" : [ "obj-76", 0 ]
				}

			}
, 			{
				"patchline" : 				{
					"destination" : [ "obj-68", 0 ],
					"disabled" : 0,
					"hidden" : 0,
					"midpoints" : [ 189.5, 476.566467, 39.5, 476.566467 ],
					"source" : [ "obj-77", 0 ]
				}

			}
, 			{
				"patchline" : 				{
					"color" : [ 0.211765, 0.282353, 0.45098, 0.337255 ],
					"destination" : [ "obj-57", 2 ],
					"disabled" : 0,
					"hidden" : 0,
					"source" : [ "obj-8", 0 ]
				}

			}
, 			{
				"patchline" : 				{
					"color" : [ 0.211765, 0.282353, 0.45098, 0.337255 ],
					"destination" : [ "obj-76", 2 ],
					"disabled" : 0,
					"hidden" : 0,
					"source" : [ "obj-8", 0 ]
				}

			}
, 			{
				"patchline" : 				{
					"color" : [ 0.211765, 0.282353, 0.45098, 0.337255 ],
					"destination" : [ "obj-77", 2 ],
					"disabled" : 0,
					"hidden" : 0,
					"source" : [ "obj-8", 0 ]
				}

			}
, 			{
				"patchline" : 				{
					"color" : [ 0.211765, 0.282353, 0.45098, 0.337255 ],
					"destination" : [ "obj-57", 3 ],
					"disabled" : 0,
					"hidden" : 0,
					"source" : [ "obj-9", 0 ]
				}

			}
, 			{
				"patchline" : 				{
					"color" : [ 0.211765, 0.282353, 0.45098, 0.337255 ],
					"destination" : [ "obj-76", 3 ],
					"disabled" : 0,
					"hidden" : 0,
					"source" : [ "obj-9", 0 ]
				}

			}
, 			{
				"patchline" : 				{
					"color" : [ 0.211765, 0.282353, 0.45098, 0.337255 ],
					"destination" : [ "obj-77", 3 ],
					"disabled" : 0,
					"hidden" : 0,
					"source" : [ "obj-9", 0 ]
				}

			}
 ],
		"dependency_cache" : [ 			{
				"name" : "komp.maxpat",
				"bootpath" : "/Users/les/max/maxmsp-misc/max5-examples/effects/kompressor/lib",
				"patcherrelativepath" : "",
				"type" : "JSON",
				"implicit" : 1
			}
, 			{
				"name" : "komp-ballistics.maxpat",
				"bootpath" : "/Users/les/max/maxmsp-misc/max5-examples/effects/kompressor/lib",
				"patcherrelativepath" : "",
				"type" : "JSON",
				"implicit" : 1
			}
 ]
	}

}
